<?xml version="1.0" encoding="utf-8"?>
<!-- Generator: Adobe Illustrator 27.2.0, SVG Export Plug-In . SVG Version: 6.00 Build 0)  -->
<svg version="1.1" id="Layer_2" xmlns="http://www.w3.org/2000/svg" xmlns:xlink="http://www.w3.org/1999/xlink" x="0px" y="0px"
	 viewBox="0 0 60.8 25.4" style="enable-background:new 0 0 60.8 25.4;" xml:space="preserve">
<style type="text/css">
	.st0{fill:#603813;}
	.st1{fill:#29ABE2;}
</style>
<g id="Layer_1-2">
	<g>
		<path class="st0" d="M12,6.8l4.9-5.2c0,0,1.4-2.5,3.1-1.3s2.4,3.1,4.2,1.3s4.1-1.4,4.9-0.6S32.4,2.2,33,3s4.1-1.2,5.3-1
			s2.6,2.1,2.9,2.5s4.8-0.8,5.3-0.6s2.1,2.1,2.3,2.7S12,6.8,12,6.8L12,6.8z"/>
		<g>
			<path class="st1" d="M30.4,25.3c-7.9,0.1-17.9-0.1-30.4,0C-0.6,13.7,6.2,6.6,6.2,6.6s12.2,0.1,24.2,0.1L30.4,25.3L30.4,25.3z"/>
			<path class="st1" d="M30.4,25.3c7.9,0.1,17.9-0.1,30.4,0c0.6-11.7-6.2-18.7-6.2-18.7S42.1,6.7,30.1,6.7v18.6L30.4,25.3z"/>
		</g>
	</g>
</g>
</svg>
