<?xml version="1.0" encoding="UTF-8"?>
<svg id="Layer_2" data-name="Layer 2" xmlns="http://www.w3.org/2000/svg" viewBox="0 0 355.19 258.74">
  <defs>
    <style>
      .cls-1 {
        fill: #fff;
      }

      .cls-2 {
        fill: #eac9c4;
      }

      .cls-3 {
        fill: #a4ae57;
      }

      .cls-4 {
        fill: #231f20;
      }
    </style>
  </defs>
  <g id="Layer_2-2" data-name="Layer 2">
    <g>
      <g>
        <path class="cls-1" d="m1.27,62.67l.34-.71-1.04,1.29c-.21.33.02.24.7-.58Z"/>
        <path class="cls-1" d="m5.5,57.91c.29-.27.08.06.05.15.74-1.02,1.56-2.23.88-1.74-.66,1.07-.92,1.25-1.62,2.42-.68.83-1.27,1.37-1.21,1.18-.21.32-1.12,1.23-1.4,1.75,1.03-.95,2.19-2.28,3.29-3.76Z"/>
        <path class="cls-1" d="m14.58,46.82c-.23.28-.41.52-.57.75.19-.23.37-.45.56-.68,0-.02,0-.04.01-.06Z"/>
        <path class="cls-1" d="m7.27,88.11s.02-.02.03-.02c-.07-.1-.1-.13-.03.02Z"/>
        <path class="cls-1" d="m14.97,46.4c.19-.22.39-.45.58-.68-.27.31-.45.51-.58.68Z"/>
        <path class="cls-1" d="m24.55,141.19c-.22-.36-.33-.59-.41-.78.08.31-1.66-1.85.41.78Z"/>
        <path class="cls-1" d="m14.66,46.88c.04-.11.13-.25.31-.47-.14.17-.27.32-.4.48-.02.06,0,.08.09,0Z"/>
        <path class="cls-1" d="m202.42,158.76l.57,2.93c-.15-.82-.36-1.89-.57-2.93Z"/>
        <path class="cls-1" d="m42.63,236.89c.19.18.38.34.53.44l-.53-.44Z"/>
        <path class="cls-1" d="m204.74,170.37c.04.53.11,1.1.2,1.67.04.12.07.26.11.33l-.31-2Z"/>
        <path class="cls-1" d="m158.9,99.78c.06.07.13.14.19.22-.08-.09-.14-.16-.19-.22Z"/>
        <path class="cls-1" d="m207.29,183.79c.03.14.06.27.08.36-.02-.1-.05-.23-.08-.36Z"/>
        <path class="cls-1" d="m210.9,205.37c-.04-.62-.11-1.14-.19-1.66-.15-1.05-.32-2.08-.49-3.1-.35-2.05-.73-4.07-1.13-6.05.13.47.2.47.33,1.25-.15-1.71-1.11-6.22-1.24-6.22-.21-1.24.06-.31-.02-1.08-.22-1.7-.97-4.19-.99-5.11,0-.11.06.14.12.41-.31-1.41-.86-4.65-.83-3.67-.48-3-1.16-5.69-1.52-8.08-.49-1.51-.9-5.11-1.27-5.55.32.16-.81-5.26-1.33-7.11.21.61-.25-1.65.02-.94-.09-.52-.3-1.12-.45-1.62-.17-.5-.39-.9-.54-1.25-.31-.7-.58-1.01-.55-.82-1.55-3.86-4.37-6.91-5.28-9.04-3.79-5.32-7.51-10.06-11.12-14.66.36-.01,3.94,5.13,4.02,4.76-3.43-4.37-5.59-6.75-8.95-11.11-.85-1.14.6.56.93.91-3.53-4.28-6.68-8.39-9.93-12.1.03,0,.39.39.73.76-.63-.74-1.41-1.77-1.43-1.61l.63.71c.84,1.31-2.76-2.73-2.95-2.8,1.34,1.03-3.05-3.8-1.01-2.09-.43-.47-.99-1.05-.96-.88-.59-.74-.75-1.01-.05-.33-2.29-2.62-1.6-1.59-3.64-4,.05-.03.48.44.75.64-1.12-1.14-2.26-2.29-3.95-4.34.11.08.02-.09.29.22-2.9-3.34-5.21-5.57-8.39-9.32,1.19.93-1.07-1.33-1.08-1.69l-1.87-1.96.65.88c-1.61-1.75-3.11-3.18-4.6-4.65,0,0,.35.29.69.58l.66.6s-.76-.82-1.68-1.53c-.9-.69-1.84-1.29-1.84-1.29l1.01.76c.5.39.99.81.99.81-2.01-1.37.05.35-2.5-1.52.55.33-1.97-1.32-2.94-2.08h0c-1.03-.56-2.09-1.14-3.55-2.1-.35-.3.45-.03.22-.23-1.08-.45-4.76-2.85-6.12-3.42.44.21.53.12.4.01l-.91-.36c-.91-.61-1.04-.71-.83-.7-2.81-1.72.75.79-2.54-1.33.27.15.16.05.72.36-3.34-2.07-6.57-3.8-9.64-5.7-.8-.74,2.74,1.56,1.8.77-4.5-2.61-9.42-5.24-13.73-7.85l.79.5c-.77-.07-3.14-2.05-5.41-3.22.55.3.8.26.63.2-2.94-1.81-6.1-3.53-10.61-6.16l.6.26c-1.69-1.12-4.54-2.84-6.31-4.1-.6-.29-1.51-1.06-1.02-.5-.15-.13-.31-.29-.39-.4-.04-.1-.16-.35-.31-.55-.28-.38-.55-.68-.84-.99-.58-.61-1.18-1.17-1.78-1.72-1.21-1.09-2.45-2.1-3.67-3.08-2.46-1.95-4.88-3.79-7.12-5.8.57.44,1.39,1,.95.64l-2.05-1.54-2.06-1.52c.24.36.48.47,1.27,1.22-.57-.33-1.75-1.15-2.77-1.9,1.9,1.3.13-.2-.63-.85.11.13-.2-.03-.15.06-2.02-1.77-.52-.05-3.41-2.28l.2.05c-1.16-.73-2.25-1.37-3.56-2.05-.24-.21.1-.07.51.13.41.21.88.47.95.44-.44-.27-.91-.51-1.39-.72-.49-.22-1.03-.26-1.53-.31-1.01-.03-1.98.02-2.92-.02.88-.09,2.15-.09,3.05-.05-.51-.09-.92-.14-1.26-.19-.34-.01-.61-.02-.86-.03-.51-.02-.95.01-1.71.04h.07s-.05,0-.08,0c0,0,0,0,0,0,0,0-.47,0-.94.03-.47.03-.94.05-.94.05.3-.01.56-.02.81-.04-.17,0-.35.02-.53.03-.88.05-1.76.13-1.76.13l.9-.04c-2.54.69-5.24.69-8.65,1.5,3.31-.77.53-.24.76-.47-.89.08-2.24.24-1.86.12-1.61.41-2.74.32-5,.94-.11-.04-1.74.31-1.4.09-.18.04-.33.07-.47.09-.08.02-.15.03-.21.04-.05.03-.08.09-.12.13-.13.17-.2.26-.23.29-.05.08.09-.06.29-.27.07-.14.28-.09.43-.13.13-.02.26-.03.38-.04.19-.02.32-.02.28,0-.22.05-.45.1-.68.16l-.22.05c-.07.02-.1.11-.16.16l-.27.32c-.29.34-.59.69-.9,1.05-.64.71-1.32,1.47-2.03,2.25-1.43,1.57-2.96,3.29-4.4,5.18-2.37,2.92-2.86,3.76-4.78,6.15l-.74.86c-.47.4.71-1.12.71-1.12-1.42,1.51-2.42,2.7-3.64,4.22.22-.33-.08-.05-.52.35-1.01,1.2-.52.94-1.93,2.44.18-.31.39-.73.84-1.34-1.15,1.44-2.28,2.87-3.47,4.37-.41.31.63-.98,1.02-1.53-1.36,1.66-3.56,4.27-3.86,4.89l.71-.76c-.2.17-.06-.13.22-.49,1.1-1.48,1.78-1.97,1.89-2.01l-.86,1.06c1.18-.82,3.52-4.17,5.32-6.23l-.45.84L.88,63.52s0,.1.03.27c-.15-.17-.3-.46-.41-.3-.12.18-.18.95.05,3.13,0,0,.17.75.34,1.49.18.74.37,1.48.37,1.48l.06.99-.26-1.26c-.12-.63-.24-1.26-.24-1.26.12,1.46.43,2.34.72,3.33-.02.26.03.68.13,1.28,0,0,.23.72.49,1.42.25.71.52,1.41.52,1.41-.01.38-.59-1.23-.1.72.51,1.31-.12-1.36.59.84.32,1.43.06,1.06.72,2.65.01.25-.16-.07-.41-.71.27.72.64,1.66.96,2.52.36.85.67,1.61.9,1.94.41,1.48,2.26,4.66,1.93,4.62.13.19.47.75.84,1.42.33.69.72,1.48.96,2.12-.6-1.11-.13.08.34,1.51.46,1.43.89,3.12.63,2.84.18.43.38,1.05.58,1.79.17.75.38,1.6.52,2.52.33,1.82.55,3.85.79,5.49-.04-.18-.12-.54-.14-.83.16,1.85.09,2.4.12,3.59.26.22.48,3.12.69,4.68-.14,2.3-.35-1.38-.54-.65.19-.13.36,3.97.5,3.19-.06,1.76,0,1.52-.16,2.43.16.15.2.56.23,1.11.03.55.11,1.34.38,2.04.26,1.3.27,1.48.29,1.68.04.19.07.45.67,1.75.38,1.12-.38-.44-.58-.9.5,1.26.7,1.53.78,1.55.09.02.08-.23.27.02,1.57,3.07.54,1.51.98,2.61,1.08,1.87,2.12,3.15,2.98,4.49.03.12.19.39-.05.11,1.36,1.81,3.8,5.51,5.61,7.43.1.17.15.26.17.3-.17-.4-.11-.53,0-.51.79,1,1.58,1.77,1.77,2.23-.49-.61-.58-.62-.84-.88l.89,1c.59,1.07-1.21-1.37-1.33-1.28,1.67,2.01,3.77,4.22,5.04,5.76.1.47-3.11-3.5-1.51-1.35l-1.93-2.43c1.25,2.04-1.18-1.47-.07.44,2.57,3.17,3.02,3.43,5.72,6.48.71.59-.08-.34.63.25,2.06,2.03,2.78,2.91,3.37,3.67.6.75,1.05,1.37,2.73,2.7.93.62,1.38.74,3.7,2.73l-.97-.45c1.58,1.23,2.01,1.48,2.51,1.81.48.33.99.66,2.37,2.15-.56-.47-2.27-2.03-1.86-1.61,1.79,1.91,1.46,1.16,2.87,2.61l.13.45c2.79,3.01,5.6,6.66,7.74,10.72-.17-.2-.59-.86-.16.12.61,1.15,1.18,2.37,1.63,3.64.22.63.41,1.28.52,1.91.06.31.09.63.08.91,0,.15-.03.26-.05.36-.02.08-.05.11-.08.16-.08.08-.44.23-.79.29-.36.08-.77.11-1.17.15-.84.05-1.67.1-2.49.15-1.67.12-3.39.3-4.99,1.09,0,0-.53.33-.99.78-.22.23-.43.47-.56.67-.14.19-.22.33-.22.33-.34.48-.58.94-.35.33-.32.58-.39.91-.43,1.05-.04.15-.01.13.03.07.09-.12.23-.37.1.21-.24,1.37-.28,1.81-.3.93-.04.55.01,1.13.1,1.74.09.61.23,1.2.35,1.85.3,1.27.64,2.65,1.13,3.99.96,2.68,2.42,5.29,4.29,6.65,0,0-.2-.11-.38-.23-.18-.13-.35-.26-.35-.26,1.3,1.19,2.56,1.38,3.55,1.21l.37-.07.28-.06c.19-.06.39-.04.6-.05.41.04.88.2,1.26.68,0,0-.35-.3-.36-.28.56.39.89,1.13,1.1,1.91.21.79.3,1.64.32,2.5.08,1.72-.16,3.44-.26,5.19-.11,1.73-.11,3.4-.27,4.92-.06.76-.21,1.47-.38,2.12-.21.63-.47,1.19-.84,1.6-.07.2-.36.58-.86.92-.53.33-1.18.55-2.02.74-1.62.43-3.11.98-3.26,1.24-1.89.63-2.56.89-3.42,1.24-.43.18-.9.39-1.57.73-.67.36-1.56.82-2.73,1.74-.62.5-1.01.98-1.36,1.56-.33.58-.71,1.25-.79,2.36l-.19.05s.02.2.05.5c.07.29.17.67.36,1,.18.33.39.63.57.82.18.19.3.32.3.32,0,0,.21.29.44.6.21.26.42.53.42.53l1.32,1.11c-.51-.46-1.04-1.03-.92-1.01,1.03.86,2.24,1.98,3.25,2.85,1.01.88,1.82,1.5,1.81,1.57l.89.53c.55.3,1.29.68,2.08.97,1.57.62,3.24.8,3.24.8-.1.05-.57,0-1.12-.1.81.17.93.18,1.02.25.12.04.2.21,1.85.19-.44-.07.24-.1.31-.14.81.05,2.14.03,3.56-.23,1.44-.24,2.89-.61,4.18-.9l-.46.24c2.31-.5,4.76-1.08,7.23-1.94,2.45-.87,5.03-1.96,7.1-4-.76.7-1.13.85-1.11.77,0-.11.4-.45.95-1.06l.6-.35c.6-.89-1.19,1.26.1-.51.63-.84.78-1.18.82-1.09.02.04-.01.18-.08.38-.07.2-.22.43-.38.7,0,0,.09-.14.22-.35.15-.2.28-.51.41-.81.31-.6.43-1.25.43-1.25.1-.13-.04.47-.01.66.05-.28.16-.69.31-1.18.09-.48.22-1.02.29-1.59.18-1.14.18-2.33.07-3.06l.06-.14c-.03-1.34-.13-2.5-.07-3.39,0-.48.14-.78.23-.98.08-.04.09-.14.2-.16.06-.06.21-.08.35-.11.12-.05.33-.01.5-.02.17,0,.37.02.57.06l.6.1c.23.04.46.09.69.13.92.17,2,.29,3.09.26.05-.08.47-.13,1-.11.53.03,1.22.18,1.83.29,2.93,1.02,6.06,2.62,9.55,4.15,2.48,1.01.78.18,1.92.58.11.23,3.63,1.74,1.76,1.06,2.12.9,3.51,1.43,5.11,1.89,1.59.44,3.47.82,6.43.59-.64-.02-1.37-.06-1-.11,1.07-.03,2.43-.09,2.29,0l-.28.05c1.63-.2,3.41-.53,5.11-.74l.29-.03c.08,0,.1,0,.16,0,.1,0,.18.07.2.16.1.24.45.84.8,1.16.34.4.72.66,1.09.99.39.27.78.54,1.16.8,3.16,1.91,6.38,3.21,8.87,3.95l-.28-.09s1.28.44,2.58.82c.65.19,1.29.39,1.78.54.48.15.81.23.81.23,2.37.74-1.46-.31.27.31,5.65,1.42,8.91,2.45,13.71,2.92,1.82.48,5.15.79,8.65.62,3.5-.14,7.11-.82,9.6-1.3l-.31-.03c1.24-.45,1.55-.32,2.48-.6-.15-.03-1.39.31-.63.03,1.33-.41,2.64-.85,3.96-1.37,1.37-.55,2.59-1.27,3.79-2.04,2.4-1.53,4.66-3.27,6.88-5.05,4.43-3.58,8.67-7.43,12.69-11.34,2.91-2.9,1.25-2.04,5.01-5.6l-.86,1.21c1.38-1.55,2.77-3.12,4.17-4.69,1.38-1.6,2.77-3.18,4.02-4.98.15-.25.31-.46.45-.75.07-.16.15-.26.21-.46.03-.21.15-.49.1-.65ZM74.04,38.28c-.47-.39-.95-.78-1.44-1.18.14.04.55.3,1.48,1.02.02.07.04.16-.04.16Zm-48.36-3.76l.61-.48-1.46,1.69c.08-.16.3-.49.85-1.21Zm-9.59,11.1c.27-.25.51-.42.47-.29l-1.76,2.05,1.3-1.76Zm39.04,129.26c-.27-.5-.5-.92-.64-1.19.13.25.32.59.65,1.19h0Zm1.3,2.83c-.02-.2.13-.03.31.49-.14-.27.29.96.41,1.75-.15-.63-.4-1.42-.73-2.24Z"/>
        <path class="cls-1" d="m8.64,54.28l-.23.25c.05-.05.13-.12.23-.25Z"/>
        <path class="cls-1" d="m51.86,242.5c-.26-.06-.59-.13-1.02-.22.33.09.69.16,1.02.22Z"/>
        <path class="cls-1" d="m13.4,123.89s-.03-.08-.05-.13c0,0,.02.05.05.13Z"/>
        <path class="cls-1" d="m39.22,231.39s-.11.63-.08.63h.04s.04-.63.04-.63Z"/>
        <path class="cls-1" d="m62.79,29.02s.14.14.3.28c-.04-.05-.12-.13-.3-.28Z"/>
        <path class="cls-1" d="m40.84,25.45c-.12.05-.16.08-.19.1h.02s.17-.1.17-.1Z"/>
        <path class="cls-1" d="m171.22,114.26c.09.1.18.21.26.3.61.69.2.21-.26-.3Z"/>
        <path class="cls-1" d="m138.02,79.36c.45.25.89.49,1.35.77-.72-.48-1.28-.84-1.35-.77Z"/>
        <path class="cls-1" d="m202.36,158.44s0,0,0,0c.02.11.04.21.07.33l-.06-.32Z"/>
        <path class="cls-1" d="m139.37,80.13c.59.39,1.27.86,1.88,1.24-.69-.51-1.3-.9-1.88-1.24Z"/>
        <path class="cls-1" d="m8.29,54.12l.34-.43-.33.37s0,.03-.02.06Z"/>
        <path class="cls-1" d="m8.29,54.12l-.34.43c.16-.19.3-.36.34-.43Z"/>
        <path class="cls-1" d="m7.95,54.55c-.26.3-.58.67-.72.9l.72-.9Z"/>
        <path class="cls-1" d="m17.6,43.23l-.04.13c.35-.55,2.09-2.19,2.61-2.96-.65.73-1.71,1.77-2.57,2.83Z"/>
        <polygon class="cls-1" points="119.04 67.56 118.4 67.35 120.19 68.35 119.04 67.56"/>
        <path class="cls-1" d="m95.56,7.38s.26-.18.29-.15c0,0-.17-.05-.32-.02-.13.03-.23.08-.23.08-.01.07,0,.16.26.09Z"/>
        <path class="cls-1" d="m95.95,8.28c.11.15.29.35.48.23-.21-.17-.12-.22-.38-.38-.04-.14,0-.27.09-.27-.05-.03-.06-.31-.27-.32.08.32.05.48.22.73-.04.06-.1,0-.14,0Z"/>
        <path class="cls-1" d="m96.33,10.19s-.02-.09-.04-.13v.12s.04.01.04.01Z"/>
        <path class="cls-1" d="m87.54,14.62c.07,0,.13.01.19.03-.12-.06.1-.34-.19-.03Z"/>
        <path class="cls-1" d="m96.3,10.26v-.08s-.05-.02-.06,0c.04.02.06.04.06.08Z"/>
        <path class="cls-1" d="m93.98,37.18c-.1-.14-.17-.23-.23-.3.02.03.04.06.07.1l.16.2Z"/>
        <path class="cls-1" d="m75.71,28.91c.04.18.15.28.2.39.06.1.11.16.11.16-.05.01-.11-.05-.18-.12.19.28-.23.12.27.52-.03-.1.12-.04.15-.06.08.14.31.36.55.45.25.11.49.15.67.15l-.1.12c.67.15,1.25.11,1.82.3-.19-.12-.08-.33.1-.3v.22c.15-.08-.15-.14.13-.2.21.1.06.27-.08.29l.28.03c0,.06-.08.07-.12.14.16-.09.33.37.57.24v.06c.5.28.76.39,1.17.67.12-.13.24.03.45.02.27.28.46.69.8.99.3.19.18-.03.36.01-.1.13.26.47,0,.37.44.4.55.52,1.18.94-.01-.1-.06-.19.01-.19.12.07.17.26.11.3h-.04c.76.39,1.09,1.65,1.81,1.85h-.04s.63.32.63.32c.22.23-.22-.04-.11.19.74.29.86.8,1.45,1.06.06.67,1.32,1.05,1.64,1.68l.04-.11c.2.02.12.17.2.27.04-.08-.08-.19.04-.17.6.38,1.16.85,1.74,1.32.3.24.59.48.92.71.17.11.34.23.55.33.2.1.44.22.88.26.12,0,.23-.02.33-.04.09-.02.18-.05.31-.13.23-.15.36-.32.4-.46.06-.14.07-.27.07-.38,0-.1-.04-.13-.07-.2-.06-.13-.1-.24-.15-.34-.02-.06-.04-.12-.05-.21-.01-.06-.01-.13,0-.22l.26.12c-.29-.47-.45-.98-.62-1.49-.08-.26-.16-.51-.26-.76-.05-.12-.1-.25-.15-.37-.03-.08-.05-.1-.06-.11l-.05-.05c.06.02.12,0,.12.03.14-.04-.03-.1-.19-.21,0-.04.14.06.21.08.12.07-.3-.29-.09-.14.03.03.07.06.09.09-.11-.11,0-.05-.27-.32.05.02.02-.03-.02-.11-.04-.07-.1-.18,0-.07l.06.07c-.14-.21-.05-.12,0-.07.06.05.08.08-.05-.17.33.55.32.48.36.35.01.11.07.15.08.3.02.01.06-.03.08-.18.02.11.03.15.06.16.09.05.24.1.36.13.25.07.47.12.56.39.14.03.28.06.47.07.1,0,.2.01.37-.01.06,0,.17-.04.28-.09.1-.04.21-.12.31-.24.34-.48.18-.8.15-.93-.06-.18-.12-.27-.18-.39-.22-.34-.44-.66-.65-.98.26-.11.4.71.65.55-.43-.57-.83-.82-1.09-1.47-.05-.18.16.04.23.07-.43-.57-.6-1.22-1.01-1.71.02-.01.08.04.13.08-.06-.11-.09-.27-.2-.21l.09.09c-.08.26-.57-.26-.66-.24.42.02-.19-.6.37-.5-.06-.06-.16-.13-.23-.07-.03-.12,0-.18.14-.11-.26-.36-.31-.16-.48-.52.06-.03.11.04.2.04-.2-.13-.41-.29-.42-.44.04,0,.09-.02.11.02-.06-.11-.21-.23-.36-.41-.03-.04-.08-.09-.09-.14.01-.04.05-.05.09-.06.08-.02.19-.03.31-.03.11.24.2.05.34.25,0,0,.02-.02.04-.05.03-.02.18-.1.16-.1,0,0-.22-.04-.2-.05.35-.12.6-.48.82-.73.02,0-.1.31-.12.31,0,0,.15-.15.22-.35.09-.18.1-.4.11-.39.01.01-.21.4-.23.38.05-.41-.25-.08-.07-.5.02.09.03-.33.1-.53h0c-.09-.16-.24-.27-.26-.51.05-.09.26-.05.29-.11-.24-.06-.31-.62-.57-.72.07.04.18,0,.2-.03l-.19-.06c0-.15.01-.17.11-.19-.12-.4-.23.23-.28-.28.03.03.04,0,.09.07-.11-.49-.41-.87-.47-1.33.18-.2.17.36.32.16-.24-.6-.65-1.22-.72-1.85v.12c-.34-.02.06-.49-.13-.77.04.07.2.07.16.06,0-.42-.21-.84-.25-1.46l.07.09c.1-.24.13-.64.22-.91-.07-.1-.02-.25-.16-.18.64-.74.09-1.66.66-2.3-.02.09.02.23.04.16l.08-.65c-.15.01-.11.06-.25.17-.06-.1-.08-.3-.04-.45.02.31.22.06.34-.05-.05,0-.08-.04-.13-.05.34-.26-.27-.13.02-.53l.07.04c0-.18-.05-.36.02-.53.18-.03.03.2.16.25.06-.26-.17-.59.06-.77.01.12-.03.27-.01.39.26-.2.22-.24.3-.41v.02s.2-.4.2-.4l-.08.09c-.33-.44.11-.66-.03-1.17.13.49.13.11.3.2.08-.09.19-.23.23-.17-.08-.24.22-.29.11-.63.06,0,.08-.2.21-.1.05-.24-.12.01-.18-.03-.04-.41.62-.91.48-1.57,0-.51-.14-.67-.17-1.09,0-.03.01-.07.02-.1.11-.06.16.19.16.19.14-.24.16-.45.13-.71.04.06.1.01.18-.05.01-.2-.2-.17-.08-.42.06.05.16.13.22.23-.02-.25-.11-.5-.14-.75.11-.06.15.16.21.26-.01-.29-.04-.75-.21-.84l-.06.18c0-.1.15-.05.17.03.12.25-.08.35-.14.35l-.03-.18c-.37.15,0,.7-.08,1.06l-.19-.15c.19-1.37.19-2.59-.36-2.36l-.02.02c-.16-.23-.27-.51-.77-.27l-.15.4h-.19s.22-.25.22-.25c-.22.04-.22.2-.26.35-.07-.03-.15-.03-.22,0l-.07.47c-.11-.05-.04-.28-.26-.14-.03.22.3.06.15.33-.22.04-.26-.08-.33.16-.07-.03-.08-.1-.04-.18-.07.2-.33.39-.29.57-.25.02-.43.49-.61.29,0,.09-.09.39-.2.53,0-.46-.48.46-.67.15.04.38-.51.71-.7,1.12,0-.03,0-.1.04-.12-.19.15-.3.14-.45.21.15.19-.07.5-.1.75-.37.04-.08-.33-.31-.42.15.13-.22.5-.03.55-.26.06-.19.09-.41.03.19.24-.11.18-.11.45-.34.12-.26-.14-.45.18-.19.05-.04-.25-.04-.25-.26.25.04.28.08.43-.26.35-.26.02-.45.05-.15.23-.14.53-.29.67-.04-.02-.08,0-.08-.06-.07.33-.59.61-.66,1.01-.03,0-.05,0-.07,0,.12.04.21.12.26.18-.11.12-.11.32-.26.25.07-.07.04-.12.03-.18l-.07.17c-.26-.04.11-.22,0-.33-.18.29-.33.68-.55.82-.19-.11.37-.47,0-.36l.34-.22c-.45-.02.19-.15-.27-.21-.41.33-.33.49-.74.81,0,.16.15.09.16.26-.36.67-.79.04-.97.62,0,.2.16.42-.21.6l-.08-.26c-.37.34.05.44-.44.7,0-.13.22-.34.15-.3-.38.11-.07.27-.25.45l-.19-.11c-.35.4-.65.93-1.04,1.37-.02-.07,0-.18-.14-.13-.44.6-1.15,1.12-1.72,1.54l-.06.32s-.14.03-.12-.05c-.24.15.07.09.03.24-.1.12-.22.08-.19-.03-.23.46-.75,1.23-1.26,1.47l.03-.11c-.34.24-.05.59-.44.74l.03-.07c-.68.58-1.22,1.41-1.88,1.75.12.27-.67.61-.42.89-.47.29-.43.13-.97.67-.13.17.03.39-.07.62l-.17-.09s0,.41,0,.41l-.29.07s-.07.25-.06.26c.04-.11.17-.16.21-.13-.05.18-.15.42-.27.6-.1.2-.2.38-.25.38,0,0,0,.08,0,.19.02.13.07.31.12.47Zm17.66-9.87c.02-.08.03-.15.05-.23.06.03.09.1.09.25-.04,0-.1,0-.15-.03Zm2.16-6.82l-.17.05c.02-.09.05-.18.07-.27.04.03.07.09.1.22Zm.28-2.14l.12.3s-.12.06-.18.03c.02-.11.03-.22.05-.33Zm-12.07,8.75s-.06.07-.11.13h0c.05-.06.09-.1.12-.13Zm-.39.43c.06.02.09.09.04.14,0-.06-.15.04-.26.08.07-.06.14-.13.22-.21Z"/>
        <path class="cls-1" d="m75.85,29.33s-.07-.1-.14-.17c.05.06.09.12.14.17Z"/>
        <polygon class="cls-1" points="76.21 26.64 76.25 26.67 76.25 26.59 76.21 26.64"/>
        <path class="cls-1" d="m95.07,14.56s-.05-.04-.06-.05h0s.07.05.07.05Z"/>
        <path class="cls-1" d="m94.85,32.73s.02.03.03.04c.08.09.04.02-.03-.04Z"/>
        <path class="cls-1" d="m94.88,28.4c.05.07.09.14.12.21,0-.13-.02-.23-.12-.21Z"/>
        <polygon class="cls-1" points="94.15 37.29 94.15 37.29 94.14 37.29 94.15 37.29"/>
        <path class="cls-1" d="m95.01,28.61c0,.12-.03.26-.01.38.05-.14.04-.27.01-.38Z"/>
        <path class="cls-1" d="m96.48,8.92s-.02,0-.03,0l.02.08v-.07Z"/>
        <path class="cls-1" d="m96.44,8.84c0-.05.01-.12-.04-.16l.04.16Z"/>
        <path class="cls-1" d="m96.1,11.28c.04-.12.2-.29.19-.47l-.05-.03c.08.1-.22.36-.14.5Z"/>
        <polygon class="cls-1" points="94.11 25.81 94.15 25.61 93.99 25.58 94.11 25.81"/>
        <path class="cls-1" d="m6.45,24.12s-.03-.06-.05-.06c.02.04.03.07.05.06Z"/>
        <path class="cls-1" d="m6.19,18.81c.07,0,.03-.08.03-.16l-.03.16Z"/>
        <path class="cls-1" d="m5.53,16.28v-.04s-.06-.02-.1-.02l.1.07Z"/>
        <polygon class="cls-1" points="5.14 9.17 5.16 9.19 5.25 9.15 5.14 9.17"/>
        <path class="cls-1" d="m5.68,26.48h0s-.01-.03,0,0Z"/>
        <path class="cls-1" d="m10.59,34.62c-.28-.05.27-.34-.12-.36.08.05-.24.37.12.36Z"/>
        <path class="cls-1" d="m7.13,29.88s-.07.03-.05.05c.01,0,.02,0,.04,0-.03,0-.04-.01.02-.04Z"/>
        <polygon class="cls-1" points="6.45 30.57 6.49 30.58 6.52 30.54 6.45 30.57"/>
        <path class="cls-1" d="m4.75,32.84c-.25,0-.19-.06-.33.02.12.08.25-.09.52.03-.03.08.05.22-.09.33,0,0-.25-.15-.25-.15-.14.19.33.21.43.3l-.11.05c.52.21.7,0,1.16.18l-.02-.08c.3-.16.14.19.41.08v.25c.15-.02.53-.1.78-.09-.18.15-.49.16-.69.22.13.04.46.1.56,0-.06,0-.14.05-.19,0,.21-.15.45-.19.71-.12-.15.46.67.27.79.67.26-.04.49.02.74.09.12.04.25.08.39.11.07.02.14.03.23.04.11.01.23,0,.35-.01-.36-.34.27-.04.11-.42.14-.07.2-.08.22-.07,0,0,0,0,0,0h0s.53-.02.52-.03c.15.03-.08.15-.02.22.31-.17.22.06.47,0-.12-.08-.02-.23.16-.3l-.32.02c.23-.43.51,0,.7-.43l-.02.18c.12-.2.57-.52.51-.88.06,0,.16.05.11.13.37-.28.57-.92.94-.9l.02.09c.04-.05.03-.21.14-.16.01.04.01.1.04.09.02-.03.07-.21.19-.17,0,0-.06.12-.05.12.03,0,.08,0,.12,0,.71-.07.85-.67.95-1.14.13.06.26-.04.37-.23.1-.16.15-.32.18-.43h.04c.09-.67-.22-1.07-.37-1.59.27-.37-.02-1.13.03-1.68-.03.09-.21.03-.26-.06.03-.13-.26-.29,0-.33v.04c.23-.14.11-.38.07-.57l-.33.04c.35-.62-.5-1.26-.16-1.64-.11-.1-.15-.25-.27-.34l.17-.04c-.06-.34-.08-.52-.26-.91l.15.04c-.06-.24-.58-.13-.66-.34l.23-.15c-.13-.39-.07-.88-.47-1.2.04,0,.11-.03.15.03-.07-.2-.17-.79-.46-.57.21-.1-.17-.41-.36-.56l.17-.05c-.29-.07-.34-.04-.52-.25,0-.07.1-.11.1-.02-.02-.23-.22-.07-.26-.33l.14.03c-.09-.2-.13-.15-.3-.2-.13-.08-.16-.38-.04-.48-.1.02-.27-.02-.29-.15.04-.04.1-.02.13-.01-.07-.37-.44-.37-.41-.66.05-.03.06-.06.07-.09.14.25.24.45.22.44.14-.08.05-.29.33-.24-.2-.1-.58-.24-.63-.48,0-.02.02-.03.03-.05h.03s-.05-.07-.09-.1c-.01-.08-.02-.12-.05-.19.1-.09-.07-.27-.12-.37-.15.1-.2-.05-.25.15,0-.02.03,0,.07.07.01.01.03.03.04.03h-.02c.04.06.09.15.15.24-.12-.03-.23-.08-.21-.24-.13,0-.26.01-.33,0,.13-.26.09-.59.2-.7-.26-.25-.48-.67-.88-.69-.09-.06.02-.15.05-.2.06.03.09.09.15.09-.18-.13-.33-.48-.55-.4-.04-.27.25,0,.04-.26h.08c-.04-.77-1.07-.62-1.07-1.5,0,.06,0,.09-.02.12-.28-.83-1.1-1.38-1.28-2.26-.07-.24-.21-.18-.38-.24l.13-.15-.32-.09c-.33-.21.06-.77-.44-.98l-.08.12c-.07-.15-.34-.39-.2-.44-.03,0-.14.03-.12-.06l.08-.06-.36-.24c-.11-.29.35-.18.13-.56-.13-.13-.48-.21-.51-.14.03.05.02.14-.04.2,0,0-.01,0-.02,0,.01,0,.01,0,.02,0,0,0,0,.02-.01.02l-.04-.04s.02,0,.04,0c-.01,0-.03-.01-.05-.02l-.07-.05s-.03.01-.05.02c0,0-.01-.02-.01-.02-.02-.03-.03-.01-.04.03,0,0,0,0-.01.01,0,0,0,0,.01,0,0,0,0,0,0,0,0,0-.01,0-.02,0,0,0,0,0,.01,0,0,0-.02.01-.03.02-.02,0-.04.02-.06.02h0l-.04.02c-.06.03-.12.06-.16.09,0,0-.01.01-.02,0,0,0,.01,0,.02,0-.1.08-.17.2-.14.42l.29.12-.07.15-.13-.18c-.04.18.1.18.21.21-.05.06-.08.12-.07.18l.27.04s0,.05,0,.07c-.07.02-.14.03-.11.15.06,0,.09-.02.12-.05.01.13.03.27.05.41h-.05s.05.04.05.04c0,.07.02.15.03.23-.04,0-.07-.02-.09-.06-.11.18.11.14-.02.3-.02.02-.03.01-.05,0l.1.15c-.06-.03-.18.05-.15-.06-.11.31.25.45.07.58l-.02-.02c.11.3.16.16.29.18,0,.06.02.13.03.19l-.3.18h.19c0,.06,0,.14-.08.14.15.14.08-.04.21.04-.14.23.16.54-.13.63.15.05.08-.21.21,0-.31.11.09.24-.03.45-.18-.03-.11-.22-.23-.01.3.07,0,.37.07.52.07,0,.1.02.13.07-.07-.01-.11-.04-.13-.07-.03,0-.07.02-.12.04,0,.04.17.03.25.03.06.11.05.33.13.5-.08,0-.04.51-.08.77h-.04c.23,0,.24.26.32.44-.14.02-.2,0-.27-.09l.03.17c.08.03.13.07.17.18h-.18c.05.22.29.41.24.72.11-.01.25-.15.38-.15.01.05.02.1.03.15-.05,0-.11,0-.13-.04.02.02.09.08.07.14l-.17-.09c-.03.15.13.04.14.15-.12.02-.07.1-.17.1-.02-.02.03-.1-.03-.13,0,.12-.04.28-.12.35.07-.03.16-.04.2.05.06.22-.13.11-.16.26.1.04.04.2.22.16.02.07-.07.1-.11.14.11.1.15.53.31.36v-.03s.02.02.02.02c.27.33.07.8.21,1.16h-.06c.11.22.11.5.26.65,0,.07-.1.17-.17.15.06.17.13.18.05.43-.12-.17-.09.06-.09-.17-.04.22-.14.27.04.51-.16-.08-.2.17-.15.27l.11-.15c.02.12,0,.22,0,.33l-.21-.06c-.26.43.38.83-.06,1.19.14.14.12-.26.28-.14-.04.22-.34.46-.34.54-.11.34.32.33.26.61.07-.04.27-.1.35.13-.02.22-.3.26-.36.14,0-.05.01-.07.04-.07-.03-.06-.07-.15-.14-.06l.08.02c-.07.1-.06.38-.18.31.07.15.12.06.16-.05-.1.26,0,.4-.1.66.04-.04.13-.07.13-.03-.13.38.13.19.13.46-.13.14-.26-.09-.21.19-.1.15-.2,0-.25-.07.11.26-.17.41-.23.53l-.03-.13c.02.08,0,.13-.01.19l.16-.03c-.04.06-.06.12-.12.1.07.1.25,0,.34.19-.1.07-.01.32-.21.28.16-.27-.2-.03-.15-.28.01.05,0,.11-.06.17-.02,0-.04-.02-.04-.04-.26.2.17.2.06.47-.09-.08-.22-.02-.22.03.05-.1.19.02.22.16-.16.14-.04.21-.09.3l.09-.08c.08.08.02.17-.02.31-.08-.03.01-.14-.04-.11.05.11-.04.16-.14.21-.11.07-.24.15-.25.33-.13.12-.2-.07-.3.06,0,.26-.07.41-.05.68-.02.22.19.62.56.73-.07-.12-.1-.18-.06-.19.04,0,.17.05.34.02,0,0-.05-.01-.12-.03-.08-.02-.21-.08-.32-.17-.28-.24-.31-.6-.31-.6,0,0,.06.22.21.37.16.17.32.2.32.2-.26-.13-.45-.62-.37-.72.04.13.07.19.1.2.03.01.03-.04.1-.09-.12.16,0,.42.19.49.17.08.31.06.42.16l-.08.36c.55.24.54-.16.75-.07l-.03-.06c.11-.15.15-.03.27-.1-.12.13-.12.17-.18.25.1-.1.08,0,.44-.26,0,0-.14.18-.15.18,0,.11.69-.15.54.11-.2.01-.37.12-.49.08-.01.04-.07.08.07.05-.12.04.18.09-.02.15.06.01.24.02.17.09-.04,0-.08,0-.08,0,.09,0,.02.11.24.07-.33.08-.4.17-.5.29-.08.09-.25.27-.46.22-.15.18-.33.35-.52.48,0-.04-.03-.05.01-.06-.37.07.07.39-.37.47-.37-.05.13-.18-.06-.18-.17-.14-.32-.06-.47.05-.16.11-.22.23-.49.26l.03-.05c-.38.09-.24.34-.43.56,0,0-.03-.02-.06,0,.06.09.06.27.19.43.12.15.28.24.43.32Zm6.57-15.17c.06.05.04.09.02.12-.02-.03-.05-.06-.08-.1h-.02s.06-.02.09-.02Zm-6.1-6.2s.02,0,.03-.02c0,.02,0,.05,0,.07-.01-.02-.02-.03-.04-.06Z"/>
        <path class="cls-1" d="m11.05,17.67s-.02,0-.03-.02c0,.02,0,.04-.01.06h.06s-.02-.04-.02-.04Z"/>
        <path class="cls-1" d="m6.23,18.59s0-.02.02-.03c0,0-.01,0-.02.02h0Z"/>
        <path class="cls-1" d="m5.01,12.91c-.15.4.14-.1.17.29v-.3c-.05.06-.13.14-.17,0Z"/>
        <path class="cls-1" d="m5.08,14.14c.08.09.1.11.14-.01-.06-.15-.1.02-.14.01Z"/>
        <path class="cls-1" d="m6.27,20.59c.03.11.06,0,.16,0h-.16Z"/>
        <polygon class="cls-1" points="6.11 22.51 6.09 22.46 6.14 22.67 6.11 22.51"/>
        <path class="cls-1" d="m6.55,30.28l.15.13c.03-.08-.1-.25-.15-.13Z"/>
        <path class="cls-1" d="m6.26,33.84c-.12-.05-.19-.15-.29-.16.05.12.16.22.29.16Z"/>
        <polygon class="cls-1" points="14.94 26.1 14.85 25.93 14.86 26.01 14.94 26.1"/>
      </g>
      <g>
        <path class="cls-4" d="m.18,61.45c-.05-.16-.1-.31-.14-.43-.03-.12-.04-.2-.04-.2,0,0,0,.18.06.44.05.26.11.61.17.96.12.69.25,1.39.25,1.39.19.62.2.25-.09-1.53,0,0-.1-.31-.2-.62Z"/>
        <path class="cls-4" d="m1.02,51.41c.23-.63.1,0,.1.16.41-2.07,1.13-4.42.48-3.19-.29,1.02-.39,1.67-.56,2.33-.17.65-.26,1.35-.37,2.47-.28,1.77-.47,3.11-.53,2.8.02.64-.19,2.81.07,3.78,0-2.35.17-5.31.81-8.35Z"/>
        <path class="cls-4" d="m12.68,30.5c-.4.47-.71.88-.99,1.25.31-.4.62-.78.95-1.16,0-.03.02-.05.04-.09Z"/>
        <path class="cls-4" d="m38.8,44.37s-.02-.01-.02-.02c-.17.14-.22.18.02.02Z"/>
        <path class="cls-4" d="m13.35,29.8c.34-.37.71-.73,1.06-1.09-.48.48-.82.81-1.06,1.09Z"/>
        <path class="cls-4" d="m93,75.83c-.2.17-.46.35-.6.49-.14.13-.16.15.11-.05.26-.15.86-.72,1.9-.94-.51.05-.89.17-1.17.28.11-.03-.03.08-.24.23Z"/>
        <path class="cls-4" d="m12.77,30.55c.09-.17.25-.39.58-.75-.25.27-.48.53-.71.79-.04.09-.04.12.12-.04Z"/>
        <path class="cls-4" d="m255.06,184.36c.25,0,.5,0,.75,0-.45,0-.75,0-.75,0Z"/>
        <path class="cls-4" d="m259.54,184.4c.18,0,.37.01.54.02,0,0-.21,0-.54-.02Z"/>
        <path class="cls-4" d="m257.58,184.37c.75,0,1.49.02,1.97.03-1.11-.04-2.4-.05-3.73-.05.48,0,1.12,0,1.77.01Z"/>
        <path class="cls-4" d="m144.22,221.01c.43-.1.83-.2,1.11-.29l-1.11.29Z"/>
        <path class="cls-4" d="m278.3,185.45l-3.38-.3c.89.12,1.83.22,2.8.31.21,0,.44,0,.58,0Z"/>
        <path class="cls-4" d="m269.1,230.3s.02-.01.01-.02c-.17-.02-.33-.03-.5-.05l.49.07Z"/>
        <path class="cls-4" d="m94.96,74.97c-.06,0-.1,0-.1,0,.04,0,.06,0,.1,0Z"/>
        <path class="cls-4" d="m355.14,225.85c-.16-.65-.27-1.35-.57-1.93l-.72-1.61c-.39-.96-.59-1.94-.43-2.89.27-1.4.85-2.35,1.08-3.29.27-.95.14-1.81-.21-2.51-.42-.64-.94-1.25-1.85-1.87-.89-.7-2.25-1.31-3.94-2.5,0,0,.13.07.33.18.19.11.45.25.73.37.54.25,1.08.5,1.08.5-1.47-.78-2.94-1.65-4.04-2.78-.56-.56-.97-1.21-1.35-1.95-.38-.75-.8-1.62-1.38-2.38-1.14-1.56-2.74-2.62-4.2-3.59-1.45-.94-2.84-1.97-4.23-3.04-1.4-1.06-2.78-2.19-4.4-3.08-1.6-.9-3.42-1.5-5.23-1.69-.89-.12-1.83-.12-2.68-.15-.82-.01-1.66-.08-2.49-.18-1.67-.21-3.33-.49-4.98-.83.79.12.83.07,2.11.31-1.39-.31-3.95-.88-6.17-1.38-1.12-.23-2.15-.45-2.91-.61-.76-.15-1.25-.23-1.27-.2-2.05-.49-.45-.22-1.71-.57-2.78-.74-7.12-1.28-8.63-1.63-.16-.04.22,0,.65.06-1.09-.15-2.77-.39-4.18-.49-1.74-.16-3.05-.1-2.13,0-5.08-.13-9.67-.28-13.72-.65-2.64.01-8.67-.67-9.53-.43.19-.13-2.03-.32-4.71-.43-2.68-.13-5.82-.11-7.43-.05,1.08-.1-2.81-.05-1.54-.18-3.69.05-7.08.45-6.42.52-3.32.16-6.64.08-9.59-.32-2.95-.39-5.51-1.04-7.29-1.73-2.64-.63-5.3-1.38-8.11-1.28-.69-.01-1.39.13-2.07.23-.68.13-1.33.34-1.96.56-1.26.45-2.45,1-3.6,1.55-1.15.54-2.28,1.09-3.42,1.46-1.13.37-2.3.52-3.19.02-.9-.49-1.5-1.54-1.91-2.63-.4-1.11-.67-2.28-.85-3.48.09.07.21.78.46,1.74.25.95.59,2.21,1.24,3.17.62,1,1.55,1.44,2.34,1.39.78,0,1.29-.23,1.18-.26-1.02.25-1.9.2-2.55-.25-.67-.43-1.15-1.24-1.51-2.06-.72-1.67-.98-3.49-1.29-5.26-.54-3.58-.85-7.21-1.14-11.8-.13-2.38.22,1.34.33,2.14-.78-9.23-1.2-17.93-2.87-26.08.06.74-.32-.72-.76-2.47-.45-1.65-1.01-3.55-1.23-4.11.44.89-.1-.95-.6-2.64-.63-1.74-1.19-3.3-.17-1.31-.41-1.02-.98-2.24-.97-1.97-.6-1.46-.73-1.95-.03-.51-1.15-2.66-1.52-3.52-1.86-4.32-.34-.8-.66-1.53-1.54-4.02.07,0,.44.99.69,1.48-1.02-2.47-1.99-4.97-3.35-9.22.1.2.04-.11.26.52-1.15-3.42-2.21-6.38-3.39-9.38-.63-1.57-1.29-3.15-2.09-4.78-.41-.82-.85-1.65-1.39-2.48-.55-.81-1.17-1.68-2.16-2.29.62.3.71.41.61.27-.07-.06-.17-.19-.37-.31-.18-.11-.39-.25-.63-.4-.43-.25-.9-.59-1.08-.94-.13-.16-.16-.34-.19-.47-.04-.12-.01-.24,0-.28.01,0-.06-.19-.03-.57,0-.36.09-.91.16-1.49.06-.59.1-1.22.01-1.69-.04-.48-.15-.78-.15-.78,0,0,.03.12.07.31.01.19.03.44.04.7,0,.5-.07.98-.07.98.11-1.04-.09-2.16-.6-3.04-.21-.47-.56-.83-.85-1.22-.35-.33-.66-.69-1.02-.98-.71-.55-1.4-1.1-2.08-1.64-.32-.28-.6-.59-.9-.88-.28-.3-.52-.65-.78-.97,0,0,.12.13.29.34.18.2.39.48.66.71.26.24.52.48.71.66.21.16.36.27.36.27,0,0-.37-.26-.83-.75-.24-.23-.52-.5-.77-.84-.13-.16-.27-.33-.41-.5-.12-.18-.24-.37-.37-.55-.5-.74-.87-1.57-1.14-2.19-.26-.64-.43-1.06-.43-1.06,0,0,.34.99.75,1.93.42.93.98,1.78.98,1.78-.57-.79-.79-1.2-.93-1.38-.13-.18-.16-.16-.19-.17-.06-.03-.23-.17-1.14-2.65.19.5-.11-.44-.7-1.71-.29-.64-.72-1.32-1.19-1.92-.26-.28-.51-.55-.74-.81-.26-.22-.49-.43-.69-.6-1.66-1.19-3.74-1.5-6.24-2.99-.63-.43.65.07.25-.22-.89-.35-2.88-1.51-4.82-2.87-1.95-1.35-3.91-2.83-4.97-3.45.69.44.8.37.59.19l-1.42-.82c-1.48-1.09-1.71-1.24-1.4-1.17-2.35-1.51-2.05-1.15-1.79-.97.12.1.21.19-.08.04-.3-.14-.95-.57-2.45-1.27.49.19.26.08,1.25.52-1.48-.8-3.05-1.3-4.54-1.83-1.51-.53-3.01-1.02-4.5-1.47-2.99-.9-5.95-1.63-8.93-2.24-.86-.28.45-.06,1.72.2,1.27.26,2.5.56,1.52.22-4.28-.98-8.81-1.56-13.31-1.66-4.51-.1-8.95.51-13.13.43l.78.02c.39,0,.78,0,.78,0-.57.17-2.16.19-4.07-.1-1.74-.28-3.78-.97-5.1-2.35.17.15.32.25.42.29.15.08.18.06.07,0-.12-.11-.26-.22-.38-.33l-.31-.4c-.21-.26-.42-.52-.64-.85-.42-.62-.87-1.22-1.36-1.82-.97-1.2-2.09-2.33-3.23-3.52-1.14-1.19-2.22-2.52-3.01-4.19-.82-1.65-1.32-3.61-1.81-5.73l.31,1.04c-.7-3.31-1.54-8.8-1.93-12.44-.22-1.07-.44-3.16-.42-1.88-.06-.83-.11-1.66-.17-2.47l.57-.58.66-.7c.43-.47.86-.94,1.29-1.41.84-.95,1.66-1.91,2.43-2.89.39-.49.76-.99,1.11-1.51.4-.6.93-1.43.97-2.03.01-.15.03-.32-.05-.47-.07-.16-.25-.26-.4-.26-.15-.03-.31,0-.47,0l-.54.16c-.7.2-1.43.56-1.93.79-2.19,1.04-4.27,2.18-6.38,3.22-1.94.94-3.91,1.88-5.93,2.42,1.01-.32,2-.82,1.25-.51,0,0-.12.05-.34.13-.21.08-.52.2-.89.31-.73.26-1.74.41-2.8.52-2.11.21-4.25.26-4.25.26.68.12,1.12.07,2.92.08-1.07.16-3.49.31-5.61.31,3.85-.13-.04-.21-1.69-.32.28.05-.29.09-.15.14-4.46-.36-.76.33-6.85-.1l.33-.06c-2.28-.06-4.39-.17-6.85-.3-1.01-.22,2.44.05,2.6-.06-3.47-.24-6.85.03-9.98-.22,1.47,0,3.59.02,5.06.03-3.36-.29-3.8-.24-6.23-.33-.07,0-.16,0-.27-.01l-2.97-.16c.53.04.99.06,1.42.09-.31-.01-.64-.03-.97-.05-1.46-.09-2.92-.18-2.92-.18l1.48.13c-2.17.12-4.37,0-6.75-.28-1.19-.14-2.42-.31-3.7-.52-1.29-.21-2.63-.44-4.02-.9,1.35.43,2.11.52,2.46.58.35.05.31.02.11-.04-.4-.11-1.41-.4-1.18-.45-1.4-.43-3.39-1.44-2.79-1.23-2.52-1.02-3.97-2.18-7.29-4.17-.11-.14-2.39-1.71-1.79-1.47-2.9-2.08.61.59.33.47-1.32-.87-2.7-1.92-4.18-3.07-.74-.57-1.51-1.17-2.32-1.75-.21-.14-.41-.29-.63-.43-.24-.15-.39-.26-.75-.45-.33-.15-.67-.3-1-.26-.39,0-.52.38-.68.67l-.24.74c-.06.19-.12.39-.17.58-.1.39-.19.79-.26,1.2-.13.82-.2,1.66-.19,2.5.03,1.69.33,3.4.83,5.05.96,3.34,2.1,5.16,3.25,6.75,1,1.4,2.12,2.63,3.72,4.52.37.45.72.89,1.03,1.3.24.37-.03.09-.41-.33-.47-.53-1.12-1.26-1.12-1.26,1.04,1.36,2.09,2.54,2.57,3.85.1.33.13.65.03.94-.1.28-.31.64-.49.95-.37.63-.88,1.18-1.46,1.77.43-.5-.09-.07-.83.62-.9.98-1.13,1.36-1.44,1.81-.31.45-.7.97-1.78,2.33.31-.51.67-1.19,1.41-2.23-1.87,2.49-3.63,4.97-5.34,7.7-.56.65.92-1.71,1.54-2.67-1.04,1.48-2.31,3.46-3.27,5.25-.49.89-.9,1.74-1.2,2.43-.32.68-.5,1.23-.57,1.5,0,0,.23-.53.5-1.04.1-.18.19-.36.27-.52-.23.38-.08-.15.24-.85.66-1.4,1.24-2.37,1.67-2.98.42-.62.68-.92.76-.97,0,0-.3.48-.59.98l-.58.99c1.43-1.88,4.99-7.68,8.05-11.15l-.54.81c-.11.18-.23.36-.32.51-.44.53-.92,1.14-1.49,1.9-3.72,4.95-12.69,15.98-10.02,29.59-.08.04-.08.05,0,.03.01.08.03.15.04.23h0s0,0,0,0c0,.02,0,.03,0,.05,0,0,.16-.05.45-.14-.26.22-.71.49-.44.53.3.04,1.55-.18,5.01-1.39,0,0,1.18-.5,2.33-1.04,1.16-.54,2.3-1.12,2.3-1.12,0,0,.39-.15.77-.3.39-.14.77-.31.77-.31,0,0-.96.49-1.94.95-.98.46-1.97.87-1.97.87,2.3-.84,3.65-1.63,5.14-2.54.4-.13,1.06-.45,1.95-.98,0,0,1.04-.81,1.97-1.57.96-.76,1.97-1.48,1.97-1.48.56-.22-1.74,1.36,1.08-.33,1.91-1.29-2.04.91,1.21-1.11,2.16-1.07,1.59-.64,4.04-2.08.39-.12-.12.2-1.1.76,2.17-1.27,5.91-3.14,6.99-3.9,1.16-.52,3.04-1.54,4.6-2.45,1.56-.9,2.78-1.73,2.76-1.54.32-.25,1.23-.94,2.23-1.86,1-.91,2.04-2.11,2.66-3.16-.55.97-.52.99-.14.48.39-.5,1.05-1.61,1.47-2.91.61-2.45,2.46-4.59,2.26-4.08.33-.53.82-1.2,1.48-1.93.33-.36.7-.75,1.11-1.13.17-.15.34-.31.51-.47.05-.05.12-.11.18-.15.1.14.2.29.31.43.25.38.51.76.77,1.14.51.78,1.03,1.57,1.55,2.36,1.01,1.59,2.01,3.15,2.88,4.52-.18-.25-.53-.75-.77-1.18,1.58,2.69,1.95,3.53,2.85,5.3.19.11.87,1.21,1.49,2.65.63,1.44,1.21,3.21,1.63,4.46.8,3.76-.91-2.16-.8-.94.07-.12.57,1.46,1.03,2.93.45,1.47.97,2.81.83,2.15.41,1.44.68,2.05.86,2.49.17.44.27.71.61,1.46.13.08.3.27.52.53.22.26.46.62.81.97.32.38.73.76,1.2,1.13.46.37.96.69,1.5,1.01,3.47,2.51.77.86,4.73,3.33.89.65.47.42-.19.04-.65-.39-1.54-.92-1.54-.92,3.96,2.59,1.98,1.03,2.89,1.47,2.35,1.55,2.76,2.05,2.88,2.2.1.17-.15.05.51.71,1.3,1.09,2.33,2.16,2.96,3.3.33.57.49,1.12.71,1.84.21.67.43,1.31.65,1.95.03.2.21.7-.06.14.38.89.85,1.99,1.54,3.16.34.58.74,1.18,1.26,1.74.53.54,1.16,1.13,2.12,1.33.24.02.49.02.73.02.23-.04.46-.12.69-.19.23-.07.39-.22.58-.33.2-.11.35-.25.49-.4l.43-.44.33-.4c.22-.26.45-.52.66-.77.88-1,1.77-1.88,2.58-2.5.26-.16.41-.2.48-.23-.62.22-.77.23-.7.07.42-.31.86-.53,1.27-.71.43-.14.84-.23,1.21-.15.75.1,1.17.67,1.32,1-.16-.27-.36-.39-.48-.53-.15-.1-.27-.16-.37-.22-.19-.05-.33-.09-.52-.1.16.02.48.08.76.3.4.28.69.72.69.72.23.43.29.56.13.37-.06-.08-.16-.2-.28-.36-.1-.15-.23-.32-.39-.46-.6-.71-1.69-.48-1.66-.38.44-.1.86-.08,1.23.13.4.2.67.58,1.01,1.05.35.58,1.16,1.01,1.85.93.68-.05,1.23-.28,1.75-.47.52-.19,1.02-.38,1.44-.37.4,0,.66.28.83.71.32.85.33,1.82.32,2.62-.06.17-.07-.22-.12-.83-.05-.59-.15-1.45-.43-1.95-.26-.49-.64-.41-.78-.39-.07.02-.02.01.11.03.13.03.27.03.42.21-.05-.05-.12-.11-.24-.15-.23-.08-.81.05-1.41.27-.6.21-1.28.43-1.89.44-.3,0-.57-.04-.76-.11-.04-.01-.06-.02-.09-.03.51.23.9.2,1.09.21.24,0,.3-.01.28,0-.05.02-.54.14-1.13.02-.61-.12-1.08-.58-1.16-.66-.05-.04-.03,0,.11.19.16.16.5.52,1.2.67.65.09,1.14-.04,1.55-.15.42-.12.76-.25,1.07-.35.62-.23,1.09-.27,1.13-.2.07,0,.28.33.37.73.1.4.15.83.18,1.28.07,1.77-.09,3.57-1.29,6.66-.45,1.43.35-.4-.1,1.04-.88,2.21-1.65,3.7-2.26,4.82-.61,1.11-1.07,1.85-1.49,2.52-.83,1.35-1.56,2.39-2.98,5.68-.34.86-.49,1.5-.85,2.49-.17.5-.36,1.1-.65,1.86-.25.77-.56,1.72-.95,2.93,0,0,.06-.43.13-.85.07-.43.14-.86.14-.86-1.92,6.28-.82,3.66-3.01,10.22.25-1.22,1.48-4.97,1.15-4.03-1.53,4.21-.85,3.05-1.77,6.38l-.38.65c-.41,1.73-.74,3.54-.86,5.43-.11,1.88,0,3.86.63,5.76l.55,1.39.59,1.29c.39.86.77,1.74,1.12,2.62.71,1.77,1.34,3.58,1.73,5.44-.15-.4-.5-1.64-.18.09.51,2.31.62,4.8.31,7.26-.16,1.18-.59,2.33-1.17,3.42-.58,1.1-1.32,2.11-2.06,3.24-.18.29-.36.58-.52.92-.15.34-.33.73-.29,1.32.02.56.44,1.06.84,1.3.19.13.39.21.54.28.06.04.13.06.19.14.27.23.49.79.64,1.33.15.56.25,1.16.33,1.76.15,1.22.23,2.45.35,3.69.06.62.13,1.24.24,1.87.13.64.24,1.27.63,1.98,0,0,.04.07.12.18.07.11.24.29.46.47.25.18.59.35.97.36.19,0,.39,0,.55-.05.18-.04.34-.09.47-.16.29-.13.5-.29.71-.43.16-.11.31-.21.43-.3.12-.09.23-.16.3-.21.08-.05.12-.06.12-.06.68-.32,1.31-.37.57-.12.38-.12.67-.18.88-.23.22-.02.36-.03.45-.05.18-.03.15-.04.07-.06-.16-.02-.55-.07.22-.15.92,0,1.45.34,1.62.46.18.13.04.1-.46-.1.62.21,1.26.63,1.75,1.28.52.64.8,1.55.97,2.52.29,1.98-.16,4.21-.87,6.41-.68,2.21-1.55,4.36-2.51,6.3-.96,1.94-2.02,3.65-2.97,5.06l.65-1.15c-.7,1.12-1.26,1.99-1.7,2.79-.45.8-.75,1.55-.98,2.24-.47,1.41-.9,2.75-1.61,5.16l.21-.94c-.4,1.41-.74,2.86-.89,4.38-.07.76-.11,1.53-.02,2.33.1.78.3,1.66.98,2.34.16.18.37.3.57.43l.56.24c.28.12.55.28.79.5.5.42.91.99,1.29,1.58.75,1.2,1.33,2.53,2.12,3.81.41.62.85,1.29,1.65,1.74.4.22.91.3,1.36.22.45-.08.83-.27,1.17-.48.29-.18.5-.3.63-.31.16-.03.31.07.37.21.06.11.18.46.25.75.08.32.16.64.23.96.17.65.37,1.32.71,1.95.34.63.83,1.2,1.44,1.59,1.24.78,2.63.82,3.78.73.88-.23,3.66-.67,6.39-1.04,2.71-.4,5.27-.56,5.62-.7.79.02,1.47.12,1.88.31.32.14.35.39.26.61-.24.65-.68,1.2-1.09,1.86l-.16.26c-.05.09-.11.18-.19.36-.14.31-.27.66-.24,1.02.02.36.23.73.59.96.17.12.39.2.62.26.12.03.24.05.36.08.09,0,.19.02.28.03,1.42.1,3.03-.13,5.35-.54,2.46-.47,3.59-.99,6.58-1.7l.12.17,4.02-1.13,2.21-.28,2.79-.71c-1.12.26-2.39.48-2.24.38,2.18-.56,4.85-1.16,7-1.62,1.07-.22,2.01-.41,2.69-.55.68-.13,1.1-.2,1.13-.18,0,0,2.58-.66,5.15-1.31l5.16-1.28c-.21.13-1.94.55-3.3.92,5.48-1.45,1.05-.06,6.07-1.34-.68.09.34-.19.45-.25,1.25-.18,3.33-.58,5.48-.26,1.06.17,2.12.53,2.94,1.18.82.65,1.41,1.55,1.79,2.47,0,0-.09-.17-.2-.33-.12-.15-.23-.3-.23-.3.82,1.52,1.01,3.55,1.31,5.57.27,2.04.47,4.14.87,6.31.23,1.09.42,2.18,1.04,3.34.16.29.38.59.7.87.31.29.85.49,1.32.46.96-.07,1.52-.62,1.93-.96.86-.72,1.66-1.54,2.45-2.17.78-.63,1.66-1.07,2.67-1.41-1.42.47-1.88.75-1.85.63.06-.1.68-.58,1.88-.97l1.02-.1c1.55-.55-2.57.64.63-.4,1.59-.37,2.15-.4,2.07-.33-.08.08-.79.3-1.69.54,0,0,.95-.25,1.93-.45.97-.22,1.95-.4,1.95-.4.24.02-.68.21-.9.33.8-.22,2.49-.45,4.31-.71,1.83-.25,3.74-.64,4.89-1.02h.24c2.18-.52,4.02-1.07,5.67-1.46,1.65-.39,3.14-.62,4.6-.75,2.93-.22,5.71-.17,9.29.07.15-.17,2.94.07,5.09.17,5.25.62,11.04,1.62,17.35,2.59,4.45.6,1.32.05,3.33.26.3.22,6.63,1.12,3.33.76.96.13,1.82.24,2.63.35.41.05.8.09,1.18.13.19.02.38.04.57.05.26.02.52.04.78.06.61.04,1.21.04,1.63-.08.2-.06.37-.13.5-.23.13-.09.28-.21.32-.43.02-.17-.03-.27-.07-.38-.05-.12-.11-.25-.22-.41l-.24-.3c-.1-.1-.26-.22-.39-.33-.02-.01-.04-.03-.05-.05.28-.05.61-.07.95-.07.68,0,1.43.05,2.24.17.8.12,1.67.29,2.61.55.93.26,1.94.61,2.9,1.18-.79-.57-1.88-.98-1.3-.82.39.16.81.35,1.17.57.31.2.81.53,1.2.64.65.22,1.11.31,1.16.35,2.68.34,5.43.21,8.25.28.75.01,1.49.03,2.24.08.37.02.74.05,1.1.1.18.02.36.05.53.08.14.03.21.04.28.06.12.04.29.1.29.25-.02.14-.15.23-.24.31l-.3.21-.45.28c-.31.18-.63.36-.95.53-2.61,1.34-5.34,2.41-7.85,3.44-2.74,1.19-4.59,3.17-5.93,4.96l.3-.4s-1.49,1.81-2.45,3.97c-.48,1.07-.83,2.23-.89,3.18-.04.47,0,.88.06,1.17.07.29.13.46.13.46.21.63.6.96.81,1.16.24.16.35.23.35.24,0,0-.1-.04-.25-.13-.16-.07-.34-.25-.53-.43-.36-.39-.53-.92-.59-1.06-.03-.08-.04-.06-.01.09.03.15.09.47.4.92.53.74,1.42,1.01,2.07,1.07.25.04.5.08.75.13.22.08.47.13.67.22.85.35,1.46,1.06,2.22,1.82.74.76,1.67,1.4,2.62,1.78.95.41,1.9.59,2.83.75,1.87.27,3.68.22,5.42.29,1.77.07,3.58.25,5.54.51,1.49.35,3.56.82,6,1.31,2.44.49,5.31.9,8.27.83,5.77-.34,11.8-.69,15.99-.94l-.49-.06c2.15-.32,2.62-.21,4.22-.41-.24-.04-2.36.22-1.02-.01,2.28-.32,4.59-.74,6.87-1.43,1.13-.38,2.27-.78,3.35-1.41.56-.31,1.05-.63,1.53-.95l1.46-.96c3.9-2.57,7.93-5.29,11.14-8.99.78-.94,1.55-1.9,2.19-2.94.34-.54.64-.96.96-1.44.35-.44.69-.9,1.08-1.32,1.52-1.72,3.33-3.23,5.03-5,.84-.89,1.68-1.84,2.29-3.03.62-1.17.94-2.6.76-3.99ZM90.23,9.58c-.89.43-1.83.91-2.8,1.39.17-.15.88-.56,2.63-1.48.12,0,.24,0,.17.08ZM6.79,7.08s0-.57.08-1.28c.02,1.07.14,2.3.44,3.71,0,0,0,0,0,0-.09-.28-.31-.92-.52-2.42Zm6.81,23.11c.38-.45.78-.88,1.08-1.21.3-.33.48-.55.48-.55.35-.34.63-.66.67-.64,0,0,0,.03,0,.07-.71,1.03-1.43,1.47-3.06,3.37.24-.31.53-.67.84-1.03Zm78.03,110.21c-.04-.21-.09-.41-.13-.6.04.19.09.38.14.6h0Zm-.56-2.18c.04.12.08.26.12.42-.04-.15-.09-.29-.12-.42Zm.13.43c.08.28.18.63.29,1.08-.1-.41-.2-.77-.29-1.08Zm.91,6.9c.07-.32.13.03.07.96-.02-.5-.12,1.68-.64,2.91.37-1.02.51-2.38.56-3.86Z"/>
        <path class="cls-4" d="m3.63,44.41c.06-.1.15-.26.27-.51,0,0-.12.22-.27.51Z"/>
        <path class="cls-4" d="m97.44,77.24c-.06-.03-.12-.05-.19-.08,0,0,.07.04.19.08Z"/>
        <polygon class="cls-4" points="202.28 141.97 202.28 141.98 202.28 141.98 202.28 141.97"/>
        <path class="cls-4" d="m201.9,140.15l.35,1.56c.01.11.02.19.03.26.04.03.22.9.38,1.72-.24-1.62-.69-3.75-.76-3.55Z"/>
        <path class="cls-4" d="m192.74,113.42c.05.16.11.31.16.47-.07-.21-.12-.35-.16-.47Z"/>
        <path class="cls-4" d="m297.74,186.6c.26.04.5.07.69.09-.19-.03-.45-.06-.69-.09Z"/>
        <polygon class="cls-4" points="170.08 71.63 170.08 71.64 170.09 71.64 170.08 71.63"/>
        <polygon class="cls-4" points="135.21 223.18 135.19 223.14 134.4 223.36 135.21 223.18"/>
        <path class="cls-4" d="m67.7,15.07c-.1-.02-.29-.04-.67-.05.03.01.32.03.67.05Z"/>
        <path class="cls-4" d="m28.67,12.39c-.21-.03-.27-.02-.33-.02.01,0,.02,0,.03.01h.3Z"/>
        <path class="cls-4" d="m202.66,143.7c.04.23.08.45.12.65.29,1.53.1.49-.12-.65Z"/>
        <path class="cls-4" d="m171.62,72.94c.14.18.28.36.43.54-.42-.63-.92-1.08-1.27-1.41-.39-.29-.64-.45-.69-.42.36.26.73.5,1.04.82.16.16.33.31.49.47Z"/>
        <path class="cls-4" d="m254.51,184.36s0,0,0,0c.19,0,.37,0,.56,0h-.55Z"/>
        <path class="cls-4" d="m172.05,73.48c.72,1,1.24,2.34,1.69,3.44-.47-1.36-.98-2.51-1.69-3.44Z"/>
        <path class="cls-4" d="m3.51,43.8s0,.04-.02.1l.4-.84-.38.74Z"/>
        <path class="cls-4" d="m3.1,44.74c.19-.38.35-.71.39-.84l-.39.84Z"/>
        <path class="cls-4" d="m3.1,44.74c-.3.6-.61,1.38-.75,1.8l.36-.9c.17-.46.38-.9.38-.9Z"/>
        <path class="cls-4" d="m15.78,25.02l-.17-.18c.07.11.13.17.17.18Z"/>
        <path class="cls-4" d="m15.47,24.7l.15.14c-.49-.83-2.95-3.99-3.98-5.18.5.65,1.14,1.47,1.82,2.35.68.87,1.43,1.79,2.01,2.69Z"/>
        <path class="cls-4" d="m139.33,55.01l-2.21-.74-1.11-.14s.83.21,1.67.43l1.66.46Z"/>
      </g>
      <g>
        <path class="cls-2" d="m39.92,68.68c.2-.06.14,0,.36-.12.05.01,0,.1-.06.14.05-.03.02.08.12,0,.07-.16.04-.2-.11-.16.02-.04.08-.06.11-.09-.1.04-.29.07-.42.22Z"/>
        <path class="cls-2" d="m39.83,67.67s0,.08,0,.11c0-.03.01-.06.02-.09l-.02-.02Z"/>
        <path class="cls-2" d="m42.4,70.93c-.07.11-.17.08-.07.15.02-.05.04-.1.07-.15Z"/>
        <path class="cls-2" d="m39.87,67.65s-.02.02-.02.05c.02.02.04.03.06.03-.03-.04-.04-.06-.03-.08Z"/>
        <path class="cls-2" d="m49.62,67.09c0,.06.01.1.03.13,0-.01.02-.02.02-.04l-.05-.09Z"/>
        <path class="cls-2" d="m52.19,68.07c-.05-.1-.13-.2-.19-.27-.05-.05-.09-.09-.15-.13-.33-.24-.44.4-.59.06l.14-.17c-.3.03-.39.01-.54-.04-.14-.04-.28-.09-.44-.03.03-.04.05-.1.07-.09-.02-.16-.21-.07-.25.05-.04-.03.02-.11,0-.18-.04-.1-.2.15-.19,0,0-.02.03-.04.04-.05-.06.06-.18-.07-.18.11-.08-.11-.22.02-.28-.1-.1.17-.16-.14-.24.12.08-.27-.13-.27-.23-.15.04-.08-.04-.1.02-.21-.08-.02-.16.02-.18.16-.07-.36-.35.2-.33-.24-.27.1-.5.15-.72.18.06-.28.24.02.28-.28-.22.08-.38.29-.57.19-.04-.05.05-.12.08-.16-.22.08-.38-.09-.59.04,0-.03.03-.05.05-.07-.04,0-.08-.05-.09.08l.04-.03c.03.19-.19.37-.21.46.11-.36-.16-.11,0-.56-.03.02-.06.08-.07.16-.03-.03-.04-.08.01-.17-.14.05-.11.19-.22.18,0-.06.03-.08.05-.15-.07.11-.14.23-.23.17,0-.04,0-.09.03-.08-.17,0-.31.29-.48.17.07-.27-.06-.09-.05-.33l-.1.06.03.12c-.09-.01-.17.16-.24.08l.07-.09-.16.04.09.09c-.09.12,0,.3-.11.23.02-.02-.08,0-.13-.14h0c-.04.07-.09.15-.15.09-.02-.07.01-.26,0-.31-.04.2-.2.06-.25.26.02-.05.02-.17,0-.2l-.03.16c-.04-.05-.05-.07-.04-.17-.12-.03.05.29-.1.17.01-.01,0-.04.03-.06-.15-.06-.27.12-.41.05-.06-.23.11-.06.05-.26-.19.05-.36.31-.54.26l.03.02c0,.33-.14-.15-.22,0,.02-.03.02-.19.01-.15-.12-.05-.24.1-.42.21l.02-.09c-.08-.07-.19-.03-.27-.07-.02.09-.06.08-.03.2-.27-.47-.44.29-.68-.1.03,0,.06-.08.04-.08l-.18.09c.03.14.03.09.08.19-.02.09-.06.16-.11.16.07-.1-.02-.23-.06-.31,0,.04,0,.09,0,.14-.12-.25,0,.29-.14.13v-.08s-.08.15-.13.13c-.04-.16.04-.08.04-.22-.07.02-.11.33-.2.17.03-.05.07-.05.1-.1-.09-.19-.09-.14-.15-.16h0s-.14-.07-.14-.07l.04.05c-.04.44-.18.1-.27.4.08-.29,0-.16-.02-.35-.04-.05-.1-.1-.09-.15-.04.16-.12-.1-.17.13-.01-.06-.07,0-.08-.15-.07.06.04.1.04.18-.08.23-.35-.2-.47.15-.12.15-.09.34-.14.48,0,0-.02,0-.02.01-.07-.07-.06-.19-.06-.19-.12-.05-.2.04-.21.16-.03-.05-.07-.07-.15-.08-.06.11.15.18.02.26-.06-.04-.15-.11-.18-.21-.05.21.07.37.16.47-.1.06-.18-.05-.25-.11.03.09.08.23.15.28.07.04.14.06.22.03l.02-.08s-.12.09-.16.07c-.17-.02,0-.19.06-.19l.05.06c.16-.11.14-.13.07-.19-.07-.06-.11-.2-.05-.28,0,0,.1.11.16.16-.09.15-.01.35.29.62,0,0,0,0,0,0-.07.07-.14.14-.21.21,0-.02.02-.04,0-.05l-.16.13h.08c-.07.1-.13.2-.13.31l.2-.06-.07.13-.08-.05c-.05.13.05.07.14.03-.04.06-.07.11-.07.15l.27-.14c-.07.09-.19.14-.17.23.12-.06.13-.22.25-.23-.05.13-.13.2,0,.16-.04.06-.08.09-.12.1.1-.03.14.06.26-.03-.07.16.17.09-.02.29.06-.04.21-.1.26-.08-.28.19.13.13-.12.39.24-.18.27.06.47,0-.02.01-.06.04-.06.02.04.06,0,.14,0,.21.16-.18.28-.16.42-.24-.09.24-.22.19-.34.38.12-.16.24-.06.32-.21-.04.15,0,.09-.11.27.2-.23.08,0,.24-.12-.02.18-.16.24-.03.23-.02.1-.16.13-.16.13.08.07.18-.15.28-.24.13.03-.06.17-.1.29.1,0,.27-.13.31-.08-.02.03-.02.05-.06.08.17-.09.19.15.4.02,0,.02-.02.04-.03.05.06-.1.13-.2.18-.26.04.03.15-.06.07.07-.02-.02-.06.03-.1.05l.08-.02c-.1.2-.1.02-.19.15.11,0,.31-.07.32.02-.12.18-.17-.05-.21.16l-.04-.14c-.14.32-.04-.06-.19.27.07.14.21.03.23.14.09-.08.11-.14.2-.21.27-.05-.29.46-.02.33.12-.08.34-.24.28-.08l-.2.13c.04.09.31-.17.25.03-.09.04-.12-.03-.13,0-.11.17.14-.04.18.02l-.17.13c.09.08.3.13.42.25-.06.02-.13.03-.17.1.2.13.19.41.36.78,0,0,.22-.03.22-.04.02.02,0,.1-.06.11.06.14.08-.09.17-.1.06.03.01.15-.06.16.3.04.68,0,.88.19l-.05.05c.19.1.21-.37.36-.2l-.03.03c.37.05.6-.21.91-.03-.06-.26.33-.01.18-.36.23.08.23.17.5.14.07-.02-.04-.24,0-.32l.11.15-.04-.22.19.15.03-.08s-.1-.03-.13-.08c.03-.13.29-.07.36,0l.07-.29c.05.06.04.11.05.17-.04-.23.16.13.12-.08-.04-.02-.07-.09-.1-.12.12.04.21-.04.24-.14l.08.11c.14-.09.19-.26.31-.36-.08-.01-.22-.2-.2-.25l.14.15c-.05-.12-.09-.03-.13-.19.06-.02.17.16.19.23v-.1c.05.05.06.08.1.15-.05-.12.21.1.11-.1l.04.05c.11-.08.13-.16.23-.23-.08-.16-.02-.14-.05-.29.11,0,.25.1.35.05.04-.11-.03-.15-.03-.26.05.15.18.09.15.22.15-.08.2-.1.35-.3-.04-.05-.08-.07-.08-.13.03-.04.1.03.13.11v.02c.13-.3.68.23.74-.15v.02s.11-.24.11-.24c.09-.01,0,.13.1.2.09-.33.33-.11.41-.35.34.36.43-.26.76-.11l-.07-.09c-.01-.12.09.02.14.02-.05-.07-.1-.05-.11-.12.16-.19.36-.26.66-.48.13-.11.36-.28.44-.74.03-.27-.03-.51-.14-.7Zm-9.47-.74s.01.1.01.15c-.02,0-.04,0-.06,0,0-.06.01-.12.05-.15Zm-1.99.24l.06.14s-.05.02-.07.02c0-.04,0-.09,0-.16Zm-.54.25s.09.06.13.11c-.02.02-.05.04-.06.06-.03-.06-.08-.17-.07-.17Zm3.22,4.12s-.03-.03-.03-.04c0,0,.02.02.04.03h0Zm.11.17s-.02-.05-.04-.08c.05-.04.11-.06.11-.04-.04.01-.05.07-.07.12Z"/>
        <polygon class="cls-2" points="46.72 72.66 46.69 72.62 46.7 72.67 46.72 72.66"/>
        <path class="cls-2" d="m41.35,67.13s0,.05,0,.08h0s0-.08,0-.08Z"/>
        <path class="cls-2" d="m47.21,66.81s.01,0,.02,0c.04-.03.01-.02-.02,0Z"/>
        <path class="cls-2" d="m45.43,67.07s.04-.06.06-.08c-.03-.01-.06-.02-.06.08Z"/>
        <polygon class="cls-2" points="49.19 66.98 49.19 66.98 49.2 66.99 49.19 66.98"/>
        <path class="cls-2" d="m45.56,66.99s-.06-.03-.08,0c.03.01.05.03.08,0Z"/>
        <path class="cls-2" d="m39.78,68.55s.02,0,.03,0l-.04-.02v.03Z"/>
        <path class="cls-2" d="m39.91,68.6l-.07-.04s.02.05.07.04Z"/>
        <path class="cls-2" d="m40.3,67.37s-.18-.06-.23.01l.02.05c-.01-.11.22.06.21-.06Z"/>
        <polygon class="cls-2" points="44.6 66.83 44.59 66.97 44.66 66.92 44.6 66.83"/>
      </g>
      <g>
        <path class="cls-3" d="m55.15,54.51c.21.02.13.06.38.07.04.05-.03.12-.11.13.06,0-.01.11.12.09.12-.13.11-.21-.05-.27.04-.03.1-.03.13-.03-.11-.04-.3-.07-.48.02Z"/>
        <path class="cls-3" d="m55,53.82s.03.03.06.04c-.01-.02-.02-.03-.03-.05h-.03Z"/>
        <path class="cls-3" d="m58.72,58.16c-.02-.05-.02-.11-.03-.16,0,.13-.17.15.03.16Z"/>
        <path class="cls-3" d="m55.02,53.79v.03s.06,0,.08-.01c-.04,0-.07,0-.08-.02Z"/>
        <path class="cls-3" d="m65.35,46.88c0,.07.02.11.04.15.01-.01.02-.02.03-.03l-.07-.11Z"/>
        <path class="cls-3" d="m70,49.24l-.08.08c-.2,0-.07-.12-.13-.18-.06.07.03.14-.08.14-.23-.1-.41-.2-.6-.32-.16-.11-.25-.18-.37-.29-.22-.21-.44-.44-.68-.62-.18-.13-.38.45-.49.09l.16-.15c-.5.02-.79-.42-1.27-.41.04-.03.07-.09.11-.07-.02-.18-.3-.15-.35-.04-.05-.04.03-.11.02-.18-.05-.12-.29.08-.27-.08,0-.03.04-.03.06-.04-.08.04-.24-.13-.26.05-.11-.14-.31-.05-.39-.2-.15.15-.22-.19-.35.05.12-.26-.18-.32-.33-.23.06-.07-.05-.11.03-.21-.11-.04-.23-.03-.26.12-.09-.4-.5.12-.49-.33-.39.04-.74.06-1.08.07.07-.28.37.04.41-.25-.34.04-.56.26-.87.16-.09-.04.06-.12.09-.17-.36.1-.7-.03-.97.18,0-.03.02-.06.05-.09-.06.02-.15-.02-.11.11l.05-.04c.12.17-.14.42-.12.52,0-.38-.28-.02-.26-.51-.03.03-.06.1-.03.18-.06,0-.09-.05-.06-.16-.17.12-.07.23-.23.28-.02-.06,0-.09,0-.17-.05.15-.09.29-.24.29,0-.04-.04-.08,0-.09-.24.1-.27.46-.56.46-.04-.28-.12-.04-.24-.25l-.1.13.1.07c-.12.06-.14.26-.27.24l.04-.13-.19.15.16.02c-.06.16.15.25-.03.27.02-.04-.11.06-.23-.03h0c-.02.09-.03.19-.14.19-.06-.05-.11-.23-.15-.27.05.2-.23.19-.18.41,0-.06-.07-.16-.09-.18l.04.16c-.08-.01-.1-.03-.14-.12-.16.07.2.22-.04.22,0-.02-.01-.04,0-.07-.21.05-.28.3-.48.34-.18-.16.1-.14-.06-.27-.21.19-.31.55-.55.67h.05c.17.28-.26-.02-.27.18.01-.04-.08-.17-.06-.14-.17.07-.24.3-.38.55l-.03-.09c-.13.01-.24.15-.36.2.03.09-.03.12.09.18-.6-.1-.3.65-.81.62.03-.03,0-.12-.01-.1,0,0-.12.27-.12.27.13.07.09.02.22.05.04.08.05.18.01.23,0-.15-.19-.14-.29-.14.04.02.07.06.11.08-.3-.02.23.18-.02.25l-.06-.05c0,.09.04.18,0,.25-.17-.03-.04-.11-.16-.17-.04.15.2.33.03.39-.04-.06-.02-.13-.04-.19-.23.06-.19.12-.23.19h0s-.12.17-.12.17l.06-.04c.41.2.04.29.31.5-.25-.2-.15-.04-.34-.07-.06.04-.12.11-.17.09.15.1-.13.14.09.28-.06,0,0,.1-.16.07.04.12.11-.02.18-.01.2.18-.26.42.03.67.12.2.3.24.42.4,0,.01,0,.03,0,.04-.09.04-.2-.05-.2-.05-.08.12-.06.2.02.29-.06-.01-.1.01-.16.05.03.08.23.03.15.15-.07,0-.18-.02-.25-.05.07.09.2.18.27.27-.1.05-.17-.03-.24-.06.06.11.15.29.32.29l.04-.08s-.14.05-.17.03c-.15-.07.03-.15.09-.17l.05.06c.34-.14-.11-.27-.1-.42l.22.02c.05.4.13.77.25,1.04,0,0,0,0,0,.01-.09.01-.18.03-.26.04,0,0,0,0,0,0l-.21.03.04.03c-.1.05-.18.12-.22.26l.23.12-.11.11-.06-.15c-.1.13.04.15.14.17-.06.04-.1.09-.11.13l.33.05c-.09.07-.24.02-.24.16.15.02.19-.18.33-.1-.08.13-.19.17-.04.2-.06.05-.11.05-.16.03.13.04.16.19.31.15-.09.17.21.22-.02.38.07-.01.26,0,.33.06-.36.09.19.25-.09.46.29-.11.41.21.67.21-.02.01-.07.04-.08.01.08.09.05.18.08.27.16-.19.33-.13.49-.21,0,.27-.22.2-.31.42.1-.17.32-.05.36-.21.02.18.05.1,0,.31.16-.26.12,0,.28-.13.08.2-.08.28.12.26.04.12-.15.16-.15.16.17.07.16-.18.25-.29.21.01.03.19.06.33.15,0,.3-.18.39-.15,0,.04.01.06-.02.1.18-.15.4.09.59-.12,0,.02.01.04.01.06,0-.12,0-.23.02-.32.07,0,.15-.13.15.02-.04,0-.05.05-.08.1l.08-.06c.04.22-.11.06-.13.22.16-.05.34-.22.45-.15.01.21-.27.05-.13.25l-.17-.1c.1.35-.11-.03-.02.33.24.08.28-.07.52,0,.06-.12-.01-.17.04-.29.32-.22.27.53.51.24.06-.15.06-.4.23-.29l-.03.25c.22,0,.09-.36.33-.23-.03.1-.16.1-.12.13.17.17.09-.15.2-.16l.05.21c.24-.06.45-.26.68-.36,0,.06-.03.14.04.19.29-.16.66-.14,1-.11l.06-.21s.07.06.06.11c.14.03-.03-.11,0-.2.06-.03.12.07.09.14.15-.22.45-.51.73-.42l-.02.07c.19,0,.03-.42.24-.33v.04c.37-.07.65-.42,1.03-.3-.08-.26.38-.08.22-.42.27.05.26.14.58.08.08-.03-.02-.26.04-.35l.11.16v-.24s.19.15.19.15l.05-.09s-.11-.03-.14-.07c.07-.15.36-.1.43-.02l.18-.34c.04.07.01.12,0,.19.03-.27.15.14.17-.11-.04-.02-.06-.1-.08-.13.14.04.29-.08.37-.21l.06.12c.22-.14.38-.4.59-.6-.12.02-.26-.16-.21-.23l.16.13c-.05-.13-.12,0-.14-.18.09-.05.21.12.21.21l.05-.14s.05.08.1.14c-.05-.13.3-.01.21-.22l.05.04c.21-.2.25-.35.4-.52-.13-.12-.04-.16-.09-.31.15-.08.38-.14.49-.28.04-.17-.08-.13-.11-.26.13.1.28-.11.28.07.15-.24.19-.31.25-.65-.07,0-.12.01-.15-.03,0-.06.12-.08.19-.03v.02c-.02-.42.82-.49.65-.89v.02s-.02-.33-.02-.33c.08-.11.07.12.21.08-.14-.32.32-.59.3-.98.34-.15.46-.5.55-.8-.3-.15-.57-.28-.63-.48Zm-13.69,1.02s-.04.04-.06.07c-.04-.05-.07-.1-.05-.17.03.03.07.06.11.1Zm-.99,2.64l.15-.04s0,.08,0,.11c-.04,0-.09-.03-.15-.07Zm.03.77s.11-.04.16-.03c0,.04.01.08.02.13l-.18-.09Zm5.84,4.07s.03-.01.07-.03h0s-.05.02-.07.03Zm.23-.08c-.02-.06-.03-.12,0-.12,0,.04.07.06.13.1-.04,0-.08.01-.13.02Z"/>
        <polygon class="cls-3" points="65.48 56.27 65.46 56.24 65.46 56.28 65.48 56.27"/>
        <path class="cls-3" d="m55.03,51.92s.05.01.07.02h0s-.08-.02-.08-.02Z"/>
        <path class="cls-3" d="m61.62,46.33s.02,0,.02-.01c.05-.04.01-.02-.02.01Z"/>
        <path class="cls-3" d="m59.31,47.68s.02-.08.03-.11c-.05.01-.08.03-.03.11Z"/>
        <polygon class="cls-3" points="64.74 46.64 64.74 46.64 64.76 46.65 64.74 46.64"/>
        <path class="cls-3" d="m55.06,54.36s.02,0,.03,0l-.03-.03v.03Z"/>
        <path class="cls-3" d="m55.17,54.44l-.06-.05s0,.05.06.05Z"/>
        <path class="cls-3" d="m55,53.35c-.01.05-.13.14-.08.22h.05c-.1-.03.14-.17.03-.22Z"/>
        <polygon class="cls-3" points="58.29 48.12 58.17 48.08 58.22 48.22 58.29 48.12"/>
        <path class="cls-3" d="m26.6,45.63l.03-.21-.08.06c-.02.05,0,.18.05.15Z"/>
        <path class="cls-3" d="m26.9,45.71s0,.1,0,.14c.06-.1.12-.28.07-.47-.05.2-.07.12-.12.36-.05.03-.09-.06-.09-.14-.02.05-.08-.04-.1.09.07.16.16.16.24.02Z"/>
        <path class="cls-3" d="m27.57,45.33s-.03.03-.04.06c.01,0,.03-.02.04-.02v-.03Z"/>
        <path class="cls-3" d="m25.87,49.86s.1-.05.15-.06c-.12.03-.18-.1-.15.06Z"/>
        <path class="cls-3" d="m27.6,45.35h-.03s0,.06,0,.08c0-.04.01-.07.02-.08Z"/>
        <path class="cls-3" d="m38.48,50.32c-.05.04-.08.09-.1.13.01,0,.03.01.05.02l.05-.15Z"/>
        <path class="cls-3" d="m27.12,45.56s.01-.02.02-.03c0,0,0,0-.01,0,0,0,0,.01,0,.02Z"/>
        <path class="cls-3" d="m27.13,45.71s-.03-.1,0-.15c-.02.03-.05.05-.06.1l.07.06Z"/>
        <path class="cls-3" d="m38.38,51.01c.1-.18-.07-.37,0-.56-.2-.09.03-.3-.24-.27.28-.06.15-.32,0-.38.09,0,.06-.11.18-.1-.04-.11-.12-.19-.25-.13.25-.31-.39-.3-.03-.56-.26-.26-.49-.49-.69-.72.25-.12.18.28.44.14-.24-.21-.52-.24-.61-.51,0-.08.13-.03.18-.03-.25-.19-.28-.49-.57-.6.02-.02.06-.01.09,0-.04-.03-.04-.12-.14-.04l.06.02c-.1.18-.43.09-.5.15.34-.18-.1-.24.34-.45-.04,0-.12,0-.17.06-.02-.05,0-.1.12-.13-.18-.09-.23.05-.34-.07.04-.04.09-.04.15-.08-.15.03-.29.06-.36-.07.03-.02.05-.07.08-.04-.19-.16-.52,0-.66-.24.21-.19-.03-.12.08-.33l-.16-.02v.13c-.11-.07-.29.03-.35-.08l.13-.05-.23-.06.08.13c-.16.06-.11.27-.23.15.04,0-.1-.05-.11-.2h0c-.08.05-.16.11-.23.03,0-.08.1-.24.1-.29-.12.17-.29-.04-.41.16.03-.04.06-.16.06-.19l-.08.14c-.04-.06-.04-.09-.01-.18-.15-.06-.01.3-.17.14.02,0,.01-.03.05-.05-.18-.11-.38.03-.54-.07-.02-.24.16-.03.13-.24-.26,0-.56.21-.79.13l.04.03c-.07.33-.16-.18-.3-.04.03-.02.06-.18.04-.14-.16-.07-.35.05-.6.14l.04-.08c-.09-.08-.25-.06-.36-.1-.04.08-.09.07-.06.19-.3-.5-.62.23-.89-.18.03,0,.08-.07.06-.07l-.25.07c.02.14.03.09.08.2-.03.08-.1.15-.16.15.11-.09,0-.23-.04-.31,0,.04-.01.09,0,.14-.12-.26-.03.29-.2.11v-.08c-.05.04-.12.14-.18.12-.03-.17.07-.08.08-.21-.1,0-.2.31-.28.15.04-.05.1-.05.14-.09-.09-.2-.11-.15-.18-.18h0s-.17-.09-.17-.09l.04.05c-.12.43-.25.08-.41.36.16-.27.03-.16.04-.35-.04-.05-.11-.11-.09-.16-.08.15-.13-.12-.24.1,0-.06-.08,0-.07-.16-.1.05.03.11.02.18-.15.21-.37-.25-.59.04-.18.11-.22.29-.37.41-.01,0-.03,0-.04,0-.03-.09.05-.2.05-.2-.1-.09-.17-.07-.26,0,.02-.05,0-.1-.03-.17-.07.02-.04.22-.14.14.01-.07.03-.18.07-.25-.09.06-.17.17-.26.23-.03-.11.05-.16.08-.23-.07.03-.14.08-.21.15.07-.1.12.07.12.12l-.06.04c.08.36.26-.07.39-.05l-.04.21c-.6.02-.99.04-.99.04,0,0,0,.01,0,.01-.27-.04-.54-.12-.75.07l.17.16-.14.04v-.13c-.14.06-.02.11.05.17-.08,0-.13.02-.16.05l.27.16c-.11.01-.22-.08-.29.02.13.07.26-.05.34.06-.14.06-.24.04-.13.13-.08,0-.12-.01-.15-.05.09.08.03.2.18.24-.17.07.03.25-.24.23.07.03.21.13.22.2-.33-.13-.02.25-.38.22.29.09.13.33.3.49-.02,0-.07-.03-.06-.04-.02.09-.11.12-.17.18.25,0,.3.15.46.22-.23.12-.29-.06-.52-.02.2-.01.21.19.37.15-.14.09-.07.08-.27.13.31,0,.06.08.25.14-.15.13-.29.05-.19.18-.09.07-.2-.05-.2-.05,0,.14.23.05.36.08.08.16-.16.09-.28.15.07.1.29.17.28.24-.04,0-.05.03-.1.01.19.09.04.33.28.43-.02.01-.04.02-.05.02.11-.03.23-.05.31-.06.01.06.16.09.01.14,0-.04-.06-.03-.11-.05l.07.06c-.21.09-.08-.08-.24-.06.09.12.28.24.23.34-.21.05-.1-.22-.27-.06l.06-.16c-.32.16.01-.1-.33.06-.04.21.14.21.11.42.12.03.17-.04.29-.02.26.24-.49.32-.17.48.15.03.42-.01.32.17h-.25c.03.21.36.03.25.28-.1-.01-.11-.13-.13-.1-.15.18.15.06.18.16l-.2.08c.11.21.31.39.46.59-.06.01-.14,0-.18.08.22.25.3.64.44,1.01l.24-.02s-.01.1-.07.1c.06.15.09-.08.19-.08.07.04,0,.15-.07.16.08.02.16.04.24.06.07,0,.14.02.21.05.13.05.24.13.26.27l-.06.02c.08.15.36-.2.37.02h-.04c.22.27.62.34.67.71.19-.19.21.28.43-.01.06.26-.02.28.14.53.05.05.21-.14.31-.12l-.1.16.21-.11-.07.23h.1s-.01-.11.02-.15c.15,0,.2.28.15.37l.35.02c-.04.06-.1.06-.16.08.24-.09-.08.19.15.11,0-.05.07-.09.09-.13,0,.14.16.22.3.24l-.09.1c.19.15.47.17.71.29-.06-.1.06-.3.14-.28l-.06.2c.1-.09-.04-.11.12-.2.08.06-.04.24-.12.27h.14s-.06.06-.1.13c.1-.1.11.27.27.1l-.02.06c.25.11.4.08.61.16.06-.17.13-.09.24-.21.14.1.28.29.49.32.16-.06.07-.14.16-.23-.02.16.19.18.06.28.25.03.35.01.68-.1-.04-.06-.08-.1-.06-.15.05-.02.14.06.13.14l-.02.02c.19-.14.41-.03.7-.03.3.03.51-.02.57-.24v.02s.15-.32.15-.32c.13-.06,0,.15.15.16.1-.41.42-.3.48-.62.49.18.44-.54.82-.56l-.1-.05c-.05-.12.1-.03.15-.05-.07-.04-.12,0-.15-.07.22-.53.77-.87,1.12-1.36.12-.18-.47-.35-.12-.48l.16.15c-.05-.48.34-.82.25-1.3.04.04.1.05.09.1.17-.05.09-.34-.03-.36.03-.07.11,0,.18-.03.1-.09-.15-.28,0-.31.03,0,.04.03.05.05-.06-.06.04-.33-.13-.27Zm-7.37-5.15s-.05,0-.08,0c0-.06.03-.11.08-.15,0,.04,0,.1,0,.15Zm-2.65-.17l.04.15s-.07,0-.1,0c0-.04.03-.09.07-.15Zm-.69,0s.03.11.02.17c-.04,0-.08,0-.12,0l.1-.17Zm-.99,6.37s-.03-.05-.04-.06c0,.01.02.03.04.06h0Zm.13.27s-.03-.08-.05-.12c.05-.04.11-.05.12-.03-.04,0-.05.08-.07.15Z"/>
        <polygon class="cls-3" points="29.59 55.04 29.61 55.01 29.57 55.03 29.59 55.04"/>
        <path class="cls-3" d="m29.24,45.36s0,.05,0,.08h0s0-.08,0-.08Z"/>
        <path class="cls-3" d="m36.88,47.28s.01,0,.02.01c.06.02.03,0-.02-.01Z"/>
        <path class="cls-3" d="m34.66,46.07s.07-.04.1-.05c-.04-.03-.07-.05-.1.05Z"/>
        <polygon class="cls-3" points="38.32 49.7 38.32 49.7 38.33 49.72 38.32 49.7"/>
        <path class="cls-3" d="m34.76,46.03s.06.06.1.05c-.03-.05-.06-.06-.1-.05Z"/>
        <path class="cls-3" d="m27.11,45.32s0,.02,0,.03l.03-.02h-.02Z"/>
        <path class="cls-3" d="m27.03,45.41l.05-.05s-.04,0-.05.05Z"/>
        <path class="cls-3" d="m27.98,45.36s-.12-.13-.18-.09v.05c.02-.1.14.15.18.04Z"/>
        <polygon class="cls-3" points="33.63 45.56 33.58 45.7 33.68 45.66 33.63 45.56"/>
      </g>
    </g>
  </g>
</svg>