<?xml version="1.0" encoding="UTF-8"?>
<svg id="Layer_2" data-name="Layer 2" xmlns="http://www.w3.org/2000/svg" viewBox="0 0 213.56 353.22">
  <defs>
    <style>
      .cls-1 {
        fill: #fff;
      }

      .cls-2 {
        fill: none;
      }
    </style>
  </defs>
  <g id="Layer_2-2" data-name="Layer 2">
    <g>
      <path class="cls-2" d="m27.81,222.32c.5.24.68.36.48.35-.82-.36-1.58-.78-2.1-1.26.66.58,1.89,1.07,1.63.91Z"/>
      <path class="cls-2" d="m143.08,250.82s0,0,0,0c-.11.04-.23.09-.34.14-.05-.09-.17-.19-.26-.29.15.03.26.05.26.05.12.04.24.07.35.1Z"/>
      <path class="cls-2" d="m203.6,191.01c-.05,1.45-.09,2.36-.14,2.9,0-1.07,0-2.09,0-3.06.05-.06.1.04.13.16Z"/>
      <path class="cls-2" d="m179.31,313.51l4.11.93c-1.75-.32-3.49-.63-5.15-.95-.24-.1.33-.07,1.04.02Z"/>
      <path class="cls-2" d="m171.14,296.99c.61-1.43,1.2-2.81,1.7-4.09-.23.82-.43,1.47-.43,1.47-.75,1.65-1.1,2.34-1.27,2.62Z"/>
      <path class="cls-2" d="m32.4,223.54c-.29-.02-.67-.06-1.09-.11h0c.5.06.84.09,1.09.11Z"/>
      <path class="cls-2" d="m193.88,243.75c.08-.18.16-.33.22-.47-.09.19-.18.39-.27.6-.03.07-.06.13-.09.2.05-.12.1-.23.14-.33Z"/>
      <path class="cls-2" d="m2.89,43.18c.06.8.15,1.63.14.99.02.49.05,1.1.12,1.79.04.34.08.71.12,1.09.03.19.05.38.08.58l.03.17c-.03.07-.05.13-.07.19l-.07-.4-.1-.65-.16-1.3c-.1-.87-.16-1.75-.2-2.63,0-.23-.02-.44-.02-.67.06-.76.08.03.14.83Z"/>
      <g>
        <path d="m15.43,35.84s.11-.07.15-.06c0,0-.05.13-.08.21-.02-.05-.04-.1-.07-.14Z"/>
        <path d="m14.82,35.09l.14-.07c0,.08-.02.13-.04.17-.03-.03-.06-.07-.1-.1Z"/>
        <path d="m12.04,33.04s-.06-.04-.09-.06c.02-.04.06-.09.09-.12.04.07.03.13,0,.18Z"/>
        <path d="m9.8,43.68s-.09.07-.12.1c.01-.07.06-.15.02-.17.03-.02.08.02.1.08Z"/>
        <path d="m9.97,43.57h0s.06-.04.08-.04c-.02.01-.05.03-.08.04Z"/>
        <path d="m207.85,326c-1.53-1.93-3.6-3.93-2.27-2.99.84.91,1.35,1.48,1.86,2.08.51.6,1.02,1.23,1.75,2.34,1.29,1.65,2.19,2.94,2.06,2.6.18.33.63,1.02,1.03,1.8.42.77.72,1.66.82,2.23-.93-2.64-2.98-5.45-5.24-8.26-.55-.55-.09.05,0,.21Z"/>
        <path d="m183.03,313.82c.7.14,1.27.27,1.8.39-.57-.11-1.12-.22-1.69-.34-.03-.02-.05-.03-.1-.05Z"/>
        <path d="m165.05,353.22s.02-.02,0-.03c.25.02.33.04,0,.03Z"/>
        <path d="m181.93,313.65c-.57-.1-1.15-.21-1.73-.32.79.15,1.32.24,1.73.32Z"/>
        <path d="m127.46,275.34c.06-.27-.47.76-.71,1.15-.12.19-.15.23.04-.14.15-.35.67-1.15,1.03-2.52-.1.67-.27,1.15-.36,1.51Z"/>
        <path d="m182.99,313.92c-.2-.08-.51-.16-1.06-.27.41.08.81.15,1.2.23.1.04.12.07-.14.04Z"/>
        <path d="m3.12,46.95l.1.65.07.4.09.51.22.23.17.19.05.06c-.08-.09-.19-.21-.45-.48-.03-.16-.06-.33-.09-.5-.02-.11-.04-.21-.06-.32-.03-.2-.06-.4-.09-.6-.05-.41-.11-.84-.17-1.29-.1-.89-.17-1.83-.21-2.78.03.88.1,1.76.2,2.63l.16,1.3Z"/>
        <path d="m3.97,49.16l-.13-.16-.02-.02s.01.01.02.02c.05.05.08.1.13.16Z"/>
        <path d="m62.28,217.14c.26.14.66.29.65.29-.58-.21-.91-.41-1.23-.57l.58.29Z"/>
        <path d="m9.67,66.7c-.67-.75-1.31-1.55-1.31-1.55.7.82,1.46,1.65,2.24,2.49.15.19.33.4.42.54l-1.35-1.48Z"/>
        <path d="m4.02,35.17c.03-.07.05-.14.08-.2-.02.07-.04.14-.07.2,0,0,0,0,0,0Z"/>
        <path d="m128.23,273.17c0,.08,0,.14,0,.14,0-.06,0-.09,0-.14Z"/>
        <path d="m201.32,320.07c-.12-.06-.31-.18-.61-.38,0,0,.27.16.61.38Z"/>
        <path d="m.14,24.06c.16.53.35.78.56,1.09.2.3.43.55.66.81.46.51.96.98,1.49,1.44.36.31.74.61,1.11.91,0,0,0-.01.01-.02.05-.04.11-.05.18-.03-.13-.06-.09-.19-.26-.28v.02s0-.02,0-.02h0c.07-.11.17-.15.32.02-.17-.26-.07-.24-.02-.26.05,0,.05-.02-.08-.21.02,0,.03,0,.03-.02-.05-.05-.09-.08-.09-.08,0,0,.01,0,.02.01.01,0,.03.02.07.04,0,0,0,0-.01-.02-.02-.01-.05-.03-.08-.05-.02-.01.08,0,.12.02-.03-.03-.07-.03-.11-.03,0,0-.03,0,0,0,0,0,0,0,0,0,0,0,0,0,0,0-.07,0,.05-.02.12,0,.08.02.18.05.26.03.03-.03-.09-.09-.12-.11.1.01.19-.01.27-.05h0c.09-.05.17-.09.32-.06l.12.11s-.09-.12-.15-.18c-.01,0-.02,0-.03,0-.07-.03-.03-.03.03,0,.09.07.16.05.25.26l-.1-.11c.03.17.31.51.48.75.07.1.13.18.15.23-.04-.08-.06-.13-.08-.17-.13-.33.32.15-.06-.58.07.07.16.21.19.32.06.01.07-.04-.05-.24.33.29.26.41.51.57,0-.08-.07-.15-.11-.26.17.26.28.48.49.55,0-.05.02-.09-.04-.13.38.28.54.76.83.83.08-.28.14,0,.29-.19l.1.16-.12.05c.13.09.14.31.29.32l-.03-.15.21.21-.18-.03c.05.19-.19.23.01.3-.02-.04.12.09.27.03h0s-.01-.09-.03-.13c.05.02.09.05.03.13.02.11.03.21.15.24.07-.04.14-.22.18-.25-.06.2.25.27.2.49,0-.06.08-.15.1-.17l-.05.16c.09,0,.11,0,.16-.09.19.11-.24.19.04.25,0-.02.01-.03,0-.08.24.11.32.4.55.47.2-.14-.12-.17.07-.27.22.23.35.64.65.78h-.06c-.16.28.29,0,.33.21-.02-.04.06-.18.05-.14.21.08.32.32.54.59v-.09c.16,0,.32.15.46.2-.01.09.06.13-.05.2.63-.17.55.67,1.1.55-.04-.03-.05-.12-.02-.1l.23.25c-.1.11-.08.05-.2.1-.01.09.03.2.1.25-.07-.16.13-.19.23-.22-.03.03-.04.08-.07.12.29-.12-.14.26.15.25l.03-.07c.05.08.06.21.15.25.13-.12-.03-.12.04-.23.11.08.04.41.23.34-.02-.07-.09-.12-.11-.19.22-.08.2-.03.3,0h-.01s.24.06.24.06h-.08c-.12.46.23.27.24.64,0-.35.07-.15.17-.31h0s.04-.07.04-.07c-.01.03-.02.05-.04.07.08,0,.19,0,.2-.05,0,.19.22.02.2.29.04-.04.09.07.17-.06.08.13-.09.06-.13.13.03.3.57.15.6.61.11.26,0,.44.04.66.01.01.02.03.03.04.1-.02.11-.18.11-.18.16.06.22.16.21.32.03-.05.09-.05.17-.04.04.12-.17.16-.02.26.05-.05.14-.12.17-.2,0-.03,0-.05-.01-.07-.02.02-.04.03-.06.02.04-.03.05-.05.05-.07v.05s.04-.02.04-.02c0,.03,0,.06-.02.09.02.15-.04.33-.08.49.11.02.14-.12.19-.2,0,.2,0,.5-.2.54l-.05-.1c-.02.06.14.03.18-.02.11-.16-.1-.21-.16-.2l-.02.11c-.36-.04,0-.39-.15-.57l-.16.15c.21.43.21.86-.1,1.27,0,0,0,.01,0,.01.09.05.17.09.25.15,0-.02-.02-.04,0-.06l.2.06-.1.08c.09.08.15.18.15.34l-.26.06.08.13.11-.13c.05.16-.08.14-.18.15.05.06.08.11.08.16h-.34c.08.08.23.06.21.2-.16,0-.15-.22-.31-.15.05.16.15.2,0,.22.05.06.1.07.16.05-.13.03-.19.19-.35.13.07.18-.24.24-.02.4-.07-.02-.28,0-.35.07.33.07-.1.24.05.42.01.02.03.03.05.05-.06-.02-.1,0-.15,0-.07.01-.13.04-.18.09-.1.09-.19.2-.33.23.03,0,.08.02.08,0-.06.11-.02.2-.03.29-.19-.15-.36-.04-.54-.07.07.27.28.12.41.31-.14-.14-.33.06-.41-.09.03.18-.01.12.09.3-.24-.19-.11.05-.31-.01,0,.22.18.23-.02.3,0,.06.04.08.09.08.05,0,.11,0,.11,0-.05.06-.1.05-.14.02-.07-.04-.13-.13-.21-.17-.16.09-.04.16.04.25.02.02.04.05.04.08-.07.03-.17.03-.25.03-.08,0-.15,0-.18.04.01.02.02.03.02.04,0,.01.02.02.04.03-.23-.03-.32.28-.58.26,0,0-.01,0-.02,0,0,0,0,0,0,0,0,.02.01.04.02.05-.01-.02-.02-.03-.04-.04-.05-.08-.11-.16-.17-.2-.06.05-.21,0-.13.13.03-.04.08,0,.13.02h-.11c.08.2.13.05.21.08.01,0,.02,0,.04.02-.04.02-.09.03-.15.04-.15.04-.31.06-.35.16,0,.01.02,0,.03.02.12.1.25-.15.25.09l.09-.2c.12.35.07-.1.22.26-.16.23-.29.13-.45.35-.12-.05-.1-.14-.23-.19-.42.09.13.6-.27.57-.15-.06-.34-.25-.4-.01l.21.14c-.19.18-.33-.17-.44.13.1.04.21-.07.2-.02-.02.26-.18-.03-.29.06l.11.18h0s-.04.02-.06.03c-.24.12-.54.19-.79.33.04.03.08.06.1.11,0,.02.02.03.02.05-.37.13-.64.49-.87.81l-.22-.07s0,.1.05.11c-.07.13-.08-.05-.15-.1,0,0,0-.01-.02-.01-.01,0,0,.02-.01.03-.03.05,0,.12.06.13-.09,0-.2.02-.31.05-.26.06-.52.17-.62.39l.07.02c-.14.18-.4-.2-.49.05h.05c-.32.26-.94.46-1.47.58-.07.02-.15.04-.22.05,0-.15-.17-.16-.31-.22-.13-.09-.26-.18-.14-.34-.01,0-.02-.01-.03-.02-.28-.15-.33-.01-.61-.52-.08-.16.18-.3.2-.47l-.19.03-.03.06v-.05s.03,0,.03,0c0,0,.18-.27.18-.26l-.24-.12s.05-.13.05-.13c0,.05.08.1.14.1.1-.18-.11-.46-.21-.48,0,0,.21-.42.21-.42-.08,0-.11.07-.17.12.22-.21-.2-.06,0-.26.04.03.12,0,.15,0-.1-.12-.08-.36,0-.52h-.14c.02-.3.18-.65.21-.93.05.12.28.13.31.04l-.2-.06c.13-.04.06.11.23,0,0-.12-.22-.1-.29-.05l.09-.13c-.06-.01-.1.02-.17.02.14-.05-.17-.24.04-.29h-.06c0-.13.02-.23.04-.31,0-.05.02-.11.01-.18.17-.07.12-.08.23-.17-.09-.07-.24,0-.28-.03-.07-.11.03-.15.01-.26-.06.15-.24.07-.17.22-.16-.07-.2-.07-.38-.17-.09-.04-.18-.11-.27-.19-.07-.06-.15-.14-.23-.25.1,0,.17.01.18-.05-.07-.07-.2-.11-.25-.05v.03c-.02-.1-.07-.18-.12-.26-.04-.06-.08-.13-.11-.2-.08-.16-.2-.34-.24-.48-.06-.15-.12-.3-.14-.45,0-.13.03-.24.12-.32l-.02.02.22-.37c0-.18-.14.08-.21-.06.35-.34.09-.63.34-.91-.07-.07-.1-.14-.11-.21-.04.1-.07.21-.11.32-.53,1.39-.84,3.61-.78,5.79.06-.76.08.03.14.83.06.8.15,1.63.14.99.02.49.05,1.1.12,1.79.04.34.08.71.12,1.09.03.19.05.38.08.58l.03.17.02.14.09.51c.2.21.32.34.41.44.1.12.17.21.27.34.04.05.08.11.12.16.13.17.25.34.37.51.31.47.58.96.82,1.45.45,1,.69,2.02.69,2.9,0,.89-.21,1.55-.33,2.24-.09.63-.07.97-.01.88-.09.25-.19.94-.07,1.87.1.93.47,2.05,1.03,3.11,1.13,2.14,2.88,4.04,3.83,5.27,1.62,1.73,3.31,3.69,5.49,5.42,1.08.87,2.29,1.64,3.57,2.33.31.17.67.34.95.5.27.16.55.31.78.51.49.38.89.86,1.2,1.45-.54-.73.19.25.68,2.17.26.95.56,2.1,1.02,3.12.18.4.38.76.59,1.1-.12-.2-.17-.32-.1-.21.27.41.7.99,1.29,1.62.33.31.8.77,1.62.82.4.03.79-.13,1.09-.31.29-.19.52-.41.71-.63.74-.9,1.15-1.86,1.53-2.8.37-.94.67-1.85.9-2.66.38-1.48-.25.31.44-2.06.03,0,.23-.55.51-1.41.28-.86.65-2.03,1.09-3.26.22-.61.46-1.25.73-1.84.25-.55.61-1.26.85-1.88.52-1.27.84-2.44,1.04-3.27-.44,1.51-.53,1.52-.89,2.41,1.54-4.15,2.22-8.56,2.95-12.92.18.99.38,1.98.69,2.99.18.57.39,1.14.73,1.72.18.29.39.59.73.86.34.28.89.46,1.38.38.25.02.48,0,.76.23.27.18.55.48.82.81.53.67,1.01,1.45,1.51,2.23,1,1.57,2.05,3.19,3.42,4.58.67.71,1.44,1.33,2.26,1.88l1.09.75c.31.28.67.52.94.84,1.2,1.17,1.9,2.77,2.82,4.43,0,0-.31-.66-.61-1.32-.29-.65-.6-1.26-.6-1.26.65,1.02,1.14,1.97,1.61,2.74.48.78.9,1.4,1.29,1.9.38.51.71.91,1.01,1.24.29.35.55.62.8.89.49.55.98.99,1.74,1.63.4.29.87.65,1.45,1.04.58.37,1.27.82,2.1,1.36,1.14.73,2.29,1.47,3.39,2.24,1.08.76,2.21,1.64,3.37,2.4l.87.58c.3.19.59.38.8.56.24.18.49.35.66.58l.3.31c.09.11.16.24.24.35.63.94.82,2.14.74,3.41-.2,2.57-1.12,5.23-1.81,7.92-.73,2.7-1.28,5.5-1.53,8.3-.26,2.81-.26,5.63.02,8.43.14,1.4.37,2.79.68,4.16.16.69.34,1.37.56,2.04.06.17.09.32.19.54.08.2.18.41.34.61.28.4.9.77,1.43.73.52,0,.94-.16,1.3-.33.36-.17.68-.38.98-.59.6-.42,1.13-.9,1.64-1.37,1.02-.96,1.95-1.97,2.85-2.99,1.81-2.04,3.51-4.13,5.24-6.14,1.05-1.15-.53.73-.63.99,1.17-1.43,1.37-1.96,3.11-3.74l-.29.49c1.51-1.81,3.73-3.88,5.86-6.32,2.17-2.42,4.25-5.29,5.93-8.25.85-1.47,1.62-2.99,2.34-4.4.72-1.42,1.44-2.77,2.13-4.04,1.37-2.53,2.58-4.72,3.38-6.34.6-1,1.18-1.96,1.74-2.9.43-.75.86-1.49,1.28-2.22l.21-.4c.08-.12.11-.31.26-.38.13.25.03.58.01.89-.03.19-.02.18-.14.86-.1.52-.2,1.05-.32,1.58-.24,1.06-.51,2.14-.85,3.25-.34,1.1-.74,2.24-1.28,3.32-.14.28-.28.51-.45.8-.17.29-.34.59-.52.89-.33.6-.66,1.22-.99,1.85-1.48,3.28,2-3.68-.1.71l-2.29,4.73c-.95,2-1.94,3.96-2.22,4.52-.54,1.02-1.11,2.1-1.74,3.23-.69,1.24-1.47,2.55-2.4,3.67-2.01,2.31-4.67,4.47-7.33,6.77-2.67,2.29-5.34,4.7-7.88,7.14-1.26,1.19-2.54,2.33-3.9,3.25-.68.47-1.37.86-2.1,1.19-.55.26-1.15.49-1.74.8.17-.03-.4.26-1.11.87-.71.61-1.48,1.53-2.14,2.34-.48.55.31-.6,1.16-1.58-1.02,1.07-1.81,2.11-2.49,3.06-.7.95-1.3,1.84-1.85,2.66-1.1,1.65-1.98,3.05-2.82,4.39-1.68,2.67-3.13,5.14-5.61,8.82,1.12-1.56.64-.81-.12.39-.77,1.19-1.9,2.77-1.96,2.96-.76.89-.58.6-.63.59-.02,0-.1.05-.38.39-.28.34-.78.93-1.52,2.07-.49.85-.95,1.7-1.26,2.63-.33.91-.55,1.89-.55,2.89,0,.99.2,2.05.84,2.94.32.44.76.82,1.3,1.06l.43.13c.15.03.33.02.49.03.18,0,.32-.02.44-.06l.39-.11c1.8-.76,3.05-1.85,4.37-2.85,1.27-1.03,2.51-2.03,3.71-3.01,2.04-1.47,4.64-3.45,4.88-3.4,3.43-2.37,6.17-4.34,8.91-6.52,1.38-1.08,2.81-2.15,4.48-3.22.41-.27.88-.56,1.17-.7.12-.05.13-.04.16,0,0,.04,0,0,0,.14-.03.24-.08.5-.14.78-.12.55-.29,1.13-.48,1.73l-.02.27c-.51,1.27-1.24,3.39-1.86,5.46-.15.52-.3,1.03-.44,1.52-.14.5-.29.89-.42,1.29-.31.77-.63,1.39-.91,1.73.24-.16.72-1.07.66-.82,0,0-.49.99-1.21,1.83-.5.64-1.1,1.19-1.38,1.44.71-.61,1.23-1.12,1.33-1.17.11-.05-.17.53-1.58,1.77-3.18,2.27.8-.72-.78.34,0,0-.21.22-.41.43-.2.22-.42.43-.42.43-1.24.82-2.12,1.22-2.26,1.23-.16-.01.46-.37,1.94-1.4-2.08,1.39-4.38,2.52-6.68,3.62-2.3,1.09-4.61,2.16-6.86,3.27-2.26,1.12-4.5,2.29-6.49,3.92-.97.84-1.89,1.84-2.46,3.06-.58,1.23-.75,2.54-.83,3.71,0,0,.06-.25.11-.5.06-.25.12-.5.12-.5-.17,1.34-.19,2.72-.32,4.09-.11,1.36-.39,2.73-.64,4.09-.52,2.68-.94,5.16-1.08,6.69-.06.13-.29,1.39-.23.56-.43,3.07-.28,3.27-.26,3.5.07.18,0,.4.06,1.99,0-1.06.04-1.96.1-2.14,0,0,0,.2-.02.55-.02.35-.02.84,0,1.44.02,1.19.13,2.79.45,4.37.29,1.57.79,3.13,1.2,4.22.2.55.37,1.01.5,1.34.13.32.2.51.2.51.04.02.26.48.65,1.22.4.71.95,1.85,2.2,2.74.63.42,1.34.66,2,.88.66.23,1.33.46,1.98.74.33.13.64.29.96.44.34.15.73.29,1.08.44.37.1.75.17,1.12.25.37.03.73.05,1.09.08.24.04-1.45.2-2.86-.41,0,0,.22.09.55.22.33.11.8.2,1.26.3.46.03.93.09,1.27.07.34-.02.57-.03.57-.03,0,0,.17-.03.43-.07.25-.06.58-.15.91-.23.66-.18,1.28-.41,1.28-.41,0,0,1.22-.28,2.39-.65,1.17-.37,2.33-.74,2.33-.74l.02-.21c3.37-1.2,4.77-1.42,7.52-2.07,2.58-.59,4.42-.67,5.81-.64,1.39.02,2.34.15,3.19.26,1.71.28,3.04.52,6.73,1.6.36.3,3.27,1.27,6.35,2.19,3.08.93,6.34,1.74,7.26,2.11,2.53.55,5.37,1.16,8.46,1.44,3.08.29,6.44.19,9.77-.4,3.33-.57,6.67-1.27,10.07-.98,1.69.11,3.36.36,4.94.92,1.59.53,3.08,1.29,4.57,2.09l-.96-.55c2.56,1.29,4.06,2.14,5.79,2.6,1.71.45,3.68.65,6.79-.18,0,0-1.57.35-1.58.3,2.04-.45,4.26-1.21,6.72-1.96,1.22-.4,2.49-.81,3.76-1.34,1.28-.53,2.51-1.2,3.69-1.86,1.19-.65,2.39-1.32,3.55-1.88,1.14-.55,2.36-.96,3.39-.87,1.05.04,1.72.78,2.17,1.66.43.91.67,1.89.84,2.79-.14-.74-.14-.92-.04-.64.1.28.31,1.04.49,2.23.14,1.02,0,.54-.1.32-.04-.1-.07-.14-.03.11.05.26.11.85.47,1.96-.25-1.12,0-.25.4.73,0,0,.4,1.09,1.13,2.02.36.45.75.88,1.04,1.16.29.28.48.47.48.47.53.45,1.01.87,1.38,1.34.37.47.65,1.01.72,1.5.18,1-.52,2.29-1.49,2.8-.22.13-.46.16-.49.13-.05,0,.05,0,.05.05.04.1-.05-.03-.1-.1l-.04-.06-.02-.03h-.01s0-.02,0-.02c.03.05-.07-.12.06.11l-.15-.22-.16-.21c-.06-.07-.19-.14-.29-.2-.22-.14-.44-.15-.67-.15-.23,0-.33.07-.5.12-.25.11-.45.23-.62.35-.34.23-.63.45-.91.63-.57.38-1.08.55-1.52.41-.45-.11-.95-.62-1.3-1.14-.72-1.05-.73-2.45-.3-3.78.21-.67.49-1.33.82-1.99l.13-.25.09-.21c.02-.07.04-.13.05-.2,0-.05.01-.03.01-.14,0-.1-.03-.21-.07-.3-.03-.16-.33-.41-.58-.44-.11-.01-.2,0-.3.01-.12.03-.2.06-.27.09-.12.06-.23.11-.32.17-.37.22-.67.44-.98.67-1.23.89-2.4,1.8-3.6,2.57-.59.37-1.23.76-1.75.92-.53.13-1.24.13-1.89.06-2.01-.19-.56.07-.08.19-2.16-.24-4.33-.93-6.46-1.6-1.07-.35-2.13-.71-3.18-1.06-1.09-.37-2.25-.61-3.44-.65-1.19-.05-2.4.2-3.47.68-1.07.48-2.03,1.12-2.88,1.83-1.7,1.43-3.11,3.02-4.47,4.57l-.38.77c-1.3,1.52-1.74,2-2.28,2.59-.26.31-.51.68-.89,1.25-.3.62-.88,1.42-.97,2.99-.03.34-.01.26.02-.08.02-.17.05-.4.09-.68.08-.25.18-.55.29-.86.5-1.19,1.4-2.5,1.91-3.02-1.22,1.66-1.83,2.92-2.08,3.95-.21,1.05-.08,1.8.21,2.45.65,1.23,1.89,2.2,5.63,3.12,0,0-.47-.19-.95-.38-.48-.19-.95-.41-.95-.41,1.44.42,2.59.66,3.45.93.4.12.76.32.91.46.14.13.18.31.12.45-.08.2-.49.49-.84.66-.37.18-.76.31-1.23.44-1.82.53-3.15.45-4.12.32-.2-.04-.59-.06-.88-.07-.15,0-.3-.01-.45,0-.14.03-.27.05-.4.08-.26.06-.52.09-.75.17,0,0,0,0,0,0-.11.04-.23.09-.34.14-.03.01-.06.02-.09.04-.05.02-.1.04-.14.06-.04.02-.08.03-.12.05-.05.02-.09.05-.14.06-.42.17-.81.43-1.28.66-.48.32-1.05.64-1.65,1.1-1.24.88-2.8,2.12-4.9,4.03-1.38,1.16.31-.54-1.07.63-2.82,2.85-4.28,4.52-5.77,6.19-.74.84-1.47,1.68-2.31,2.75-.42.53-.86,1.13-1.31,1.9-.1.21-.23.39-.32.65-.05.13-.09.25-.14.38-.04.15-.06.32-.09.48-.04.34,0,.79.23,1.17.21.37.54.64.83.81.64.31.99.34,1.2.39.21.04.25.03.2,0-.11-.06-.61-.19-1.14-.45-.27-.16-.54-.32-.73-.57-.21-.2-.25-.46-.28-.49,0-.06.03.08.24.36.23.28.67.59,1.29.77,0-.03-.4-.08-.99-.57-.31-.26-.56-.77-.53-1.29.05-.48.2-.91.39-1.27.37-.75.83-1.36,1.17-1.83.35-.46.58-.77.58-.77-.78,1.06-.96,1.4-.83,1.25.12-.15.57-.74,1.13-1.42,1.11-1.35,2.63-3.06,2.44-2.68-.63.75-1.34,1.59-2.11,2.5-.75.93-1.59,1.88-2.25,3.1-.16.31-.3.65-.36,1.07-.04.42.09.95.44,1.24.65.59,1.35.73,2.01.93.33.09.68.16.98.24.27.06.48.18.61.31.26.24.22.8.07,1.35.03.01.17-.32.19-.73,0-.2-.04-.41-.13-.56-.1-.15-.29-.27-.51-.35-.21-.07-.5-.13-.73-.18-.23-.05-.41-.11-.52-.15-.22-.08-.14-.08.46,0-.02.02.71.11,1.13.37.31.18.38.5.39.68,0-.2-.04-.34-.13-.5-.13-.2-.38-.4-1.14-.53.24.02.55.04.84.18.29.14.57.41.6.84.07.87-.44,1.95-.98,3.03-.16.11-.19-.06.05-.83-.02.09-.08.27-.22.61-1.21,2.18-3.15,5.03-4.62,8.12-.36.77-.69,1.57-.96,2.36-.26.76-.52,1.49-.79,2.19-.27.7-.53,1.37-.77,2-.12.32-.23.63-.33.96-.05.13-.09.39-.13.62-.06.23-.02.47,0,.7-.05-.59.02-.63.01-.48.02.15.04.48.15.63.18.61.93.82,1.46.85.3.03.5,0,.71,0,.22,0,.41-.03.62-.04.4-.03.82-.04.84,0,.12.02.17.16.13.26-.02.13-.15.62-.29.99-.15.4-.31.82-.47,1.24-.34.86-.7,1.78-1.04,2.77-.3,1.11-.11.82-.12,1.05.01.24-.25.97-1.08,4.22-.2.57-.19.11-.28.2-.08.1-.35.7-.81,3.51,0,0,.06-.31.14-.72.08-.42.19-.94.3-1.38.22-.88.4-1.42.16-.13-.57,2.71-.58,3.18-.58,3.57.02.4-.07.71.04,3.3-.04,1.49.36,2.95.82,3.98.46,1.03.8,1.72.77,2.06.43.73.56,1.01.74,1.48.17.47.41,1.13.67,2.77-.14-.71-.06.79.06,2.67.08.92.25,1.91.54,2.69.25.79.86,1.32.75,1.28.48.3.22.09-.16-.35-.37-.47-.6-1.17-.73-1.74-.11-.57-.15-1.03-.12-1.06.02-.02.06.08.13.31.07.24.17.62.4,1.18.13.39.31.85.72,1.26.4.44,1.09.6,1.57.64.51.06.82.12,1,.35.21.25.33.63.36.99.05.76-.15,1.67-.12,2.41.02.74.15,1.28.15,1.43.57,1.33,1.34,1.99,2.19,2.66.43.35.93.64,1.5,1,.56.33,1.22.71,2.01,1.18-.5-.28-1.1-.69-1.39-.9,2.73,1.8,6.33,3.7,9.57,5.4,3.25,1.71,6.16,3.29,7.71,4.28-.49-.49,2.5,1.24,5.41,2.35.73.25,1.42.51,2.03.69.62.15,1.14.27,1.49.36.7.15.72.12-.48-.28,1.33.39,3.08.72,4.61.97.77.1,1.48.19,2.07.26.58.07,1.03.08,1.27.11-.14-.15,1.57-.06,3.68-.18,1.06-.02,2.21-.16,3.29-.24,1.07-.13,2.06-.28,2.79-.41,1.55-.04,6.37-1,9.26-1.61-1.3.26-1.99.37-1.55.19,3.27-.62,2.44-.56,5.17-1.32,4.4-.9-.75.37,1.92-.08,3.81-.94.53-.29,1.2-.56,0,0,.36-.07.91-.18.55-.09,1.27-.26,1.98-.45.72-.17,1.43-.39,1.95-.56.53-.17.88-.28.88-.28,1.09-.49,1.86-.84,2.26-1.12,1.88-.75,3.56-1.46,5.99-2.97,0,0-1.09.62-2.21,1.2-1.11.59-2.25,1.13-2.25,1.13l1.66-.98.84-.41c.5-.24,1.17-.58,1.83-.93,1.32-.69,2.62-1.44,2.62-1.44,3.2-2.09,4.4-3.13,4.75-3.53,0,0,0,0,0,0,0,0,.18-.15.44-.37.14-.1.28-.24.4-.43.11-.19.3-.36.36-.58.08-.22.18-.44.23-.65.03-.21.06-.41.08-.58.04-.34,0-.56,0-.56,0,0,0,.41-.13.81-.05.2-.09.4-.18.53-.07.14-.12.23-.12.23-.32.73-.73,1.12-1.02,1.37-.13-.02-.49.13-.75.21.29-.2.45-.32.45-.32,3.62-2.46-1.25-8.74-2.91-10.82-1.67-2.09-6.66-7.91-14.56-10.41-2.79-.88-6.4-1.6-10.07-2.28l-1.73-.53c2.63.48,5.9,1.16,8.8,1.93,2.92.73,5.4,1.72,6.7,2.19,0,0-.15-.07-.37-.19-.22-.12-.52-.26-.83-.39-.31-.13-.61-.27-.85-.37-.23-.1-.39-.15-.39-.15.11,0,.55.11,1.38.41.82.31,2.03.86,3.55,1.87.74.48,1.2.91.81.71.17.11.35.22.54.34.57.37,1.11.77,1.11.77-.47-.46-2.06-1.71-4.16-2.86-2.08-1.18-4.73-2.07-6.78-2.59.64.19,1.74.53,2.55.82.81.32,1.33.54.84.43-1.77-.67-3.54-1.15-5.3-1.59-1.76-.44-3.52-.83-5.29-1.19,1.44.34,2.29.62,2.96.82-3.98-.69-2.95-.69-5.96-1.26-1.16-.14-1.95-.24-1.2-.05-1.87-.39-3.54-.73-5.25-1.09-1.69-.38-3.44-.72-5.31-1.42,0,0,.25.13.61.25.36.13.81.32,1.21.44.66.22,1.1.39.47.26-.48-.13-.93-.26-1.35-.4-.08-.03-.17-.05-.25-.08-.04-.02-.09-.03-.13-.05-.38-.14-.74-.29-1.07-.45-.67-.34-1.32-.7-1.58-1.3-.28-.58-.32-1.19-.3-1.77.03-.58.11-1.14.24-1.69.53-2.21,1.44-4.4,3.05-8.06.97-2.11,1.93-4.19,2.71-6.3.69-2.12,1.59-4,2.61-5.81,2.03-3.59,4.13-6.76,5.92-9.45.26-.25-2.48,4.16-.18.64-.51.54,1.26-2.19,1.3-2.41,2.52-3.82,3.26-5.94,4.48-8.96-.29.7.54-1.84.93-3.55-.32.43,1.28-4.87-.78,1.45,2.21-6.47,2.71-11.78,4.58-16.49,0,0-.12.41-.22.84-.1.42-.2.84-.2.84,0,0,.4-1.66.94-3.26.21-.66.45-1.29.67-1.81-.02.05-.04.11-.06.16.05-.13.11-.26.16-.38-.03.07-.06.13-.09.2.05-.12.1-.23.14-.33.08-.18.16-.33.22-.47-.02.05-.05.1-.07.15.04-.08.08-.17.1-.23.05-.1.09-.18.12-.25,1.29-2.56,1.57-3,2.97-6.69-.71,1.57-1.75,3.82-2.57,5.33,1.5-3.34,3.34-6.84,4.73-10.65-.17.13-1.55,3.94-1.27,2.76,1.04-2.69,1.95-4.98,2.76-7.53l-.19.34c.93-3.45,1.11-4.12,1.33-4.54.16-.43.34-.62.68-3.23.02.17.18-.48.17-.15.29-1.95.48-6.5-.02-2.01.33-2.46.34-5.29.47-6.55.08,2.11,0,2.62.14,3.42l.25-10.01c.02-1.12-.09.82-.11,2.23-.05-2.94-.03-5.9.03-8.88.04-1.49.07-2.99.11-4.5.02-.76.04-1.51.07-2.27,0-.76-.01-1.53-.02-2.3-.13-6.13-.37-12.44-.89-19.04.19,1.49.07-.97.1-2.24-.19-4.29-.48-10.77-.66-14.74l-.04,1.27c-.11-5.1-.21-9.44-.05-13.27.09-2.08-.49-3.87-.97-5.59-.54-1.71-1.15-3.31-1.83-4.87-.1-.32-.08.09.35,1.23-1.71-4.72-4.98-9.78-5.36-11.12,0,0,.19.33.39.68-1.02-1.88-2.08-3.77-3.23-5.66-1.33-2.2-2.72-4.41-4.3-6.53-1.56-2.15-3.45-4.02-5.28-5.87-1.84-1.85-3.72-3.64-5.58-5.38-1.88-1.49,4.28,4.03,2.59,2.78-5.19-4.79-10.41-9.7-16.28-14.67.93.84.7.67,1.15,1.07-5.89-4.89.78.39-4.15-3.77.2.3-.05.11-1.73-1.22l-1.36-1.33c-.26-.18-.3-.05.41.59-1.05-.98-3.23-2.83-5.52-4.46-1.19-.83-2.43-1.38-3.45-1.95-1.03-.55-1.87-1.01-2.35-1.31-.54-.22.8.67-.02.33-3.07-1.51-5.13-2.65-7.13-3.76h.01c-2.21-.97-7.43-3.67-6.33-3.08-5.51-2.75-.82-.54-4.93-2.78l4.41,2.16-7.7-3.99,3.02,1.65c-1.79-.87-3.57-1.81-5.42-2.8-.93-.49-1.87-1-2.84-1.51-.49-.25-.98-.52-1.41-.79-.37-.26-.75-.54-1.12-.85.43.31,1.5.99,1.5.94,0,0-.06-.04-.18-.11-.11-.07-.28-.15-.46-.31-.19-.14-.4-.31-.64-.49-.22-.2-.46-.41-.7-.63-.94-.87-1.82-1.84-1.82-1.84-.56-.17-4.51-4.98-2.81-2.63-3.28-3.65-5.71-6.87-8.66-9.58-2.91-2.38-5.77-4.66-9.09-7.26.6.48.29.29.48.48-4.16-3.15-6.56-5.17-8.96-7.18.46.45,1.43,1.23,1.41,1.29-2.44-1.89-3.16-2.49-3.94-3.14-.39-.33-.8-.67-1.43-1.2-.62-.53-1.57-1.24-3.01-2.17,1.55,1.12,1.03.82-.58-.15.29.08-1.03-.8-2.11-1.44,2.12,1.49.44.55-1.46-.45-1.9-1.01-4.03-2.08-2.68-1.17-.13-.13-2.52-1.45-4.55-2.55-1.86-1.01-3.42-1.83-2.58-1.53-4.34-2.13-8.84-4.2-13.7-5.89-4.85-1.68-10.02-2.82-15.22-4.19.88.29,5.1,1.4,2.39.78-1.3-.31-2.54-.61-3.69-.96-.58-.17-1.13-.37-1.59-.58-.45-.25-.84-.57-1.18-.96-.67-.78-1.28-1.86-2.3-2.55-.99-.72-2.14-1.05-3.23-1.23-.57-.07-1.07-.17-1.7-.17-.6,0-1.3.08-1.93.53-.64.45-.97,1.21-1.06,1.85-.1.66-.06,1.28,0,1.88.3,2.4,1.24,4.71,1.72,7.24.09.1.03-.52-.23-1.56-.25-1.03-.71-2.46-1.09-3.97-.18-.76-.35-1.55-.4-2.34-.05-.78-.01-1.61.4-2.32.4-.73,1.12-1.05,1.55-1.13.45-.11.72-.06.78-.04-.4.04-.83.08-1.24.3-.41.19-.79.53-1,.94-.44.82-.41,1.66-.36,2.41.15,1.53.58,2.93.97,4.34.39,1.39.84,2.81.96,4.15.02.33,0,.64-.06.89-.02.1-.09.24-.17.39-.08.15-.14.29-.25.44-.35.59-.81,1.16-1.27,1.72-1.88,2.22-4.08,4.31-6.44,6.12-.58.42-1.24.9-1.74,1.04-.5.13-1.27.06-1.99-.04-1.48-.22-3.02-.61-4.63-.87-.85-.05-1.83-.13-2.95-.1-.56.01-1.15.07-1.77.19-.37.08-.87.26-1.18.63-.32.37-.38.9-.25,1.39Zm180,203.89s0,0,.01,0c0,0,0,0-.01,0h0s0,0,0,0Zm.51.5s-.02-.09-.03-.12c0,0,0,0,0,0,0,0,0,.01,0,.02l.02.1ZM16.19,36.55l.02-.05v.05s-.01,0-.02,0Zm-.08.16l.06-.11s0,.09-.06.11Zm187.36,157.21c0-1.07,0-2.09,0-3.06.05-.06.1.04.13.16-.05,1.45-.09,2.36-.14,2.9Zm-32.32,103.07c.61-1.43,1.2-2.81,1.7-4.09-.23.82-.43,1.47-.43,1.47-.75,1.65-1.1,2.34-1.27,2.62Zm12.27,17.45c-1.75-.32-3.49-.63-5.15-.95-.24-.1.33-.07,1.04.02l4.11.93Zm-12.68-82.54c-.49-.08-.88-.16-1.21-.23.35.08.75.16,1.21.23Zm.79.1h0c-.24-.02-.45-.05-.66-.08.21.03.43.06.66.08Zm9.6-3.96c-.02-.17-.02-.32-.22-.46-.08-.06-.24-.11-.27-.1-.04,0-.09,0-.13,0-.17.03-.21.06-.29.09-.26.13-.45.26-.64.4-.39.28-.75.56-1.06.79-.61.48-.99.78-.74.62-.88.65-1.25.84-.98.57.7-.52,1.39-1.02,2.03-1.5.33-.24.64-.47.97-.68.18-.11.31-.21.61-.3.05-.01.13-.02.2-.02.01-.02.3.05.39.18.09.11.13.25.13.38,0,.06-.01.1-.02.15-.04.17-.1.26-.13.34.03-.1.12-.2.15-.48ZM12.47,41.83c-.01-.05-.04-.11-.07-.15.07.1.24.01.07.15Zm3.66-5.01c-.21.07-.14.13-.39.15-.06.06,0,.14.07.17-.06,0-.02.14-.16.11-.09-.18-.03-.25.13-.35-.04-.04-.1-.03-.13-.03.11-.05.3-.15.48-.05Zm-.55-1.61c.05.05.22.07.25.17l-.04.04c.05-.1-.26-.09-.21-.21Zm-6.27-4.61l.13-.02-.06.14-.07-.12Z"/>
        <polygon points="63.98 15.77 63.97 15.77 63.98 15.77 63.98 15.77"/>
        <path d="m195.33,120.93c-.16-.31-.34-.62-.51-.92.02.04.04.08.07.12.22.4.44.81.44.81Z"/>
        <path d="m93.4,34.97c-.16-.12-.31-.24-.47-.37.2.16.35.27.47.37Z"/>
        <path d="m62.15,14.83c1.73.81,4.02,1.87,3.77,1.89l-1.66-.84c-.12-.05-.21-.08-.28-.11,0-.02-.24-.15-.59-.32-.35-.17-.8-.4-1.24-.62Z"/>
        <path d="m25.1,84.62c.23.34.45.64.64.84-.21-.2-.45-.54-.64-.84Z"/>
        <path d="m75.95,129.46h0s-.03.01-.05.02c.02,0,.05-.02.05-.02Z"/>
        <path d="m24.87,84.24c.08.13.15.26.23.38-.09-.14-.17-.27-.23-.38Z"/>
        <path d="m80.04,161.64c-.1.09-.16.14-.16.14.06-.05.11-.09.16-.14Z"/>
        <path d="m75.9,129.48c-.16.08-.31.17-.47.26,0,0,.36-.21.47-.26Z"/>
        <path d="m52.3,200.78c.02.51.04,1.15.09,1.97-.06-.64-.08-1.33-.09-1.97Z"/>
        <polygon points="73.92 215.94 73.92 215.9 74.83 215.6 73.92 215.94"/>
        <path d="m202.86,218.59c0,.12-.03.34-.09.79,0-.04.04-.38.09-.79Z"/>
        <path d="m194.03,243.43c-.07.15-.14.29-.21.45.05-.11.1-.22.14-.31.03-.06.04-.09.07-.14Z"/>
        <path d="m193.08,245.88c-.1.32-.17.54-.17.54.26-.86.51-1.56.76-2.16-.06.15-.12.29-.17.45-.17.42-.31.85-.41,1.17Z"/>
        <path d="m188.92,262.18c-.1.24-.14.3-.18.36,0-.02,0-.03,0-.04l.17-.32Z"/>
        <path d="m62.15,14.83c-.24-.12-.48-.23-.7-.33-1.63-.79-.52-.26.7.33Z"/>
        <path d="m138.56,68.86c-.88-.48-1.75-.96-2.66-1.46,1.5.75,2.67,1.35,2.66,1.46Z"/>
        <path d="m2.74,42.36s0,0,0-.01c0,.23.01.44.02.67l-.02-.66Z"/>
        <path d="m135.9,67.4c-1.23-.62-2.68-1.34-3.91-2,1.51.74,2.76,1.38,3.91,2Z"/>
        <path d="m201,319.41s.02.04.08.08l-.92-.59.84.5Z"/>
        <path d="m201.98,320.12c-.41-.28-.77-.52-.89-.62l.89.62Z"/>
        <path d="m201.98,320.12c.65.45,1.43,1.03,1.8,1.4,0,0-.43-.37-.89-.71-.45-.35-.91-.68-.91-.68Z"/>
        <path d="m174.3,312.12c.16.05.25.1.28.13l-.28-.13Z"/>
        <path d="m168.88,310.31c-.5-.31-.67-.82-.74-1.21.1.4.29.8.64,1.07.19.14.45.26.68.4.26.12.55.23.83.34,1.17.42,2.5.77,3.78,1.09l.23.11c-.59-.2-2.04-.47-3.47-.94-.72-.22-1.42-.52-1.95-.86Z"/>
        <polygon points="173.9 94.28 174.75 95.26 171.82 92.53 173.9 94.28"/>
      </g>
      <g>
        <path class="cls-1" d="m171.52,232c-.24-.03-.45-.06-.66-.09.21.03.43.06.66.08h0Z"/>
        <path class="cls-1" d="m180.14,227.96h0s0,0,0,0c0,0,0,0,.01,0,0,0,0,0-.01,0Z"/>
        <path class="cls-1" d="m178.83,228.48c.33-.24.64-.47.97-.68.18-.11.31-.21.61-.3.05-.01.13-.02.2-.02.01-.02.3.05.39.18.09.11.13.25.13.38,0,.06-.01.1-.02.15-.04.17-.1.26-.13.34.03-.1.12-.2.15-.48-.02-.17-.02-.32-.22-.46-.08-.06-.24-.11-.27-.1-.04,0-.09,0-.13,0-.17.03-.21.06-.29.09-.26.13-.45.26-.64.4-.39.28-.75.56-1.06.79-.61.48-.99.78-.74.62-.88.65-1.25.84-.98.57.7-.52,1.39-1.02,2.03-1.5Z"/>
        <path class="cls-1" d="m180.63,228.34s0,0,0,0c0,0,0,.01,0,.02l.02.1s-.02-.09-.03-.12Z"/>
        <path class="cls-1" d="m169.53,231.67c.35.08.75.16,1.21.23-.49-.08-.88-.16-1.21-.23Z"/>
        <path class="cls-1" d="m118.9,253.33s0-.02,0-.03c.12,0,.16.01,0,.03Z"/>
        <path class="cls-1" d="m72.32,231.12c.37.12.62.17.81.2-.3,0,2.04,1.14-.81-.2Z"/>
        <path class="cls-1" d="m43.05,148.82c-.04-.23-.1-.44-.11-.6,0,0,.13.59.11.6Z"/>
        <path class="cls-1" d="m85.48,243.66c.04.06.08.12.13.18,0,0-.06-.07-.13-.18Z"/>
        <path class="cls-1" d="m0,61.56c.01,1.23.23,2.55.69,3.93.4.82.23.32.11-.11-.1-.45-.22-.79.23.35,0,0,.12.31.31.77.21.45.47,1.06.82,1.63.64,1.16,1.45,2.21,1.45,2.21l-.16-.23c.72,1.06,1.71,2.18,2.99,3.2.62.52,1.38.99,2.18,1.37.78.36,1.62.65,2.43.91.81.27,1.6.52,2.32.88.72.36,1.39.82,2,1.35.61.54,1.16,1.15,1.66,1.77.46.62.86,1.26,1.12,1.95l-.08-.24c0-.16.62.91.85,1.86.04.34-.16-.28-.42-.8.42,1.25.59,2.31.71,3.24.13.92.19,1.71.25,2.47.11,1.51.16,2.89.29,5.08-.01-1.9.22,1.75.42,1.92.04,1.18-.29-.67.02,1.96.17.95.47,1.9,1.01,2.74.52.85,1.31,1.52,2.12,1.95,1.65.84,3.22,1.08,4.59,1.6.51.27,1.17.58,1.55.84.37.26.51.51.45.58.37.47.3,1.2.07,1.93-.22.73-.58,1.44-.98,2.16-.79,1.46-1.81,2.97-3.07,5.2v.14c-.44.55-.95,1.56-1.34,2.57-.39,1.05-.63,2.1-.74,2.61.08-.15.24-.71.27-.55,0,0-.06.14-.09.38-.04.23-.09.54-.14.85-.01.32-.02.64-.03.87,0,.24.02.4.02.4-.04-.61.09-1.07.13-1.13.09-.06.06.29.19,1.29.24,2.11-.23-.56-.16.48l.35.58c.22.76.39,1.24.36,1.33-.02.09-.29-.2-.64-1.15.86,2.73,2.89,4.53,3.85,6.51.69,1.33,1.88,2.19,2.93,2.78.53.31,1.05.57,1.5.85.46.27.83.56,1,.82.01,0-.06-.32-.09-.32.32.35.43.64.33,1.14,0,.11-.06.25-.11.38l-.16.45-.2.59c-.04.21-.06.44-.08.66-.04.92.43,1.73.88,2.21.46.47.88.78,1.21.99.03.07.51.51.15.3,1.2.95,1.29.92,1.41.95.12.02.29.05,1.51,1.05-.58-.51-1.41-1.08-1.48-1.22,0,0,1.25.85,2.34,1.8,1.11.94,1.97,2.08,1.97,2.08.06,0,.71.6,1.28,1.61.59,1,.97,2.45,1,3.68-.04.09-.18-.59-.28-1.19l.08.76c.03.38.03.78.03.78,0,0,.09.29.14.6.06.31.11.61.11.61,0,0-.01.14-.03.36-.03.22-.07.51-.11.8-.07.58-.18,1.16-.18,1.16l.19.06c-.18,1.72-.5,2.39-.6,3.8-.15,2.66-.13,3.73-.09,4.6.03.87.1,1.56.24,3.43-.18.22-.12,1.69-.13,3.23-.02,1.54-.12,3.14-.31,3.59-.09,2.47-.68,5.47-1.33,8.67-.65,3.2-1.28,6.63-1.68,9.89l.11-.53c-.25,2.79-.72,3.11-1.24,6.05l.2-.72c-.29,1.9-.89,4.5-1.91,6.88-1.01,2.39-2.57,4.42-3.93,5.52.56-.45.39-.11-.47.64-.8.54.57-.78-.95.52.41-.28.16.04-.22.3l-.88.5c-.46.25-.91.52-.91.52-1.1.83-2.22,1.74-3.24,2.88-.5.58-.99,1.21-1.33,1.98-.35.75-.54,1.65-.43,2.53.12.87.48,1.69.97,2.33.48.67,1.11,1.27,1.8,1.67,1.38.85,2.88,1.22,4.31,1.44,1.08.05.3-.1.06-.19,2.26.3,4.52.2,6.69-.1,2.17-.33,4.26-.81,6.18-1.63l.29-.36c.9-.43,1.15-.43,1.41-.42.25.02.51.02,1.71.34.27.09-.13-.08-.63-.24-.53-.18-1.04-.23-1.3-.17.67-.23,1.3.06,1.7.17.42.16.66.28.91.41.49.26.94.53,2.68,1.23l-.81-.59c2.71.96,3.01,1.33,3.93,1.84,3.68,1.68,2.85.55,7.89,2.68.77.42-.33.06.44.48,3.61,1.33,3.97,1.65,7.53,3.08,2.02.48-1.8-.77.39-.2l-2.73-1.06c2.41.78-2.11-.91-1.66-.95,1.78.64,4.38,1.9,6.59,2.99.07-.16-2.61-1.18-1.48-.92l1.13.57c-.3-.18-.33-.26-1.01-.56.48.05,1.37.59,2.46,1.11.04.11-.07.19-.48.13.05,0,.14.02.32.08,2.14,1.23,5.92,3.03,7.36,4.49-.23-.23,0-.08.11-.04.55.45,1.06.98,1.42,1.58.16.27.32.67.5,1.08.18.41.37.84.57,1.29.61.94-.01-.73,1.45,2.21.08.29-.1.14-.14.22-.03.07.04.39.76,1.42-.3-.5-1-1.78-.36-.9.71,1.2.91,1.36,1.06,1.49.17.11.29.24,1.26,1.07.96,1.13,2.22,1.63,2.32,2.03.87.28.62.25,2.21.89-.78-.12,2.88,1.44,2.72,1.54.72.05-2.57-1.31-.42-.71,1.34.72,3.99,1.62,4.15,1.91,1.12.29,1.65.34,3.4.78-.28-.06-.6-.2-.77-.26,1.52.5,3.46.92,5.24,1.24,1.78.31,3.41.53,4.3.74-.31-.2,1.39-.07,2.87-.04,1.48,0,2.74-.02,1.51-.17,1.34.01,3.45.03,3.92.03-.08-.13.74-.23,1.76-.36,1.02-.14,2.24-.34,2.93-.56.76.02,3.13-.62,4.48-.84-.61.11-.95.14-.75.02,1.56-.25,1.16-.24,2.47-.61,2.15-.2-.36.26.94.22,1.84-.26.26-.21.58-.36,0,0,.7,0,1.4.02.7.03,1.39.07,1.39.07.56-.04.96-.11,1.18-.17.96.09,1.81.21,3.17.18,0,0-.59-.04-1.19-.07-.6-.03-1.19-.04-1.19-.04l.92-.11s.71.07,1.41.16c.7.1,1.4.21,1.4.21,1.26.07,2,.11,2.43.11.05-.02.09-.05.14-.06.04-.02.08-.03.12-.05.05-.02.1-.04.14-.06.03-.01.06-.02.09-.04-.05-.09-.17-.19-.26-.29.15.03.26.05.26.05.12.04.24.07.35.1.23-.08.5-.12.75-.17.13-.03.27-.05.4-.08.14,0,.3,0,.45,0,.29.01.68.03.88.07.96.13,2.29.21,4.12-.32.47-.13.86-.26,1.23-.44.35-.17.76-.45.84-.66.06-.13.02-.32-.12-.45-.15-.14-.5-.34-.91-.46-.86-.27-2.01-.51-3.45-.93,0,0,.47.22.95.41.47.19.95.38.95.38-3.74-.92-4.97-1.89-5.63-3.12-.29-.65-.43-1.4-.21-2.45.26-1.02.86-2.28,2.08-3.95-.51.52-1.41,1.83-1.91,3.02-.1.31-.2.61-.29.86-.04.28-.07.51-.09.68-.04.34-.05.42-.02.08.1-1.57.67-2.37.97-2.99.38-.57.63-.94.89-1.25.54-.59.98-1.07,2.28-2.59l.38-.77c1.36-1.55,2.77-3.14,4.47-4.57.86-.71,1.81-1.35,2.88-1.83,1.07-.48,2.29-.73,3.47-.68,1.19.04,2.34.29,3.44.65,1.06.35,2.12.7,3.18,1.06,2.13.67,4.29,1.36,6.46,1.6-.48-.11-1.93-.38.08-.19.65.07,1.36.07,1.89-.06.52-.15,1.16-.54,1.75-.92,1.2-.78,2.37-1.68,3.6-2.57.31-.22.62-.44.98-.67.09-.05.19-.11.32-.17.07-.03.15-.06.27-.09.1-.02.19-.02.3-.01.25.03.54.27.58.44.04.09.07.2.07.3,0,.11,0,.09-.01.14-.01.07-.03.14-.05.2l-.09.21-.13.25c-.33.66-.62,1.32-.82,1.99-.43,1.33-.41,2.73.3,3.78.35.52.85,1.03,1.3,1.14.43.14.94-.03,1.52-.41.28-.18.57-.4.91-.63.16-.11.37-.24.62-.35.17-.05.27-.12.5-.12.23,0,.46,0,.67.15.1.06.22.13.29.2l.16.21.15.22c-.14-.23-.04-.06-.06-.11h0s.01.02.01.02l.02.03.04.06c.05.07.14.2.1.1,0-.05-.1-.05-.05-.05.03.02.27,0,.49-.13.97-.5,1.67-1.8,1.49-2.8-.07-.49-.35-1.03-.72-1.5-.37-.47-.86-.89-1.38-1.34,0,0-.19-.19-.48-.47-.29-.28-.68-.71-1.04-1.16-.73-.92-1.13-2.02-1.13-2.02-.41-.98-.66-1.85-.4-.73-.36-1.11-.41-1.7-.47-1.96-.03-.25,0-.21.03-.11.09.22.23.7.1-.32-.18-1.2-.39-1.95-.49-2.23-.1-.28-.1-.09.04.64-.17-.9-.41-1.89-.84-2.79-.45-.88-1.12-1.62-2.17-1.66-1.03-.09-2.25.32-3.39.87-1.16.56-2.37,1.23-3.55,1.88-1.19.66-2.41,1.34-3.69,1.86-1.27.53-2.54.94-3.76,1.34-2.46.76-4.68,1.51-6.72,1.96.01.04,1.58-.3,1.58-.3-3.11.84-5.08.63-6.79.18-1.73-.46-3.23-1.31-5.79-2.6l.96.55c-1.49-.8-2.98-1.56-4.57-2.09-1.58-.56-3.25-.81-4.94-.92-3.4-.29-6.74.41-10.07.98-3.33.59-6.69.69-9.77.4-3.09-.27-5.93-.89-8.46-1.44-.92-.36-4.18-1.18-7.26-2.11-3.08-.93-5.99-1.89-6.35-2.19-3.69-1.09-5.02-1.33-6.73-1.6-.85-.11-1.8-.24-3.19-.26-1.39-.02-3.23.05-5.81.64-2.75.65-4.15.88-7.52,2.07l-.02.21.91-.29-.91.34v-.05s-1.17.37-2.34.74c-1.18.36-2.39.65-2.39.65,0,0-.63.23-1.28.41-.33.08-.66.17-.91.23-.26.04-.43.07-.43.07,0,0-.23.01-.57.03-.34.02-.81-.04-1.27-.07-.46-.1-.92-.18-1.26-.3-.33-.13-.55-.22-.55-.22-.58-.21-.91-.41-1.23-.57l.58.29c.26.14.66.29.65.29,1.41.62,3.1.45,2.86.41-.35-.03-.72-.05-1.09-.08-.37-.08-.74-.15-1.12-.25-.36-.14-.74-.29-1.08-.44-.32-.15-.63-.31-.96-.44-.65-.28-1.31-.51-1.98-.74-.66-.22-1.37-.46-2-.88-1.25-.89-1.8-2.03-2.2-2.74-.39-.74-.62-1.2-.65-1.22,0,0-.07-.18-.2-.51-.13-.32-.31-.78-.5-1.34-.41-1.1-.9-2.65-1.2-4.22-.32-1.57-.43-3.17-.45-4.37,0-.6-.01-1.09,0-1.44.01-.35.02-.55.02-.55-.06.17-.11,1.07-.1,2.14.02.51.04,1.15.09,1.97-.06-.64-.08-1.33-.09-1.97-.05-1.58,0-1.8-.06-1.99-.02-.23-.17-.43.26-3.5-.06.83.17-.43.23-.56.14-1.53.56-4.01,1.08-6.69.25-1.36.53-2.72.64-4.09.13-1.37.15-2.75.32-4.09,0,0-.06.25-.12.5-.05.25-.11.5-.11.5.08-1.17.25-2.49.83-3.71.57-1.23,1.49-2.22,2.46-3.06,1.98-1.63,4.23-2.8,6.49-3.92,2.25-1.11,4.56-2.17,6.86-3.27,2.29-1.1,4.59-2.23,6.68-3.62-1.48,1.02-2.1,1.38-1.94,1.4.14-.01,1.02-.41,2.26-1.23,0,0,.22-.21.42-.43.21-.22.41-.43.41-.43,1.58-1.06-2.39,1.93.78-.34,1.41-1.24,1.68-1.83,1.58-1.77-.1.05-.62.56-1.33,1.17-.1.09-.16.14-.16.14.06-.05.11-.09.16-.14.28-.25.88-.8,1.38-1.44.72-.84,1.21-1.83,1.21-1.83.07-.25-.42.65-.66.82.28-.35.6-.97.91-1.73.13-.41.28-.79.42-1.29.14-.49.29-1,.44-1.52.62-2.06,1.35-4.18,1.86-5.46l.02-.27c.19-.6.36-1.19.48-1.73.06-.27.11-.54.14-.78.02-.13,0-.1,0-.14-.03-.05-.04-.06-.16,0-.29.14-.77.43-1.17.7-1.68,1.08-3.1,2.14-4.48,3.22-2.74,2.18-5.48,4.15-8.91,6.52-.24-.06-2.84,1.93-4.88,3.4-1.2.98-2.44,1.98-3.71,3.01-1.32,1-2.56,2.09-4.37,2.85l-.39.11c-.12.04-.26.07-.44.06-.16,0-.34,0-.49-.03l-.43-.13c-.54-.24-.98-.61-1.3-1.06-.64-.89-.83-1.95-.84-2.94,0-1,.21-1.98.55-2.89.31-.93.77-1.79,1.26-2.63.74-1.15,1.25-1.73,1.52-2.07.28-.34.35-.39.38-.39.04,0-.13.3.63-.59.06-.19,1.18-1.78,1.96-2.96.77-1.19,1.24-1.94.12-.39,2.49-3.68,3.93-6.15,5.61-8.82.84-1.34,1.72-2.74,2.82-4.39.55-.82,1.15-1.7,1.85-2.66.69-.95,1.47-2,2.49-3.06-.85.97-1.63,2.12-1.16,1.58.66-.81,1.43-1.73,2.14-2.34.71-.62,1.27-.9,1.11-.87.59-.31,1.19-.54,1.74-.8.72-.33,1.42-.72,2.1-1.19,1.36-.93,2.64-2.07,3.9-3.25,2.54-2.43,5.21-4.85,7.88-7.14,2.65-2.3,5.31-4.46,7.33-6.77.93-1.12,1.7-2.43,2.4-3.67.63-1.13,1.2-2.21,1.74-3.23.28-.56,1.27-2.52,2.22-4.52l2.29-4.73c2.1-4.39-1.38,2.57.1-.71.33-.64.65-1.25.99-1.85.17-.3.35-.6.52-.89.17-.29.31-.52.45-.8.54-1.08.94-2.22,1.28-3.32.34-1.1.62-2.19.85-3.25.12-.53.23-1.06.32-1.58.12-.67.12-.67.14-.86.02-.31.11-.63-.01-.89-.14.07-.18.25-.26.38l-.21.4c-.42.73-.84,1.46-1.28,2.22-.56.94-1.14,1.9-1.74,2.9-.8,1.62-2.01,3.81-3.38,6.34-.69,1.27-1.4,2.62-2.13,4.04-.72,1.41-1.48,2.93-2.34,4.4-1.68,2.96-3.76,5.83-5.93,8.25-2.13,2.44-4.35,4.51-5.86,6.32l.29-.49c-1.74,1.77-1.94,2.31-3.11,3.74.1-.26,1.68-2.14.63-.99-1.73,2.02-3.43,4.1-5.24,6.14-.9,1.02-1.84,2.03-2.85,2.99-.51.48-1.04.95-1.64,1.37-.3.21-.62.42-.98.59-.36.17-.78.33-1.3.33-.53.04-1.15-.32-1.43-.73-.17-.21-.27-.41-.34-.61-.1-.22-.14-.37-.19-.54-.22-.67-.4-1.36-.56-2.04-.32-1.37-.54-2.76-.68-4.16-.28-2.8-.28-5.62-.02-8.43.25-2.8.8-5.6,1.53-8.3.69-2.69,1.61-5.35,1.81-7.92.09-1.27-.11-2.47-.74-3.41-.08-.12-.15-.24-.24-.35l-.3-.31c-.18-.22-.43-.4-.66-.58-.21-.18-.51-.37-.8-.56l-.87-.58c-1.16-.77-2.29-1.64-3.37-2.4-1.1-.77-2.25-1.5-3.39-2.24-.84-.54-1.52-.98-2.1-1.36-.58-.39-1.06-.75-1.45-1.04-.77-.64-1.25-1.09-1.74-1.63-.25-.26-.52-.54-.8-.89-.3-.33-.63-.73-1.01-1.24-.39-.5-.81-1.13-1.29-1.9-.47-.78-.96-1.72-1.61-2.74,0,0,.31.61.6,1.26.31.66.61,1.32.61,1.32-.91-1.66-1.61-3.25-2.82-4.43-.27-.32-.63-.56-.94-.84l-1.09-.75c-.82-.55-1.59-1.17-2.26-1.88-1.38-1.39-2.43-3.01-3.42-4.58-.5-.78-.98-1.56-1.51-2.23-.26-.32-.54-.63-.82-.81-.28-.24-.51-.21-.76-.23-.49.08-1.04-.1-1.38-.38-.35-.27-.56-.57-.73-.86-.35-.58-.55-1.15-.73-1.72-.31-1-.51-2-.69-2.99-.72,4.36-1.4,8.77-2.95,12.92.36-.9.45-.9.89-2.41-.2.83-.52,2-1.04,3.27-.24.62-.6,1.33-.85,1.88-.27.59-.5,1.23-.73,1.84-.44,1.23-.81,2.41-1.09,3.26-.28.86-.47,1.4-.51,1.41-.69,2.37-.05.58-.44,2.06-.23.81-.53,1.73-.9,2.66-.38.94-.8,1.9-1.53,2.8-.19.22-.42.44-.71.63-.3.18-.69.34-1.09.31-.83-.04-1.29-.51-1.62-.82-.59-.63-1.02-1.21-1.29-1.62-.07-.11-.02.01.1.21-.2-.33-.41-.7-.59-1.1-.46-1.02-.76-2.17-1.02-3.12-.49-1.91-1.22-2.89-.68-2.17-.31-.59-.71-1.07-1.2-1.45-.23-.21-.51-.35-.78-.51-.27-.16-.64-.33-.95-.5-1.28-.69-2.48-1.46-3.57-2.33-2.18-1.73-3.87-3.69-5.49-5.42.15.19.33.4.42.54l-1.35-1.48c-.67-.75-1.31-1.55-1.31-1.55.7.82,1.46,1.65,2.24,2.49-.94-1.23-2.7-3.14-3.83-5.27-.56-1.06-.93-2.18-1.03-3.11-.11-.92-.01-1.61.07-1.87-.06.08-.07-.26.01-.88.12-.69.34-1.35.33-2.24,0-.88-.24-1.9-.69-2.9-.23-.5-.51-.99-.82-1.45-.12-.18-.24-.34-.37-.51-.04-.05-.08-.11-.12-.16-.1-.13-.17-.22-.27-.34-.09-.11-.21-.23-.41-.44l-.09-.51-.02-.14c-.03.07-.05.13-.07.19l.09.51.22.23.17.19.05.06s.01.01.02.02c.05.05.08.1.13.16l-.13-.16-.02-.02c-.08-.09-.19-.21-.45-.48-.03-.16-.06-.33-.09-.5-.09.24-.17.46-.25.7-.47,1.34-.81,2.53-.95,3.42-.76,2.17-1.18,4.08-1.61,6.1-.1.51-.22,1-.32,1.56-.09.58-.17,1.17-.15,1.79Zm75.43,68.18s.36-.21.47-.26c-.16.08-.31.17-.47.26Zm-49.7-44.3c-.21-.2-.45-.54-.64-.84.23.34.45.64.64.84Zm5.56,137.97h0c.27.03.48.05.67.07-.2-.02-.43-.05-.67-.07Zm-5.12-2.01c.66.58,1.89,1.07,1.63.91.5.24.68.36.48.35-.82-.36-1.58-.78-2.1-1.26Z"/>
        <polygon class="cls-1" points="43.05 153.87 43.1 153.88 43.02 154.34 43.05 153.87"/>
        <path class="cls-1" d="m16.13,36.82c-.21.07-.14.13-.39.15-.06.06,0,.14.07.17-.06,0-.02.14-.16.11-.09-.18-.03-.25.13-.35-.04-.04-.1-.03-.13-.03.11-.05.3-.15.48-.05Z"/>
        <path class="cls-1" d="m15.97,35.73s0,.06-.02.09c0-.03,0-.05-.01-.07l.03-.02Z"/>
        <path class="cls-1" d="m12.47,41.83c-.01-.05-.04-.11-.07-.15.07.1.24.01.07.15Z"/>
        <path class="cls-1" d="m15.93,35.7v.05s-.03.03-.05.02c.04-.03.05-.05.05-.07Z"/>
        <path class="cls-1" d="m4.21,29.33c.09.09.15.17.19.25-.01,0-.02.02-.04.03l-.15-.27Z"/>
        <path class="cls-1" d="m15.88,36.32c.03-.16.1-.34.08-.49-.04.08-.12.15-.17.2-.15-.1.06-.15.02-.26-.08,0-.13-.01-.17.04,0-.16-.06-.26-.21-.32,0,0-.01.16-.11.18-.01-.01-.02-.03-.03-.04-.03-.23.06-.4-.04-.66-.03-.45-.58-.3-.6-.61.04-.07.21,0,.13-.13-.08.13-.13.02-.17.06.02-.27-.21-.1-.2-.29-.01.06-.12.05-.2.05-.1.16-.18-.04-.17.31,0-.37-.36-.18-.24-.63h.08s-.24-.07-.24-.07h.01c-.1-.03-.08-.08-.3,0,.02.07.09.12.11.19-.19.07-.12-.26-.23-.34-.07.12.09.12-.04.23-.09-.04-.1-.16-.15-.25l-.03.07c-.29.01.13-.36-.15-.25.03-.03.04-.09.07-.12-.1.03-.3.06-.23.22-.07-.05-.11-.15-.1-.25.12-.06.1,0,.2-.1l-.23-.25s-.02.08.02.1c-.55.12-.47-.71-1.1-.55.11-.08.03-.11.05-.2-.14-.05-.3-.19-.45-.2v.09c-.23-.27-.34-.51-.56-.59.01-.04-.07.1-.05.14-.04-.22-.49.07-.33-.23h.06c-.3-.13-.43-.53-.65-.76-.19.11.13.13-.07.27-.23-.08-.31-.36-.55-.47.02.05,0,.06,0,.08-.28-.06.15-.14-.04-.25-.05.08-.08.1-.16.09l.05-.16s-.1.11-.1.17c.05-.22-.26-.29-.2-.49-.05.03-.12.21-.18.25-.13-.02-.14-.13-.15-.24h0c-.15.06-.29-.07-.27-.03-.2-.07.04-.11-.01-.3l.18.03-.21-.21.03.15c-.15-.02-.16-.23-.29-.32l.12-.05-.1-.16c-.15.18-.21-.09-.29.19-.3-.07-.46-.55-.83-.83.06.04.03.08.04.13-.2-.07-.32-.3-.49-.55.04.12.1.18.11.26-.25-.16-.18-.28-.51-.57.12.2.11.25.05.24-.02-.12-.12-.25-.19-.32.38.73-.07.25.06.58.02.04.04.1.08.17-.01-.04-.08-.13-.15-.23-.18-.24-.45-.57-.48-.75l.1.11c-.09-.21-.16-.19-.25-.26.06.06.13.14.15.18l-.12-.11c-.15-.03-.22.01-.32.06h0c-.08.04-.17.06-.27.05.03.02.15.08.12.11-.08.02-.18-.02-.26-.03-.07-.03-.19,0-.12,0,0,0,0,0,0,0,.04,0,.08,0,.11.03-.04,0-.13-.03-.12-.02.04.02.06.04.08.05,0,0,0,.01.01.02-.03-.02-.05-.03-.07-.04,0,0-.02-.01-.02-.01,0,0,.04.03.09.08,0,0-.01.01-.03.02.13.19.13.21.08.21-.05.02-.15,0,.02.26-.15-.18-.25-.13-.32-.02.17.09.13.22.26.28-.07-.01-.13,0-.18.03,0,0,0,.01-.01.02-.05.05-.1.12-.09.2.14.19.29.35.44.43-.19-.09-.09.07.02.24.15.2.15.31.08.37.09.16.11.29.13.45.01.13.07.38.1.43-.18-.04-.07.18-.13.26,0-.02.03-.06.06-.05.15.04-.11.21-.01.3.07.04.16-.02.18.05-.12,0-.26.28-.11.38,0-.05.06-.05.11-.08-.2.47.02,1.01-.3,1.47l.22-.06c.22.35-.37.16-.37.4-.01.6.06,1.28-.16,1.86-.02.07-.04.14-.07.2,0,0,0,0,0,0-.06.02-.06-.05-.13-.08,0,.06.17.13.04.17l-.1-.05c.17.32-.24.7-.19,1.02.01.07.04.14.11.21-.25.28,0,.57-.34.91.08.15.21-.12.21.06l-.22.37.02-.02c-.09.09-.13.2-.12.32.02.15.07.3.14.45.05.14.16.32.24.48.03.07.07.14.11.2.05.08.1.17.12.26v-.03c.05-.06.18-.02.25.05,0,.06-.08.04-.18.05.08.11.15.18.23.25.09.08.18.14.27.19.18.11.22.11.38.17-.07-.14.12-.07.17-.22.01.11-.08.15-.01.26.04.04.19-.03.28.03-.11.09-.06.1-.23.17,0,.07,0,.13-.01.18-.02.08-.04.18-.04.3h.06c-.21.06.1.25-.04.3.08,0,.11-.03.17-.02l-.09.13c.07-.06.29-.07.29.05-.17.1-.1-.05-.23,0l.2.06c-.03.09-.27.08-.31-.04-.03.28-.19.63-.21.94h.14c-.08.15-.11.39,0,.51-.04,0-.11.04-.15,0-.2.19.22.05,0,.26.06-.05.09-.12.17-.12,0,0-.21.41-.21.42.1.02.3.3.21.48-.06,0-.13-.05-.14-.1,0,0-.06.12-.05.13l.24.12s-.18.25-.18.26l.19-.03c-.02.17-.28.31-.2.47.27.51.32.37.61.52.01,0,.02,0,.03.02-.12.16,0,.25.14.34.15.06.31.07.31.22.07-.01.15-.03.22-.05.53-.12,1.16-.31,1.47-.57h-.05c.09-.26.35.12.49-.06l-.07-.02c.09-.22.36-.33.62-.39.11-.02.22-.04.31-.05-.06-.01-.08-.08-.06-.13,0-.01,0-.03.01-.03,0,0,.01,0,.02.01.08.04.08.23.15.1-.05,0-.07-.09-.05-.11l.22.07c.23-.32.51-.67.87-.81,0-.02,0-.04-.02-.05-.02-.05-.06-.08-.1-.11.25-.14.55-.21.79-.33.02-.01.04-.02.06-.03h0s-.11-.18-.11-.18c.1-.09.27.2.29-.06.01-.05-.1.06-.2.02.11-.3.25.06.44-.13l-.21-.14c.06-.24.26-.05.4.01.4.03-.15-.48.27-.57.12.05.1.14.23.19.16-.22.29-.13.45-.35-.14-.36-.1.09-.22-.26l-.09.2c0-.24-.13.02-.25-.09,0,0-.02,0-.03-.02.04-.1.2-.13.35-.16.05-.01.1-.02.15-.04-.01-.01-.02-.01-.04-.02-.09-.04-.13.11-.21-.07h.11s-.09-.07-.13-.03c-.08-.13.07-.08.13-.13.05.05.11.12.17.2.01.02.02.03.04.04,0-.01-.02-.03-.02-.05,0,0,0,0,0,0,0,0,.01,0,.02,0,.27.03.36-.28.58-.26-.02,0-.04-.02-.04-.03,0-.01-.01-.03-.02-.04.03-.04.1-.04.18-.04.08,0,.18,0,.25-.03,0-.03-.03-.05-.04-.08-.07-.09-.2-.16-.04-.25.07.04.14.13.21.17.05.03.09.04.14-.02,0,0-.06.01-.11,0-.04,0-.08-.03-.09-.08.2-.07.01-.07.02-.3.2.06.07-.18.31.01-.11-.18-.06-.12-.09-.3.09.15.27-.05.41.09-.14-.19-.34-.04-.41-.31.18.03.35-.08.54.07.01-.1-.03-.18.03-.29,0,.02-.05.01-.08,0,.14-.03.23-.14.33-.23.05-.05.11-.08.18-.09.04,0,.09-.02.15,0-.03-.02-.04-.03-.05-.05-.15-.17.29-.35-.05-.42.07-.06.27-.08.35-.07-.22-.16.09-.22.02-.4.15.05.21-.11.35-.13-.05.02-.11,0-.16-.05.16-.02.06-.06,0-.22.16-.07.15.15.31.15.03-.14-.13-.12-.21-.21h.34s-.02-.1-.08-.15c.11,0,.24.01.18-.15l-.11.13-.08-.13.26-.06c0-.16-.06-.26-.15-.34l.1-.08-.2-.06s0,.04,0,.06c-.08-.05-.17-.1-.25-.15,0,0,0-.01,0-.01.31-.41.31-.83.1-1.27l.16-.15c.14.19-.22.54.15.57l.02-.11c.06,0,.26.04.16.2-.03.05-.19.08-.18.02l.05.1c.2-.04.2-.34.2-.54-.05.08-.08.22-.19.2Zm-6.18,7.29s.08.02.1.08c-.05.03-.09.07-.12.1.01-.07.06-.15.02-.17Zm.27-.03h0s.06-.04.08-.04c-.02.01-.05.03-.08.04Zm2.07-10.54s-.06-.04-.09-.06c.02-.04.06-.09.09-.12.04.07.03.13,0,.18Zm2.87,2.16s-.06-.07-.1-.1l.14-.07c0,.08-.02.13-.04.17Zm.67.58s-.05.13-.08.21c-.02-.05-.04-.1-.07-.14.05-.04.11-.07.15-.06Z"/>
        <path class="cls-1" d="m4.05,27.41s0,0,0,0c0,0-.03,0,0,0Z"/>
        <polygon class="cls-1" points="4.83 44.28 4.88 44.27 4.84 44.33 4.83 44.28"/>
        <path class="cls-1" d="m14.23,33.98s-.02.05-.04.07h0s.04-.07.04-.07Z"/>
        <path class="cls-1" d="m4.86,27.15s-.02,0-.03,0c-.07-.03-.03-.03.03,0Z"/>
        <path class="cls-1" d="m8.14,29.88s-.01-.09-.03-.13c.05.02.09.05.03.13Z"/>
        <polygon class="cls-1" points="3.89 27.99 3.89 27.99 3.88 28.01 3.89 27.99"/>
        <path class="cls-1" d="m16.21,36.5v.05s-.01,0-.02,0l.02-.05Z"/>
        <path class="cls-1" d="m16.11,36.71l.06-.11s0,.09-.06.11Z"/>
        <path class="cls-1" d="m15.58,35.21c.05.05.22.07.25.17l-.04.04c.05-.1-.26-.09-.21-.21Z"/>
        <polygon class="cls-1" points="9.3 30.6 9.44 30.58 9.38 30.72 9.3 30.6"/>
      </g>
    </g>
  </g>
</svg>