<?xml version="1.0" encoding="UTF-8"?>
<svg id="Layer_2" data-name="Layer 2" xmlns="http://www.w3.org/2000/svg" viewBox="0 0 493.34 180.52">
  <defs>
    <style>
      .cls-1 {
        fill: #fff;
      }

      .cls-2 {
        fill: #eac9c4;
      }

      .cls-3 {
        fill: none;
      }
    </style>
  </defs>
  <g id="Layer_2-2" data-name="Layer 2">
    <g>
      <path class="cls-3" d="m16.94,171.92l.15.24c0-.1,0-.2,0-.29-.06-.01-.12.01-.16.06Z"/>
      <path class="cls-3" d="m74.08,177.72s.35-.1.68-.23c.13-.05.26-.09.37-.14-.45.09-.9.17-1.35.24-.05.07.1.11.29.12Z"/>
      <path class="cls-3" d="m16.88,172.46c.07-.2-.05-.21-.1-.3,0,.07-.02.14-.04.21.05.04.1.07.14.09Z"/>
      <path class="cls-3" d="m125.9,174.38c1.5.51,2.13.69,2.32.69-.79-.29-1.58-.58-2.35-.87-.09.02-.03.1.04.17Z"/>
      <path class="cls-3" d="m16.85,96.19s0,0,0,0c0,0-.01,0-.02,0h.01Z"/>
      <path class="cls-3" d="m355.82,84.3c-.81-.09-1.52-.18-2.06-.24-.06,0-.13.02-.2.03.9.21,1.6.22,2.26.21Z"/>
      <path class="cls-3" d="m32.8,176.12h0c-.08,0-.13,0-.17,0,.04,0,.1,0,.16,0Z"/>
      <path class="cls-3" d="m353.81,84.05c-.08,0-.23-.02-.36-.03.09.01.2.02.3.03.02,0,.04,0,.06,0Z"/>
      <path class="cls-3" d="m78.89,176.84s.02,0,.03,0c-.02,0-.05,0-.07,0,0,0,.02,0,.03.01Z"/>
      <path class="cls-3" d="m20.3,164.38s0,.04.02.06c.05-.05.1-.11.15-.16,0,0,0,0,0,0-.04.03-.09.07-.16.11Z"/>
      <path class="cls-3" d="m17.25,170.34c.02-.09.03-.17.05-.26l-.16.06c.04.11.08.17.11.2Z"/>
      <path class="cls-3" d="m172.75,147.48c-1.1.39-1.91.69-2.35.9-.05.03-.1.05-.15.08.55-.16.99-.25.99-.25.83-.35,1.31-.57,1.59-.71,0,0,0,0,0-.01-.04,0-.07,0-.08,0Z"/>
      <path class="cls-3" d="m66.26,178.24c.21.09.38.15.38.15.45-.07.66-.12.75-.16-.38,0-.76.01-1.13,0Z"/>
      <path class="cls-3" d="m16.85,170.36c-.19-.65.44-1.08.33-1.54-.07-.05-.21.26-.18-.02.13.09.13-.13.2-.12-.1-.35.21-.39.14-.63.03.07.15-.07.24-.16-.02-.01-.04-.03-.06-.05l.06.05h0c.16.1.19-.26.28.23-.12-.52.36-.65.13-1.13l-.1.07.29-.34h-.01s-.17.19-.17.19l.17-.18c.12-.15.09-.21.38-.32-.02.11-.09.25-.1.37.24-.12.11-.48.26-.7.11.09-.11.25.07.27.12-.14.12-.32.18-.48l.05.06c.39-.27-.21-.36.19-.48-.04-.02-.06-.08-.1-.09-.02,0-.04,0-.06.01.03-.02.05-.02.06-.01.14-.05.43-.18.32.09.1-.12.16-.29.14-.41-.17.03-.15.09-.29.04l.24-.37c-.09.11-.27.34-.26.34-.07.02-.14-.08.03-.26-.24.29-.79.71-1.17,1.28-.4.55-.63,1.18-.64,1.47-.1.12-.13-.32-.28-.14-.35.8-.37,1.43-.38,2.01.1.03.05.35,0,.78,0,.33-.02.69-.07,1.13,0-.36.03-.78.07-1.13,0-.27,0-.52,0-.78h0c-.23.58-.28,2.11-.29,1.79-.07.83-.08.93-.03.98.02.03.05.04.06.14,0,.1.04.31-.19.6.02,0,.21-.21.31-.55-.01-.04-.03-.07-.04-.11-.03-.03-.05-.07-.06-.12h.03s-.01-.07-.01-.07v-.11s0,.11,0,.11c0,.04.03.06.08.07-.02.02-.04.01-.07,0l.02.11s.04.03.06.05c0-.02.01-.03.01-.04.09-.4.12-.89.12-.86,0,.19-.02.4-.04.61.04-.04.08-.06.12-.03-.07-.24-.1-.44.03-.68,0,0,.07.22.17.16,0-.04,0-.09.01-.13-.07-.36-.22-.51-.27-.99Zm-.28,1.22l.06.02-.06-.02-.05-.02c-.02-.18.12-.35.15-.47.09.12-.19.4-.1.49Z"/>
      <path class="cls-3" d="m19.92,164.48c-.07.03-.17.08-.3.15-.01.03-.02.06-.04.09.14-.06.25-.14.35-.24Z"/>
      <path class="cls-3" d="m33.25,176.01c-.07,0-.1.05-.08.12.11,0,.21.01.29.02-.1-.06-.25-.1-.21-.14Z"/>
      <path class="cls-3" d="m75.35,177.32l-.42.3c1.1-.18,2.5-.78,3.43-.96-.03,0-.05-.02-.08-.03-.94.26-1.93.48-2.93.68Z"/>
      <path class="cls-3" d="m78.33,176.84s.22.05.53,0c-.09-.03-.17-.06-.26-.09l-.27.09Z"/>
      <path class="cls-3" d="m162.25,175.3s.07-.05.11-.07c-.04.03-.07.05-.11.07Z"/>
      <path class="cls-3" d="m213.07,144.09c.1-.02.25-.06.42-.11h0c-.21.05-.33.09-.42.11Z"/>
      <path class="cls-3" d="m162.89,174.79s-.06.05-.08.08c0,0,.02-.01.03-.02.02-.02.04-.04.06-.06Z"/>
      <path class="cls-3" d="m214.63,143.59c-.18.03-.23.11-.16.16.28-.06.54-.11.76-.15-.27,0-.69.06-.6,0Z"/>
      <path class="cls-3" d="m354.25,83.98s.05,0,.07-.01c.4.04.71.07.97.1-.07-.04-.25-.1-.81-.14-.11.01-.17.03-.23.06Z"/>
      <g>
        <path class="cls-1" d="m53.04,133.59c.12-.11.3-.27.52-.47h0c-.26.24-.41.37-.51.47Z"/>
        <path class="cls-1" d="m76.86,126.48s.02,0,.03,0h-.01s-.01,0-.01,0Z"/>
        <path class="cls-1" d="m98.17,139.96h0s0,0,0-.01c0,0,0,0,0,0h0Z"/>
        <path class="cls-1" d="m54.74,132.03c.34-.3.66-.58.92-.81-.35.24-.87.66-.78.53-.21.19-.25.31-.14.28Z"/>
        <polygon class="cls-1" points="98.17 139.89 98.17 139.89 98.17 139.89 98.17 139.89"/>
        <path class="cls-1" d="m96,136.97l.03-.02s.04-.06.08-.07c0-.02-.06,0-.12.02,0,.02.01.04.02.06h0Z"/>
        <path class="cls-1" d="m95.95,136.8s-.02-.03-.02-.04l.02.04h0Z"/>
        <path class="cls-1" d="m80.05,150.26s0,.01.02.03c.02,0,.02-.04.03-.08-.01.02-.03.03-.04.04Z"/>
        <path class="cls-1" d="m76.78,126.4s.07.04.09.06l.04-.04c.02-.11-.05-.07-.13-.02Z"/>
        <path class="cls-1" d="m78.07,125.45v-.02s-.01.02-.01.02c0,0,.01,0,.01,0Z"/>
        <path class="cls-1" d="m78.08,152.38s0,.06.01.08c.06-.05.02,0-.01-.08Z"/>
        <polygon class="cls-1" points="98.17 139.9 98.17 139.92 98.17 139.93 98.17 139.9"/>
        <path class="cls-1" d="m96.17,132.65l-.17.07s.03.04.05.05c.05-.03.09-.08.12-.12Z"/>
        <path class="cls-1" d="m79.59,126.78s-.03.02-.04.03c.02-.01.03,0,.05-.01v-.02Z"/>
        <path class="cls-1" d="m78.28,125.98s0,0,0,0c0-.01.02-.03.03-.04-.01.01-.02.01-.04.03Z"/>
        <path class="cls-1" d="m98.17,139.95v-.06s0-.01,0-.01h0s0,0,0,0h0s0,.04,0,.07c0,0,0,0,0,0Z"/>
        <path class="cls-1" d="m165.9,119.52c.02.38.07.52.13.57,0-.2,0-.39.02-.59-.05-.02-.11,0-.15.02Z"/>
        <polygon class="cls-1" points="98.17 139.97 98.17 139.96 98.17 139.95 98.17 139.95 98.17 139.97 98.17 139.97"/>
        <path class="cls-1" d="m170.03,141.7c.01.09.03.17.04.25.02-.29.04-.57.07-.84-.05-.05-.13.02-.18.13,0,0,.04.23.07.46Z"/>
        <path class="cls-1" d="m170.51,136.66c.12.26.19.38.23.43-.03-.22-.08-.45-.14-.7-.04.15-.09.27-.09.27Z"/>
        <path class="cls-1" d="m76.77,126.56h-.02s-.04,0-.05,0c-.02.03-.03.06,0,.06.02-.01.04-.04.06-.06Z"/>
        <path class="cls-1" d="m96.44,133.03c-.06.01-.11.03-.15.05.01.02.03.04.04.05l.11-.11Z"/>
        <path class="cls-1" d="m97.35,134.49s-.1,0-.16.03c0,.02.02.03.02.05.05-.02.1-.05.13-.07Z"/>
        <path class="cls-1" d="m254.13,134.25s-.01-.02,0-.03c-.16.05-.21.08,0,.03Z"/>
        <path class="cls-1" d="m330.07,128.48c-.54-.09-.88-.17-1.14-.25.38.15-3.31-.09,1.14.25Z"/>
        <path class="cls-1" d="m105.15,49.95l2.45-.96c-.77.3-1.61.63-2.45.96Z"/>
        <path class="cls-1" d="m107.6,49c.46-.18.9-.35,1.28-.5l-1.28.5Z"/>
        <path class="cls-1" d="m294.23,86.54c.22.05.44.1.44.1-.34-.08-.65-.16-.88-.2,0,0,.22.05.43.11Z"/>
        <path class="cls-1" d="m121.56,44.26c-.68.15-1.35.3-1.35.3.72-.11,1.47-.29,2.26-.42.16-.05.35-.1.45-.14,0,0-.69.11-1.36.25Z"/>
        <path class="cls-1" d="m35.21,91.66s-.07.08-.11.12c.05-.02.1-.05.15-.07.06-.05.03-.05-.04-.05Z"/>
        <path class="cls-1" d="m78.98,176.87s-.02,0-.03,0c.37.12.74.24,1.08.36,0,0-.29-.11-.57-.21-.19-.06-.37-.13-.48-.17Z"/>
        <path class="cls-1" d="m275.93,9.18s0,0,0,0c.04-.12.08-.24.12-.36l-.12.36Z"/>
        <path class="cls-1" d="m391.35,105.14c-.04-.28-.14-.56-.25-.83-.12-.27-.17-.56-.35-.81l-.49-.76c-.17-.22-.34-.41-.51-.61-.68-.8-1.38-1.58-2.12-2.31-1.46-1.46-3.01-2.79-4.67-3.87,0,0-.67-.36-1.36-.67-.35-.15-.7-.29-.96-.4-.27-.1-.45-.15-.45-.15-.65-.26-1.2-.56-.47-.31-2.98-1-.18.05-1.64-.31-.88-.15-1.45-.28-1.68-.3-.23-.04-.08-.1.5-.07-.7-.04-1.49-.07-2.32.07-.42.03-.83.17-1.26.28-.44.11-.83.27-1.24.42-1.64.61-3.37,1.36-5.08,2.13-1.71.78-3.42,1.54-5.05,2.15-1.63.62-3.17,1.09-4.49,1.42l1-.36c-4.06,1.14-4.55,1.54-8.41,2.49l.73-.24c-4.48,1.21-9.14,2.8-13.67,2.5-4.53-.17-8.54-1.93-11.71-3.41-.67-.13-2.75-1.08-4.73-2.04-1.98-.95-3.86-1.89-4.21-1.86-4.61-2.6-3.3-1.86-9.79-5.51-1.74-.96-2.72-1.21-4.9-2.36l.04-.2s-.76-.36-1.52-.71c-.8-.37-1.65-.62-1.65-.62,0,0-.42-.21-.84-.4-.43-.18-.85-.36-.85-.36l-2.27-.49c.88.22,1.89.53,1.74.56-1.77-.39-3.97-.81-5.22-1.75-.62-.46-.97-.98-1.08-1.42-.09-.2-.12-.39-.12-.52-.01-.13-.02-.21,0-.22-.03.05-.16-.83-.22-2.04-.01-.22-.02-.46-.03-.7,0-.09,0-.19,0-.28,0-.34,0-.69,0-1.05.05-2.09.33-4.18.33-4.18.05.2-.13,1.59-.16,2.7.11-2.24.24-2.43.3-2.58.08-.15.12-.25.41-2.28-.15.53-.05-.31-.07-.41.26-.99.66-2.63,1.23-4.38.55-1.76,1.36-3.58,2.1-5.19l-.16.66c1.35-2.85,2.8-5.91,3.95-9.21.57-1.65,1.09-3.36,1.43-5.14.33-1.78.58-3.62.43-5.5.04,1.35-.08,1.85-.15,1.76-.04-.09-.11-.78-.17-1.86.03,0,.1-.89.1-.89-.33-1.38.25,2.26-.32-.57-.65-2.68-.26-1.89.25-.33,0,0-.05-.21-.15-.52-.09-.31-.22-.72-.35-1.13-.29-.75-.58-1.51-.58-1.51,0-.2.28.5.42.66-.57-1.21-1.73-5.3-2.51-7.02v-.19c-.54-1.67-.95-3.12-1.22-4.42-.26-1.3-.39-2.49-.24-3.51.05-.52.23-.95.45-1.33.29-.43.64-.87,1.04-1.29.78-.86,1.79-1.68,2.8-2.88-.03-.11.38-.6.78-1.38.42-.77.74-1.86.75-2.8.13-1.16,0-2.27-.07-3.4-.11-1.14-.26-2.3-.5-3.48-.25-1.18-.58-2.39-1.11-3.59-.54-1.18-1.3-2.39-2.53-3.25-.9-.55-1.53-.66-1.85-.71-.33-.03-.4-.02-.41,0-.02.05.21.08-.65.07-.13-.1-1.56-.17-2.57-.04-1.01.1-1.64.21-.29-.08-3.14.51-5.04,1.21-7.09,2.05-1.02.45-2.08.94-3.26,1.71-.59.38-1.21.84-1.85,1.42-.62.6-1.22,1.45-1.61,2.37.41-.78,1.07-1.61.8-1.13-.8,1.26-1.43,2.91-1.47,2.76-1.39,4.14-2.47,8.91-3.54,13.48-.27,1.17-.53,2.35-.8,3.44-.12.49-.33,1.02-.52,1.56-.19.54-.37,1.06-.55,1.58-.71,2.08-1.31,4.02-1.69,5.75l.09-.39s-.11.44-.27,1.11c-.15.68-.35,1.56-.46,2.52-.03.24-.04.49-.05.73.01.26.01.55.07.79.05.24.12.46.18.66.06.19.08.22.11.29.14.25.13.47.09.46-.16.08-.29,0-.36,0-.07-.02-.1-.04-.1-.05,0-.02.1,0,.18-.01.09,0,.17-.08.13-.14-.03-.07-.03.02-.2-.02-.04,0-.09,0-.14,0-.07-.01-.09-.01-.35-.1-.42-.13-.84-.28-1.24-.44-.81-.31-1.58-.63-2.32-.95-1.48-.65-2.89-1.23-4.24-1.77-2.72-1.07-5.3-2-8.37-2.93-4.56-2.05-16.87-5.23-23.41-6.77l.35.19c-1.7-.27-2.02-.53-3.26-.84.16.12,1.82.52.75.34-3.57-.78-7.37-1.6-11.29-1.11-1.94.24-3.86.82-5.63,1.7-1.77.87-3.38,1.95-4.93,3.12-3.08,2.35-5.94,5.01-8.28,8.19-.58.8-1.12,1.65-1.56,2.57-.43.93-.82,1.94-.83,3.15,0,.6.16,1.27.51,1.84l.28.4.17.23c.1.15.19.3.24.43.12.29.06.33.03.4-.06.09-.33.27-.67.39-1.05.33-1.94.36-2.55.43-.62.05-1.04.11-1.51.14-.93.04-2.07.1-5.41-.68,0,0,.49.04.97.08.48.03.97.06.97.06-2.7-.37-5.38-1.04-8.1-1.79-2.77-.78-5.58-1.25-8.38-1.72-5.61-.86-11.23-1.38-16.67-1.64.65,0,.67-.06,1.73.01-1.14-.16-3.27-.3-5.11-.37-.92-.04-1.77-.05-2.4-.05-.62,0-1.02.02-1.03.05-1.69-.09-.39-.13-1.43-.23-2.3-.17-5.79.03-7.02-.13-.15-.02.24-.03.63-.04-1.91.01-6.46-.03-5.13.13-2.05-.03-4.01.05-5.87.18-1.89.16-3.65.43-5.27.75-1.04.31-2.75.73-4.27,1.18-1.51.45-2.84.89-3.11,1.14.09-.18-1.63.35-3.65,1.11-2.01.77-4.32,1.74-5.5,2.28.77-.4-2.11.74-1.22.26-2.72,1.1-5.22,2.07-4.69,2.03-2.59.8-5.11,1.65-7.44,2.45-2.3.82-4.29,1.6-5.8,1.94-4.08,1.63-7.94,3.34-11.65,5.11-3.7,1.78-7.28,3.58-10.68,5.63.05-.19,1.94-1.32,3.81-2.29,1.86-.98,3.68-1.88,3.46-1.94-3.34,1.72-5.92,3.15-8.4,4.81-2.45,1.69-4.72,3.54-7.64,5.83-1.52,1.18.77-.78,1.25-1.22-5.77,4.75-11.08,9.26-16.03,13.63,0-.03.53-.5,1.03-.96-.98.84-2.35,1.91-2.16,1.92l.96-.85c.86-.59-.07.3-1.24,1.41-1.18,1.08-2.46,2.47-2.52,2.57.34-.45.21-.39-.15-.1-.34.3-.9.86-1.42,1.38.34-.16.66-.31.94-.43.65-.29,1.18-.5,1.7-.69.08-.03.16-.06.25-.09,0,0,.02,0,.03,0,.57-.2,1.18-.39,2.01-.65-.95.38.94-.16,1.08-.02.58-.25-.39-.08.94-.49.97-.22,1.92-.36,2.85-.4.94-.05,1.89.06,2.71.29.72.02,1.57.41,1.67.27,1.09.47,1.86.95,2.65,1.51.78.56,1.58,1.21,2.55,2.21v.09c.71.38,1.52,1.87,1.92,2.21-.11-.01-.31-.23-.31-.13,0,0,.2.24.41.48.21.24.4.48.4.48-.4-.44-.76-.58-.18.26.74.78-.09-.3.32.05l.02.37c.48.55.75.53.28-.15.68.94,1.71,1.59,2.81,2.02,1.11.44,2.3.7,3.44.93l-.27.09c1.27.2,3.05.42,3.82.67.04-.03.38-.05.18-.13,1.41.1.49.18,1.35.33.18.02.39.05.58.08-.26-.03-.44-.05-.58-.08-.25-.03-.47-.04-.52,0,0,0,.82.09,1.68.33.85.23,1.64.61,1.64.61-.01.06.44.37.98.83.55.46,1.18,1.07,1.69,1.58.08,0-.15-.35-.4-.63,0,0,.17.16.34.32.18.16.33.33.33.33l.14.35c.07.17.12.35.12.35,0,0,.25.23.47.49.23.25.44.52.44.52l.04-.03.12.24-.16-.21-.16.12c.51.83.87,1.11,1.14,1.88.4,1.46.4,2.08.42,2.54,0,.47,0,.84,0,1.86.42.2.16,3.23.39,3.73-.07.68-.13,1.42-.17,2.22-.02.4-.03.8-.05,1.22,0,.21,0,.42-.01.63,0,.12,0,.19,0,.34-.01.16-.03.31-.09.46-.2.61-.64.99-1.04,1.27-.03.02-.07.04-.1.06.07.08.26.11.16.23l-.36.09c-.12.12.23.09.04.21.11-.06.08-.05.21-.03.02-.04-.09-.06-.1-.11l.24.04-.14-.13c.16.03.12.03.26-.03.14.07-.14.15.02.2-.04.05-.18.05-.24.11.15.05-.21.23,0,.23-.03.03-.02-.03-.1,0,.05.04.05.09.16.07l.03-.06s.15,0,.09.11c.09.02.28,0,.27-.05.03.01-.05.08-.17.1.03.12.39-.06.26.1-.01,0-.03,0-.05,0-.02.04-.01.06.02.07-.06-.09-.27.12-.25-.02-.18.07-.01.1-.07.16.14.02.27-.08.37-.08-.06.02-.05.04-.07.08l.13-.07s.01.05.06.06l-.07-.03c-.01.06-.21.21-.05.24-.06,0-.19,0-.25.07.12.06-.05.04-.14.13.06.08.25-.08.22.09,0,.01.08-.03.11-.06-.03.13.07.08,0,.18.02-.04.06-.07.13-.09-.11.05-.08.09-.13.15l.06-.04c-.05.06-.09.07-.12.08.02-.02.04-.03.03-.04-.06.01-.3.18-.28.26.11.01.24-.14.29-.19,0,.04.05,0,.11-.04.08-.05.15-.13.16-.04.02.02-.11.3-.06.38.14-.1,0-.16.14-.24-.17.41.38,0,.35.3l-.16.14s.04.07.09.09l.03-.12c.06,0,.11.09-.02.18.18-.06.13.02.16.12-.06-.07.02-.02-.1.01,0,.14.05.09.13.1-.06.05-.11.15-.09.17.14-.06.19.04.3.04l-.04.05c.16.04.08.36.31.32,0,0,0-.02.01-.02h0c.1-.17.18-.02.26-.05-.03.04-.08.11-.06.13.13-.13.11-.03.18-.08,0,.08-.15.16-.09.21.04.01.1-.06.15-.11-.05.08-.06.17-.04.22-.04.03-.02-.04-.04-.04-.07.07-.02.06-.11.15.02.04.13-.12.12-.03l-.13.08s.01.02.03.02c0,0,0-.01.02-.02,0,0,0,0,.01.01,0,0,0,0,0,0,0,0,0,0,0,0,0,0,.02.02.02.02.06-.08.12-.17.17-.23,0,.16.2.08.27.13l-.13.12s.09,0,.15-.05h-.01s.08-.05.08-.05c-.03.02-.05.04-.07.05l.05.04c-.07.02-.11.05-.21.15.08.01.12.11.29-.05l-.03.03c0,.07.04.14.06.21.03-.02.06-.03.08-.04-.01.05-.04.1-.07.15,0,0,0,.02,0,.02.03,0,.04.01.06.03.06-.1.12-.22.17-.18,0,0-.12.06-.13.16.08-.03.05,0,.03.08.01.01.03.01.05.01.06-.05.18-.18.18-.16-.03.04-.06.07-.08.1.07,0-.03.22.08.16.04-.02.08-.05.12-.13-.02.06-.05.1-.08.13-.02.06-.04.06-.06.07-.03.03-.05.07-.08.11.04.01.11-.02.11.01.06-.04.12-.1.19-.21,0,.07-.02.15.02.2,0,0,0,0,0,0,.09.07.19-.26.16-.02-.03-.01-.05,0-.07.04.08.02.15.06.27-.1-.17.31.17.13-.04.39.04,0,.17-.1.21-.15-.12.25.06.11.04.28.09-.13.13-.05.21-.12-.03.02-.06.06-.08.13.09-.08.04.01.03.15.1-.05.07-.2.16-.3.03.08-.06.16-.1.27l.19-.22s0,.09-.03.16c.06-.06.13-.16.12-.02l-.07-.02-.03.14.15-.13c.03.22-.08.46-.19.72,0,0,0,0,0,0h0s-.01.03-.02.05h.01s-.05.09-.05.09l.04-.09-.07.03c-.03.09-.01.16,0,.17,0,.07-.21.26-.28.27-.16-.08.08-.32.01-.43-.06.04-.07.04-.18.12.02-.03.04-.05.07-.08l-.09.04h0s-.04,0-.05,0h.05s.03-.08.03-.08c0-.07-.05.02-.07.04.03-.05.01-.07,0-.08-.05,0-.1,0-.13-.01.01,0,.03-.02.05-.02-.02,0-.04-.01-.05-.02l-.03.13c-.2.14-.17-.13-.21-.26,0-.03-.02-.05-.05-.06,0,.05-.02.11.03.08l-.04.04s-.03-.06-.03-.11c0,0,0,0,0,0l-.18.15.07-.18c-.1.07-.18.2-.23.1-.13-.43-.62-.26-.8-.6-.02.04-.02.05-.01.09.01-.55-.64.17-.66-.28l.05-.05c-.13-.04.05-.05.03-.19-.14.18-.24.05-.35.07.04-.03.06-.01.09-.03.02-.05.09-.17.04-.15-.26.22-.39.08-.56.08.08-.13.06-.3.17-.54-.04.04-.13.11-.22.18,0,.01,0,.03-.01.04,0,0-.01,0-.02,0,.03.01.04.02.05,0-.05.15-.07.09-.18.23-.03-.03-.14-.05-.07-.16-.02-.02-.02-.05-.03-.08-.03.01-.05,0-.06-.02h.02s.02-.04.03-.06c-.02-.11-.28,0-.42.05.2-.12.15-.2.26-.32-.01,0,.05.07.13.14,0-.02.02-.04.05-.09.04-.19-.22.01-.25-.17.02,0,.06-.02.09-.07,0-.07-.12,0-.2.06.1-.13.1-.28.01-.27-.12.06-.16.11-.21.04l.1-.06c0-.13-.17.06-.17-.06,0,.05.08-.03.07-.06-.12-.03-.16.02-.37.12l.13-.11c-.14.02-.41.04-.24-.13-.25.27-.27-.02-.32-.08.03.01.09-.03.12-.06-.29.03-.22-.25-.33-.37l.19-.18c-.06-.06-.49.24-.54.15l.12-.05c-.13-.12-.16-.19-.2-.33l.15-.1c-.1,0-.13-.04-.23-.04.29-.31-.44-.27-.11-.69l-.3.14c-.03-.07-.14-.14.06-.28v.02c.23-.11-.03-.07,0-.14-.04-.02-.21.02-.24.07.04-.2-.1-.39-.06-.57-.52.17-1.04.33-1.56.46l.27-.11c-1.5.24-1.6.71-3.19,1.03l.38-.15c-2.06.29-5.58,1.32-7.16,2.31.32-.22.1-.24-.44.04-.42.3.55,0-.41.44.21-.16,0-.13-.22-.01,0,0-.2.17-.41.34l-.39.36c-2.39,1.38-4.96,3.57-7.1,5.63-.46.32-.2,0-.14-.13-.87.8-1.72,1.62-2.63,2.37l-.49.41-.19.17s-.11.11-.07.18c.05.06.14.07.21.08-.01,0-.18.2-.17.2.59.06.09-.29,1.43-.06.15.01-.07.02-.37.02-.31,0-.67,0-.71.05.06.03.33.05.48.06.18,0,.32.01.44,0,.24,0,.39-.04.54-.07.29-.07.57-.15,1.56-.17l-.51.25c1.53.1,1.73-.18,2.28-.34,2.14-.35,1.54.37,4.48.14.47-.12-.15-.18.32-.29,1.06.04,1.66.06,2.25.08.61.05,1.25.07,2.35.49.51.41.23.29-.02.18-.27-.09-.5-.19.05.2,0,0-.39-.18-.79-.31-.4-.13-.81-.22-.81-.22.69.22.36.17-.1.1-.47-.06-1.08-.09-.98.02.51.07,1.17.11,1.87.26.7.14,1.45.41,2.06.78-.05.07-.39-.16-.69-.3-.3-.15-.54-.21-.28.01,0,0,.66.27.66.29-.19-.07-.25-.02-.61-.22.15.25.73.39,1.26.81.09-.04.14-.15.02-.38.01.03.04.08.11.16.63.34,1.31,1.01,1.89,1.68.59.7,1.08,1.23,1.56,1.53-.16-.08-.06.03-.04.09.56.52,1.32.8,2.24,1.36.42.45-.48.06.98,1.07.33.11-.15-.63,1.04.41,0-.01-1.11-.8-.61-.27.61.46.68.57.73.67.04.11.08.2.46.78.66.49.83,1.25,1.17,1.23.08.52.09.37.38,1.27,0-.46.85,1.55.99,1.42-.06.43-.83-1.34-.6-.14.2.33.43.81.64,1.24.03-.01.06-.03.08-.04-.01.03.04.08.07.11-.06-.28.22-.23.33-.34l.2.17c.05-.06-.29-.45-.22-.51l.06.11c.08-.14.15-.17.27-.22l.12.13c-.02-.09.02-.13,0-.22.37.24.15-.45.61-.23l-.22-.25c.06-.04.08-.16.27,0h-.02c.17.2.06-.04.13-.03,0-.04-.08-.19-.13-.2.26,0,.35-.33.64-.19.07-.21,0-.5.18-.62l.02.03c.08-.01.23-.03.4.14.01.01.02.02.03.03,0-.01,0-.03,0-.05.03-.16-.09-.45.1-.47l.04.1c.07.01.04-.14.03-.17.02,0,.04.04.07.07.09.04.02-.09.02-.13l.05.08c.23.05.16-.38.34-.47,0,.04.07.11.11.14-.14-.28.07-.36.09-.47l.04.12c0-.25.3.17.3-.09l-.18-.08c.08,0,.09-.08,0-.18.12.03.15.18.26.13.06.07-.03.1.07.16l.26.09h0c-.19-.07-.07-.22-.22-.31.14.03.17.26.22.3h0s.04,0,.06-.04c-.24-.3.1-.09-.19-.35.08-.08.22-.1.37-.15h.05s.07-.04.07-.04h0s0,0,0,0h0s0,0,0,0h.02s.05,0,.07-.02c.08-.03.32-.09.47-.09.1.19.34.32.43.51.1.18.08.32-.16.35.03.14.11.24.28.39.04-.03,0-.08-.03-.12.12.06.09.29.04.37-.05-.15-.1-.35-.29-.43.05.12.15.35.16.46l-.24-.08c.1.18-.2-.04-.07.18l.07.03c-.14.13.03.31-.12.47l-.05-.08c-.07,0-.05.25-.21.09l.1-.07c-.1-.14-.21-.16-.28-.23-.07.08.09.27.04.31-.09-.14-.04-.08-.07-.24-.08.1-.21.21-.27.43-.01-.02-.01-.06-.01-.06-.17,0-.07.3-.16.17v-.03c-.12-.22-.04.27-.22-.1-.06-.05.07-.02-.06-.18-.16-.06.09.33-.04.28.02,0,0-.02-.01-.05-.06.05-.11.13-.15.2l.03.02h-.04s0-.02,0-.02c-.08-.06-.12-.06-.16-.05-.02.02-.04.05-.06.07,0-.01,0-.01-.01-.02-.03.03-.06.06-.1.07,0,.01.01.01.01.03-.03.03-.07.03-.11.04,0,.02,0,.04.02.06,0,0-.02-.03-.04-.05-.04.02.04.12.06.17h.02s-.02.03-.04.03c.03.01.03,0,.02-.03-.1-.07,0,.17-.07.13.06.07.02.07-.01.09,0-.12-.1-.15-.17-.28-.01,0,0,.03-.01.04,0,.04.02.07.08.14-.02.02-.02.04-.04.05.03.08.05.15,0,.16l-.08-.04s-.02.03-.03.04c.06.11-.03.13.03.18-.05-.03-.09-.05-.14-.09.02.08-.12.03-.13.07,0,.01,0,.02.02.03h.08c-.17.05.02.36-.18.33l-.16-.15s-.05.06-.08.09l.07.19.04-.19c.06.15.03.12.16.2.02.15-.2-.05-.16.12-.06-.01-.13-.13-.22-.15.04.15-.3-.06-.2.12-.01,0,0-.01,0-.02,0,.04-.03.02-.06,0,0,.03,0,.06.04.11h.06s.07.12-.04.12c.03.09.15.23.19.2,0,.03-.1,0-.17-.09-.08.09.26.31.05.28,0-.01-.01-.03-.03-.04-.04,0-.06.02-.05.05.04-.1-.24-.17-.11-.22-.16-.12-.09.04-.17.02.06.13.21.19.26.28-.05-.04-.06-.02-.1-.02l.13.08s-.03.04-.03.08v-.08c-.07.02-.3-.07-.25.1-.03-.06-.09-.17-.19-.18,0,.14-.06-.02-.19-.05-.04.1.19.18.02.24-.01.01.07.06.11.07-.12.03-.08.14-.23.15.06,0,.12,0,.14.09-.08-.1-.14,0-.22-.03l.05.06c-.08-.03-.08-.07-.09-.11.02.02.04.02.05,0-.01-.08-.24-.24-.32-.2,0,.11.16.23.23.26-.13.04.19.3.04.31-.02.02-.3-.11-.37-.06.11.14.16,0,.24.13-.41-.17.03.38-.28.35l-.15-.15s-.07.05-.09.1l.13.02c0,.06-.09.11-.19-.01.07.18-.01.13-.11.16,0,.03.01.07.02.1.03.02.06.03.05.06l-.05-.04c.03.19.07.41.13.68-.02-.15-.11-.33-.16-.41.6,1.64.79,4.19,1.19,5.09-.41-.28.44,3.53-.07,2.31.11.69.46,1.73.58,1.95.01,0,.02-.01.03,0,.02.08,0,.07-.03,0-.15,0-.06.4.06.89.15.49.38,1.07.46,1.44.27.3.77,1.42,1.2,2.05-.18-.28-.31-.42-.32-.28.49.7.31.55.54,1.26.66.95.07-.29.54.25.45.89-.07.22-.08.43l1.02,1.12c.14.27.21.47.22.62.35.39.7.7,1.01,1.37l-.73-1.05.16.49,1.02,1.15c1.05,1.76.57,1.54.22,1.55.05.07.08.11.08.11-.01,0-.03.02-.04.03h0s0,0,0,0c-.06.05-.13.09-.2.14,0,0,0,.02-.01.01-1.3,1.01-3.37,1.9-5.79,2.61-.12.04-.25.07-.37.1-.17.05-.34.1-.51.14.03,0,.05.02.08.03.25-.05.47-.07.63-.04l-.39.13c.09.03.17.06.26.09.01,0,.02,0,.03,0-.02,0-.03-.01-.03-.01.02,0,.05,0,.07,0,.14-.03.29-.08.48-.14.1-.04.2-.07.31-.12,0,0,0,0,.01,0,.26-.12.39-.32.02-.19l.69-.16c-.09.09-.34.22-.67.36-.1.04-.21.09-.33.13-.12.05-.25.09-.39.14.25.03.6.11,1.01.26.53.19,1.16.5,1.86.86,1.39.72,3.09,1.63,4.82,1.98-.84-.18-1.13-.16-.9-.11,2.23.75,4.86,1.02,7.49.09,2.58-.91,5.18-2.36,8.27-4.03l-.73.48c2.46-1.2,6.37-3.36,9.1-4.38.77-.42,2.36-.88,1.36-.7,1.09-.26,2.18-.49,3.21-.38l.78.13.78.2c.52.12,1.04.3,1.55.46,2.06.66,4.07,1.37,6.06,2.07,3.98,1.39,7.84,2.74,11.67,4.08-.94-.26-2.24-.6-1.5-.36,0,0,.41.13,1.04.3.62.18,1.46.41,2.31.59.84.22,1.71.33,2.36.45.66.06,1.1.09,1.1.09-.54-.19-.92-.14-2.33-.53.75.07,2.32.31,3.82.18-1.8.25.9.16,2.09.05-.23-.02.22-.12.1-.15,3.59-.1.57-.35,5.47-.64l-.25.1c1.83-.22,3.5-.49,5.46-.77.84.05-1.93.36-2.04.5,2.77-.37,5.41-1.07,7.8-1.89-1.07.54-2.74.96-3.9,1.23,1.37-.17,2.13-.36,2.79-.55.66-.21,1.24-.39,2.18-.91l-.18.1s.08-.04.21-.12c.06-.03.6-.32,1.08-.8.03-.03.05-.06.08-.09-.01.01-.02.02-.03.03.19-.2.36-.44.5-.71-.01.03-.02.06-.04.09.03-.05.06-.09.08-.14.12-.26.16-.44.16-.44-.03.09-.07.16-.1.25.04-.11.08-.22.12-.33.03-.14.07-.28.1-.41.06-.27.12-.52.18-.73.1-.43.17-.72.17-.72l-.31,1.16c.16-1.75.53-3.49.75-5.41.16-1.64.26-3.47-.23-5.37.37,1.29.31,1.42.34,1.12,0-.35-.15-1.22-.02-1.06-.14-1.23-.87-3.02-.61-2.53-.58-1.01-1.07-1.87-1.83-2.67-.37-.43-.76-.8-1.22-1.21-.32-.28-.5-.41-.95-.75.02,0-.03-.06-.1-.13-.03-.04-.08-.08-.1-.14.02-.06.13-.01.19-.01.29.06.52.11.53.17.53.03.5-.03.23-.05-.25-.03-.76-.14-.78-.18.26.02.6.05.97.03.17,0,.53-.04.85-.09.33-.05.65-.13.97-.23.64-.19,1.31-.46,1.91-.88.61-.41,1.13-.93,1.63-1.43.98-1.03,2.07-1.92,3.38-2.63.92-.5,1.93-.88,2.97-1.28-.02-.02-.03-.04-.04-.06,0,0,0,0,0,0l-.62-.05.32-.15c.14.02.22.04.28.07.02-.09.08-.18.13-.27-.28.13-.76.35-1.59.71,0,0-.45.09-.99.25.05-.03.1-.05.15-.08.44-.21,1.25-.51,2.35-.9,0,0,0,0,0,0-2.32-.12-2.79-2.86-2.67-5.4l-.2-.31c-.1.91.39,2.18.12,2.67,0,0-.1-.44-.1-.44-.06.04-.23.34.02.92.05.15.18.22.19.12,0-.05-.01-.1,0-.1.01.05.01.07,0,.1.02.13.06.36.06.36-.26-.15-.52-1.29-.59-2.01.07.22.19.77.28.59-.13-.62-.24-1.22-.27-1.83-.02-.09-.04-.19-.04-.31.01,0,.02.01.03.02,0-.07,0-.14,0-.21,0-.07,0-.16.02-.3l-.02.3c0,.1.02.15.06.19-.02.04-.04.04-.07.02v.29c.07.25.17.4.24.52.12-.67-.11-.51-.09-1.02.08-.19.14-.32.18-.18-.02-.64.04-1.15.24-1.79,0,0,0,.62.12.44.02-.12.04-.25.06-.37.03-.44.04-.75.05-1.08,0-.19.05-.42.05-.62.01-.19-.01-.41-.07-.7-.45-1.3-.66-2.77-1.27-3.65-.09-.02.2.77-.12.17.19.04-.08-.41-.04-.47-.52-.57-.43-1.01-.8-1.41.1.09-.04-.33-.12-.61-.02,0-.05,0-.1-.02l.09.02h0c.21,0-.3-.77.43.09-.75-.88-.82-1.8-1.57-2.37l.08.28s-.22-.57-.33-.88c.04.12.08.26.14.44,0,0-.15-.43-.18-.55-.01-.03-.02-.05-.02-.07-.16-.46-.23-.54-.22-1.23.13.26.23.66.39.91-.06-.62-.51-1.16-.65-1.83.14,0,.19.68.31.45-.09-.47-.24-.85-.35-1.28l.08.05c.04-1.19-.44-.42-.25-1.3-.04.03-.1-.08-.14-.02-.01.07-.02.13-.04.13,0-.08.02-.11.04-.13.06-.33.15-1.08.29-.35-.03-.41-.1-.87-.2-1.07-.1.35-.04.43-.18.57l-.07-.83c-.02-.41-.05-.83-.05-.83,0-.19.08.14.08.37.38-1.93-.25-3.94.38-6.09-.14.24-.1-.17-.17-.38.09-.7.13-1.76.28-2.43l.06.22c.1-1.7.24-2.87.52-3.95-.02-.06.12.04.1.24.02-.84.74-1.68.47-1.97l-.1.29c.44-1.56.67-3.35,1.07-4.98.29-.33-.23.94.08.67.38-1.1.53-2.27.93-3.47-.03.2,0,.16,0,.26.45-1.18-.23.08.08-.93.08.08.12.04.26-.29l-.07-.34s.15,0,.16.16c-.08-.5.41-1.83.28-2.22.07-.08.2.21.3.08.17-.53.13-.93.1-1.3-.1-.02-.07-.22-.04-.5-.01-.21,0-.44.04-.71.02.23-.02.49-.04.71.02.17.03.33.04.5h0c.18-.37.2-1.33.22-1.13.09-1-.1-.16-.21-.93l-.11.79s0-.35,0-.7c0-.35-.02-.71-.02-.71l.09.56c.08-.65-.09-1.31-.09-2.07l-.11.35-.08-.87c.23-.09.04-1.11.32-.64.11-1.56-.16-2.6-.03-4.04,0,.07.04.04.07.08.15-.87.18-1.41.24-2,.03.13,0,.35.05.37.14-.52.22-.69.25-.88.03-.19.07-.4.46-.98-.14.38-.03.28.2.04-.1-.02.04-.26.18-.44-.14.49.12.27.4.04.29-.23.6-.47.52-.16-.05-.12,1.25-1.37.74-1.21l-.23.22c-.11-.08.27-.3.53-.49.17-.15.34-.28.1-.08-.03.03-.07.05-.1.08-.13.11-.26.24-.24.26,1.26-1.08,2.85-1.75,4.43-2.6-.12.11-.74.49-.31.33.41-.17.77-.34,1.1-.5.19-.09.24-.16.55-.27.26-.11.49-.12.71-.14.85-.04,1.58.08,2.48.28,0,.16-.47.02-.99-.1-.5-.13-1.09-.19-1.14-.06,1.04.1,1.96.36,2.92.61.95.25,1.92.51,2.93.75.56.63,1.97.42,3.11,1.06-.09-.17.58-.06,1.28.16h0s.1.04.1.04l-.11-.04c-.27.03.45.28.22.29.66.05,2.37.73,2.18.97.27-.19,1.22.58,1.76.66-.16-.11-.3-.23-.44-.36l.56.38s-.08,0-.12-.01c.65.46,1.53.76,2.32,1.37-.2-.34.88.46,1.22.62-.09-.05-.28-.15-.25-.1.17.28,1.02.56,1.42.97.16.21-.15.09.17.36.09-.1,1.36.76,1.67,1.28-.19-.19-.24-.14-.39-.21,1.06.83,2.04,1.86,2.79,3.13.59.99,1.58,1.8,2.71,2.37l-.49-.07c1.21,1.09,1.06.27,2.15.94,1.52.9,3.13,1.86,4.65,2.93,1.53,1.07,2.97,2.25,4.29,3.49.23.14-.06-.16-.03-.25.21.24.15.42.52.66l.02-.15c.45.73,1.3,1.59,1.92,2.61.65,1,1.07,2.12.97,2.79.6,1.53.22,2.75.98,4.29.06.55-.36-.54-.18.17,0,0,.19.35.38.7.21.3.41.59.44.63.27.27.49.6.79.96.15.19.3.39.46.61.17.25.35.5.53.75.67,1.05,1.13,2.24,1.57,3.25l-.05-.08c-.08-.03-.05.43.06.76.08.1.05-.13.06-.35.59,1.86.59,2.31.74,3.8-.15-.64-.07.6-.23.67.12.39.16-.23.28.63.06,1.23-.06,2.34,0,3.33.17.39.23.89.4.89.12.64.26,1.11.45,1.59.08.27.21.44.34.66.09.24.34.42.54.68l-.02.07c.21.05.44.24.65.45.24.19.48.37.63.38-.07.05-.23,0-.22.07,0,0,.16.07.32.14l.35.1c-.34-.07-.61.05-.06.3.64.1-.12-.16.21-.16l.1.26c.46.15.65-.03.14-.28,1.48.57,3.14.74,4.61,1.06l-.18.1c.83.1,1.96.3,2.44.55.03-.03.26-.06.13-.13,1.06.07.05.23,1.22.35-.29-.03-.65-.11-.71-.04,0,0,.13.03.33.07.2.04.46.09.74.18.54.13,1.11.44,1.11.44,0,.03.06.1.18.22.13.16.29.37.48.6.08.15.14.32.21.48.01.18.06.36.01.54-.01.14-.06.28-.12.42-.05.11-.1.22-.16.32-.05.08-.09.15-.13.21,0,.05.15-.03.29-.21.06-.08.13-.17.17-.29,0-.02,0-.03.02-.05,0-.01,0-.03.01-.04,0,.01,0,.03-.01.04,0,.03-.02.05-.02.05,0,0-.04.14-.12.29-.02.05-.05.09-.08.14-.11.16-.22.33-.22.33,0,0-.27.1-.42.16.55.05.85.04,2.32-.13.29.03-.04.13-.73.2,2.08-.2,5.13-.63,6.08-.97,2.05-.17,6.74-1.39,6.6-1.08.62-.2,3.44-.94,5.28-1.25-3.3.89,6.88-1.14,6.05-.62,2.44-.69,8.98-1.49,13.39-2.25-.24.06-.72.17-1.12.21,2.49-.32,3.23-.33,4.84-.48.29-.29,4.16-.85,6.24-1.26,3.09-.15-1.82.52-.83.62-.18-.18,5.29-.86,4.23-.89,2.35-.09,2.01-.16,3.23-.05.39-.32,2.17-.24,4.1-.51,3.4-.02.89.24,4.61.02,1.78.04-1.54.25-1.54.25,3.8-.11,1.78-.27,2.58-.43,4.54-.12,2.1.14,3.65.25,2.83-.06,5.01-.24,7.13-.18.16.04.57.07.08.1,3.01-.13,8.9.32,12.4.37.26.04.39.07.45.09-.56-.16-.63-.28-.51-.36,1.7.12,3.17.12,3.8.33-1.04-.1-1.13-.05-1.63-.05l1.79.1c1.58.37-2.44-.16-2.45.01,1.74.11,3.63.23,5.39.42,1.76.16,3.39.59,4.73.84.26.15-1.3-.11-2.47-.37-1.14-.2-1.91-.34-.23.08,0,0-.97-.23-1.99-.37-1.01-.17-2.04-.29-2.04-.29,3.09.69-2.48-.31.35.38,2.7.31,4.06.64,5.63.93,1.52.26,3.04.51,5.75.9,1.24.03-.38-.22.86-.19,3.87.36,5.39.53,6.66.74,1.27.16,2.29.37,5.18.14.75-.08,1.26-.25,2.1-.37.84-.17,2-.26,4.04-.77,0,0-.32.17-.66.32-.34.13-.67.26-.67.26.68-.12,1.23-.29,1.68-.45.47-.15.8-.29,1.08-.42.57-.25.91-.43,1.27-.6.71-.35,1.45-.69,4.05-1.68-.87.47-3.83,1.64-3.08,1.36,3.41-1.17,2.31-1.08,4.86-2.14l.61-.03c2.59-1.12,5.28-2.37,8.01-3.72,1.12-.59,2.27-1.09,3.41-1.82.23-.15.47-.3.7-.47.03-.03.06-.06.09-.08.14-.11.26-.23.39-.34,1.06-.94,1.95-2.04,2.68-3.23-.14.33-.7,1.29.19.07,1.07-1.74,1.91-3.68,2.47-5.73.56-2.05.86-4.26.39-6.5Zm-314.1,18.92h-.07s.1,0,.1,0h-.03Zm-10.84,13.91c-.05-.11-.13-.24-.3-.41,1.51,1.1.24.21.3.41Zm7.85-14.04h.08s0,.04,0,.04l-.08-.04Zm4.33,25.41v-.09s.03.07.03.07h-.03Zm1.3-21.18v-.02s.02,0,.02,0l-.02.02Zm-1.11,24.01v-.03s0-.07,0-.07v.1Zm2.55-3.08l.12.15c0,.08-.13-.11-.12-.15Zm1.66-.9s.1-.04.14-.09c.05.1-.05.14-.14.09Zm86.99-9.15c.04.32-.34,1.05-.28,1.28l-.04-.05c.03-.45.24-.91.32-1.23Zm-74.47,4.01s-.25.07-.24.07h.01c-.15.09-.19-.06-.19-.24,0-.18.06-.41-.05-.36h.01c.06-.09.12-.23.09-.23-.04.05-.06.1-.11.19-.14,0-.17-.03-.22-.14.12-.07.08-.17.24-.36-.1.08-.15.21-.25.23-.04-.09.1-.4.16-.56-.16.11-.11,0-.31.17,0-.19-.09-.21-.05-.5l.07-.05c-.24.09.15-.31.02-.27.09-.04.12-.04.19-.08l-.06-.08c.06.02.3-.09.34-.19-.16,0-.12.09-.26.12l.24-.15c-.01-.05-.27.04-.36.17.05-.27,0-.53.1-.8h.13c-.02-.12.02-.32.16-.38-.04,0-.1-.05-.15-.03-.15-.18.23-.02.06-.16.05.02.06.07.14.09.01-.05-.14-.16-.13-.22.1,0,.34-.12.28-.22-.05-.02-.13,0-.15.02l-.03-.08h.23s-.17-.12-.17-.12h-.04s0-.03,0-.03l.03.03.19.05c-.02-.07-.25-.16-.22-.21.17-.14.22-.08.43-.14-.35-.13.07-.18-.17-.29.31-.06.22-.33.35-.49l.03.02c.19-.04-.25-.16-.15-.22l.05.03c.22-.06.08-.29-.07-.38.05.02.17.03.16,0-.07-.03-.26,0-.18-.04.03.01.12.01.12,0l-.18-.05c.1-.07.18-.11.18-.16-.02-.06-.04-.12-.09-.17.05-.05.12-.04.19-.05-.08-.14-.26-.25-.32-.37l.2-.06c-.01-.06-.33.03-.16-.09.02-.02.02.05.12.05.13-.16-.22-.03-.22-.16l.24-.02c.12-.12-.15-.08-.29-.09-.3-.07.44-.18.19-.31-.12,0-.17.04-.29.04.04-.13-.13-.12-.09-.25.34-.13.01.06.33-.07l-.06.11c.17-.11.06.06.27.01.05-.07-.14-.13-.23-.19.16-.03.04.09.24.01l-.07-.03s.11,0,.11.02c.15-.04,0-.05-.01-.09-.08.01-.2.04-.31.07.02,0,.04-.01.05-.02-.24-.04-.09-.2-.29-.24.05,0,.06,0,.1-.02,0-.05-.22-.06-.29-.11.11-.06.35-.04.27-.13-.13,0-.35.09-.36,0,0,0,.12.06.21,0-.11-.07.04-.03.17-.14-.19-.01.05-.1-.25-.05.2-.06.12-.04.26-.12-.16.05-.18-.07-.37-.03.22-.06.29.04.51-.07-.16-.02-.23-.1-.47-.07.05-.05.13-.08.15-.14-.01.01.04.01.06.02-.18-.07-.04-.25-.34-.26.35-.04,0-.22.34-.2-.02-.04-.18-.08-.24-.08.27-.04.05-.12.21-.19-.16,0-.12-.08-.21-.11.04.01.08.02.16,0-.12-.03-.01-.04.11-.1-.1-.06-.21.05-.34.03.05-.07.17-.04.28-.07l-.29-.04s.07-.04.15-.06c-.08-.02-.21-.03-.08-.09l.02.08.13-.05-.19-.06c.08-.07.19-.11.3-.14l-.06-.06h.21s-.01.03-.03.04c.1-.02.2-.03.3-.04,0,0,0,0,0,0-.06-.39.07-.37.29-.14l.17-.13c-.07-.1-.4.15-.26-.17h.07c.02-.05.12-.24-.1-.18-.07.01-.13.16-.06.16.01,0-.12-.08-.14-.06.02-.1.21-.15.31-.13.1,0,.17.04.23.05-.07.03-.17.03-.21.13.1,0,.23-.03.32-.02.03-.01.05-.01.06-.01l-.03.02h.02s-.03.02-.07.05c0-.01.03-.03.05-.05h-.04c-.07.02-.16.08-.21.12-.01.11.12-.04.17-.01-.04.06-.06.1-.11.13.09,0,.14.03.12.14,0,0-.07.02-.13.07.03,0,.07.02.1.03.11-.02.23-.05.35-.03.32-.04.03.34.26.31.07-.04.07-.14.14-.11-.13.08-.06.09-.11.13.23-.06.02.12.17.08-.05.02-.08.09-.11.14.02-.01.04-.02.07-.04l-.07.04h0c-.16.1-.02.11-.3.17.3-.07.04.2.45.03l.03-.05-.02.14h0s.04.03-.09.19c-.05,0-.07-.03-.13-.03-.11.14.18.03.22.08-.12.07-.08-.03-.21.07,0,.05.11.03.16.05l-.07.03c-.09.18.35-.15.16.05.04-.02.09-.04.12-.07-.05.07-.14.2-.26.18.02.03.1.04.18.01.08-.08.03-.06.15-.15l.15.1s-.07.02-.08,0c-.27.35.49.18.15.59.1-.08.11-.03.19-.05,0,.08.07.16.03.25l-.09.02c.16.1.33.16.32.28.04,0-.11.05-.14.04.17.01-.25.29.07.18v-.04c.02.16.3.24.4.38-.17.1-.05-.08-.26.03-.03.13.16.18.14.32-.03-.01-.05,0-.07,0-.08.16.18-.08.19.03-.09.03-.12.04-.15.09l.16-.02s-.14.05-.19.05c.21-.03.12.15.32.12-.04.02-.23.06-.29.1-.04.07.05.08.13.09.1-.03.1,0,.09.02.03.01.04.03.02.07-.03-.01-.02-.04-.02-.07-.02,0-.06-.01-.09-.02h0c-.12.08-.07.16-.1.15-.03.11.11-.02.25.01l.06-.1.08.12-.11-.02c-.05.08.13.09.15.16l.1-.07.09.06c-.22.08-.02.12-.29.15-.07.18.25.19.31.32,0-.02-.05,0-.09,0-.03.09.1.11.23.12-.07,0-.1,0-.16.01.02.09.14.02.24.11-.1,0-.15.02-.16.05.08-.03.15-.02.18,0-.47.04-.15.17-.52.21.1-.02.33.09.5,0l-.04-.02c.12-.04.08.02.1.04.03.01.05.03.01.01,0,0-.01-.01-.01-.01-.02,0-.06-.02-.08-.01.19.11.09.3.24.45-.05,0-.15-.05-.18,0-.03.19.24.26.37.48-.29.03-.07-.24-.35-.2.1.2.23.41.34.77-.23.03-.19.1-.17.22.03.11.04.27-.18.3.14.05.12.2,0,.34h0s-.02.02-.02.02c0,0-.21.15-.21.15.07-.03.15-.08.21-.15l.02-.02c-.05-.12-.17,0-.2-.09.02.17-.26.36-.41.28,0,0-.01.01-.02,0,.15.09.03.09.07.16,0-.01-.02-.04-.04-.05-.13-.07.05.15-.04.13-.06-.02-.13-.1-.16-.07.05.04.09.1.09.15,0,.07-.07.15-.15.14.02-.04-.02-.08-.05-.13-.09.52-.49.68-.64,1.3l-.03-.31c-.24-.13.02.57-.13.7-.44.36-.74.18-1.03.53-.03.1,0,.1-.02.22-.02-.02,0-.26-.05-.09l-.02.15c-.04-.18-.14-.06-.24.01-.1.06-.19.08-.17-.18-.19.2-.18-.07-.48.13-.03-.11.15-.16.07-.21Zm.03-7.67c-.05.02-.1.03-.15.05-.03-.1.03-.02.15-.05Zm.11-2.77s-.09-.03-.14-.02c.12.1.12.13-.03.2-.13,0-.04-.07-.09-.08.08,0,.16-.02.14-.07-.22-.09-.17-.08-.26-.33.14-.03.17.08.22.15.06.07.11.12.16.15Zm-.15-.48c.05-.09.21-.12.28-.11,0,0-.06,0-.12.03-.08.03-.15.08-.15.08Zm.4-.11s.01-.01.02-.03l.06.03h-.07Zm.6.45l.04-.03c.06.01,0,.13,0,.16-.1.04.04-.18-.05-.13Zm1.87,3.4l-.08.07-.07-.04.14-.03Zm-20.77-11.07c.07-.07.06-.13.11-.11l-.11.11Zm.47.59s-.05-.04,0-.09v.09Zm1.34,1.08c0-.07.02-.08.09-.1-.03.03-.03.12-.09.1Zm5.58,47.6c.44-.35.59-.33.48-.16l-.69.57.21-.41Zm-2.94,1.34c-.03.05-.19.17.02.14.41-.24.81-.47,1.2-.65.38-.19.75-.37,1.11-.47-.19.26-.82.51-.97.64.05-.11-.36-.02-.85.23-.53.51-.72.46-1.24.89-.46-.03.18-.46.74-.78Zm-2.39,1.4l.07-.03.2-.08s.06-.03.11-.05c.04-.02.1-.03.15-.05l.55-.23c-.11.09-.35.16-.55.23l-.14.06-.12.05s-.03.03-.02.04l-.17.05-.08.02Zm46.25-2.43c-.07-.07-.13-.15-.04-.17.78.29,1.56.58,2.35.87-.19,0-.82-.18-2.32-.69Zm36.93.47s-.02.01-.03.02c.03-.03.06-.05.08-.08-.02.02-.04.04-.06.06Zm7.97-28.48s-.17-.08-.13.05c.43.48.89.77,1.28,1.11-.23.03-.62-.24-.73-.32.1-.03-.08-.25-.32-.51-.22-.11-.34-.21-.45-.31-.09-.11-.17-.22-.36-.38.07-.34.4.08.71.36Zm-1.06-1.31s.05.09.07.18l.16.37c-.07-.07-.12-.24-.16-.37l-.07-.18s-.02-.02-.03-.01l-.02-.17.05.18Zm-1.23-42.46l-.09-.24.21-.4-.13.65Zm22.87-21.78c.13.05.22.09.22.09-.06-.03-.15-.06-.22-.09Zm196.27,37.35c-.07.09-.14.18-.2.26.11-.15.24-.33.39-.54-.06.09-.13.2-.19.29Zm.39-.6c.06-.1.13-.19.2-.31h0c-.07.11-.13.2-.2.31Zm2.1-4.2c-.16.23-.09-.06.15-.78-.09.41.51-1.29.76-2.41-.2.92-.48,2.05-.92,3.2Z"/>
        <polygon class="cls-1" points="301.82 89.17 301.81 89.22 302.4 89.5 301.82 89.17"/>
        <path class="cls-1" d="m144.8,178.61s-.26,0-.54.01c.08,0,.23,0,.54-.01Z"/>
        <path class="cls-1" d="m164.83,162.22c-.06-.17-.09-.22-.12-.26,0,.01,0,.02,0,.03l.12.23Z"/>
        <path class="cls-1" d="m41.94,85.13c.14-.12.28-.24.4-.35.92-.83.29-.27-.4.35Z"/>
        <path class="cls-1" d="m104.74,50.11s0,0,0,0c.14-.06.27-.11.41-.16l-.41.16Z"/>
        <path class="cls-1" d="m16.86,174.64l.08.19c.06.03.17-.01.13-.14l-.22-.05Z"/>
        <path class="cls-1" d="m17.2,173.89c-.12-.14-.32-.29-.5-.17.22.13.14.18.4.31.04.13-.03.24-.11.23.06.04-.02.21.12.26.13-.2.11-.41-.05-.61.04-.05.1-.01.14,0Z"/>
        <path class="cls-1" d="m16.57,172.15s.03.08.06.12l-.02-.11h-.03Z"/>
        <path class="cls-1" d="m27.26,176.21c-.05-.05-.08-.11-.1-.16.03.13-.31.16.1.16Z"/>
        <path class="cls-1" d="m16.6,172.08v.08s.06,0,.08,0c-.04-.01-.07-.03-.08-.07Z"/>
        <path class="cls-1" d="m38.76,160.59c0,.09.01.17.04.24.02,0,.04.01.06,0l-.1-.24Z"/>
        <path class="cls-1" d="m48.16,177.98c-.21-.33-.45-.53-.67-.81-.14.1-.24-.08-.44-.11-.19-.33-.33-.74-.6-1.09-.25-.2-.17.01-.34-.04.08-.08-.01-.27,0-.34,0-.03.02-.04.09,0-.11-.16-.18-.25-.22-.3-.09-.11-.1-.08-.28-.27,0,0-.02-.02-.04-.04-.03,0-.05,0-.07.01-.03,0-.05.02-.1,0v-.02s0-.02,0-.03c.01-.03.06-.05.14-.01l.03.02c-.12-.1-.17-.2-.16-.26.1-.05.29.08.4.13.12.06.19.12.24.13.01,0,.02,0,.03,0l.15-.05c.19-.05.57-.34.61-.65l-.04.13s.08-.15.11-.39c0-.14-.04-.42-.11-.5-.12-.25-.29-.42-.29-.42-.1-.18-.04-.14.03-.11.07.05.17.11.12-.07-.39-.31-.58-.49-.76-.71-.18-.21-.35-.4-.63-.53-.03-.66-1.25-1.02-1.47-1.62l-.05.1c-.18-.02-.09-.17-.15-.26-.05.07.05.18-.06.16-.24-.17-.5-.43-.56-.55,0-.01-.01-.02-.02-.04l-.04-.11-.08-.24-.16-.49c-.2-.66-.38-1.33-.59-1.98-.16-.47-.64-.03-.63-.71l.26.08c-.62-.82-.77-1.88-1.37-2.71.07.04.14.02.17.11.04-.26-.39-.79-.5-.71-.08-.14.07-.09.07-.21-.05-.24-.46-.37-.41-.54,0-.03.08.02.11.05-.14-.07-.38-.55-.43-.33-.16-.37-.51-.52-.61-.83-.27-.03-.34-.55-.59-.42.24-.17-.26-.65-.52-.73.12,0-.07-.21.08-.22-.18-.2-.39-.34-.46-.21-.09-.59-.87-.54-.76-1.03-.58-.41-1.11-.81-1.61-1.2-.07-.05-.14-.11-.2-.16.01,0,.02,0,.04-.01.22-.09.55.53.73.31-.56-.39-1.01-.49-1.45-1-.1-.15.16-.02.23-.02-.29-.19-.51-.41-.75-.64-.38-.35-.77-.71-1.12-.92h0s0,0,0,0c0-.04.08,0,.15.03-.05-.04-.1-.09-.15-.13-.1.09-.19.17-.17.27l.14-.17s.03.02.03.04c.01.02,0,.04,0,.05-.06.27-.47.84-.44.92.07-.55-.63.42-.55-.26-.1.12-.14.23-.06.28-.1.05-.16.04-.14-.11-.27.32-.07.33-.36.57-.04-.05,0-.12-.01-.2-.07.21-.14.43-.42.59,0-.04-.07-.06,0-.11-.41.36-.52.84-1.07,1.12-.03-.32-.22.06-.38-.11l-.21.25h.17c-.23.18-.33.46-.57.55l.11-.2-.4.35.29-.1c-.16.27.2.22-.15.39.05-.06-.23.16-.43.14h0c-.03.05-.06.1-.09.15-.06.08-.13.16-.26.21-.02,0-.04-.03-.06-.05-.04-.07-.07-.19-.11-.21,0,.19-.33.34-.48.53-.04.05-.07.09-.08.14,0-.03,0-.06-.01-.09-.02-.05-.04-.09-.06-.1v.14s-.01.05-.01.05c-.04,0-.05,0-.08,0-.06,0-.1-.01-.12-.08-.2.1-.09.15-.04.19.04.04.04.07-.16.13,0,0,0-.02,0-.02,0-.02,0-.04.04-.08-.14.06-.27.14-.39.22-.25.18-.48.38-.77.48-.06-.03-.07-.07-.05-.1.04-.09.3-.17.13-.24-.26.18-.5.4-.74.62-.01.01-.03.03-.04.04-.24.21-.47.42-.73.56l.05-.02.06-.02c.11.32-.48.11-.64.43.05-.06-.02-.21-.02-.17-.38.2-.66.57-1.09,1.05v-.12c-.24.09-.53.38-.76.53,0,.12-.13.21.02.24-.41.08-.65.33-.84.61-.03.05-.07.09-.1.14-.14.21-.27.41-.45.57-.1.09-.21.18-.35.24.02-.02.03-.06.04-.09.02-.06.02-.11,0-.07l-.11.17-.24.37c.15.05.12-.01.29-.04.02.12-.04.29-.14.41.1-.27-.19-.14-.32-.09.05,0,.06.07.1.09-.39.12.2.22-.19.48l-.05-.06c-.06.16-.07.34-.18.48-.18-.03.03-.19-.07-.27-.14.22-.01.58-.26.7.01-.12.08-.26.1-.37-.29.11-.26.17-.38.32h.01s-.29.33-.29.33l.1-.07c.23.48-.25.61-.13,1.13-.1-.49-.12-.13-.28-.23-.09.08-.21.22-.24.16.07.25-.24.29-.14.63-.07,0-.07.21-.2.12-.02.28.12-.03.18.02.11.45-.52.88-.33,1.54.05.48.21.63.27.99,0,.04,0,.09-.01.13-.1.06-.17-.16-.17-.16-.13.25-.11.44-.03.68-.04-.04-.08-.01-.12.03-.02.01-.03.02-.05.04,0,.04.02.06.03.08.06.09.17.1.1.3-.04-.02-.09-.05-.14-.09-.02-.01-.03-.03-.05-.05-.02-.02-.04-.03-.06-.05,0,.04.03.07.04.11.01.04.03.08.04.12.06.15.12.31.16.46-.11.07-.16-.13-.23-.22.03.27.13.69.32.75l.04-.17c.02.09-.14.06-.18,0-.17-.21.04-.33.09-.35l.04.16c.35-.19-.07-.66-.05-1.01l.19.1c0,.8.08,1.64.26,2.52,0,0,.02,0,.03,0-.07.27-.2.53.27.76l.38-.15.11.15h-.31c.16.13.28.02.41-.05.02.08.07.13.14.17l.38-.25c.03.12-.18.21.06.29.18-.12-.14-.27.14-.33.16.15.11.25.32.15.02.08-.02.12-.11.15.19-.08.48,0,.59-.15.17.18.62,0,.58.28.06-.06.34-.19.51-.19-.33.31.62.07.52.41.25-.28.83-.07,1.24-.2-.02.02-.07.07-.11.05.22.04.28.14.42.2.05-.24.4-.27.6-.41.26.26-.19.27-.12.51,0-.2.5-.16.41-.33.2.16.18.08.27.3.06-.3.2-.04.39-.21.29.17.06.29.4.23.15.11-.15.19-.15.19.34.03.18-.21.26-.34.41-.03.18.18.31.31.27-.04.48-.24.67-.22.01.04.05.06,0,.1.29-.17.81.03,1.14-.19.02.02.03.04.04.06-.05-.12-.05-.23-.04-.32.15,0,.29-.14.34.02-.09,0-.1.05-.15.1l.16-.06c.14.22-.22.07-.23.23.32-.06.69-.23.93-.16.04.21-.57.05-.25.25l-.37-.09c.27.34-.23-.03.02.34.49.08.55-.09,1.04-.01.11-.11-.03-.18.08-.29.7-.19.53.55,1.05.28.14-.14.2-.41.55-.25l-.13.24c.47.04.28-.34.77-.16-.09.09-.37.07-.3.1.32.2.23-.13.48-.12l.04.21c.5-.01,1.06-.15,1.62-.16-.03.06-.13.12,0,.19.71-.07,1.49.11,2.14.29l.27-.16c.06,0,.1.09.03.12.25.09.02-.12.16-.17.15,0,.18.13.08.17.47-.11,1.34-.18,1.77.11l-.1.03c.33.15.49-.29.77-.04h-.07c.18.09.37.15.55.2.16.07.34.14.48.21.15.09.59.54.79.8.25-.14.71.56.94.25.36.38.2.39.79.79.17.09.35-.1.57-.05l-.07.18.36-.07.07.27.22.03c-.08-.04-.14-.15-.11-.19.34.04.72.4.7.5l.81.09c-.04.07-.17.06-.29.07.46-.06.01.22.44.16-.04-.06.06-.1.08-.14.15.17.59.28.92.31l-.09.11c.32.09.56.13,1.02.16.51.06,1.13.03,1.56-.13-.37.06-.42-.2-.2-.27l.24.14c.05-.16-.3.03-.11-.21.29-.1.37.07.25.22.01.01.28-.26.27-.27.07.02.02.1.07.17.01-.09.19-.19.31-.36.13-.17.19-.37.09-.52h.06c0-.47-.2-.84-.43-1.16Zm-27.8-13.8s.07.05.1.08c0,0,0,0,0,0-.05.05-.1.11-.15.16-.01-.02-.02-.04-.02-.06,0-.05.01-.11.06-.19Zm-3.23,5.95l.16-.06c-.02.08-.03.17-.05.26-.04-.03-.08-.09-.11-.2Zm-.2,1.78s.1-.07.16-.06c0,.1,0,.19,0,.29l-.15-.24Zm15.86,4.2c-.07,0-.13,0-.16,0,.03,0,.08,0,.17,0h0Zm.38,0c-.02-.06,0-.12.08-.12-.04.04.12.08.21.14-.08-.01-.18-.02-.29-.02Z"/>
        <polygon class="cls-1" points="41.9 179.14 41.91 179.1 41.84 179.11 41.9 179.14"/>
        <path class="cls-1" d="m17.52,167.85s.04.04.06.05h0s-.06-.05-.06-.05Z"/>
        <path class="cls-1" d="m32.57,154.6s.04.03.06.04c.14.08.05.01-.06-.04Z"/>
        <path class="cls-1" d="m27.8,158.72c.03-.06.06-.12.1-.18-.09.05-.16.09-.1.18Z"/>
        <polygon class="cls-1" points="37.77 159.45 37.77 159.45 37.8 159.48 37.77 159.45"/>
        <path class="cls-1" d="m27.9,158.55c.08-.04.17-.08.22-.15-.1.03-.17.09-.22.15Z"/>
        <path class="cls-1" d="m16.59,173.36s.02,0,.03,0l-.03-.07v.06Z"/>
        <path class="cls-1" d="m16.65,173.43s0,.11.06.14l-.06-.14Z"/>
        <path class="cls-1" d="m16.67,171.08c-.03.12-.17.3-.15.47l.05.02c-.09-.09.2-.37.1-.49Z"/>
        <polygon class="cls-1" points="25.4 160.09 25.45 160.04 25.59 159.92 25.4 159.92 25.4 160.07 25.4 160.09"/>
        <path class="cls-1" d="m31.83,111.49s.05-.11-.03-.14l-.16.14h0s.17.05.17.05c.01,0,.02-.03.03-.04Z"/>
        <path class="cls-1" d="m31.69,111.24s.02,0,.03,0c-.03-.21-.16-.3-.38-.29,0-.06.06-.08.09-.11-.06,0-.12.02-.18.04-.11.04-.21.1-.24.23.19-.08.21-.03.38-.1.02,0,.03-.01.06-.03.06.02.08.08.08.13,0,.03,0,.06-.02.08.05-.02.1.09.19.06Z"/>
        <path class="cls-1" d="m30.05,110.37s.07.02.1.02l-.08-.04-.03.02Z"/>
        <path class="cls-1" d="m34.84,103.26c-.06.03-.11.04-.17.05.13,0,.12.26.17-.05Z"/>
        <path class="cls-1" d="m30.03,110.32l.05.03s.04-.03.04-.05c-.04.03-.06.03-.09.02Z"/>
        <path class="cls-1" d="m23.74,96.28c.04.07.08.12.13.15.01-.01.03-.02.04-.04l-.18-.12Z"/>
        <path class="cls-1" d="m16.61,95.99c.08.08.12.16.21.23.04.03.1.06.17.09l-.15-.12h-.01s.01,0,.02,0c.16.03.47.24.75.43.1.07.19.13.27.18.05.03.09.06.13.08.05.03.09.05.11.05-.05-.02-.08-.03-.11-.05-.07-.03-.12-.05-.15-.05-.08-.01-.08.02-.06.07.02.06.03.11-.07.1-.06,0-.16-.05-.34-.12-.02-.01-.03-.01-.06-.03.01.01.04.02.05.04.09.07.21.14.31.16.01,0,.03.01.04.02.03.06.01.09-.09.05-.04-.02-.09-.04-.17-.08.06.05.1.08.14.12.04.03.08.07.11.09.02.01.04.03.05.04.2.14.3.15.49.38-.08,0-.17-.06-.3-.11.32.19.58.31.74.57-.05,0-.08.04-.15-.04.21.23.45.39.66.53.22.15.34.23.46.45-.29.07.04.18-.12.35l.22.14.02-.15c.14.17.39.2.46.39l-.18-.06.3.28-.09-.23c.24.09.21-.21.35.05-.06-.03.14.17.11.34h0c.13.03.26.06.32.22-.03.08-.22.14-.24.2.22-.05.38.35.62.31-.07,0-.16.08-.17.11l.18-.04c.03.11.02.14-.06.19.18.25.16-.27.3.09-.03-.01-.04.01-.09-.02.19.32.54.46.7.76-.11.23-.24-.18-.31.04.35.33.87.55,1.14.94l-.04-.08c.29-.17.11.37.38.44-.06-.03-.19.07-.15.05.17.27.5.43.9.71h-.1c.07.2.3.41.41.58.1-.01.17.08.21-.05.07.79,1,.7,1.08,1.38-.05-.05-.16-.06-.13-.03l.38.29c.08-.13.02-.1.03-.25.1-.02.24.04.32.12-.22-.09-.17.16-.16.28.02-.04.08-.05.11-.09-.02.36.24-.17.35.19l-.07.04c.12.06.27.08.35.19-.08.16-.15-.04-.25.05.14.13.49.05.49.29-.09-.03-.17-.11-.26-.14-.01.27.04.25.11.38h0s.16.28.16.28l-.02-.1c.35-.1.4.1.57.22.06.05.14.09.26.1-.32-.03-.23.03-.25.12,0,.02-.02.05-.05.07.02.1.07.23,0,.24.03,0,.05.02.07.03.11.06.07.24.34.24-.04.05.11.12-.02.2.18.1.04-.11.11-.15.05,0,.08.05.12.08.24.17.29.62.74.71.03.01.05.02.07.03.08.03.16.06.23.07.17.03.32.03.49.1.02.02.05.04.07.06-.03.1-.21.06-.21.06.05.11.11.18.18.24.06.05.12.08.2.11-.06.01-.06.07-.07.15,0,0,0,0,0,.02,0,0,0,0,.01,0,.11.06.21-.1.29.09-.07.03-.18.09-.27.09.15.07.34.09.5.15.02,0,.04,0,.05.02,0,.01-.01.01-.02.02-.05.07-.18.04-.26.05.15.07.36.19.52.18.04,0,.07,0,.1-.02l-.06-.13s-.02.1-.08.12c-.01,0-.03,0-.04,0-.16,0-.17-.11-.15-.19,0-.03.02-.06.02-.07l.12.05c.11-.32-.33-.28-.54-.41-.03-.01-.05-.03-.07-.05h.02s.19-.1.19-.1c.62.54,1.15.94,1.54,1.15l.24-.68h0s0-.02,0-.03c.14.06.29.13.43.13.11,0,.22-.03.35-.17l-.03-.11-.03-.09-.03-.11h.03s.05-.02.05-.02l.09-.03-.06.23c.16-.09.08-.21.02-.32.08,0,.14-.02.18-.07l-.19-.34c.12,0,.18.18.29.02-.09-.16-.28.05-.3-.18.16-.09.26-.03.19-.21.08,0,.12.04.13.11-.05-.16.06-.37-.07-.48.19-.09.09-.47.35-.38-.05-.06-.14-.3-.12-.42.26.31.14-.46.47-.31-.24-.24.03-.64-.05-.98.02.02.06.07.03.09.07-.16.17-.19.25-.28-.23-.08-.22-.36-.33-.54.28-.15.25.19.48.19-.2-.04-.1-.41-.28-.38.18-.12.1-.12.32-.15-.29-.1-.01-.16-.17-.34.2-.19.29,0,.26-.27.12-.1.17.15.17.15.07-.26-.19-.17-.31-.26,0-.32.2-.1.34-.18-.02-.21-.19-.4-.15-.54.04,0,.06-.03.1.02-.13-.24.12-.61-.05-.89.02-.01.04-.02.06-.02-.12.02-.24,0-.32-.03.02-.12-.1-.24.06-.26-.02.07.04.09.08.13l-.04-.13c.23-.07.04.18.2.21-.02-.25-.15-.56-.05-.73.22,0,0,.44.22.23l-.13.27c.37-.15-.06.17.33.04.13-.37-.02-.44.1-.81-.1-.1-.18,0-.28-.1-.12-.56.6-.35.37-.79-.13-.11-.39-.21-.21-.43l.23.11c.06-.3-.32-.23-.09-.54.07.08.03.27.06.23.23-.17-.1-.18-.06-.35l.21.02c.05-.34.03-.78.14-1.18.05.04.09.13.18.07.08-.52.44-1.02.77-1.43l-.09-.25s.11-.04.12.02c.15-.15-.1-.06-.13-.18.04-.11.16-.09.18,0,.02-.22.1-.59.24-.96.13-.36.3-.7.56-1.03l.03.08c.31-.51-.33-.18.04-.64l.03.03c.22-.44.21-.71.24-.96,0-.25.09-.47,0-.77-.3.12-.36-.21-.67.22-.07-.06-.06-.14-.08-.2-.01-.07-.04-.14-.26-.13-.14.03-.36.43-.59.65l.12-.32-.39.52s-.05-.26-.05-.26l-.23.23c.08-.05.15,0,.11.09-.31.34-.73.38-.77.29-.02.02-.77.81-.71.77,0-.03,0-.07.02-.1.02-.06.07-.13.13-.22-.25.43-.19,0-.34.2.07-.31.07-.65-.17-.95-.01-.01-.02-.03-.03-.05l.03.04h0s0,0,0,0c0,0-.03-.05-.1-.13-.01-.02-.04-.05-.06-.07-.05-.06-.12-.13-.21-.19,0,0,0,0-.01,0-.14-.1-.29-.15-.39-.17-.09-.02-.15-.02-.14-.02-.23-.06-.16-.07-.07-.1.1-.02.23-.04.04-.13-.29.02-.46.08-.6.13-.02,0-.05.02-.07.02-.12.04-.18.04-.26.05-.16,0-.3,0-.45.08-.12-.23-.26-.25-.47-.29-.2-.04-.46-.15-.6-.41l-.03.11c-.18.02-.09-.14-.19-.22-.02.09.09.17-.01.17-.25-.12-.7-.31-1.15-.28-.45.02-.84.21-1.17.45-.58.46-.93.9-1.25,1.32-.22.31.38.48-.09.75l-.11-.22c-.18.78-.79,1.22-1.06,1.69,0-.06-.04-.11,0-.14-.18-.04-.29.18-.25.29-.07,0-.05-.1-.11-.15-.07-.04-.14.21-.19.08,0-.02.02-.05.03-.07-.03.1-.21-.05-.19.14-.04-.04-.22-.07-.35-.08-.14-.02-.26-.03-.36-.11-.19.15-.47-.2-.57.06.08-.28-.46-.32-.66-.22.07-.07-.14-.11-.05-.22-.21-.03-.4,0-.39.14-.33-.39-.79.16-.94-.3-.33.03-.57.07-.94.08-.42,0-.82,0-1.22,0,0,0-.02,0-.03,0,0,0,0-.01,0-.02-.09-.26.9.07.8-.23-.45,0-.72.07-.98.11-.28.05-.53.08-.96,0-.26-.06-.06-.13-.05-.18-.14.01-.29.01-.45,0-.39-.01-.81-.07-1.14-.07.16.18.34.36.56.55,0,0,0,0,0,0,0,0,0,0,0,0-.06-.03-.16-.11-.25-.18Zm8.95,9.35s.06-.07.1-.1c.04.04.07.08.11.12-.05.03-.12.04-.21-.01Zm3.64,3.7s-.01,0-.02,0v-.04s.05-.11.05-.11c.05.05.1.09.15.14-.04.02-.09.02-.18.01Zm.97.93c0-.05.03-.12.08-.15.06.05.12.11.18.16h-.26Zm5.23-10.7s.01-.06.03-.12h0c-.01.05-.03.09-.03.12Zm.12-.39c-.06,0-.11-.05-.09-.09.03.04.1-.06.18-.11-.03.05-.06.12-.09.2Zm-1.66-3.76s.02-.07.03-.1c.02.04.02.09.03.12-.03,0-.05.03-.08.04,0-.02.01-.04.02-.05Z"/>
        <polygon class="cls-1" points="36.18 93.29 36.15 93.36 36.24 93.26 36.18 93.29"/>
        <path class="cls-1" d="m27.73,108.07s.05-.03.07-.04h0s-.07.04-.07.04Z"/>
        <path class="cls-1" d="m16.61,95.99l-.06-.05c-.17-.14-.07-.05.06.05Z"/>
        <path class="cls-1" d="m20.76,100.19c-.06-.01-.11-.03-.16-.05.04.07.08.12.16.05Z"/>
        <polygon class="cls-1" points="22.59 96.06 22.59 96.06 22.62 96.06 22.59 96.06"/>
        <path class="cls-1" d="m30.77,110.95l-.05-.02.03.04s.01-.02.02-.02Z"/>
        <path class="cls-1" d="m30.93,111l-.11-.03s.06.06.11.03Z"/>
        <path class="cls-1" d="m29.49,109.8c.06.07.08.26.2.31l.04-.03c-.11.03-.11-.3-.24-.28Z"/>
        <polygon class="cls-1" points="21.92 101.74 21.93 101.91 22.08 101.85 21.92 101.74"/>
      </g>
      <g>
        <path d="m390.15,113.37c.44-1.15.72-2.28.92-3.2-.25,1.12-.85,2.82-.76,2.41-.24.73-.31,1.01-.15.78Z"/>
        <path d="m388.05,117.57c.07-.1.13-.19.2-.3h0c-.07.11-.13.2-.2.3Z"/>
        <path d="m387.46,118.42c.06-.08.13-.16.2-.26.06-.08.13-.19.19-.29-.15.22-.27.39-.39.54Z"/>
        <path d="m389.26,123.76s-.03-.02-.05-.03c-.32-.14-.14-.05.05.03Z"/>
        <path d="m490.24,106c.46.54.02.16-.39-.08-.41-.25-.74-.43.02.26-.1-.21,1.58,1.07.37-.18Z"/>
        <path d="m417.88,129.39s.07.05.29.1c-.06-.03-.17-.07-.29-.1Z"/>
        <path d="m429.53,129.87c.29.03.39.06.79.05-.04,0-.07-.02-.12-.03-.15.02-.34.02-.67-.02Z"/>
        <path d="m441.3,130.49c-.06-.01-.14-.03-.21-.05-.12,0-.25,0-.37-.01l.59.06Z"/>
        <path d="m397.16,126.19c.11,0,.23.03.35.04-.26-.05-.58-.13-.35-.04Z"/>
        <path d="m493.27,110.6c-.19-1.09-.74-2.06-1.4-2.95.3.75.12.48-.17.1-.31-.35-.73-.82-.78-.59-.69-.63-.96-.88-1.03-.96l.13.13c-.06-.07-.09-.1-.15-.15h0s-.14-.12-.34-.31c-.21-.18-.47-.45-.77-.67-.29-.23-.58-.45-.8-.63-.23-.16-.38-.26-.38-.26-.55-.45.84.4.8.3-1.82-1.13-.68-.62-1.88-1.39.19.27-.74-.2-1.83-.72l.74.43c.36.23.73.46.73.46-1.37-.57-1.93-.89-2.49-1.2-.56-.32-1.14-.64-2.59-1.02l.93.2c-.73-.23-2.08-.67-3.44-1.01-1.36-.35-2.75-.58-3.51-.57-.26-.09-.59-.26.08-.16-3.59-.75-8.09-.79-11.01-.26,0,0,.26-.17.27-.16-.35.09-.65.23-.96.34-.16.07-.32.14-.5.22-.17.07-.4.17-.55.17.02-.05.16-.14-.07-.08-.16.17-1.45.47-2.31.35l.72-.1c-1.63-.03-2.96-.22-4.21-.31-1.25-.14-2.44-.26-3.88-.56.07-.26-2.57-.99-3.88-1.39l.06-.03c-3.91-1.07-6.71-1.63-10.36-2.59-2.16-.95-7.56-2.41-11.13-3.65.54.21-.15.18-.8.01-.83-.31-2.4-.51-2.19-.71l.3.09c-.57-.43-2.33-.88-3.7-1.27l-.32.25c-3.44-1.51-9.44-2.4-11.32-3.27-.9-.12-1.98-.37-2.87-.47l.08-.16c-2.44-.53-3.66-.83-6.76-1.18l.65-.04c-1.76-.21-2.26.25-3.88.22l-.49-.28c-.79.05-1.56,0-2.37.16-.4.06-.8.09-1.21.24l-1.14.36c-1.28.47-2.75.68-4.18.91.04-.04.12-.13.6-.17-1.37.2-5.39.02-4.88.38-.03-.21-3.08-.08-4.71-.08l.26-.16c-1.38.15-1.43.19-3.34.12-.45-.06-.39-.17.21-.08-1.5-.22-1.19.07-3.01-.18l.69-.05c-1.55-.15-1.43-.09-2.3-.04-.98-.02-2.94-.35-3.15-.52-.22.08-1.08.11-1.99-.04-.12-.07.22-.07.39-.07-2.58-.4-3.88-.24-5.64-.62-.03-.06-.14-.1-.29-.14,2.06.25,3.71.45,3.56.45.02-.16-1.64-.38-.29-.45-1.35-.03-3.66-.04-5.27-.32-.08-.02-.15-.05-.21-.08h.17c-.37-.06-.71-.08-1.03-.1-.51-.09-.84-.15-1.34-.21-.18-.16-1.9-.3-2.73-.41.05.18-1.03.02-.04.29-.13-.03.16,0,.71.06.13.01.27.03.36.03-.02,0-.04,0-.06,0,.54.06,1.25.15,2.06.24-.67,0-1.36,0-2.26-.21-.44.06-.92.12-1.19.14-1.1-.38-3.28-.78-3.56-.96-2.54-.21-5.98-.63-7.61-.47-.73-.04-.82-.18-1.08-.26.42,0,.91.07,1.15.05-1.45-.07-4.28-.41-4.65-.21-1.81-.27,1.04-.12-1.46-.31l.34-.04c-4.91-.8-8.05-.09-13.53-.61.38.03.57.05.65.09-3.12-.12-6.4.07-9.56.73-3.11.65-6.32.66-9.35.35-1.72-.19-1.93-.04-2.99-.07l-.35-.23s-.46,0-.91,0c-.46,0-.92-.01-.92-.01-2.58-.29-4.31-1.22-7.52-1.78l.38.23c-.43-.11-1.06-.28-1.65-.44,0,.1,0,.19,0,.28,0,.24.02.48.03.7.06,1.21.19,2.09.22,2.04-.01.01,0,.09,0,.22,0,.14.04.32.12.52.12.44.47.97,1.08,1.42,1.25.94,3.45,1.36,5.22,1.75.15-.02-.86-.34-1.74-.56,0,0-.22-.05-.44-.1-.22-.05-.43-.11-.43-.11.23.04.54.12.88.2l2.27.49s.43.18.85.36c.43.19.84.4.84.4,0,0,.85.25,1.65.62.76.36,1.52.71,1.52.71v-.04s.59.32.59.32l-.59-.28-.04.2c2.18,1.15,3.16,1.4,4.9,2.36,6.49,3.65,5.18,2.91,9.79,5.51.35-.03,2.23.91,4.21,1.86,1.97.96,4.06,1.91,4.73,2.04,3.18,1.48,7.18,3.23,11.71,3.41,4.53.3,9.18-1.29,13.67-2.5l-.73.24c3.86-.94,4.36-1.34,8.41-2.49l-1,.36c1.32-.34,2.86-.81,4.49-1.42,1.63-.61,3.34-1.37,5.05-2.15,1.71-.78,3.44-1.53,5.08-2.13.41-.15.8-.31,1.24-.42.43-.11.84-.26,1.26-.28.83-.14,1.62-.11,2.32-.07-.58-.03-.72.03-.5.07.23.02.81.14,1.68.3,1.46.36-1.34-.69,1.64.31-.73-.25-.19.05.47.31,0,0,.18.05.45.15.26.11.61.26.96.4.69.31,1.36.67,1.36.67,1.66,1.08,3.21,2.41,4.67,3.87.73.73,1.44,1.5,2.12,2.31.17.21.34.4.51.61l.49.76c.18.25.23.54.35.81.11.27.21.55.25.83.46,2.24.16,4.45-.39,6.5-.57,2.05-1.41,3.99-2.47,5.73-.89,1.23-.33.26-.19-.07-.73,1.18-1.61,2.29-2.68,3.23-.13.11-.25.23-.39.34-.03.03-.06.06-.09.08-.23.18-.47.32-.7.47.54.21,1,.43,1.37.6l-.45-.16-.46-.13c.55.13.97.35,1.4.53l-.44-.35c.51.24.93.46.89.51.56.19-.28-.43.81,0,.65.43,2.2,1.04,2.36,1.34-2.22-1.21.16.31-1.77-.65.38.17.83.4,1.36.7.07.06-.09,0-.25-.07,1.05.65,1.33.7,1.63.73.3.03.62.05,1.78.5-.34-.01.47.41.86.53-.94-.38-.39-.32.51-.12,1.5.54,1.68.43,2.47.68l-.9-.31c.34-.03,1.09.26,2.17.47.02.03-.03.03-.11.02,1.12.21,2.37.81,3.85.97.76.21.04.22.71.39,1.91.18,2.02.55,4.03.69-.55-.23-.66-.2.76-.15l-1.64-.17c-.41-.04-.82-.09-1.13-.14-.31-.04-.51-.07-.51-.07,0,0,.53.04,1.06.08.53.02,1.07.04,1.07.04-.99-.12-2.09-.24-2.68-.36,1.02.06.91.08.46-.13,1.3.48,2.69.27,4.22.65l-.1.36c1.16.26,2.22.3,3.36.37,1.14.07,2.37.13,3.9.29l-.98-.15c.42-.11,1.89.14,2.89.16-.1.12.51.21.93.31-.05-.09,2.24.16,2.54-.07l1.36.25c2.47.2,2.84-.19,5.22-.03-.72.1.35.24-1.24.26.79.04,1.51.1,1.52.01.46.1,2.21-.06,2.93.09.34-.04.45-.16,1.34-.11.1.03,0,.06,0,.06,0-.06,1.4-.02.63-.19,2.43.49,6.83.31,8.93.79,1.73.09,3.81.21,5.36.4-.1.03-.01.06-.3.01,2.13.35,1.37-.2,3.81.19,1.24.33-1.32-.03-.54.13.3.47,2.99.22,4.66.47l-.41.02c.64.07,1.43.03,2.31-.02.88-.06,1.86-.21,2.91-.24,0,0-.1.04,0,.06.71-.16,1.73-.36,2.82-.52,1.08-.23,2.24-.43,3.22-.67-.57.3-.88.25-.47.35.88-.21-.31-.19,1.43-.63.59-.03,1.87-.27,2.07-.18,0,0-.41.13-.82.24-.41.1-.83.19-.83.19.91.05,2.13-.58,3-.78l-.08.13c1.25-.37,1.84-.72,2.47-.99.63-.27,1.26-.6,2.55-1.14l-.3.04c1.31-.81,1.23-.38,2.52-1.21l.52.02c.45-.23,1.19-.72,2.02-1.25.84-.51,1.72-1.14,2.47-1.64-.39.34-1,.85-1.68,1.3-.69.45-1.41.92-1.96,1.29.88-.48,2.97-1.68,3.32-2.09-.33.23-.72.56-1.09.73.94-.82,2.28-1.71,3.88-2.88.03.64,4.23-2.99,5.51-3.72,1.26-1.21,2.69-2.48,3.44-4.35.43-.91.51-2.02.36-3.09Zm-138.95-26.63s-.05,0-.07.01c.06-.03.12-.05.23-.06.55.04.73.1.81.14-.26-.03-.57-.06-.97-.1Z"/>
        <path d="m353.46,84.03c-.08,0-.12,0-.23-.02.11.03.22.05.32.08.07-.01.14-.02.2-.03-.1-.01-.2-.02-.3-.03Z"/>
        <path d="m439.2,130.52l-.26-.21c-.61,0-.74.21.26.21Z"/>
        <path d="m475.84,126.93c-.72.36-1.49.57-1.85.76.39-.06,1.35-.38,1.85-.76Z"/>
        <polygon points="419.64 89.38 418.34 89.07 418.94 89.25 419.64 89.38"/>
        <path d="m170.67,146.42c-.04-.13.08-.06.13-.05-.31-.28-.64-.7-.71-.36.19.16.26.27.36.38.11.1.23.2.45.31.24.26.42.48.32.51.11.08.5.34.73.32-.39-.34-.86-.63-1.28-1.11Z"/>
        <path d="m169.55,141.83c0,.12.02.22.04.31v-.29s-.03-.01-.04-.02Z"/>
        <path d="m180.85,148.68s0-.02,0-.03c-.04.02-.05.03,0,.03Z"/>
        <path d="m169.59,141.64l.02-.3c-.02.13-.02.23-.02.3Z"/>
        <path d="m199.27,147.86c-.14-.02-.23-.06-.31-.1.12.1-.76.31.31.1Z"/>
        <path d="m169.65,141.83s-.06-.09-.06-.19c0,.07,0,.14,0,.21.02.02.05.02.07-.02Z"/>
        <path d="m191.15,80.73c-.23-.09-.47-.17-.47-.17.25.09.49.17.71.26-.07-.03-.15-.06-.24-.09Z"/>
        <path d="m191.38,80.82c.08.03.16.06.22.09,0,0-.1-.04-.22-.09Z"/>
        <path d="m240.67,135.29s.01-.02.02-.05c0-.01,0-.02.01-.04,0,.01,0,.03-.01.04,0,.02,0,.03-.02.05Z"/>
        <path d="m194.3,82.07c.13.13.28.25.44.36.04,0,.09.02.12.01l-.56-.38Z"/>
        <path d="m170.11,145.04s0-.05,0-.1c0,0,0,.04,0,.1Z"/>
        <path d="m240.21,135.8c.04-.06.09-.13.13-.21.06-.1.11-.2.16-.32.06-.13.11-.28.12-.42.05-.18,0-.36-.01-.54-.07-.16-.13-.33-.21-.48-.19-.24-.36-.45-.48-.6-.12-.12-.19-.19-.18-.22,0,0-.57-.32-1.11-.44-.27-.1-.54-.14-.74-.18-.2-.04-.33-.07-.33-.07.07-.06.42.01.71.04-1.17-.12-.16-.28-1.22-.35.13.07-.1.1-.13.13-.48-.24-1.61-.44-2.44-.55l.18-.1c-1.47-.31-3.13-.49-4.61-1.06.51.25.32.43-.14.28l-.1-.26c-.33,0,.43.26-.21.16-.55-.25-.27-.36.06-.3l-.35-.1c-.16-.07-.32-.14-.32-.14,0-.07.15-.02.22-.07-.15-.01-.39-.2-.63-.38-.2-.22-.44-.41-.65-.45l.02-.07c-.2-.26-.45-.44-.54-.68-.12-.22-.26-.4-.34-.66-.2-.48-.33-.95-.45-1.59-.17,0-.23-.5-.4-.89-.06-.99.06-2.1,0-3.33-.12-.86-.16-.25-.28-.63.16-.07.07-1.31.23-.67-.14-1.49-.14-1.94-.74-3.8,0,.22.02.46-.06.35-.11-.33-.14-.79-.06-.76l.05.08c-.45-1.01-.9-2.2-1.57-3.25-.18-.25-.36-.51-.53-.75-.16-.23-.31-.42-.46-.61-.3-.35-.52-.69-.79-.96-.03-.04-.23-.33-.44-.63-.19-.34-.38-.7-.38-.7-.18-.71.24.38.18-.17-.77-1.54-.38-2.76-.98-4.29.1-.67-.33-1.8-.97-2.79-.63-1.02-1.47-1.88-1.92-2.61l-.02.15c-.37-.24-.32-.41-.52-.66-.03.09.26.4.03.25-1.32-1.24-2.76-2.42-4.29-3.49-1.52-1.07-3.13-2.03-4.65-2.93-1.1-.66-.95.15-2.15-.94l.49.07c-1.13-.57-2.12-1.38-2.71-2.37-.76-1.27-1.74-2.31-2.79-3.13.15.07.2.02.39.21-.3-.52-1.58-1.39-1.67-1.28-.32-.27,0-.15-.17-.36-.4-.41-1.25-.69-1.42-.97-.03-.05.16.05.25.1-.34-.16-1.42-.96-1.22-.62-.8-.61-1.67-.91-2.32-1.37-.54-.07-1.49-.85-1.76-.66.19-.24-1.52-.92-2.18-.97.23-.01-.5-.26-.22-.29-.7-.22-1.38-.34-1.28-.16-1.14-.63-2.55-.42-3.11-1.06-1.01-.24-1.98-.5-2.93-.75-.96-.25-1.88-.51-2.92-.61.05-.14.64-.07,1.14.06.52.12.98.26.99.1-.9-.2-1.63-.32-2.48-.28-.22.02-.44.04-.71.14-.31.11-.36.18-.55.27-.32.17-.69.33-1.1.5-.43.16.19-.22.31-.33-1.58.85-3.18,1.51-4.43,2.6-.01-.02.12-.15.24-.26-.26.19-.64.41-.53.49l.23-.22c.51-.16-.79,1.08-.74,1.21.08-.32-.23-.07-.52.16-.28.23-.54.45-.4-.04-.14.18-.28.42-.18.44-.23.24-.34.33-.2-.04-.39.58-.43.79-.46.98-.03.19-.11.35-.25.88-.06-.02-.02-.24-.05-.37-.06.58-.08,1.13-.24,2-.02-.04-.06,0-.07-.08-.13,1.44.14,2.48.03,4.04-.27-.48-.09.55-.32.64l.08.87.11-.35c0,.76.18,1.42.09,2.07l-.09-.56s0,.35.02.71c0,.35,0,.7,0,.7l.11-.79c.1.76.3-.08.21.93-.01-.21-.04.76-.22,1.13h0c.03.37.07.77-.1,1.3-.1.12-.23-.16-.3-.08.13.39-.36,1.72-.28,2.22,0-.16-.12-.2-.16-.16l.07.34c-.14.33-.18.37-.26.29-.3,1.01.37-.25-.08.93.01-.1-.02-.06,0-.26-.39,1.2-.55,2.37-.93,3.47-.32.27.21-.99-.08-.67-.4,1.62-.64,3.42-1.07,4.98l.1-.29c.27.3-.45,1.13-.47,1.97.02-.2-.12-.3-.1-.24-.29,1.08-.43,2.24-.52,3.95l-.06-.22c-.15.66-.19,1.73-.28,2.43.07.21.03.62.17.38-.64,2.15,0,4.15-.38,6.09,0-.23-.08-.55-.08-.37,0,0,.02.41.05.83l.07.83c.14-.14.08-.22.18-.57.1.21.17.67.2,1.07-.14-.73-.23.02-.29.35.04-.06.1.05.14.02-.19.89.29.12.25,1.3l-.08-.05c.11.43.26.82.35,1.28-.12.23-.18-.44-.31-.45.14.67.58,1.22.65,1.83-.16-.25-.26-.65-.39-.91,0,.69.07.77.22,1.23,0,.01,0,.04.02.07.03.11.18.55.18.55-.06-.18-.1-.32-.14-.44.11.31.33.88.33.88l-.08-.28c.75.57.81,1.49,1.57,2.37-.73-.85-.22-.09-.43-.08.08.28.22.69.12.61.37.41.28.84.8,1.41-.04.06.23.51.04.47.33.6.03-.19.12-.17.61.88.82,2.34,1.27,3.65.05.29.08.51.07.7,0,.2-.04.43-.05.62-.01.32-.02.64-.05,1.08-.02.12-.04.25-.06.37-.12.18-.12-.44-.12-.44-.2.65-.26,1.16-.24,1.79-.04-.13-.1,0-.18.18-.03.51.2.35.09,1.02-.06-.12-.17-.27-.23-.52.03.61.14,1.21.27,1.83-.09.18-.2-.36-.28-.59.07.71.32,1.85.59,2.01,0,0-.04-.23-.06-.36,0,.11-.14.03-.19-.12-.25-.59-.08-.89-.02-.92,0,0,.09.44.1.44.27-.49-.22-1.76-.12-2.67l.2.31c-.12,2.53.35,5.28,2.67,5.4,0,0,0,0,0,0,0,0,.04,0,.08,0,0,0,0,0,0,.01-.05.09-.11.18-.13.27-.06-.03-.14-.05-.28-.07l-.32.15.62.05s0,0,0,0c.01.02.02.04.04.06.12.11.38.21.9.32l.98-.12.31.16-.82-.03c.46.16.76.06,1.09,0,.07.08.21.14.4.18l.97-.23c.11.12-.44.21.2.3.45-.11-.42-.27.33-.33.46.15.32.26.87.16.07.08-.04.12-.26.15.49-.07,1.29.01,1.54-.13.48.18,1.64.02,1.59.29.16-.06.86-.19,1.31-.19-.83.31,1.67.06,1.45.41.61-.28,2.19-.09,3.26-.25-.06.02-.18.07-.27.05.6.03.78.12,1.17.18.08-.24,1.02-.31,1.52-.46.74.23-.45.29-.21.52-.04-.2,1.29-.21,1.03-.38.57.13.49.06.79.26.09-.31.53-.06.99-.27.83.12.22.28,1.12.15.44.08-.36.22-.36.22.92-.03.42-.24.61-.38,1.09-.14.52.14.9.23.69-.1,1.2-.38,1.71-.42.04.03.14.04.03.1.71-.26,2.15-.3,2.95-.69.07,0,.1.02.12.04-.16-.09-.2-.2-.19-.29.41-.07.72-.29.9-.17-.25.05-.26.11-.36.18l.41-.15c.42.13-.56.19-.53.35.81-.24,1.73-.62,2.37-.71.18.18-1.45.41-.57.4,0,0-.25.04-.5.07-.25.03-.5.06-.5.06.82.17-.6.1.16.31,1.3-.22,1.42-.42,2.7-.68.26-.19-.14-.15.12-.33,1.74-.67,1.55.15,2.79-.48.3-.23.36-.52,1.33-.64l-.25.32c1.22-.31.6-.52,1.92-.71-.2.15-.93.34-.74.31.87-.04.55-.29,1.18-.46l.19.17c1.28-.37,2.67-.9,4.1-1.26-.07.08-.3.2.05.19,1.8-.52,3.88-.76,5.69-.89l.67-.29c.16-.02.31.03.14.1.72-.05.02-.12.34-.25.4-.08.55.01.3.11,1.22-.36,3.44-1.01,4.77-1.15l-.24.11c1.02-.17,1.04-.64,2-.72l-.17.08c2.18-.49,4.48-1.38,6.18-1.71.22-.34,2.13-.67,2.12-1.08,1.25-.35.94-.1,2.65-.83.45-.23.54-.56,1.03-.94l.12.15s.15-.17.3-.34c.14-.18.28-.36.28-.36,0,0,.04-.01.1-.03.15-.06.42-.16.42-.16,0,0,.11-.16.22-.33.03-.04.05-.09.08-.14.07-.15.12-.29.12-.29-.05.12-.11.21-.17.29-.14.18-.29.27-.29.21Zm-69.61.59c.07.25.11.48.14.7-.05-.05-.11-.17-.23-.43,0,0,.05-.12.09-.27Zm-4.55-16.89c0,.19-.01.39-.02.59-.06-.05-.11-.19-.13-.57.04-.02.1-.04.15-.02Zm4.03,22.45c-.01-.08-.03-.16-.04-.25-.04-.23-.07-.46-.07-.46.05-.11.13-.18.18-.13-.03.28-.05.56-.07.84Zm42.99,2.14c.09-.02.21-.06.42-.11h0c-.18.05-.33.09-.42.11Zm1.4-.34c-.07-.05-.02-.12.16-.16-.09.06.33,0,.6,0-.21.04-.48.1-.76.15Z"/>
        <polygon points="239.19 136.97 239.16 136.93 239.04 137.06 239.19 136.97"/>
        <path d="m165.76,124.07s-.03.06-.04.13c.01,0,.02-.06.04-.13Z"/>
        <path d="m167.93,131.36s.07.02.1.02h0s-.09-.02-.09-.02Z"/>
        <path d="m173.74,80.73s.07-.06.1-.08c.24-.2.07-.07-.1.08Z"/>
        <path d="m170.35,95.5c-.01-.17-.03-.33-.04-.5-.03.27-.05.48.04.5Z"/>
        <polygon points="190.58 80.51 190.57 80.52 190.68 80.55 190.58 80.51"/>
        <path d="m170.31,95.01c.02-.22.07-.48.04-.71-.04.27-.06.5-.04.71Z"/>
        <path d="m169.72,145.05s.02,0,.03.01l-.05-.18.02.17Z"/>
        <path d="m169.82,145.24c-.02-.08-.05-.16-.07-.18l.07.18Z"/>
        <path d="m169.98,145.61l-.16-.37c.04.13.08.3.16.37Z"/>
        <path d="m169.66,140.28l.04.05c-.06-.23.31-.96.28-1.28-.08.31-.29.77-.32,1.23Z"/>
        <polygon points="168.65 101.95 168.43 102.35 168.52 102.59 168.65 101.95"/>
        <path d="m25.77,105.35s-.07-.08-.11-.12c-.04.03-.08.07-.1.1.1.05.16.04.21.01Z"/>
        <path d="m35.43,99.16h0c-.02.06-.02.09-.03.12,0-.03.02-.07.03-.12Z"/>
        <path d="m35.51,98.89c.03-.08.06-.15.09-.2-.08.05-.15.15-.18.11-.02.05.03.09.09.09Z"/>
        <path d="m33.88,95.03s-.02.07-.03.1c0,.02-.01.04-.02.05.03,0,.05-.03.08-.04-.01-.03-.01-.08-.03-.12Z"/>
        <path d="m84.99,174.08l-.21.41.69-.57c.11-.17-.04-.18-.48.16Z"/>
        <path d="m82.06,175.56c-.21.03-.04-.09-.02-.14-.56.32-1.19.76-.74.78.53-.43.72-.37,1.24-.89.49-.25.9-.34.85-.23.15-.14.78-.38.97-.64-.36.11-.72.28-1.11.47-.39.17-.79.4-1.2.65Z"/>
        <path d="m75.11,177.91c.18-.05.33-.1.46-.15-.15.04-.29.07-.44.11,0,.01-.01.02-.02.04Z"/>
        <path d="m79.83,162.21s-.02,0-.03,0c.03.06.05.07.03,0Z"/>
        <path d="m74.82,177.94c-.15.03-.3.06-.45.08.21-.03.35-.05.45-.08Z"/>
        <path d="m66.4,137.97c-.06-.19,1.2.69-.3-.41.17.17.25.29.3.41Z"/>
        <path d="m75.08,177.81c-.05.05-.12.09-.27.13.11-.02.21-.05.31-.07.02-.03.02-.06-.05-.06Z"/>
        <path d="m.03,130.22c0-.18.03-.35.05-.53-.04.29-.06.53-.05.53Z"/>
        <path d="m.08,129.69c.06-.45.13-1.03.13-1.03-.04.3-.09.66-.13,1.03Z"/>
        <path d="m1.63,123.63l-.25.48c.17-.24.31-.5.47-.77.02-.06.04-.14.04-.18,0,0-.15.23-.26.47Z"/>
        <path d="m16.69,172.32s.03.03.05.05c.01-.07.03-.14.04-.21-.01-.02-.03-.05-.03-.08.02-.02.03-.03.05-.04.02-.21.03-.42.04-.61,0-.03-.03.46-.12.86,0,.02,0,.03-.01.04Z"/>
        <polygon points="16.87 96.18 16.87 96.18 16.88 96.18 16.87 96.18"/>
        <path d="m19.11,95.99s-.02-.01-.03-.02c0,0,0,.01,0,.02,0,0,.02,0,.03,0Z"/>
        <path d="m17.94,95.86c.43.07.68.04.96,0-.42-.26-.92-.45-1.36-.23l-.1.07c.16,0,.31,0,.45,0-.02.05-.21.12.05.18Z"/>
        <path d="m6.02,167.23c-.05-.07-.11-.12-.16-.19.08.11.13.16.16.19Z"/>
        <path d="m20.3,164.38c.06-.04.11-.08.16-.11-.03-.03-.07-.06-.1-.08-.05.08-.06.14-.06.19Z"/>
        <path d="m83.88,170.79l-.16-.49.73,1.05c-.31-.67-.66-.99-1.01-1.37,0-.14-.08-.35-.22-.62l-1.02-1.12c0-.21.53.45.08-.43-.47-.53.12.71-.54-.25-.23-.7-.05-.56-.54-1.26.01-.14.14,0,.32.28-.43-.62-.93-1.75-1.2-2.05-.08-.37-.3-.95-.46-1.44-.13-.49-.21-.89-.06-.89-.11-.21-.47-1.25-.58-1.95.5,1.22-.34-2.59.07-2.31-.4-.9-.59-3.45-1.19-5.09.05.09.14.26.16.41-.06-.28-.1-.49-.13-.68l.05.04s-.02-.04-.05-.06c0-.03-.01-.07-.02-.1.09-.03.18.02.11-.16.1.13.19.08.19.01l-.13-.02c.01-.05.05-.07.09-.1l.15.15c.31.02-.13-.52.28-.35-.08-.13-.14,0-.24-.13.07-.04.36.08.37.06.16-.01-.17-.27-.04-.31-.07-.04-.23-.15-.23-.26.07-.04.3.12.32.2,0,.02-.03.01-.05,0,0,.04,0,.08.09.11l-.05-.06c.08.02.15-.07.22.03-.02-.09-.08-.1-.14-.09.15,0,.1-.12.23-.15-.04-.01-.12-.06-.11-.07.17-.06-.06-.14-.02-.24.12.03.19.19.19.05.1,0,.16.12.19.18-.05-.17.19-.07.24-.1v.08s.02-.06.04-.08l-.13-.08s.06-.02.1.02c-.05-.09-.2-.14-.26-.28.08.02.02-.14.17-.02-.13.05.16.12.11.22,0-.03.01-.05.05-.05.02.01.03.03.03.04.21.03-.13-.19-.05-.28.07.09.18.12.17.09-.03.03-.15-.11-.19-.2.12,0,0-.11.04-.13h-.06s-.04-.07-.04-.1c.03.03.06.05.06,0,0,0,0,.01,0,.02-.1-.18.24.04.2-.12.08.02.16.14.22.15-.04-.17.18.03.16-.12-.13-.08-.1-.05-.16-.2l-.04.19-.07-.19s.05-.05.08-.09l.16.15c.2.03,0-.28.18-.32h-.08s-.01-.03-.02-.05c0-.04.15.02.13-.07.05.04.09.06.14.09-.05-.05.03-.07-.03-.18,0-.01.02-.03.03-.04l.08.04c.06-.01.04-.08,0-.16.01-.02.02-.04.04-.05-.06-.07-.07-.11-.08-.14,0-.01,0-.03.01-.04.06.12.16.15.17.28.03-.02.07-.03.01-.09.07.04-.03-.19.07-.13-.02-.05-.1-.15-.06-.17.02.02.04.05.04.05-.01-.02-.02-.04-.02-.06.04,0,.09-.01.11-.04,0-.01,0-.02-.01-.03.04-.01.07-.04.1-.07,0,0,0,.01.01.02.02-.03.04-.05.06-.07.04-.01.08,0,.16.05.04-.07.1-.16.15-.2.01.03.03.05.01.05.13.05-.12-.34.04-.28.13.16,0,.12.06.18.18.37.09-.12.22.1v.03c.08.12-.01-.16.16-.17,0,0,0,.04.01.06.05-.22.18-.33.27-.43.03.16-.02.1.07.24.04-.04-.11-.23-.04-.31.07.06.17.09.28.23l-.1.07c.16.16.14-.08.21-.09l.05.08c.15-.16-.02-.34.12-.47l-.07-.03c-.14-.22.16,0,.07-.18l.24.08c-.01-.11-.12-.34-.16-.46.18.08.24.28.29.43.04-.08.08-.31-.04-.37.02.04.07.09.03.12-.17-.15-.25-.25-.28-.39.24-.03.25-.17.16-.35-.09-.19-.34-.32-.43-.51-.15,0-.39.06-.47.09-.02,0-.04.01-.07.02h-.02s0,0,0,0h0s0,0,0,0h0s-.07.03-.07.03h-.05c-.15.06-.29.09-.37.16.28.25-.05.05.19.35-.03.05-.04.05-.06.04h0s0,0,0,0l-.26-.09c-.1-.07-.01-.1-.07-.16-.11.05-.14-.1-.26-.13.1.1.09.18,0,.18l.18.08c0,.25-.31-.17-.3.09l-.04-.12c-.02.11-.23.18-.09.47-.04-.02-.12-.09-.11-.14-.17.09-.11.52-.34.47l-.05-.08s.07.17-.02.13c-.02-.03-.05-.08-.07-.07,0,.04.04.18-.03.17l-.04-.1c-.2.02-.08.31-.1.47,0,.02,0,.04,0,.05-.01-.01-.02-.02-.03-.03-.17-.17-.32-.15-.4-.14l-.02-.03c-.18.11-.11.41-.18.62-.29-.14-.38.18-.64.19.06.02.14.16.13.2-.07-.01.04.23-.13.04h.02c-.19-.17-.22-.05-.27,0l.22.25c-.47-.22-.24.47-.61.23.02.09-.02.13,0,.22l-.12-.13c-.12.05-.19.08-.27.22l-.06-.11c-.07.05.27.44.22.51l-.2-.17c-.11.11-.38.06-.33.34-.03-.03-.08-.09-.07-.11-.02.01-.04.02-.08.04-.21-.43-.43-.91-.64-1.24-.23-1.2.54.57.6.14-.13.13-.99-1.88-.99-1.42-.29-.9-.3-.75-.38-1.27-.34.02-.51-.74-1.17-1.23-.38-.58-.42-.67-.46-.78-.05-.1-.12-.21-.73-.67-.5-.54.61.25.61.27-1.18-1.03-.7-.29-1.04-.41-1.46-1.01-.56-.62-.98-1.07-.92-.56-1.68-.84-2.24-1.36-.02-.07-.12-.17.04-.09-.48-.3-.97-.83-1.56-1.53-.58-.67-1.26-1.34-1.89-1.68-.07-.08-.1-.13-.11-.16.11.23.06.34-.02.38-.52-.43-1.1-.56-1.26-.81.36.2.43.16.61.22,0-.01-.66-.29-.66-.29-.25-.22-.01-.16.28-.01.3.14.64.37.69.3-.61-.38-1.35-.64-2.06-.78-.7-.15-1.36-.19-1.87-.26-.1-.12.51-.09.98-.02.47.07.79.12.1-.1,0,0,.41.08.81.22.4.13.79.31.79.31-.55-.38-.32-.28-.05-.2.25.11.53.23.02-.18-1.1-.41-1.74-.44-2.35-.49-.6-.02-1.19-.04-2.25-.08-.47.12.15.18-.32.29-2.94.23-2.34-.49-4.48-.14-.55.16-.76.44-2.28.34l.51-.25c-.99.01-1.27.1-1.56.17-.15.04-.3.06-.54.07-.12,0-.26,0-.44,0-.15-.01-.41-.03-.48-.06.04-.04.4-.04.71-.05.3,0,.52,0,.37-.02-1.34-.22-.83.12-1.43.06-.01,0,.16-.2.17-.2-.07-.01-.16-.02-.21-.08-.03-.07.03-.13.07-.18l.19-.17.49-.41c.91-.76,1.76-1.57,2.63-2.37-.05.13-.31.45.14.13,2.14-2.06,4.71-4.24,7.1-5.63l.39-.36c.2-.17.41-.34.41-.34.21-.12.43-.15.22.01.97-.45-.01-.14.41-.44.54-.28.76-.25.44-.04,1.58-.99,5.1-2.02,7.16-2.31l-.38.15c1.59-.32,1.69-.79,3.19-1.03l-.27.11c.51-.13,1.04-.29,1.56-.46-.04.18.1.37.06.57.03-.05.2-.09.24-.07-.03.07.23.03,0,.14v-.02c-.21.14-.1.21-.07.28l.3-.14c-.32.42.4.38.11.69.1,0,.13.05.23.04l-.15.1c.04.14.07.21.2.33l-.12.05c.05.09.48-.21.54-.15l-.19.18c.11.12.05.4.33.37-.03.02-.09.07-.12.06.05.06.07.35.32.08-.17.17.1.14.24.13l-.13.11c.21-.1.26-.15.37-.12,0,.03-.08.11-.07.06,0,.12.16-.07.17.06l-.1.06c.05.07.09.02.21-.04.08-.02.08.14-.01.27.07-.06.19-.13.2-.06-.03.05-.07.06-.09.07.03.18.29-.02.25.17-.04.05-.05.07-.05.09-.08-.07-.14-.14-.13-.14-.11.12-.05.2-.26.32.14-.04.4-.17.42-.05,0,.01-.01.03-.03.05h-.02s.03.03.06.02c0,.04,0,.06.03.08-.08.11.04.12.07.16.11-.14.13-.08.18-.23,0,.01-.02.01-.05,0,0,0-.02,0-.03,0,0,0,0,0,.01-.01-.03-.02-.06-.04-.09-.06.08-.05.16-.08.13.02.09-.07.18-.15.22-.18-.11.23-.09.41-.17.54.17,0,.3.14.56-.08.06-.01-.02.1-.04.15-.04.01-.06,0-.09.03.11-.02.2.11.35-.07.02.14-.16.15-.03.19l-.05.05c.02.45.67-.27.66.28,0-.03,0-.05.01-.09.18.34.67.17.8.6.05.1.13-.02.23-.1l-.07.18.18-.15s0,0,0,0c0,.05-.01.11.03.11l.04-.04s-.03-.03-.03-.08c.02,0,.04.03.05.06.04.13,0,.41.21.26l.03-.13s.03.02.05.02c-.02,0-.03.01-.05.02.04,0,.08.01.13.01.02.01.03.04,0,.08.02-.02.07-.11.07-.04l-.03.08h-.05s.02.02.05,0h0s.09-.03.09-.03c-.02.03-.05.05-.07.08.11-.09.12-.08.18-.12.07.11-.17.35-.01.43.07-.01.29-.2.28-.27-.02-.01-.04-.08,0-.17l.07-.03s.01-.03.02-.05h0s0,0,0,0c.11-.25.22-.5.19-.72l-.15.13.03-.14.07.02c.01-.14-.06-.04-.12.02.02-.07.03-.13.03-.16l-.19.22c.04-.11.13-.19.1-.27-.09.1-.06.25-.16.3.01-.14.07-.23-.03-.15.02-.07.05-.11.08-.13-.08.06-.13-.01-.21.12.03-.17-.16-.03-.04-.28-.04.05-.17.16-.21.15.21-.26-.13-.09.04-.39-.12.16-.19.12-.27.1.02-.03.05-.05.07-.04.03-.23-.07.1-.16.02,0,0,0,0,0,0-.04-.05-.01-.13-.02-.2-.06.11-.13.17-.19.21,0-.04-.07,0-.11-.01.02-.04.05-.08.08-.11.03,0,.04-.02.06-.07.03-.03.05-.07.08-.13-.04.07-.08.1-.12.13-.12.06-.01-.17-.08-.16.02-.03.05-.06.08-.1,0-.02-.13.11-.18.16-.02,0-.03,0-.05-.01.03-.07.05-.1-.03-.08.01-.1.13-.16.13-.16-.05-.03-.11.08-.17.18-.02-.01-.04-.02-.06-.03,0,0,0-.01,0-.02.03-.05.06-.1.07-.15-.02,0-.05.02-.08.04-.02-.07-.05-.14-.06-.21l.03-.03c-.17.16-.21.06-.29.05.1-.1.14-.13.21-.15l-.05-.04c-.06.04-.1.06-.15.05l.13-.12c-.07-.05-.26.03-.27-.13-.05.05-.11.15-.17.23,0,0-.02-.01-.02-.02,0,0,0,0,0,0,0,0,0,0,0,0,0,0-.01,0-.01-.01,0,0,0,.01-.02.02-.02,0-.04,0-.03-.02l.13-.08c0-.08-.1.07-.12.03.08-.09.04-.08.11-.15.02,0,0,.06.04.04-.02-.05,0-.14.04-.22-.04.05-.11.12-.15.11-.07-.05.08-.13.09-.21-.07.05-.05-.05-.18.08-.02-.02.04-.08.06-.13-.09.03-.17-.12-.26.05v.02s0,0-.01,0c-.23.04-.15-.28-.31-.32l.04-.05c-.11,0-.17-.1-.3-.04-.02-.02.03-.12.09-.17-.08-.01-.13.04-.13-.1.12-.03.05-.09.1-.01-.03-.1.02-.18-.16-.12.13-.1.09-.19.02-.18l-.03.12s-.07-.05-.09-.09l.16-.14c.04-.31-.52.11-.35-.3-.13.08,0,.14-.14.24-.04-.07.08-.36.06-.38-.01-.1-.08-.01-.16.04-.05.05-.11.08-.11.04-.05.05-.18.21-.29.19-.02-.08.22-.24.28-.26,0,0,0,.02-.03.04.03,0,.07-.01.12-.08l-.06.04c.05-.06.02-.1.13-.15-.07.02-.11.05-.13.09.07-.1-.02-.05,0-.18-.03.03-.11.07-.11.06.04-.16-.15,0-.22-.09.09-.09.26-.07.14-.13.05-.08.18-.08.25-.07-.16-.04.04-.19.05-.24l.07.03s-.05-.04-.06-.06l-.13.07s0-.06.07-.08c-.1,0-.23.1-.37.08.06-.06-.11-.09.07-.16-.03.14.19-.07.25.02-.03-.01-.03-.04-.02-.07.02-.01.04,0,.05,0,.14-.16-.23.01-.26-.1.11-.02.19-.09.17-.1.01.05-.17.07-.27.05.06-.1-.09-.06-.09-.11l-.03.06c-.11.02-.11-.03-.16-.07.08-.03.07.03.1,0-.2,0,.16-.19,0-.23.06-.06.2-.06.24-.11-.16-.05.12-.14-.02-.2-.14.07-.1.06-.26.03l.14.13-.24-.04s.12.08.1.11c-.13-.02-.09-.02-.21.03.2-.13-.16-.1-.04-.21l.36-.09c.1-.12-.09-.15-.16-.23.03-.02.07-.04.1-.06.4-.28.84-.67,1.04-1.27.06-.15.07-.3.09-.46.01-.16,0-.23,0-.34,0-.21,0-.42.01-.63.02-.42.04-.83.05-1.22.04-.79.1-1.54.17-2.22-.23-.51.04-3.53-.39-3.73,0-1.02,0-1.39,0-1.86-.02-.46-.02-1.08-.42-2.54-.27-.77-.63-1.05-1.14-1.88l.16-.12s-.21-.27-.44-.52c-.22-.26-.47-.49-.47-.49,0,0-.05-.18-.12-.35l-.14-.35s-.15-.18-.33-.33c-.17-.16-.34-.32-.34-.32.25.28.49.63.4.63-.51-.51-1.14-1.12-1.69-1.58-.54-.46-.99-.77-.98-.83,0,0-.79-.39-1.64-.61-.86-.24-1.68-.33-1.68-.33.05-.04.26-.03.52,0-.86-.15.06-.23-1.35-.33.21.08-.13.1-.18.13-.77-.25-2.55-.47-3.82-.67l.27-.09c-1.14-.23-2.33-.48-3.44-.93-1.11-.44-2.14-1.09-2.81-2.02.47.68.2.7-.28.15l-.02-.37c-.4-.35.43.73-.32-.05-.58-.84-.22-.7.18-.26,0,0-.19-.25-.4-.48-.2-.24-.41-.48-.41-.48,0-.1.21.12.31.13-.4-.33-1.21-1.83-1.91-2.21v-.09c-.98-1-1.78-1.65-2.56-2.21-.79-.56-1.56-1.04-2.65-1.51-.11.14-.95-.25-1.67-.27-.83-.23-1.78-.34-2.71-.29-.93.05-1.89.19-2.85.4-1.33.41-.36.24-.94.49-.14-.14-2.03.41-1.08.02-.83.26-1.44.45-2.01.65,0,0-.02,0-.03,0-.08.03-.16.06-.25.09-.52.19-1.05.4-1.7.69-.28.12-.6.27-.94.43-.22.1-.43.2-.68.32.19-.05.38-.1.48-.11.07,0,.1,0,.04.05-.05.02-.1.05-.15.07-.46.21-1,.37-.97.28l.12-.08c-.37.22-.76.42-1.15.67-.2.11-.4.24-.6.39-.09.06-.19.13-.28.21.15-.05.32-.11.6-.13.2.1.06.11-.04.13-.1.03-.16.04.07.1,0,0,.06,0,.14.02.11.02.25.07.39.17,0,0,0,0,.01,0,.09.06.15.13.21.19.02.02.05.05.06.07.06.08.09.12.1.13h0s0,0,0,0l-.03-.04s.02.03.03.05c.24.3.24.64.17.95.15-.19.09.23.34-.2-.06.09-.1.16-.13.22-.01.03-.03.07-.02.1-.06.04.68-.75.71-.77.04.09.46.05.77-.29.03-.1-.03-.14-.11-.09l.23-.23s.06.25.05.26l.39-.52.03-.07.06-.03-.08.1-.12.32c.23-.22.46-.62.59-.65.23,0,.25.06.26.13.02.06.01.14.08.2.32-.44.37-.11.67-.22.09.31.01.52,0,.77-.03.25-.03.52-.24.96l-.03-.03c-.37.46.27.13-.04.64l-.03-.08c-.26.33-.43.67-.56,1.03-.14.37-.22.74-.24.96-.02-.09-.14-.11-.18,0,.02.12.27.03.13.18-.01-.06-.1-.06-.12-.02l.09.25c-.33.41-.68.91-.77,1.43-.09.07-.13-.02-.18-.07-.11.4-.09.83-.14,1.18l-.21-.02c-.04.17.29.18.06.35-.04.04.01-.14-.06-.23-.23.31.15.24.09.54l-.23-.11c-.17.22.09.32.21.43.23.45-.49.23-.37.79.1.1.18,0,.28.1-.12.37.03.44-.1.81-.39.13.04-.19-.33-.04l.13-.27c-.23.21,0-.23-.22-.23-.1.17.03.48.05.73-.16-.03.04-.28-.2-.21l.04.13s-.1-.06-.08-.13c-.16.01-.04.14-.06.26.08.02.2.04.32.03-.02,0-.04,0-.06.02.18.28-.08.65.05.89-.04-.04-.06-.02-.1-.02-.04.14.13.34.15.54-.14.08-.33-.14-.34.18.12.08.37,0,.31.26,0,0-.05-.25-.17-.15.03.27-.06.07-.26.27.15.18-.12.24.17.34-.22.03-.14.03-.32.15.18-.03.09.34.28.38-.24,0-.2-.33-.48-.19.11.18.1.45.33.54-.08.09-.18.12-.25.28.02-.02-.02-.07-.03-.09.08.34-.19.74.05.98-.32-.15-.21.62-.47.31-.02.13.07.36.12.42-.26-.09-.15.29-.35.38.13.11.02.32.07.48-.01-.07-.05-.11-.13-.11.07.18-.03.12-.19.21.02.23.21.02.3.18-.11.16-.18-.02-.29-.02l.19.34s-.1.07-.18.07c.05.11.14.23-.02.32l.06-.23-.09.03h-.05s-.03.02-.03.02l.03.11.03.09.03.11c-.12.13-.24.17-.35.17-.15,0-.29-.07-.43-.13,0,0,0,.02,0,.02h0s-.24.69-.24.69c-.39-.21-.92-.61-1.54-1.15l-.19.09h-.02s.04.04.07.06c.22.13.66.09.54.41l-.12-.05s-.02.04-.02.07c-.02.08,0,.18.15.19.01,0,.03,0,.04,0,.06-.02.13-.09.08-.12l.06.13s-.07.02-.1.02c-.16,0-.36-.11-.52-.18.09-.01.22.03.26-.05,0,0,.01-.01.02-.02-.02,0-.04,0-.05-.02-.16-.06-.35-.08-.5-.15-.04,0-.07,0-.1-.02l.03-.02-.05-.03s.05,0,.09-.02c0,.02-.02.04-.04.05l.08.04c.1,0,.2-.06.27-.09-.09-.18-.18-.02-.29-.09,0,0,0,0-.01,0,0,0,0,0,0-.02,0-.08,0-.13.07-.15-.08-.03-.14-.07-.2-.11-.07-.06-.13-.13-.18-.24,0,0,.18.03.21-.06-.02-.02-.05-.04-.07-.06-.18-.07-.33-.07-.49-.1-.07-.01-.15-.04-.23-.07-.03-.01-.05-.01-.07-.03-.44-.09-.5-.54-.74-.71-.04-.03-.07-.07-.12-.08-.07.04.07.26-.11.15.13-.08-.02-.15.02-.2-.26,0-.23-.18-.34-.24-.02-.01-.04-.03-.07-.03.06-.01.02-.14,0-.24-.02.01-.04.03-.07.04l.07-.04h0s.04-.05.05-.07c.02-.08-.07-.14.25-.12-.12,0-.2-.05-.26-.1-.16-.13-.22-.32-.57-.22l.02.1-.16-.29h0c-.08-.11-.13-.09-.11-.36.09.03.17.11.26.14,0-.24-.35-.16-.49-.29.11-.09.17.11.25-.05-.08-.11-.23-.13-.35-.19l.07-.04c-.11-.36-.36.16-.35-.19-.03.04-.08.05-.11.09,0-.12-.05-.37.16-.28-.08-.08-.22-.14-.32-.12-.01.15.05.13-.03.25l-.38-.29s.08-.02.13.03c-.08-.68-1.01-.59-1.08-1.38-.04.14-.11.04-.21.05-.11-.18-.34-.38-.41-.57h.1c-.4-.3-.73-.45-.9-.73-.04.01.09-.08.15-.05-.27-.07-.09-.61-.38-.44l.04.08c-.27-.38-.79-.6-1.14-.94.07-.22.2.19.31-.04-.16-.3-.51-.44-.7-.76.06.03.07,0,.09.02-.14-.35-.12.16-.3-.09.08-.05.09-.08.06-.19l-.18.04s.1-.11.17-.11c-.25.04-.41-.36-.62-.31.02-.05.21-.12.24-.2-.06-.16-.19-.19-.32-.22-.08.06-.11.02-.16-.05.05.02.1.04.16.05h0c.03-.18-.17-.37-.11-.34-.14-.26-.11.04-.35-.05l.09.23-.3-.28.18.06c-.07-.19-.32-.23-.46-.39l-.02.15-.22-.14c.16-.17-.17-.28.12-.35-.12-.23-.24-.3-.46-.45-.21-.14-.45-.3-.66-.53.07.08.09.04.15.04-.16-.26-.42-.38-.74-.57.13.04.22.11.3.11-.19-.23-.29-.24-.49-.38-.02-.01-.04-.03-.05-.04-.03-.02-.07-.06-.11-.09-.05-.04-.08-.06-.14-.12.07.04.13.07.17.08.1.04.12.01.09-.05-.01,0-.03-.01-.04-.02-.1-.03-.22-.09-.31-.16-.02-.01-.04-.02-.05-.04.03.01.04.02.06.03.17.08.28.11.34.12.1.02.09-.04.07-.1-.02-.05-.01-.08.06-.07.03,0,.08.02.15.05.04.02.06.02.11.05-.02,0-.06-.03-.11-.05-.04-.02-.08-.05-.13-.08-.08-.05-.17-.12-.27-.18-.28-.19-.59-.4-.75-.43,0,0,0,0,0,0l.15.12c-.08-.03-.13-.06-.17-.09-.26.26-.31.37-.45.55-.23.33-.44.66-.62,1.01-.74,1.37-1.24,2.83-1.46,4.36-.08.56-.07.93-.01,1.2.05.27.09.45.17.64.16.39.18.83.44,2.24,0,0-.43-.73-.4-.74.15.56.33,1.13.6,1.66l.31.67c.06.18.11.37.13.55.07.74-.4,1.56-1.06,2.27-1.33,1.43-3.15,2.54-4.79,3.78.18-.18.15-.23.48-.45-.8.33-2.69,1.83-2.62,1.98-.53.42-.19.01-.56.23-.19.14-.39.33-.59.55-.1.11-.19.24-.28.36-.07.1-.14.21-.21.31-.27.4-.53.76-.73.9-.07.05.12-.22.21-.35-.3.46-1.7,2.07-1.21,1.75-1.04,1.2-1.68,2.55-2.31,3.66-.21.82-1.07,2.55-.86,2.88-.13-.1-.36.57-.53,1.4-.17.83-.23,1.81-.21,2.31-.07-.35-.13.87-.23.47-.08,1.17.03,2.19.16,2-.32,2.1.44,4.13.09,5.32.41,3.3.84,6.33,1.27,9.28-.31-.07-.41-3.26-.7-3.1.44,2.8.88,4.38,1.21,7.16.07.72-.18-.39-.26-.63.5,2.78.8,5.4,1.42,7.85-.03,0-.11-.26-.18-.51.1.49.18,1.14.3,1.06l-.13-.47c.03-.81.76,1.86.88,1.92-.55-.74.46,2.44-.29,1.24.1.31.25.7.31.61.08.48.07.64-.13.18.54,1.72.45,1.07.96,2.63-.06.01-.19-.29-.32-.43.19.38.39.76.58,1.2.27.44.49,1.01.93,1.56-.06-.03-.05.03-.12-.04.71.89,1.48,1.49,2.29,2.04.88.58,1.79,1.1,2.91,1.76-.8-.11.74.49.77.75,0,0,.32.13.65.26.33.12.65.25.65.25l-.47-.33c.45.2.89.36,1.33.5.49.16.97.32,1.43.47.26.06.48.13.7.1-.21.06-.42.03-.69,0l-.4-.11.4.13.32.06h.28c.2.01.36-.2.42-.37.03-.07.06-.16.08-.24-.01-.04-.03-.08-.04-.12-.1.34-.29.56-.31.55.23-.29.18-.51.19-.6-.01-.1-.04-.12-.06-.14-.05-.05-.04-.15.03-.98,0,.33.05-1.2.29-1.79h0c.01-.58.03-1.2.38-2,.15-.18.18.26.28.14,0-.29.24-.92.64-1.47.38-.57.92-.99,1.17-1.28-.18.18-.1.28-.03.26-.01,0,.17-.23.26-.34l.11-.17s.03.01,0,.07c.13-.07.23-.12.3-.15.17-.16.31-.37.45-.57.03-.05.06-.1.1-.14.19-.28.43-.53.84-.61-.15-.03-.03-.12-.02-.24.22-.16.52-.44.77-.53v.12c.42-.49.71-.85,1.08-1.05,0-.04.07.1.02.17.16-.32.75-.1.64-.43l-.06.02-.05.02c.26-.14.5-.34.73-.56.01-.01.03-.03.04-.04.24-.22.48-.45.74-.62.17.07-.09.15-.13.24-.01.03,0,.06.05.1.28-.11.51-.31.77-.48.12-.08.25-.16.39-.22-.04.04-.04.06-.04.08,0,0,0,.01,0,.02.2-.06.2-.09.16-.13-.05-.05-.15-.09.04-.19.02.07.06.08.12.08.02,0,.04,0,.08,0v-.05s.01-.14.01-.14c.02,0,.04.05.06.1,0,.03.02.06.01.09,0-.05.04-.1.08-.14.15-.19.47-.34.48-.53.04.02.07.13.11.21.02.03.03.04.06.05.13-.04.2-.12.26-.21.03-.05.07-.1.09-.15-.05-.08.01-.13.1-.18.05-.07.12-.12.22-.15-.05.07-.14.11-.22.15-.04.05-.07.11-.1.18h0c.2.03.48-.2.43-.14.35-.17-.01-.12.15-.39l-.29.1.4-.35-.11.2c.24-.08.34-.37.57-.54h-.17s.21-.26.21-.26c.17.17.36-.21.38.11.55-.28.66-.76,1.07-1.12-.07.06-.01.07,0,.11.28-.16.35-.38.42-.59.02.08-.03.15.01.2.29-.24.09-.25.36-.57-.02.15.04.16.14.11-.07-.05-.04-.16.06-.28-.08.68.62-.29.55.26-.03-.08.38-.65.44-.92.01-.01.01-.03,0-.05,0-.03,0-.04-.03-.04l-.14.17c-.02-.1.06-.18.17-.27.05.04.1.09.15.13.11.06.2.13.06.04-.02-.01-.04-.03-.06-.04-.07-.04-.14-.07-.15-.03,0,0,0,.02,0,.02h0c.35.2.75.56,1.12.91.24.23.46.45.75.64-.08,0-.33-.13-.23.02.44.51.88.61,1.45,1-.18.22-.51-.41-.73-.31-.01,0-.02,0-.04.01.06.05.14.11.2.16.5.4,1.02.79,1.61,1.2-.12.5.67.44.76,1.03.07-.13.28.01.46.21h0s.02.03.02.03l-.03-.03c-.15.01.04.22-.08.22.26.08.75.56.52.73.25-.13.32.39.59.42-.03-.07-.04-.15-.04-.24l.1.24s-.04,0-.06,0c.11.3.46.46.61.83.06-.21.29.26.43.33-.03-.03-.1-.08-.11-.05-.05.17.36.31.41.54,0,.12-.15.06-.07.21.11-.09.54.45.5.71-.03-.09-.1-.07-.17-.11.6.83.75,1.89,1.37,2.71l-.26-.08c0,.68.47.24.63.71.22.64.39,1.32.59,1.98l.16.49.08.24.04.11s.01.02.02.04c.06.12.33.38.56.55.11.02.01-.09.06-.16.06.09-.03.24.15.26l.05-.1c.22.61,1.44.96,1.47,1.62.28.13.45.33.63.53.19.22.38.4.76.71.05.18-.05.11-.12.07-.07-.03-.13-.07-.03.11,0,0,.17.17.29.42.07.08.11.36.11.5-.03.24-.11.39-.11.39l.04-.13c-.04.31-.42.6-.61.65l-.15.05s-.02,0-.03,0c-.04-.02-.12-.07-.24-.13-.11-.05-.3-.17-.4-.13-.01.06.04.16.16.26l-.03-.02c-.08-.03-.12-.02-.14.01,0,.01-.02.02-.01.03v.02c.06.02.09.01.12,0,.02,0,.04-.01.07-.01.02.02.03.03.04.04.18.18.2.16.28.27.04.05.11.14.22.3-.07-.04-.08-.03-.09,0,.43.08.11-.3,1.52.1l-.11.06c.69.08,1.34.08,2.07.22.28.21-.74-.04-.81.09,1.04.16,2.1,0,3.02.29-.45-.01-1.08-.1-1.53-.12,1,.34,1.13.31,1.88.44h-.07s1.75.31,1.75.31l-.44-.11c1.36-.26,2.66.27,4.46.24-1.74.03-.3.12-.46.28.44.11,1.11.27.91.3.85-.03,1.36.32,2.55.3.04.07.87.16.66.28,1.06.17-.23-.16-.13-.21.42.02.86.11,1.33.21.49.08,1.01.24,1.56.3,1.09.18,2.29.22,3.51.05,1.9-.2,2.39-.42,3.89-.71.2-.02.4-.05.6-.08.32.05-.63.28-.63.28,1.06-.04,1.84-.18,2.81-.42-.19.08.02.1.33.11.78-.17.48-.32,1.53-.44-.16.11-.37.25-.73.4.92-.23,1.8-.57,2.73-.87.28.03-.53.32-.85.46.45-.12,1-.29,1.51-.47,0,0,.02,0,.03,0,.03,0,.05-.02.08-.03.13-.05.26-.09.39-.14.12-.04.22-.09.33-.13.33-.14.58-.27.67-.36l-.69.16c.37-.13.24.07-.02.19,0,0,0,0-.01,0-.12.06-.21.08-.31.12-.18.07-.34.12-.48.14-.01,0-.02,0-.03,0-.01,0-.02,0-.03,0-.3.05-.49.02-.53,0l.27-.09.39-.13c-.16-.03-.39,0-.63.04-.93.18-2.33.78-3.43.96l.42-.3c1-.2,1.98-.43,2.93-.68.17-.05.34-.09.51-.14.12-.03.25-.07.37-.1,2.42-.72,4.49-1.61,5.79-2.61,0,0,0,0,.01-.01.06-.05.14-.09.2-.14h0s0,0,0,0c.01,0,.03-.02.04-.03,0,0-.03-.04-.08-.11.34,0,.83.21-.22-1.55l-1.02-1.15ZM22.08,101.85l-.15.05v-.16s.15.11.15.11Zm3.32,58.23v-.02s0-.15,0-.15h.2s-.14.12-.14.12l-.05.04Zm52.7-7.62s0-.06-.01-.08c.04.09.07.04.01.08Zm1.97-2.18s-.01-.02-.02-.03c.02-.01.03-.03.04-.04,0,.04,0,.07-.03.08Zm-27.03-16.7c.11-.1.26-.24.51-.47h0c-.22.2-.4.37-.52.47Zm1.7-1.55c-.11.02-.08-.1.14-.28-.09.13.43-.28.78-.53-.26.23-.58.51-.92.81Zm21.96-5.41s-.03-.03,0-.06c.01,0,.03.01.05.02h.02s-.05.03-.06.05Zm2.89.16v.02s-.02,0-.04.01c.01-.01.03-.03.04-.03Zm-1.28-.83s-.02.03-.03.04c0,0,0,0,0,0,.02-.02.03-.02.04-.03Zm-43.65-22.64c.06,0,.11-.02.17-.05-.05.31-.04.05-.17.05Zm-2.84,8.18s-.01.03-.03.04l-.17-.04h0s.16-.14.16-.14c.08.03.06.09.03.14Zm-.41-.66s-.09.05-.09.11c.22-.01.35.08.38.29-.01,0-.02,0-.03,0-.09.03-.14-.08-.19-.06.02-.02.02-.05.02-.08,0-.05-.01-.11-.08-.13-.03.01-.04.02-.06.03-.17.07-.19.03-.38.1.03-.13.13-.19.24-.23.06-.02.12-.04.18-.04Zm-.49.17s-.08,0-.11-.03l.11.03Zm-.17-.05s-.02,0-.02.02l-.03-.04.05.02Zm-1.03-.87l-.04.03c-.12-.06-.14-.24-.2-.31.14-.02.14.31.24.28Zm36.91,68.31s-.17-.07-.38-.15c.37,0,.74,0,1.13,0-.09.04-.29.09-.75.16Zm8.12-.9c-.34.13-.68.23-.68.23-.19-.01-.34-.05-.29-.12.45-.08.9-.16,1.35-.24-.11.04-.24.09-.37.14Z"/>
        <path d="m68.97,100.52c.14.02.32.05.58.08-.19-.03-.4-.06-.58-.08Z"/>
        <path d="m30.24,109.83s-.07.1-.08.15h.26c-.06-.04-.12-.1-.18-.15Z"/>
        <path d="m29.38,109.03s-.1-.09-.15-.14l-.04.11v.04s0,0,0,0c.08.01.14,0,.18-.01Z"/>
        <polygon points="75.93 105.59 75.89 105.62 76.05 105.83 75.93 105.59"/>
        <path d="m52.14,176.67l.94.19c-.41-.08-.7-.14-.94-.19Z"/>
        <path d="m57.26,177.45c.07-.02.09-.04.11-.06h0s-.1.06-.1.06Z"/>
        <path d="m3.05,157.76c-.01-.07-.03-.14-.04-.2-.12-.46-.05-.14.04.2Z"/>
        <path d="m16.8,169.42c0,.26,0,.51,0,.78.05-.43.1-.75,0-.78Z"/>
        <path d="m.02,130.39h0c0-.06,0-.11,0-.17v.17Z"/>
        <path d="m16.8,170.2c-.04.35-.08.76-.07,1.13.06-.43.07-.79.07-1.13Z"/>
        <path d="m79.65,176.81l.08-.02.17-.05s0-.02.02-.04l-.2.08-.07.03Z"/>
        <path d="m79.91,176.71l.12-.05.14-.06c-.06.02-.11.04-.15.05-.05.02-.09.04-.11.05Z"/>
        <path d="m80.72,176.37l-.55.23c.2-.06.44-.14.55-.23Z"/>
        <path d="m72.74,178.36l.06-.06c-.32.13-1.55.06-2.02.2.5-.02,1.27-.02,1.96-.14Z"/>
        <path d="m81.54,146.85c.15.08.03.23.22.3-.05-.05-.08-.28-.22-.3Z"/>
        <path d="m81.04,149.39h-.02s.01.02-.02.01c.02,0,.04.02.04-.01Z"/>
        <polygon points="81.43 149.07 81.4 149.05 81.4 149.06 81.43 149.07"/>
        <polygon points="78.77 152.08 78.76 152.15 78.77 152.18 78.77 152.08"/>
        <path d="m81.45,149.25l-.12-.15s.12.23.12.15Z"/>
        <path d="m82.99,148.2c.1.04.2,0,.14-.09-.05.05-.14.06-.14.09Z"/>
        <polygon points="78.61 149.33 78.6 149.26 78.58 149.34 78.61 149.33"/>
        <path d="m78.07,125.31s-.01.06,0,.09v-.09Z"/>
        <path d="m78.85,125.89h.01s.04-.02.07-.04l-.08.04Z"/>
        <polygon points="80.52 128.02 80.51 128.02 80.47 128.11 80.52 128.02"/>
        <path d="m76.89,126.47s.01,0,.02,0c0-.02,0-.03.01-.04l-.04.04h.01Z"/>
        <path d="m78.07,125.42s0,.01-.01.02v-.02s.01,0,.01,0Z"/>
        <polygon points="79.9 128.15 79.87 128.15 79.88 128.17 79.9 128.15"/>
        <path d="m79.5,126.37c-.07.02-.09.03-.09.1.06.02.07-.07.09-.1Z"/>
        <path d="m77.6,124.8l.11-.11s-.04.05-.11.11Z"/>
        <polygon points="77.27 124.06 77.18 124.05 77.24 124.06 77.27 124.06"/>
        <polygon points="74.34 123.97 74.33 123.93 74.25 123.93 74.34 123.97"/>
      </g>
      <g>
        <path class="cls-2" d="m95.53,132.65s-.07.07-.14.07c.05.01-.04.08.09.08.15-.07.15-.1.03-.2.05,0,.1.02.14.02-.05-.03-.1-.08-.16-.15-.05-.08-.08-.18-.22-.15.09.25.04.24.26.33Z"/>
        <path class="cls-2" d="m96.39,132.36s-.04,0-.06.01h.04s.03-.01.03-.01Z"/>
        <path class="cls-2" d="m95.39,135.45s.1-.04.15-.05c-.12.03-.18-.04-.15.05Z"/>
        <path class="cls-2" d="m96.39,132.39h-.02s-.04.02-.05.04c.03-.03.06-.04.07-.04Z"/>
        <path class="cls-2" d="m99.13,140.3c-.07.06-.14.12-.21.15,0,0,.21-.14.21-.15Z"/>
        <path class="cls-2" d="m99.51,139.42c-.1-.36-.24-.57-.34-.77.28-.04.06.23.35.2-.14-.22-.4-.29-.37-.48.03-.05.12,0,.18,0-.15-.14-.05-.34-.24-.45.03,0,.06,0,.08.01-.02-.03.02-.08-.1-.04l.04.02c-.17.09-.41-.02-.5,0,.37-.05.05-.17.52-.21-.03-.01-.09-.02-.18,0,.02-.04.06-.06.16-.05-.1-.09-.22-.01-.24-.11.06-.02.09,0,.16-.01-.13-.02-.26-.03-.23-.12.04,0,.08-.03.09,0-.06-.13-.38-.14-.31-.32.27-.03.07-.08.29-.15l-.09-.06-.1.07c-.02-.07-.2-.08-.15-.16l.11.02-.08-.12-.06.1c-.14-.03-.28.1-.25-.01.03.01-.02-.07.1-.15h0c-.08-.01-.17-.02-.13-.09.07-.04.25-.07.29-.1-.2.03-.11-.15-.32-.12.05,0,.17-.04.19-.05l-.16.02s.06-.06.15-.09c0-.11-.27.13-.19-.03.02,0,.04,0,.07,0,.02-.14-.17-.19-.14-.32.21-.11.09.07.26-.03-.1-.14-.38-.21-.39-.38v.04c-.33.1.09-.17-.08-.18.03,0,.18-.05.14-.04,0-.12-.16-.17-.32-.28l.09-.02c.04-.09-.03-.17-.03-.25-.09.02-.09-.02-.19.05.34-.41-.41-.24-.15-.59.01.02.09.01.08,0l-.15-.1c-.12.08-.07.06-.15.15-.08.02-.16.02-.18-.01.12.01.2-.12.26-.18-.04.03-.08.04-.12.07.18-.2-.26.13-.16-.05l.07-.03c-.05-.02-.16,0-.16-.05.13-.1.09,0,.21-.07-.04-.05-.34.06-.22-.08.05,0,.07.03.13.03.13-.16.09-.14.09-.19h0s.02-.13.02-.13l-.03.05c-.41.16-.15-.1-.45-.03.28-.06.14-.07.3-.17.03-.05.05-.12.11-.14-.16.04.05-.14-.17-.08.05-.04-.03-.05.11-.13-.08-.03-.08.07-.14.11-.23.03.07-.35-.26-.31-.12-.02-.23,0-.35.03-.03-.01-.06-.02-.1-.03.06-.04.13-.07.13-.07.03-.11-.02-.14-.12-.14.05-.03.07-.07.11-.13-.05-.03-.18.13-.17.01.06-.04.15-.11.21-.13-.09-.01-.22.02-.32.02.04-.1.14-.1.21-.13-.05-.01-.13-.04-.23-.05-.1-.02-.28.02-.31.13.02-.02.15.06.14.06-.07,0-.01-.15.06-.16.22-.06.12.13.1.18h-.07c-.14.32.19.07.26.17l-.17.13c-.22-.23-.36-.25-.29.14,0,0,0,0,0,0-.1.01-.2.02-.3.04.02,0,.05-.02.03-.04h-.21s.06.06.06.06c-.12.03-.22.07-.3.14l.19.06-.13.05-.02-.08c-.12.06,0,.07.08.09-.07.02-.12.04-.15.06l.29.04c-.11.03-.23,0-.28.07.13.02.25-.08.34-.03-.12.06-.23.07-.11.1-.07.02-.12.02-.16,0,.1.03.06.11.21.11-.15.07.07.15-.21.19.07,0,.23.04.24.08-.34-.02,0,.16-.34.2.3,0,.16.18.34.26-.02,0-.07,0-.06-.02-.01.06-.1.09-.15.14.24-.03.31.04.47.07-.22.11-.29,0-.51.07.19-.04.22.09.37.03-.13.08-.06.06-.26.12.3-.04.06.04.25.05-.14.1-.28.07-.17.14-.09.06-.21,0-.21,0,.01.09.23,0,.36,0,.08.09-.16.08-.27.13.07.05.29.07.29.11-.04.01-.05.02-.1.02.19.03.05.2.29.24-.02,0-.04.02-.05.02.11-.03.23-.06.31-.07.01.04.16.04.01.09,0-.02-.06-.02-.11-.02l.07.03c-.21.08-.08-.04-.24-.01.08.07.28.12.23.19-.21.05-.1-.13-.27-.01l.06-.11c-.32.13.01-.06-.33.07-.04.13.13.12.09.25.12,0,.17-.04.29-.04.24.13-.5.24-.19.31.15,0,.41-.03.29.09l-.24.02c0,.13.35,0,.22.16-.1,0-.1-.08-.12-.05-.17.12.15.03.16.09l-.2.06c.06.12.24.23.32.37-.06,0-.13,0-.19.05.04.05.07.11.09.17,0,.05-.08.09-.18.16l.18.05s-.08.01-.12,0c-.07.04.12.01.18.04,0,.03-.11.02-.16,0,.15.08.29.32.07.38l-.05-.03c-.09.06.34.19.15.22l-.03-.02c-.13.16-.04.43-.35.49.24.11-.18.16.17.29-.21.06-.26,0-.43.14-.03.04.2.14.22.21l-.19-.05.17.14h-.23s.03.06.03.06c.02-.02.1-.03.15-.02.06.1-.18.22-.28.22,0,.05.14.16.13.22-.07-.02-.09-.08-.14-.09.17.13-.2-.02-.06.16.05-.02.11.02.15.03-.13.07-.18.27-.16.39h-.13c-.1.26-.06.53-.1.79.09-.13.34-.23.36-.17l-.24.15c.13-.03.1-.12.26-.12-.04.1-.28.21-.34.19l.06.08c-.07.05-.1.04-.19.08.13-.04-.26.36-.02.27l-.07.05c-.04.28.05.31.05.5.2-.18.15-.06.31-.17-.06.16-.21.47-.16.56.1-.02.15-.15.25-.23-.15.19-.12.29-.24.36.05.11.08.13.22.14.04-.09.06-.14.11-.19.03,0-.03.14-.09.22h-.01c.11-.04.06.19.05.37,0,.18.04.33.19.23h-.01s.25-.05.24-.06c.07.04-.1.1-.07.21.3-.19.29.08.48-.13-.02.26.07.24.17.18.1-.07.21-.19.24-.01l.02-.15c.06-.17.03.07.05.09.01-.12-.02-.12.02-.22.3-.35.59-.18,1.03-.53.16-.14-.11-.83.13-.7l.03.31c.15-.62.55-.78.64-1.3.02.05.07.09.05.13.08.01.14-.07.15-.14,0-.05-.04-.11-.09-.15.03-.02.1.06.16.07.1.02-.09-.2.04-.13.02.01.03.04.04.05-.04-.08.08-.07-.07-.16,0,0,.01,0,.02,0,.14.08.42-.11.41-.28.02.1.15-.03.2.09.12-.14.15-.3,0-.34.22-.03.21-.2.18-.3-.02-.12-.06-.19.17-.22Zm-3.58-2.66s.01.02.02.04h0s-.02-.03-.02-.04Zm.06.14c.06-.02.12-.03.12-.02-.03,0-.05.03-.08.07l-.03.02h0s0-.05-.02-.07Zm1.37-2.41s-.09.05-.13.07c0-.02-.02-.03-.02-.05.06-.02.11-.04.16-.03Zm-.91-1.46l-.11.11s-.03-.04-.04-.05c.04-.02.08-.04.15-.05Zm-.27-.37s-.07.08-.12.12c-.02-.02-.03-.04-.05-.05l.17-.07Zm2,7.27v-.02s0,.03,0,.03h0Zm0,.03s0,0,0,0c0-.02,0-.05,0-.06h0s0,0,0,0h0s0,0,0,0h0s0,0,0,0h0s0,.07,0,.07h0s0,.01,0,.01h0s0,0,0,0h0s0-.01,0-.02c0,0,0,0,0,.01h0s0-.02,0-.02Z"/>
        <polygon class="cls-2" points="95.23 138.89 95.27 138.9 95.24 138.87 95.23 138.89"/>
        <path class="cls-2" d="m97.03,133.32s-.05.03-.07.04h0s.07-.04.07-.04Z"/>
        <path class="cls-2" d="m99.16,137.94s0,0,.01.01c.04.02.02,0-.01-.01Z"/>
        <path class="cls-2" d="m98.35,136.62s.07.01.09.02c0-.03,0-.05-.09-.02Z"/>
        <polygon class="cls-2" points="99.15 140.29 99.15 140.28 99.13 140.3 99.15 140.29"/>
        <path class="cls-2" d="m98.46,136.7s.01-.05-.02-.07c0,.02-.01.05.02.07Z"/>
        <path class="cls-2" d="m95.92,132.01s0,.02-.02.03h.07s-.06-.03-.06-.03Z"/>
        <path class="cls-2" d="m95.78,132.04c-.07-.01-.23.02-.28.11,0,0,.07-.05.15-.08.06-.02.12-.03.12-.03Z"/>
        <path class="cls-2" d="m96.55,132.61s.05-.15,0-.16l-.04.03c.09-.04-.05.18.05.13Z"/>
        <polygon class="cls-2" points="98.29 135.95 98.37 135.88 98.22 135.91 98.29 135.95"/>
      </g>
    </g>
  </g>
</svg>