<?xml version="1.0" encoding="UTF-8"?>
<svg id="Layer_2" data-name="Layer 2" xmlns="http://www.w3.org/2000/svg" viewBox="0 0 951.15 959.82">
  <defs>
    <style>
      .cls-1 {
        fill: #d18859;
      }

      .cls-2 {
        fill: #f9b689;
      }

      .cls-3 {
        fill: #604e41;
      }

      .cls-4 {
        fill: #ede8e3;
      }

      .cls-5 {
        fill: #f9b688;
      }

      .cls-6 {
        fill: #f9a36a;
      }

      .cls-7 {
        fill: #52443d;
      }

      .cls-8 {
        fill: #f9b588;
      }

      .cls-9 {
        fill: #383837;
      }

      .cls-10 {
        fill: #373737;
      }

      .cls-11 {
        fill: #fefefe;
      }
    </style>
  </defs>
  <g id="Layer_1-2" data-name="Layer 1">
    <g>
      <path class="cls-6" d="m95.25,300.47c.16-.26.2-.54.11-.84,1-1.27-.18-3.08,1.05-4.3l-.04.06c.85-.89.08-2.27.95-3.16.17-.24.21-.49.12-.77.73-.99.02-2.42,1-3.34l-.03.05c.88-.87.08-2.29,1.02-3.14v.03c.91-.84.08-2.27,1.02-3.11v.02c.93-.83.07-2.28,1.05-3.1l-.02.04c.92-.84.04-2.32,1.1-3.11l-.04.06c.52-.62.35-1.54.94-2.13.18-.2.23-.43.15-.69.37-.78.28-1.75.99-2.38l-.03.05c.53-.62.39-1.54.97-2.13h0c1-.79.04-2.32,1.17-3.05l-.05.07c.49-.65.33-1.6,1.04-2.14l-.04.06c.52-.62.36-1.58,1.04-2.12l-.03.04c.55-.6.39-1.55,1.04-2.11l-.02.03c.58-.58.4-1.54,1.04-2.09l-.02.03c.59-.57.41-1.54,1.05-2.08l-.02.03c.58-.58.4-1.55,1.07-2.08l-.03.04c.56-.59.38-1.57,1.08-2.09l-.04.06c.53-.61.35-1.6,1.1-2.1l-.07.07c.28-.38.56-.75.86-1.11.2-.19.27-.42.22-.69.14-.58.52-.99.92-1.4h0c.64-.53.43-1.53,1.12-2.03l-.03.05c.55-.6.35-1.6,1.13-2.08l-.08.07c.22-.46.63-.78.95-1.16h0c.65-.53.43-1.54,1.14-2.02l-.06.06c.25-.42.65-.72.89-1.15l.05-.08c.73-.44.47-1.46,1.15-1.93l-.03.05c.56-.59.35-1.61,1.16-2.06l-.09.07c.23-.48.61-.83,1.02-1.14l-.04.05c.27-.4.67-.7.89-1.13l.06-.09c.74-.42.47-1.47,1.19-1.91l-.06.06c.26-.43.65-.74.95-1.13l.02-.03c.67-.49.43-1.54,1.19-1.97l-.08.07c.24-.47.62-.81,1.03-1.13l-.04.04c.29-.39.67-.69.92-1.11l.05-.07c.72-.44.45-1.5,1.21-1.92l-.08.07c.25-.46.63-.81,1.04-1.13l-.04.04c.29-.4.66-.71.95-1.11l.03-.04c.69-.47.43-1.54,1.22-1.93l-.09.07c.24-.49.61-.84,1.06-1.12l-.06.06c.26-.45.64-.79,1.03-1.12l-.03.03c.3-.38.67-.7.97-1.09l.03-.03c.36-.28.66-.62.88-1.02l.1-.13c.78-.37.48-1.47,1.25-1.84l-.09.07c.25-.48.62-.83,1.07-1.11l-.06.06c.27-.45.64-.8,1.06-1.11l-.05.05c.29-.42.66-.75,1.02-1.1l-.02.02c.32-.36.68-.68.98-1.07l.03-.03c.36-.29.67-.63.93-1.01l.08-.09c.38-.23.68-.55.88-.95l.11-.13c1.04-.73,1.26-2.11,2.29-2.84l-.09.06c.24-.49.6-.85,1.09-1.1l-.07.07c.25-.48.62-.84,1.09-1.1l-.07.07c.26-.47.62-.83,1.09-1.1l-.07.07c.26-.47.63-.83,1.09-1.1l-.07.07c.27-.46.63-.83,1.09-1.1l-.06.06c.27-.46.63-.83,1.09-1.09l-.06.06c.27-.46.63-.82,1.09-1.1l-.03.06c.5-.65.33-1.59.97-2.17.15-.27.17-.54.05-.82,1.18-2-.32-4.41.99-6.39.16-.25.18-.5.06-.77.9-1.32-.04-3.02.87-4.34.16-.31.19-.63.11-.96,1.2-1.58-.23-3.68,1.03-5.25.16-.23.19-.47.07-.73.9-1.34-.14-3.1.97-4.39l-.02.03c1.08-1.21-.05-2.91.95-4.14.16-.28.2-.58.11-.89,1.03-1.27-.13-3.04,1-4.29.17-.22.19-.46.08-.71.68-1.03.06-2.4.9-3.39.17-.25.2-.51.1-.79.74-.99.08-2.36.91-3.32.17-.25.2-.52.11-.81.76-.98.07-2.36.93-3.31.17-.24.2-.49.11-.76.72-1,.05-2.41.97-3.35l-.02.03c1.13-1.17-.16-2.99,1.11-4.13l-.04.06c.84-.89.06-2.3,1-3.16v.03c.91-.85.1-2.24.96-3.11.17-.23.22-.49.13-.77.74-.99,0-2.44,1.03-3.34l-.04.06c.85-.88.02-2.33,1.05-3.15l-.03.05c.87-.87.04-2.32,1.05-3.14l-.03.05c.89-.87.04-2.31,1.06-3.13l-.03.05c.89-.86.03-2.32,1.07-3.13l-.04.06c.87-.87.01-2.34,1.08-3.14l-.04.06c.51-.62.35-1.53.91-2.13.18-.23.23-.48.16-.76.4-.74.32-1.68.93-2.34h0c.97-.81.08-2.27,1.08-3.08l-.02.04c.91-.85.03-2.32,1.1-3.12l-.04.06c.52-.62.35-1.54.93-2.13.18-.21.23-.45.15-.72.38-.76.3-1.72.96-2.37l-.02.03c.93-.83.03-2.32,1.11-3.1l-.04.06c.5-.63.38-1.55.95-2.15h0c.99-.8.07-2.29,1.12-3.07l-.03.05c.54-.61.36-1.53.94-2.12.18-.21.23-.44.16-.71.38-.77.28-1.74.99-2.37l-.03.05c.53-.62.4-1.53.96-2.13v-.02c1.02-.77.07-2.29,1.16-3.04l-.04.07c.51-.63.36-1.57,1.01-2.14l-.02.04c.58-.58.38-1.52.96-2.09.19-.19.24-.42.16-.67.36-.79.25-1.78,1.03-2.39l-.05.07c.49-.64.34-1.59,1.04-2.14l-.04.05c.53-.61.38-1.56,1.01-2.12l-.02.03c.58-.58.42-1.51.99-2.1h0c.65-.53.42-1.46.96-2.03.19-.2.26-.44.19-.72.38-.77.26-1.76,1.05-2.35l-.05.07c.48-.65.32-1.61,1.06-2.13l-.05.06c.5-.64.34-1.6,1.06-2.13l-.04.06c.51-.63.35-1.59,1.06-2.12l-.04.06c.52-.62.36-1.59,1.06-2.12l-.04.06c.53-.62.36-1.59,1.07-2.11l-.04.06c.53-.62.36-1.59,1.07-2.11l-.04.06c.53-.62.35-1.59,1.08-2.11l-.04.06c.52-.62.35-1.6,1.08-2.11l-.04.06c.51-.63.33-1.61,1.09-2.11l-.05.07c.49-.64.32-1.62,1.09-2.11l-.08.07c.27-.4.56-.78.88-1.13.19-.18.25-.4.18-.66.12-.59.51-1,.9-1.42v-.02c.67-.51.46-1.49,1.08-2.02v.02c.59-.56.39-1.55,1.08-2.06l-.03.05c.55-.6.36-1.59,1.1-2.09l-.04.06c.51-.63.32-1.63,1.12-2.1l-.09.07c.21-.48.61-.8.97-1.16h0c.62-.53.4-1.55,1.15-2.02l-.08.07c.24-.46.63-.78.99-1.14h0c.34-.31.63-.67.88-1.06l.08-.12c.77-.37.47-1.47,1.25-1.84l-.09.07c.24-.49.61-.85,1.1-1.1l-.07.09c.36-.78,1.47-.47,1.82-1.26l.14-.1c.4-.23.76-.52,1.08-.86h-.02c.39-.42.81-.8,1.41-.93.26.07.48.01.67-.17.6-.54,1.51-.37,2.1-.91l-.05.03c2.73-.96,5.47-.83,8.21-.09.24.16.51.2.78.11.71.42,1.6.34,2.28.84.25.18.52.24.82.18.71.45,1.67.32,2.29,1l-.04-.02c.59.57,1.55.4,2.1,1.04l-.03-.02c.58.58,1.56.39,2.07,1.1l-.06-.06c.36.29.72.57,1.08.85.19.2.41.28.69.24.6.14,1.03.52,1.39.99l-.05-.04c.39.28.7.67,1.12.92l.07.05c.44.72,1.51.45,1.91,1.22l-.07-.09c.47.25.83.62,1.12,1.07l-.06-.06c.44.28.8.64,1.1,1.07l-.05-.05c.42.29.78.66,1.09,1.06l-.04-.04c.41.31.76.66,1.07,1.07l-.04-.04c.41.31.77.66,1.07,1.07l-.04-.04c.41.31.77.66,1.06,1.09l-.05-.05c.43.3.79.65,1.07,1.09l-.06-.06c.44.29.8.65,1.08,1.1l-.06-.06c.45.28.82.64,1.08,1.1l-.07-.07c.47.26.84.62,1.08,1.11l-.07-.07c.49.25.85.61,1.09,1.1l-.09-.06c1.45,1.65,2.95,3.26,4.32,4.97l.05.06c.27.38.59.71.95,1l.04.04c.3.37.63.71.98,1.03h0c.32.37.68.71,1.01,1.07l-.02-.02c.36.34.73.68,1.03,1.08l-.04-.04c.4.32.77.66,1.05,1.1l-.06-.06c.43.29.8.65,1.07,1.11l-.07-.06c.46.27.83.63,1.07,1.12l-.09-.06c1.01.8,1.39,2.07,2.22,3.01h0c.34.36.73.69,1,1.12l-.05-.06c.43.3.81.65,1.05,1.13l-.09-.07c.79.42.54,1.47,1.2,1.96v.02c.32.39.71.7.97,1.13l-.06-.06c.89.91,1.39,2.09,2.13,3.1l-.02-.03c.4.33.79.66,1.01,1.14l-.09-.07c.79.45.58,1.47,1.17,2.04l-.02-.03c.38.34.78.67,1,1.15l-.09-.07c.79.46.59,1.47,1.15,2.07l-.03-.05c.68.48.44,1.5,1.14,1.97l.03.05c.28.41.69.71.91,1.16l-.08-.07c.76.49.57,1.49,1.11,2.09l-.04-.05c.7.52.51,1.5,1.09,2.08l-.02-.04c.65.53.46,1.51,1.08,2.05h0c.41.39.8.8.94,1.38-.02.29.08.53.3.72.23.36.5.69.83.97h0c.33.37.72.7.98,1.13l-.05-.06c.44.3.81.65,1.05,1.13l-.09-.07c.78.4.52,1.47,1.22,1.92l.04.05c.27.41.65.72.94,1.1l-.03-.04c.4.33.78.66,1.03,1.13l-.08-.07c.75.4.46,1.48,1.22,1.87l.07.11c.25.4.55.76.89,1.08v-.02c.35.35.74.68.99,1.13l-.07-.07c.73.42.45,1.48,1.21,1.89l.07.1c.26.39.56.76.89,1.1l-.02-.03c.38.34.77.67,1.01,1.14l-.08-.07c.76.44.51,1.48,1.19,1.97l.02.03c.3.39.69.71.95,1.13l-.06-.06c.71.44.45,1.49,1.18,1.92l.05.08c.23.43.63.73.9,1.13l-.04-.05c.48.36.87.79,1,1.39-.03.27.05.5.26.68.27.36.55.71.85,1.05l-.04-.04c.4.33.78.67,1.01,1.15l-.09-.07c.8.45.59,1.47,1.16,2.05l-.02-.04c.47.37.85.79.98,1.39-.04.27.04.5.25.68.27.36.56.72.85,1.07l-.05-.06c.69.48.44,1.5,1.15,1.96l.03.04c.48.5,1.34.72,1.22,1.66-1.7,2.43-4.52,2.89-7.01,3.77-6.89,2.44-13.56,5.3-19.75,9.15.06.09.09-.02.1-.03.26-.17.51-.35.79-.54,17.61-8.34,36.63-11.59,55.57-13.87,21.84-2.62,43.76-5.73,65.92-4.73,33.57,1.51,66.81,5.07,98.92,15.7,6.81,2.45,13.49,5.34,20.57,7.01,16.16,6.72,31.66,14.74,46.69,23.7,1.32.79,2.61,1.65,4.05,2.22,5.97,2.35,9.38-.33,8.65-6.63-.71-6.18-2.82-12-4.33-17.97-5.6-22.08-10.5-44.35-17.96-65.92-2.25-6.51-5.13-12.74-9.75-17.95-5.43-6.12-11.19-5.76-15.42,1.28-9.53,15.86-19.43,31.49-29.09,47.27-4.47,7.3-9.1,14.49-13.37,21.92-.39.39-.86.61-1.41.68-1.08.04-2.13-.17-3.2-.27-8.22-1.92-16.13-4.95-24.31-7-1.31-.33-2.6-.81-3.18-2.24-.18-.88.04-1.65.66-2.3l-.04.05c.53-.62.36-1.64,1.18-2.1,7.61-12.6,14.82-25.44,23.09-37.64,13.97-20.59,29.39-40.05,45.53-58.96.88-1.03,1.91-1.96,2.97-2.82,6.16-4.99,11.71-4.78,17.26.91,4.34,4.44,7.56,9.73,10.7,15.04,14.65,24.76,25.31,51.25,33.92,78.63,7.96,25.32,15.7,50.7,22.51,76.35.65,2.45,1.76,4.25,3.66,5.93,20.47,18.11,37.67,38.88,50.23,63.25,10.53,20.44,17.17,42.06,19.52,65.04,3.74,36.62-4.09,70.84-21.05,103.13-2.61,4.97-2.4,8.32.63,12.89,14.59,22.07,26.09,45.84,37.18,69.8,11.6,25.06,21.48,50.81,30.02,77.05,8.85,27.2,16.01,54.87,21.05,83.06.26,1.47.44,3.01,1.37,4.27,1.38,0,2.21-.95,3.16-1.65,23.45-17.24,40.99-39.67,56.25-64.1,10.29-16.47,19.11-33.66,25.57-52.02,6.18-17.54,9.64-35.63,11.38-54.11,1.64-17.46,1.58-34.96.58-52.4-1.4-24.49-5.63-48.59-12.41-72.21-7.53-26.24-16.85-51.79-28.87-76.31-12.36-25.24-24.92-50.39-37.17-75.68-11.28-23.28-23.2-46.26-32.39-70.51-7.32-19.31-12.66-39.12-14.1-59.76-.92-13.19-.46-26.39,2.94-39.3,2.25-8.55,5.6-16.59,12.23-22.79,5.49-5.13,11.96-7.84,19.57-7.56,1.2,7.46-.03,14.98,1.01,22.5,4.2,30.46,13.11,59.55,24.96,87.78,15.12,36.03,30.15,72.1,45.12,108.19,12.02,28.98,23.67,58.09,33.13,88.03,10.62,33.59,18.2,67.85,22.46,102.81,1.55,12.74,2.47,25.63,2.11,38.42-.63,22.24-1.94,44.48-7.02,66.29-1.42,6.08-4.24,11.57-6.54,17.28-7.94,19.71-15.52,39.55-25.34,58.47-10.86,20.92-23.95,40.35-37.9,59.27-11.2,15.18-23.04,29.86-35.68,43.84-8.18,9.05-10.62,19.55-10.88,31.17-.1,4.87,1.37,9.94-1.29,14.6-1.47,1.04-2.18,2.31-2.18,4.27.07,19.01.02,38.03.01,57.04-1.32,5.51.47,11.21-.98,16.72-.02.6-.04,1.2-.05,1.8-1.27,3.43.44,7.14-1,10.55-.15.25-.16.51-.02.77-1.19,2.37.33,5.08-.95,7.43-.15.28-.17.57-.05.87-1.2,1.97.26,4.35-.96,6.32-.16.28-.18.56-.07.86-1.4,4.08.54,8.44-1.05,12.5l.03-.06c-.86.89-.08,2.29-.99,3.16h0c-.96.81-.09,2.27-1.07,3.08l.02-.04c-.57.58-.39,1.49-.93,2.08-.19.21-.25.46-.19.74-.4.76-.27,1.75-1.05,2.33l.05-.07c-.49.64-.32,1.62-1.09,2.12l.08-.07c-.27.39-.56.77-.88,1.13-.19.18-.26.4-.2.66-.12.6-.51,1.02-.94,1.42h0c-.62.54-.41,1.54-1.13,2.03l.06-.07c-.25.42-.65.72-.89,1.15l-.05.08c-.73.43-.47,1.47-1.17,1.93l.05-.06c-.26.41-.66.71-.91,1.13l-.04.07c-.72.44-.46,1.5-1.2,1.92l.08-.07c-.25.46-.64.79-1.02,1.13l.02-.03c-.78.98-1.19,2.24-2.21,3.04l.09-.06c-.23.5-.6.86-1.08,1.11l.07-.07c-.25.47-.62.83-1.08,1.11l.07-.06c-.27.46-.63.82-1.09,1.1l.06-.06c-.27.45-.64.82-1.09,1.09l.06-.06c-.28.45-.64.82-1.1,1.09l.06-.06c-.27.46-.63.83-1.11,1.08l.07-.07c-.26.48-.62.85-1.11,1.08l.07-.09c-.36.79-1.46.5-1.85,1.26l-.11.08c-.39.24-.74.54-1.03.9l-.02.02c-.38.31-.7.69-1.1.98l.04-.04c-.32.41-.66.79-1.12,1.04l.07-.08c-.4.74-1.48.44-1.85,1.23l-.13.09c-.4.24-.76.53-1.07.87h0c-.36.34-.69.73-1.13.98l.07-.07c-.44.73-1.49.47-1.93,1.19l-.07.04c-.42.25-.73.64-1.13.91l.06-.05c-.46.69-1.49.43-1.93,1.16l-.08.04c-.42.25-.73.65-1.15.89l.06-.06c-.49.72-1.49.5-2.03,1.13h0c-.4.41-.82.79-1.4.93-.27-.05-.49.02-.68.21-.36.3-.73.59-1.11.86l.07-.07c-.5.75-1.49.57-2.1,1.1l.06-.04c-.52.71-1.5.54-2.1,1.08l.05-.03c-.53.69-1.5.52-2.1,1.07l.05-.03c-.54.68-1.5.52-2.11,1.06l.05-.03c-.54.69-1.5.52-2.12,1.05l.06-.04c-.53.7-1.5.54-2.12,1.06l.06-.04c-.58.75-1.57.6-2.29,1.04-.3-.04-.57.03-.8.22-.42.33-.82.68-1.36.8l-.36-.02-.32.18c-.58.56-1.51.36-2.07.95h.03c-.62.63-1.58.51-2.28.96-.31-.05-.58.02-.83.2-.61.48-1.49.32-2.06.89l.03-.02c-.67.65-1.62.59-2.4.95l-.36-.03-.32.17c-.67.61-1.61.51-2.37.9l-.38-.03-.34.16c-.69.59-1.62.52-2.38.89l-.37-.03-.33.16c-.85.91-2.27.07-3.11,1h.03c-.9.92-2.32.17-3.26.98l-.45-.02-.42.16c-.91.78-2.26.04-3.14.92h-.51s-.48.15-.48.15c-.93.72-2.25.01-3.14.88l-.5-.02-.47.16c-.96.72-2.28.08-3.22.86l-.45-.04-.43.15c-.99.78-2.33.18-3.34.88l-.39-.06-.36.14c-1.26,1.09-3.02-.02-4.31.97l-.43-.05-.41.14c-1.3,1.01-3.02-.02-4.33.92-.62.06-1.24.12-1.87.18-1.3.88-2.98-.08-4.27.86-.63.06-1.27.11-1.9.17-1.33.86-3-.05-4.32.84-.61.05-1.23.1-1.84.15-1.66,1.03-3.68-.15-5.34.89-.62.04-1.24.08-1.86.13-2.02,1.11-4.39-.2-6.41.89-.95.05-1.9.11-2.85.16-2.36,1.13-5.02-.29-7.37.89-.97.05-1.95.09-2.92.14-3.08,1.17-6.4-.33-9.47.87-.95.03-1.9.06-2.85.09-6.54,1.41-13.23-.39-19.77.94-8.08,0-16.15,0-24.23,0-5.85-1.32-11.87.45-17.72-.95-.62-.02-1.25-.04-1.87-.06-3.05-1.28-6.39.36-9.44-.95-.61-.03-1.23-.06-1.84-.1-2.01-1.11-4.36.2-6.37-.88-.64-.04-1.27-.09-1.91-.13-1.98-1.19-4.37.28-6.35-.97l-.42-.13-.43.06c-1.63-1.11-3.71.22-5.33-.98l-.38-.14-.4.06c-1.31-.94-3.06.1-4.35-.94l-.38-.14-.4.05c-.99-.72-2.32-.12-3.3-.86l-.46-.15-.49.03c-1.22-1.08-3.01.13-4.21-1.04l.11-.06c-1.23-1.37-.42-2.63.4-3.68,9.76-12.48,13.98-27.39,17.77-42.28,6.92-27.21,12.39-54.7,12.19-83-.1-13.17-1.78-25.92-8.46-37.58-.43-.74-.7-1.56-.71-2.44,3.88-3.67,8.84-2.78,13.49-3.2,18.32-.42,36.6,1.08,54.91,1.05,12.03-.02,23.93,1.23,35.7,3.58,11.22,2.24,22.75,3,33.66,6.8.78.27,1.63.38,2.93-.1-2.53-3.09-5.59-4.97-8.76-6.4-24.68-11.08-49.25-22.42-75.72-28.85-21.77-5.29-43.76-7.94-66.17-7.08-3.02.11-6.19.66-9.04-1.04-.49-3.06,2.02-2.56,3.55-2.7,3.92-.36,7.88-.3,11.8-.1,4.33.22,6.24-1.64,6.55-5.89,1.3-17.92,2.93-35.84,2.06-53.81-1.03-21.25-3.6-42.26-11.41-62.34-13.06-33.54-35.96-56.06-71.5-64.72-2.21-.54-4.92-.23-6.32-2.76,1.44-2.45,3.91-1.62,6.01-1.8,20.58-1.76,40.98-4.69,60.04-13.01,20.03-8.74,38.6-20.07,55.28-34.33,3.35-2.86,5.61-6.45,6.49-10.82.52-1.69,2.05-2.27,3.39-3.06,7.55-3.02,14.73-6.78,21.82-10.72-7.81,4.2-15.72,8.21-23.93,11.63-14.23,6.04-29.11,9.92-44.12,13.34-14.84,3.38-29.75,6.41-44.9,8.17-2.55.3-5.09.79-7.54-.44-1.59-2.28.72-2.65,1.81-3.17,16.32-7.71,25.87-21.08,32.83-37.26,8.06-18.76,12.99-38.22,11.71-58.46-2.52-39.81-16.38-74.32-51.53-96.82-18.48-11.83-39.02-16.03-60.98-13.75-20.42,2.12-39.05,8.82-55.91,20.4-27.15,18.64-43.29,44.53-48.74,76.8-5.2,30.82,2.68,58.36,24.28,81.11,11.39,12,25.48,20.73,40.56,27.68,1.91.88,4.52,1.02,4.91,3.87-1.82,1.84-4.14,1.47-6.3,1.2-25.76-3.15-51.12-8.03-75.08-18.43-14.52-6.3-28.53-13.48-39.26-25.64-.45-.51-.94-1.01-1.48-1.42-1.18-.92-2.41-2.46-3.98-1.08-1.68,1.49-.68,3.27.42,4.57,3.63,4.34,7.57,8.41,12.03,11.91,9.66,7.56,20.66,12.75,31.79,17.7,2.48,1.11,5.25,1.69,7.24,3.76,6.04,10.14,16.02,15.28,26.17,19.81,24.1,10.77,48.74,20.01,75.07,23.85,1.87.27,3.74.37,5.6.64,1.53.22,3.69-.22,3.69,2.44-3.75,2.09-8.01,1.54-12.01,2.09-31.65,4.36-59.38,17.32-83.51,38.02-26.97,23.13-40.91,53.12-45.23,87.93-3.16,25.49,0,50.24,9.35,74.19.6,1.53,1.74,3.07.47,4.82-4.37,1.82-9.11,1.48-13.63,1.8-34.76,2.46-68.93,8.47-102.81,16.37-7.01,1.63-14.1,2.83-21.14,4.26-1.84.38-3.67.87-5.37,1.71-1.42.7-2.75,1.56-2.9,3.3-.18,2.04,1.33,3.01,2.82,3.91,1.18.71,2.47,1.19,3.8,1.53,24.43,6.22,47.83,15.62,71.73,23.45,9.73,3.19,19.17,4.19,29.21,1.69,14.94-3.73,29.81-7.8,45.03-10.33,2.18-.36,4.33-1.13,6.59-.69.57.16,1.05.46,1.45.9.18,1.13-.34,2.01-1.1,2.74-13.52,12.9-18.34,29.58-19,47.36-.86,23.21-.99,46.5,2.92,69.56,1,5.91,2.31,11.75,4.76,17.26,2.89,6.48,6.14,12.66,12.99,15.93.76.37,1.29,1.11,1.56,1.96-.61,1.91-2.6.52-3.61,1.5l-.39-.06-.37.14c-1.6,1.22-3.68-.16-5.29,1l-.46-.05-.44.13c-1.64,1.11-3.69-.15-5.34.93-.63.05-1.25.1-1.88.15-1.67,1-3.69-.14-5.36.87-.61.04-1.22.08-1.83.12-2.33,1.23-5.02-.29-7.35.94-.64.04-1.28.07-1.92.11-2.39,1.14-5.07-.24-7.46.88-1.29.05-2.57.11-3.86.16-5.16,1.22-10.49-.37-15.65.88-1.9-.29-3.8-.29-5.69,0-6.2-1.28-12.53.37-18.73-.9-1.3-.05-2.59-.09-3.89-.14-2.37-1.17-5.08.31-7.44-.93-.6-.04-1.19-.08-1.79-.11-1.34-.86-3.01.02-4.35-.83-.63-.06-1.27-.11-1.9-.17-1.29-.96-3,.06-4.29-.91l-.45-.14-.47.04c-1.25-1.03-2.98.07-4.23-.95l-.41-.14-.44.04c-.95-.77-2.28-.14-3.24-.86l-.47-.16-.5.02c-1.22-1.08-3,.11-4.2-1.03h.03c-.85-.88-2.18-.15-3.08-.88l-.46-.16h-.49c-.9-.85-2.28-.09-3.18-.93l-.38-.16-.41.03c-.7-.42-1.58-.35-2.27-.82l-.45-.17h-.48c-.9-.86-2.34-.06-3.21-1.02l.03.02c-.85-.92-2.29-.08-3.12-1.05l.03.02c-.84-.92-2.31-.06-3.11-1.08l.05.03c-.6-.54-1.49-.38-2.1-.89-.24-.18-.51-.24-.81-.18-.72-.44-1.66-.33-2.3-.95h0c-.54-.6-1.43-.42-2.03-.89-.26-.18-.54-.25-.86-.21-.69-.47-1.64-.34-2.26-.98h.02c-.56-.58-1.48-.39-2.07-.94l-.33-.18h-.38c-.77-.38-1.75-.27-2.36-1.03l.07.04c-.63-.5-1.59-.35-2.13-1.04l.05.04c-.61-.54-1.57-.37-2.12-1.04l.04.03c-.6-.56-1.56-.39-2.1-1.05l.04.02c-.59-.57-1.56-.39-2.09-1.06l.04.03c-.59-.56-1.57-.38-2.09-1.08l.05.04c-.61-.54-1.59-.36-2.1-1.09l.07.07c-.37-.28-.73-.55-1.1-.83-.21-.2-.46-.28-.74-.24-.54-.16-.94-.54-1.37-.88l-.05-.02c-.48-.69-1.47-.46-1.99-1.09h.02c-.56-.59-1.55-.39-2.06-1.1l.06.04c-.61-.53-1.61-.34-2.09-1.12l.07.08c-.46-.22-.77-.62-1.16-.92l-.03-.02c-.5-.67-1.5-.45-2-1.11l.04.03c-.59-.57-1.59-.37-2.07-1.12l.07.08c-.44-.23-.75-.64-1.16-.9l-.06-.03c-.47-.71-1.47-.46-1.97-1.12l.03.02c-.58-.58-1.58-.38-2.06-1.13l.07.08c-.45-.23-.76-.63-1.16-.93l-.03-.02c-.49-.68-1.51-.44-1.98-1.15l.06.06c-.42-.25-.72-.65-1.14-.89l-.08-.05c-.43-.73-1.47-.47-1.93-1.16l.06.05c-.41-.26-.71-.66-1.13-.9l-.07-.05c-.44-.73-1.48-.46-1.93-1.18l.06.07c-.43-.26-.75-.65-1.13-.97h-.01c-.5-.67-1.55-.42-1.98-1.21l.07.09c-.48-.24-.83-.62-1.13-1.04l.05.05c-.42-.27-.74-.66-1.12-.97h-.01c-.5-.67-1.56-.42-1.96-1.23l.07.09c-.49-.23-.85-.6-1.13-1.06l.06.07c-.46-.26-.8-.63-1.12-1.04l.04.04c-.4-.29-.72-.67-1.1-.98l-.02-.02c-.29-.36-.63-.65-1.03-.89l-.12-.09c-.38-.77-1.47-.47-1.85-1.25l.07.09c-.48-.25-.83-.62-1.12-1.07l.06.06c-.45-.27-.8-.64-1.11-1.05l.04.04c-.4-.29-.73-.67-1.09-1.01h0c-.32-.34-.68-.66-1.05-.95l-.06-.05c-.26-.38-.59-.67-.98-.89l-.12-.09c-.37-.77-1.48-.47-1.83-1.27l.07.09c-.5-.23-.86-.6-1.11-1.08l.07.07c-.48-.25-.84-.62-1.11-1.08l.06.07c-.46-.26-.83-.63-1.1-1.08l.06.06c-.45-.28-.81-.64-1.1-1.08l.06.06c-.44-.28-.8-.65-1.09-1.07l.05.05c-.43-.29-.78-.65-1.09-1.07l.05.05c-.41-.3-.77-.66-1.08-1.07l.04.04c-.41-.31-.76-.66-1.07-1.07l.04.04c-.4-.31-.76-.67-1.07-1.07l.04.04c-.4-.31-.76-.67-1.07-1.07l.04.04c-.41-.31-.76-.66-1.07-1.08l.04.04c-.41-.3-.77-.66-1.07-1.08l.05.05c-.42-.3-.78-.66-1.07-1.08l.05.05c-.43-.3-.79-.65-1.07-1.09l.06.06c-.44-.29-.8-.65-1.08-1.1l.06.06c-.45-.28-.81-.64-1.08-1.1l.06.06c-.46-.27-.83-.63-1.08-1.1l.07.07c-.47-.26-.84-.62-1.09-1.1l.07.07c-.48-.25-.85-.61-1.09-1.1l.09.06c-1.43-1.68-2.99-3.24-4.3-5.03l-.02-.02c-.3-.38-.66-.71-.98-1.07l.02.02c-.37-.34-.74-.68-1.03-1.1l.05.05c-.42-.31-.79-.66-1.06-1.11l.07.06c-.46-.27-.84-.63-1.06-1.12l.09.07c-.81-.39-.55-1.46-1.23-1.94l-.02-.03c-.29-.39-.67-.71-.96-1.11l.04.04c-.41-.32-.79-.66-1.04-1.12l.08.07c-.75-.4-.47-1.48-1.22-1.88l-.07-.1c-.26-.39-.56-.75-.89-1.08v.02c-.35-.35-.73-.68-.99-1.13l.06.06c-.45-.29-.82-.64-1.05-1.13l.09.07c-.81-.41-.57-1.47-1.21-1.98h0c-.34-.37-.73-.69-.99-1.13l.06.06c-.44-.29-.82-.65-1.05-1.13l.09.07c-.8-.42-.57-1.47-1.2-2h0c-.35-.35-.74-.68-.99-1.13l.07.07c-.74-.44-.49-1.49-1.19-1.95l-.03-.05c-.28-.41-.67-.72-.93-1.14l.06.06c-.71-.46-.46-1.49-1.16-1.96l-.03-.05c-.27-.41-.67-.72-.92-1.15l.07.07c-.72-.47-.5-1.49-1.15-2v-.02c-.33-.38-.73-.7-.96-1.15l.08.07c-.76-.47-.55-1.48-1.14-2.05l.02.03c-.45-.38-.84-.81-.97-1.41.05-.26-.03-.49-.23-.66-.29-.36-.58-.73-.86-1.09l.06.06c-.71-.49-.5-1.5-1.13-2.02h0c-.33-.38-.74-.69-.95-1.16l.09.07c-.79-.48-.6-1.48-1.12-2.09l.04.06c-.72-.51-.52-1.5-1.1-2.08l.02.03c-.65-.53-.46-1.51-1.07-2.06h0c-.61-.54-.42-1.5-1.04-2.05h0c-.59-.56-.42-1.51-1.02-2.07h0c-.61-.55-.44-1.5-1.02-2.08l.02.03c-.64-.56-.48-1.51-1.03-2.11l.03.05c-.68-.55-.52-1.5-1.04-2.13l.04.06c-.74-.6-.61-1.58-1.03-2.32.06-.29,0-.54-.2-.77-.51-.59-.33-1.5-.92-2.06v.02c-.63-.64-.53-1.59-.94-2.33.07-.28.02-.54-.16-.76-.56-.6-.4-1.51-.9-2.14l.04.06c-.73-.51-.55-1.49-1.1-2.09l.03.05c-.68-.54-.52-1.5-1.04-2.13l.04.07c-1.04-.89-.28-2.34-1.04-3.32.09-.28.05-.54-.12-.78-1.04-1.22.1-2.95-.97-4.16l.02.04c-1.43-2.26.27-4.98-1.04-7.26l.03.05c-1.59-5.13.36-10.49-1.03-15.64.15-.26.15-.52,0-.78-1.21-2.44-.52-5.04-.54-7.55-.08-12.3-.06-24.6-.01-36.91,0-1.66-.5-3.42.54-4.99.14-.27.14-.53,0-.8,1.41-5.14-.56-10.5,1.04-15.62l-.03.06c1.41-3.71-.5-7.72,1.06-11.42.15-.24.16-.48.01-.73,1.23-2.73-.41-5.8.98-8.51.15-.25.16-.51.03-.78,1.21-2.37-.38-5.1.99-7.45.16-.25.17-.52.04-.78,1.15-2.01-.29-4.41.96-6.41.16-.26.18-.54.06-.82,1.19-2-.34-4.42,1.01-6.39.16-.23.17-.48.04-.73,1.04-1.69-.27-3.8.99-5.45.16-.22.18-.46.05-.7.87-1.35-.1-3.09.91-4.41.16-.27.19-.54.08-.84.96-1.29-.07-3.01.92-4.3.16-.27.19-.56.1-.86,1-1.28-.1-3.03.96-4.29.16-.25.19-.51.09-.79.95-1.3-.16-3.09,1.01-4.34l-.03.05c1.07-1.21-.12-2.98,1.03-4.17l-.02.03c1.11-1.2-.11-2.97,1.04-4.16.17-.22.2-.45.08-.7.68-1.03.03-2.44.96-3.4l-.02.03c1.12-1.18-.14-2.99,1.08-4.14l-.03.05c.86-.88.09-2.26.95-3.15.17-.24.21-.5.12-.78.74-.99.03-2.41,1-3.33l-.03.04c.89-.87.08-2.27.98-3.14.17-.22.21-.46.12-.73.71-1.01-.01-2.46,1.02-3.37l-.04.06c.85-.89.03-2.32,1.04-3.15l-.03.05c.88-.87.06-2.31,1.04-3.14l-.02.04c.9-.86.07-2.29,1.04-3.13l-.02.03c.91-.85.08-2.29,1.04-3.12l-.02.03c.92-.85.08-2.29,1.05-3.12l-.02.03c.92-.85.07-2.3,1.06-3.12l-.02.04c.9-.85.05-2.31,1.07-3.12l-.03.05c.89-.86.02-2.33,1.08-3.13l-.04.06c.86-.87,0-2.35,1.09-3.14l-.05.07c.5-.64.33-1.56.94-2.15.18-.2.22-.43.14-.68.36-.78.29-1.74.96-2.4l-.02.04c.92-.84.03-2.32,1.11-3.11l-.04.06c.52-.62.35-1.55.94-2.14.18-.2.23-.43.14-.69.36-.78.28-1.74.98-2.39l-.03.05c.55-.59.38-1.5.91-2.1.18-.23.24-.48.18-.77.41-.74.31-1.7.97-2.33l-.02.03c.93-.83.02-2.33,1.13-3.1l-.05.07c.48-.65.35-1.58,1-2.15l-.02.03c.57-.58.39-1.49.93-2.08.19-.22.25-.47.18-.75.41-.75.29-1.72,1-2.34l-.03.05c.54-.61.4-1.53.97-2.13h0c1-.79.05-2.31,1.15-3.05l-.04.07c.5-.64.36-1.58,1.01-2.14l-.02.04c.57-.58.38-1.51.95-2.09.19-.2.24-.43.17-.7.37-.78.27-1.76,1.01-2.38l-.04.06c.51-.63.36-1.57,1.01-2.14l-.02.03c.58-.58.38-1.51.96-2.09.19-.19.24-.42.17-.68.36-.79.25-1.78,1.03-2.39l-.05.07c.49-.64.34-1.59,1.03-2.14l-.03.05c.54-.61.38-1.55,1.01-2.12v.02c.57-.58.41-1.5.97-2.09v-.02c.67-.51.44-1.43.97-2,.19-.21.26-.46.2-.74.4-.76.27-1.75,1.04-2.34l-.05.07c.49-.64.33-1.6,1.06-2.13l-.04.06c.52-.63.35-1.59,1.06-2.12l-.04.06c.53-.62.36-1.58,1.05-2.12l-.03.05c.54-.61.37-1.57,1.05-2.11l-.03.05c.55-.6.38-1.57,1.06-2.11l-.03.05c.55-.6.38-1.57,1.06-2.1l-.03.05c.55-.6.38-1.57,1.07-2.1l-.03.05c.54-.61.37-1.58,1.08-2.1l-.04.06c.53-.62.36-1.59,1.08-2.11l-.04.06c.52-.62.34-1.61,1.09-2.11l-.05.07c.5-.64.32-1.62,1.1-2.11l-.08.07c.27-.4.56-.77.88-1.13.19-.19.25-.41.19-.67.12-.58.51-1,.9-1.42v-.02c.67-.52.46-1.49,1.08-2.02v.02c.6-.56.41-1.53,1.07-2.06l-.03.04c.56-.59.38-1.57,1.09-2.09l-.04.06c.53-.62.35-1.6,1.1-2.1l-.05.07c.5-.63.31-1.63,1.11-2.11l-.09.07c.21-.47.62-.78.93-1.17v-.02c.67-.51.46-1.49,1.09-2.02v.02c.58-.56.39-1.55,1.08-2.06l-.03.05c.54-.6.36-1.59,1.1-2.09l-.05.06c.5-.63.32-1.62,1.11-2.1l-.09.07c.21-.47.62-.78.93-1.17v-.02c.67-.52.45-1.51,1.11-2.02l-.02.04c.57-.58.38-1.58,1.11-2.08l-.04.06c.51-.62.32-1.62,1.12-2.09l-.09.07c.21-.48.61-.8.96-1.16h0c.62-.54.41-1.54,1.13-2.03l-.04.06c.52-.61.33-1.62,1.13-2.08l-.09.07c.21-.48.61-.81.98-1.16v.02c.59-.56.38-1.57,1.13-2.04l-.08.07c.23-.45.63-.76.95-1.15v-.02c.67-.51.44-1.53,1.17-2l-.07.07c.25-.43.65-.74.92-1.14l.03-.05c.7-.47.45-1.5,1.16-1.96l-.06.06c.26-.42.65-.73.92-1.14l.04-.06c.71-.46.46-1.49,1.17-1.95l-.06.06c.26-.42.65-.73.92-1.14l.03-.05c.7-.46.45-1.5,1.17-1.95l-.06.06c.26-.42.65-.73.92-1.14l.03-.05c.7-.47.45-1.5,1.17-1.96l-.06.06c.25-.43.65-.73.92-1.14l.03-.05c.7-.47.45-1.5,1.17-1.96l-.07.06c.25-.43.65-.74.93-1.14l.02-.04c.69-.48.44-1.51,1.17-1.97l-.07.07c.25-.44.64-.76.95-1.14v-.02c.68-.5.44-1.54,1.19-1.98l-.08.07c.24-.46.63-.78.99-1.14h0c.62-.53.39-1.56,1.18-2l-.09.07c.24-.47.62-.82,1.03-1.14l-.04.05c.28-.4.66-.7.92-1.12l.04-.06c.72-.45.45-1.5,1.2-1.93l-.08.07c.25-.46.63-.8,1.02-1.13l-.03.03c.32-.35.63-.72.92-1.1l.05-.07c.72-.45.47-1.52,1.25-1.93.38-.17.51-.45.33-.79-.07-.13-.26-.2-.39-.3-.72-.52-.55-1.5-1.1-2.1l.03.05c-.68-.54-.51-1.5-1.06-2.1l.03.05c-.67-.54-.51-1.5-1.05-2.11l.03.05c-.69-.54-.53-1.5-1.05-2.12l.04.06c-.71-.53-.56-1.49-1.05-2.14l.05.07c-1.13-.72-.15-2.26-1.18-3.02v-.02c-.56-.6-.42-1.52-.98-2.12l.03.04c-.68-.62-.57-1.59-.99-2.32.06-.29,0-.55-.19-.78-.52-.6-.35-1.5-.91-2.09l.02.04c-.68-.66-.61-1.61-.96-2.4.09-.25.05-.48-.13-.68-.62-.65-.49-1.6-.92-2.33.08-.28.02-.54-.15-.77-.56-.67-.45-1.59-.88-2.3.08-.28.03-.55-.15-.78-.56-.68-.49-1.6-.87-2.35.1-.26.06-.5-.12-.72-.91-.87-.1-2.27-.99-3.14l.03.05c-.97-.94-.29-2.36-.98-3.38.11-.25.08-.49-.09-.71-.91-.97-.24-2.38-.94-3.4.11-.25.09-.49-.08-.71-1.12-1.26,0-3.03-.99-4.32.1-.3.07-.58-.1-.85-.99-1.31,0-3.03-.91-4.35.12-.27.09-.53-.06-.77-1.31-1.93.24-4.31-1.01-6.25l.03.05c-1.51-3.04.27-6.43-1.02-9.5.15-.25.14-.5,0-.74-.96-8.25-.92-16.5-.03-24.75.15-.26.15-.53.02-.8,1.32-3.06-.47-6.45,1.02-9.49.16-.24.16-.48.03-.73,1.02-1.68-.2-3.75.92-5.41.16-.27.18-.56.08-.86,1.13-1.62-.26-3.72,1.02-5.31l-.02.04c1.07-1.21-.07-2.93.96-4.16Z"/>
      <path class="cls-1" d="m782.53,749.17c0-5.66-.16-11.32.04-16.97.15-4.08.55-8.18,1.26-12.19.72-4.04,2.44-7.64,5.01-11.06,5.87-7.78,12.46-14.94,18.61-22.47,6.58-8.06,13.15-16.13,19.37-24.48,7.55-10.14,14.96-20.37,21.89-30.95,14.39-21.98,26.11-45.33,35.67-69.79,3.79-9.71,7.61-19.42,11.74-28.98,3.31-7.65,4.19-15.8,5.61-23.83,1.42-8.03,2.75-16.19,2.91-24.31.22-11.29,2.11-22.56,1.1-33.81-.57-6.33-.33-12.65-.9-18.92-.84-9.15-1.91-18.3-3.32-27.38-1.85-11.94-4.13-23.81-6.75-35.63-2.74-12.33-5.73-24.58-9.17-36.72-3.54-12.51-7.71-24.82-11.97-37.1-5.82-16.8-12.36-33.33-19.14-49.76-6.97-16.9-13.82-33.86-20.85-50.74-6.7-16.1-13.67-32.08-20.35-48.19-8.77-21.16-18.02-42.14-24.62-64.12-4.03-13.4-6.97-27.05-9.43-40.83-1.48-8.31-2.04-16.59-1.88-24.97.04-1.89-.09-3.79,1.02-5.46,1.05.02,2.09.03,3.14.05,1,.59,2.22.09,3.23.67,4.57.41,8.55,2.39,12.33,4.78,13.24,8.34,23.94,19.33,33.07,31.94,5.04,6.95,9.38,14.33,13.42,21.9,13.24,24.83,24.57,50.51,34.48,76.84,10.55,28.05,21.93,55.81,30.9,84.42,12.66,40.37,23.53,81.24,31.57,122.8,4.22,21.85,7.29,43.9,8.89,66.13,1.02,14.19,2.02,28.38,1.68,42.6-1.35,57.34-14.83,111.41-43.13,161.62-16.1,28.55-35.24,54.73-58.52,77.79-18.64,18.47-39.96,33.33-63.12,45.57-1.2.63-2.52,1.04-3.78,1.55Z"/>
      <path class="cls-4" d="m523.86,771.25c4.62,7.91,7.75,16.27,8.77,25.47,2.18,19.75.31,39.23-3.03,58.68-3.41,19.9-7.33,39.66-14.22,58.71-3.16,8.73-6.7,17.23-13.09,24.22-.4.43-.36,1.26-.53,1.9-.39.04-.79.08-1.18.12-.49-.69-1.49-.4-2.01-1.02-.34-.01-.68-.02-1.02-.02-.82-.98-2.26-.09-3.1-1.02h-.5s-.5-.01-.5-.01c-.55-.64-1.53-.38-2.08-1.01-.34-.01-.67-.02-1.01-.02-.54-.64-1.52-.39-2.08-1.01-.34-.02-.67-.02-1.01-.02-.55-.64-1.53-.39-2.08-1.01-.33-.02-.67-.02-1-.02-.55-.64-1.53-.38-2.08-1.02l-.5-.02h-.5c-.33-.36-.73-.64-1.06-1-.34-.02-.68-.02-1.02-.02-.54-.65-1.53-.39-2.07-1.02h-.5s-.5-.01-.5-.01c-.33-.36-.73-.64-1.06-1-.34-.02-.67-.03-1.01-.03-.55-.63-1.52-.42-2.08-1.02h0c-.54-.63-1.51-.4-2.06-1.02-.33-.02-.66-.02-1-.02-.33-.36-.73-.64-1.06-1.01-.33-.02-.67-.02-1-.02-.32-.36-.73-.64-1.05-1-.34-.02-.67-.02-1.01-.02-.32-.37-.72-.64-1.05-1-.34-.02-.67-.03-1.01-.03-.32-.37-.72-.64-1.05-1-.34-.02-.67-.03-1.01-.03-.31-.37-.72-.64-1.04-1-.34-.02-.67-.03-1.01-.03-.31-.37-.72-.64-1.05-1-.34-.02-.67-.03-1.01-.03-.32-.37-.72-.64-1.05-1-.34-.02-.67-.03-1.01-.03-.32-.37-.73-.65-1.05-1.01-.33-.02-.67-.03-1-.02-.33-.36-.73-.64-1.06-1.01-.33-.02-.66-.03-.99-.02-.34-.35-.72-.67-1.07-1.02-.54-.63-1.5-.44-2.06-1.03h0c-.55-.62-1.5-.43-2.06-1.04h0c-.33-.34-.71-.65-1.04-1-.33-.02-.66-.03-1-.03-.34-.35-.72-.67-1.07-1.02h0c-.54-.63-1.5-.44-2.05-1.04h0c-.33-.34-.71-.65-1.04-1.01-.33-.02-.66-.03-.99-.02-.35-.35-.72-.67-1.07-1.02h0c-.33-.35-.7-.66-1.03-1.01-.33-.02-.66-.03-.99-.03-.35-.35-.72-.67-1.07-1.02h0c-.33-.35-.7-.66-1.03-1.01-.33-.02-.66-.03-1-.03-.34-.35-.72-.67-1.06-1.02h0c-.33-.35-.7-.66-1.03-1.01-.33-.02-.66-.03-1-.03-.34-.35-.72-.67-1.06-1.02h0c-.33-.35-.7-.66-1.03-1.01-.33-.02-.66-.03-.99-.03-.34-.35-.72-.67-1.06-1.02h0c-.33-.35-.7-.66-1.03-1.01-.33-.02-.66-.03-.99-.03-.35-.35-.72-.67-1.07-1.02h0c-.33-.35-.7-.66-1.03-1.01-.33-.02-.66-.03-.99-.03-.35-.35-.73-.67-1.07-1.02h0c-.34-.34-.68-.69-1.04-1.01h0c-.53-.64-1.49-.45-2.04-1.05h0c-.34-.33-.68-.68-1.04-1.01h0c-.53-.64-1.49-.44-2.04-1.05h0c-.35-.33-.68-.68-1.04-1.01h0c-.54-.63-1.5-.44-2.05-1.05h0c-.35-.33-.69-.68-1.04-1.01-.33-.34-.68-.68-1.02-1.01-.33-.02-.67-.03-1-.03-.34-.35-.72-.67-1.06-1.02h0c-.34-.34-.68-.69-1.04-1.01h0c-.32-.36-.66-.69-1.01-1.01-.33-.02-.67-.04-1-.04-.34-.36-.72-.67-1.06-1.03h0c-.34-.34-.68-.69-1.04-1.02h0c-.34-.35-.67-.36-1.02,0h0c-.56.38-1.02.29-1.4-.26-.05-7.08,3.25-13.56,3.68-20.59.42-6.85,1.63-13.88-.83-20.37-3.18-8.37-.34-14.94,4.27-21.53,8.46-12.11,20.02-20.39,32.72-27.51,19.41-10.88,40.47-16.66,62.04-21.08,6.04-1.24,12.09-2.47,18.15-3.6,2.18-.41,4.38-1.04,6.46.37Z"/>
      <path class="cls-4" d="m291.58,952.56c-2.94-2.28-6.66-3.43-9.08-6.52-3.63-4.65-6.25-9.87-8.02-15.4-3.4-10.63-4.49-21.68-5.44-32.77-1.3-15.22-.92-30.44-.91-45.67.01-8.24,1.17-16.36,3.15-24.34,2.21-8.92,6.39-16.97,12.01-24.2,1.76-2.26,4.12-4.04,6.21-6.04,1.57-2.86,4.61-2.79,7.17-3.3,20.37-4.05,40.23-2.74,59.16,6.44,19.04,9.23,32.65,23.94,37.89,44.25,4.3,16.68.98,33.4-8.34,48.38-5.9,9.49-12.77,18.23-20.84,26-.96.93-2.24,1.66-2.38,3.2.07.5-.09.92-.45,1.28-.35.04-.69.09-1.04.13-.36.28-.7.58-1.01.91h0c-.34.35-.72.67-1.06,1.02-.33,0-.66,0-.99.03-.33.35-.7.66-1.03,1.01h0c-.34.35-.72.67-1.07,1.02-.33,0-.66,0-.99.02-.33.35-.7.66-1.04,1.01h0c-.55.6-1.51.41-2.06,1.03h0c-.35.35-.72.67-1.06,1.02-.33,0-.66,0-1,.03-.32.36-.73.64-1.05,1.01-.34,0-.67.01-1.01.03-.35.33-.69.67-1.03,1.01h0c-.56.59-1.51.41-2.06,1.03h0c-.56.59-1.51.4-2.06,1.03-.56.59-1.51.4-2.06,1.03-.56.59-1.51.4-2.06,1.03h0c-.56.59-1.51.4-2.06,1.02h0c-.56.6-1.53.39-2.07,1.03-.34,0-.68,0-1.02.03-.33.36-.73.63-1.05,1-.34,0-.67,0-1.01.02-.33.36-.73.64-1.06,1-.33,0-.67,0-1,.02-.55.62-1.52.39-2.06,1.02h0c-.56.61-1.53.4-2.08,1.02-.34,0-.67,0-1.01.02-.55.62-1.53.36-2.07,1.01-.34,0-.68,0-1.02.02-.33.36-.73.64-1.06,1h-.5s-.5.01-.5.01c-.55.63-1.54.38-2.09,1.02h-.5s-.5.01-.5.01c-.55.63-1.54.38-2.09,1.01-.68.01-1.36.03-2.03.04-.56.61-1.53.35-2.06,1-.34,0-.68,0-1.02.02-.56.62-1.53.37-2.08,1-.68.01-1.36.02-2.03.03-.56.61-1.53.36-2.08,1-.68.01-1.36.02-2.04.03-.56.61-1.53.36-2.08,1-.68.01-1.36.02-2.04.03-.56.61-1.53.36-2.07,1-.34,0-.68.01-1.02.04-.48.48-.89.43-1.22-.17Z"/>
      <path class="cls-9" d="m513.89,122.56c-3.15-.78-6.36-1.35-9.43-2.37-11.57-3.84-23.57-5.8-35.47-8.1-11.08-2.14-22.4-2.74-33.63-3.82-6.64-.63-13.33-.66-19.99-1.1-14.77-.98-29.39.54-44.02,2.32-8.65,1.05-17.41,1.01-26.03,2.52-18.04,3.16-36.02,6.48-53.11,13.39-.45.18-1,.09-1.51.12l.08.08c.59-2.47,2.9-3.1,4.69-4.18,6.68-4.05,14.17-6.29,21.34-9.25.61-.25,1.18-.6,1.77-.9.83-1.13,2.31-.26,3.25-1.05.32.18.58.13.81-.16,1.08-.73,2.44-.29,3.56-.85l.29.15.23-.23c1.34-1.1,3.11-.12,4.51-.95l.35.14.29-.25c1.37-1.03,3.13-.12,4.54-.92l.33.15.27-.24c1.6-1.24,3.68.12,5.3-.98.33.2.62.15.89-.13,1.68-1.05,3.71.11,5.4-.88.29.22.54.19.76-.09,3.12-1.32,6.51.22,9.64-.93.57.3,1.13.25,1.67-.08,3.8-1.41,7.85.27,11.66-.95.6.27,1.17.2,1.72-.13,2.44-1.19,5.18.17,7.63-.9.57.29,1.11.2,1.62-.13,3.46-1.3,7.16.28,10.62-.91.93.36,1.85.27,2.75-.1,3.77-.79,7.54-.81,11.31.02,1.21.41,2.43.57,3.66.08,5.24,1.24,10.66-.46,15.89.97.55.33,1.1.38,1.68.07,3.83,1.2,7.88-.42,11.69.93.25.28.52.31.82.08,2.36,1.16,5.05-.32,7.4.92.52.33,1.06.42,1.63.13,2.8,1.13,5.89-.38,8.67.94.24.28.51.31.8.08,2.02,1.1,4.38-.26,6.39.91.24.28.51.33.82.13,1.22.9,2.85-.11,4.05.88,9.3,2.8,18.6,5.6,27.9,8.39.68.45,1.57.32,2.24.82.32.15.65.2,1,.14,5.02.54,9.71,1.92,13.64,5.28-.32,1.56-1.28,1.48-2.41.93Z"/>
      <path class="cls-6" d="m784.75,11.22c-1.16.17-2.32.36-3.23-.67,1.17-.24,2.29-.2,3.23.67Z"/>
      <path class="cls-4" d="m438.74,543.38c6.67,2.05,13.52,3.43,20.09,5.89,22.83,8.54,39.73,23.81,51.35,45,9.83,17.92,15.14,37.24,17.39,57.54,1.7,15.35,2.16,30.72,1.68,46.11-.32,10.24-1.3,20.46-2.03,30.69-.07,1.01-.55,2-.58,3.01-.1,2.47-1.41,3.1-3.69,3.05-4.79-.11-9.59-.04-14.39.03-1.68.03-3.45-.32-4.98.78-4.27,2.84-9.28,1.72-13.89,2.32-19.11,2.48-37.8,6.4-55.59,14.01-15.6,6.67-29.7,15.47-40.74,28.66-4.54,5.43-5.23,5.46-9.74.17-14.94-17.51-34.58-25.79-56.74-29.11-15.79-2.37-31.68-2.74-47.61-1.82-1.36.08-2.75.41-3.79-.87-1.57-1.88-2.34-4.16-3.18-6.41-7.98-21.51-11.18-43.8-9.14-66.57,2.59-28.9,12.01-55.38,30.46-78.2,11.56-14.29,25.68-25.57,41.69-34.45,11.54-6.4,23.43-12.08,36.23-15.57,11.24-3.07,22.67-5.03,34.31-5.66,1.71-1.47,3.83-1.53,5.82-1.24,7.28,1.08,14.6.81,21.9.94,1.86.03,3.79.04,5.14,1.7Z"/>
      <path class="cls-4" d="m370.21,503.13c-6.66-3.48-13.54-6.52-20.01-10.38-19.89-11.84-36.07-27.05-45.35-48.78-4.15-9.72-6.41-19.76-7-30.3-1.57-28.45,7.1-53.61,24.08-76.17,17.11-22.74,40.15-36.28,67.39-43.12,10.49-2.63,21.25-3.86,32.07-3.05,19.91,1.51,38.06,7.83,53.93,20.28,21.15,16.6,33.13,38.77,39.65,64.34,2.97,11.66,4.59,23.5,4.07,35.55-.76,17.43-4.35,34.22-11.55,50.19-3.38,7.49-6.69,14.94-11.85,21.51-6.31,8.03-14.12,13.85-23.39,17.89-.61.27-1.14.72-1.71,1.08-1.54,2.33-4.02,2.33-6.39,2.55-29.13,2.74-58.29,2.87-87.48.93-2.39-.16-4.81-.4-6.45-2.53Z"/>
      <path class="cls-1" d="m275.49,748.84c12.48-1.17,24.94-.99,37.45-.15,11.34.76,22.44,2.48,33.28,5.83,16.54,5.11,30.09,14.58,40.83,28.13.31.39.75.66,1.12.99,1.71-.17,2.09-1.72,2.89-2.72,12.24-15.06,28.2-24.77,45.95-31.83,16.97-6.75,34.64-10.56,52.76-12.6,4.6-.52,9.19-1,13.82-1,7.87.04,15.75.25,23.62.07,13.9-.32,27.49,2.03,41.03,4.63,18.32,3.51,35.97,9.36,53.22,16.38,11.38,4.63,22.64,9.59,33.74,14.86,4.5,2.14,9.07,4.7,11.82,9.34-1.1,1.64-2.56,1.21-3.8.95-2.33-.48-4.69-1-6.91-1.83-10.16-3.83-21.05-3.78-31.51-6.05-12-2.6-24.26-3.25-36.57-3.31-17.25-.08-34.48-1.33-51.74-1.09.49-2.33,2.5-1.96,4.09-2.23,5.53-.95,11.11-1.32,17.74-.93-11.78-3.29-22.7-2.28-33.51-1.11-20.14,2.18-39.94,6.32-59.34,12.13-19.74,5.92-37.81,15.16-53.72,28.36-5.58,4.63-9.98,10.33-13.95,16.37-3.07,4.66-4.82,4.89-7.92.33-14.58-21.44-35.71-31.22-60.66-32.49-13.76-.7-27.64,1.55-40.52,7.44-16.12,2.79-32.01,6.59-47.85,10.62-4.12,1.05-8.28,2.09-12.48,2.64-6.02.79-11.9-.42-17.61-2.35-19.1-6.45-38.16-13-57.29-19.37-5.66-1.88-11.47-3.29-17.21-4.92-2.13-.6-4.23-1.17-6.12-2.48-4.22-2.94-4.07-6.58.54-8.96,2.92-1.51,6.14-2.29,9.3-2.74,9.63-1.38,19.01-3.87,28.5-5.87,15.64-3.3,31.27-6.67,47.13-8.9,9.09-1.28,18.19-2.5,27.29-3.64,5.2-.65,10.47-1.33,15.78-1.42,5.61-.1,11.18-1.25,16.83-1.1Z"/>
      <path class="cls-1" d="m438.74,543.38c-10.98.03-21.94-.3-32.86-1.4-3.47-1.72-7.33-.97-10.99-1.58-15.35-2.58-30.21-6.62-44.79-12.07-11.84-4.42-23.63-8.87-34.94-14.54-4.59-2.3-8.93-5.02-12.94-8.19-3.19-2.53-6.13-5.44-7.38-9.55,1.76-1.51,3.6-.6,5.34-.06,25.28,7.92,51.2,12.68,77.55,14.66,55.02,4.12,109.04-1.39,161.74-18.17,7.5-2.39,14.81-5.35,22.09-8.35,1.8-.74,3.73-1.98,5.85-.67.41,5.64-3.1,9.3-6.84,12.53-14.28,12.35-30.54,21.73-47.13,30.53-11.71,6.21-24.37,9.83-37.25,12.46-12.33,2.52-24.81,4.28-37.45,4.4Z"/>
      <path class="cls-1" d="m515.93,121.61c-4.38-1.85-9.2-2.62-13.27-5.26,1.73-6.61,6.2-11.72,9.63-17.39,10.34-17.08,20.86-34.06,31.31-51.08.98-1.6,1.89-3.28,3.07-4.72,3.2-3.91,9.51-4.23,13.25-.82,5.88,5.35,9.18,12.31,11.81,19.56,6.93,19.11,11.35,38.95,16.36,58.61,1.52,5.95,2.87,11.93,4.68,17.81,1.1,3.56,1.68,7.29,2.28,10.98.63,3.9-2.15,6.93-6.07,7.18-2.94.19-5.34-1.08-7.68-2.49-10.55-6.35-21.25-12.42-32.41-17.63-5.1-2.38-10.31-4.53-15.47-6.79-4.46-3.04-9.99-3.46-14.66-6.02-1.04-.57-2.11-.96-2.83-1.94Z"/>
      <path class="cls-1" d="m198.17,161.26c1.19-9.02,1.69-18.72,3.53-28.26,1.86-9.69,3.57-19.42,5.83-29.01,2.59-10.96,5.83-21.74,10.24-32.15,3.01-7.1,6.29-13.95,11.05-20.14,3.48-4.53,11.03-6.64,15.73-.78,3.46,4.33,5.68,9.32,8.61,13.91,7.87,12.33,12.35,26.23,18.05,39.56,1.34,3.14,2.91,6.18,4.32,9.3.84,1.87,1.72,3.74,2.32,5.69,1.76,5.81.34,8.85-5.1,11.61-5.67,2.88-11.87,4.3-17.75,6.61-15.06,5.91-29.16,13.35-41.6,23.77-2.49,2.08-4.42,4.74-7.21,6.53-4.85,3.11-7.6,1.79-8-4-.05-.68,0-1.37,0-2.65Z"/>
      <path class="cls-10" d="m288.68,797.32c.42-2.63,2.75-2.77,4.6-3.41,6.48-2.26,13.22-3.44,19.97-4.5,17.8-2.78,34.7.39,50.87,8.02,11.19,5.28,19.14,14.18,26.53,23.72.93,1.2,1.79,2.46,2.52,3.48,1.19.38,1.59-.27,1.91-.82,8.63-15.08,21.81-25.2,36.57-33.63,16.67-9.51,34.69-15.27,53.3-19.45,13.01-2.92,26.06-5.69,39.34-6.98,10.87-1.06,21.82-2.05,32.65.66,1.76.44,3.6.73,5.09,2.01-.83,1.68-2.18,1.04-3.21,1.01-6.69-.21-13.33.46-19.96,1.21-.86.1-1.7.22-2.38.8-4.29.07-8.48.83-12.63,1.82-27.94,5.11-55.97,9.93-81.59,23.21-9.45,4.9-18.58,10.3-26.37,17.66-6.27,5.92-11.77,12.43-15.21,20.46-.83,1.93-1.44,3.81-.63,5.94,4.79,12.6,3.15,25.27.32,37.93-.71,3.16-1.73,6.24-2.61,9.36-.3.2-.39.47-.28.82-.75.52-.92,1.29-.94,2.13-.79.46-.98,1.22-1.04,2.05-.79.41-1.02,1.16-1.14,1.96-.56.24-.76.69-.76,1.26-.79.38-1.11,1.06-1.23,1.88-.57.19-.81.62-.83,1.2-1.11.71-1.79,1.73-2.18,2.97-.58.15-.86.55-.92,1.13-1.47,1-2.54,2.34-3.27,3.96-.57.15-.86.53-.93,1.11-.58.14-.89.52-.95,1.1-3.45,3.4-6.9,6.8-10.35,10.2-1.24.37-2.28,1.03-3.05,2.09-.83.06-1.55.34-1.99,1.11-.84.01-1.61.19-2.11.96-1.13.03-2.23.15-3.06,1.05-.33.06-.66.12-.99.18-.8-.23-1.73.23-2.48-.47.25-1.54,1.79-1.83,2.71-2.72,12.53-12.1,23.73-25.14,28.98-42.21,1.61-5.24,2.32-10.67,2.85-16.14,1.06-10.81-1.36-20.71-6.98-29.92-9.19-15.07-21.44-26.09-38.39-32.35-19.68-7.28-39.13-6.71-58.92-1.52-.25-.17-.52-.27-.82-.3Z"/>
      <path class="cls-10" d="m567.41,483.45c-10.27,3.79-20.31,8.17-30.74,11.56-16.65,5.41-33.68,9.15-50.89,12.11-17.56,3.02-35.26,5.05-53.03,5.93-14.19.71-28.42.7-42.65-.3-9.39-.66-18.78-1.22-28.14-2.28-17.9-2.03-35.5-5.49-52.84-10.32-4.77-1.33-9.52-2.74-14.28-4.11-6.09-2.69-12.24-5.27-18.27-8.11-12.04-5.67-22.9-13.01-31.83-23.01-1.25-1.4-2.64-2.73-3.22-4.58-.56-1.8-.19-3.39,1.39-4.56,1.64-1.22,3.22-.87,4.7.3.53.42,1.02.92,1.45,1.45,10.39,12.74,24.35,20.31,39.07,26.64,22.48,9.67,46.1,15.08,70.34,17.97,3.9.46,7.75,1.44,11.73,1,7.6,1.36,15.31,1.7,22.99,1.95,24.13.79,48.24.25,72.29-2.02,1.69-.16,3.36-.58,5.04-.87,9.13.06,18.05-1.79,26.96-3.39,18.71-3.36,37.27-7.43,55.43-13.16,5.22-1.65,10.17-4.08,15.58-5.16,1.09-.57,2.07-.91,2.04.94-1.04.68-2.08,1.36-3.12,2.04Z"/>
      <path class="cls-10" d="m300.04,288.07c-6.15,7.38-18.41,6.12-23.98-2.61-4.57-7.17-6.01-15.22-5.52-23.57.31-5.3,1.71-10.46,4.03-15.28,5.78-12.04,18.31-12.93,26.01-1.93,3.77,5.4,5.05,11.51,5.44,17.9.12,1.87.07,3.76.09,5.64-.93,1.72-2.72,1.1-4.12,1.41-3.6.81-6.38,2.61-7.48,6.23-1.17,3.86.12,7.04,3.27,9.52.93.73,1.95,1.43,2.25,2.69Z"/>
      <path class="cls-2" d="m422.77,131.75c-6.16,0-10.45,0-14.73,0-1.03,0-2.07.07-3.08-.05-2.9-.34-5.23-1.93-4.96-3.58.4-2.41,2.1-3.96,4.39-4.49,2.47-.57,4.92-1.23,7.56-1.22,4.76.02,9.57.6,14.29-.85,2.57-.79,5,.88,7.58.91,23.5.29,46.38,4.76,69.08,10.36,7.96,1.96,15.77,4.49,23.36,7.64,2.9,1.2,5.39,2.94,7.46,5.31,2.12,2.43,2.42,4.01.92,5.86-1.73,2.13-3.79,2.01-5.97.79-3.76-2.09-7.81-3.46-11.83-4.92-11.89-4.31-24.07-7.47-36.53-9.7-7.03-1.26-14.07-2.52-21.13-3.6-3.53-.54-7.08-1.31-10.62-1.36-9.23-.14-18.38-2.11-25.77-1.1Z"/>
      <path class="cls-10" d="m510.99,288.02c-6.29,3.17-10.64,2.45-14.87-2.97-8.58-10.98-10-23.34-6.23-36.43,1.21-4.19,4.17-7.5,7.31-10.38,4.45-4.08,10.67-3.81,15.39.33,5.18,4.53,7.43,10.62,8.43,17.15.69,4.54,1.27,9.17.37,13.8-.85,1.11-2.1.85-3.25.99-7.82.92-11.39,7.57-7.88,14.69.44.9,1.1,1.73.72,2.83Z"/>
      <path class="cls-2" d="m746.45,72.59c-.01-12.43,2.46-23.89,6.59-35,1.31-3.54,3.23-6.84,6.06-9.42,2.77-2.53,6.27-1.61,7.43,1.66.48,1.35-.09,2.34-.61,3.39-4.07,8.33-7.11,16.97-8.52,26.18-1.22,8.01-1.08,16.1-.27,24.05.79,7.75,2.91,15.36,4.44,23.03.13.67.29,1.34.3,2.02.06,2.76-1.46,5.2-3.47,5.67-2.5.58-3.86-.28-5.47-3.44-1.74-3.41-2.05-7.19-2.83-10.84-1.96-9.17-3.71-18.36-3.67-27.29Z"/>
      <path class="cls-2" d="m627.93,778.91c3.03-.72,5.95.68,8.99,1.02,9.97,1.13,20.01,2.07,29.43,5.99,1.73.72,3.53,1.34,5.14,2.28,2.23,1.3,3.31,3.89,2.62,5.57-.8,1.93-2.98,2.93-5.66,2.38-2.67-.55-5.3-1.27-7.93-1.98-10.38-2.83-20.99-4.2-31.69-5.11-2.87-.24-5.69-.95-8.59-1.19-1.96-.16-4.08-1.06-4.29-3.68-.19-2.41,1.6-3.22,3.37-3.95,2.72-1.13,5.55-1.73,8.64-1.34Z"/>
      <path class="cls-2" d="m150.23,801.5c7.8.82,15.4,2.71,23.03,4.47,4.19.97,8.11,2.63,12.11,4.08,1.98.72,3.65,1.95,4.82,3.69,1.14,1.7,1.31,3.68-.08,5.23-1.25,1.4-3.02,2.56-5.03,1.59-11.69-5.63-24.51-6.99-36.92-9.92-.83-.2-1.61-.62-2.44-.77-2.39-.45-3.51-2.08-3.79-4.25-.19-1.48,2.61-3.84,4.69-4.09,1.18-.14,2.39-.03,3.59-.03Z"/>
      <path class="cls-11" d="m300.04,288.07c-.61-.31-1.24-.59-1.82-.94-4.44-2.68-6.31-6.62-5.31-11.15.95-4.3,4.7-7.4,9.63-7.83,1.18-.1,2.38.04,3.57.06,3.97,2.16,5.98,5.61,6.1,10.01.17,6.37-4.28,9.87-12.17,9.85Z"/>
      <path class="cls-11" d="m510.99,288.02c-4.26-4.8-4.88-7.8-2.53-12.3,2.97-5.69,5.87-7.08,12.94-6.21,3.57,2.55,5.77,5.84,4.75,10.36-.95,4.22-3.59,7.09-7.76,8.65-2.65.99-4.96.02-7.4-.5Z"/>
      <path class="cls-5" d="m388.03,123.6c1.06,0,2.63-.21,4.12.05,2.01.36,3.37,1.69,3.45,3.85.09,2.19-1.27,3.88-3.21,3.99-3.24.19-6.29,1.57-9.58,1.29-1.36-.12-2.7-.1-3.98-.73-1.46-.72-2.64-1.56-2.63-3.39,0-1.75.98-2.95,2.39-3.65,2.81-1.39,5.84-1.79,9.43-1.4Z"/>
      <path class="cls-8" d="m763.39,119.44c4.08.46,3.65,4.81,5.11,7.83,1.3,2.71-.46,4.08-2.1,5.59-.87.8-1.77.67-2.8.23-2.93-1.24-6.05-6.3-5.76-9.52.23-2.59,2.16-4.26,5.55-4.13Z"/>
      <path class="cls-8" d="m685.94,794.32c2.52.04,4.84,2.32,4.95,4.86.09,2.25-1.81,4.25-4.07,4.28-2.74.04-5.08-2-5.12-4.48-.05-2.66,1.81-4.7,4.25-4.66Z"/>
      <path class="cls-7" d="m570.53,481.41c-.46-.79-1.26-.84-2.04-.94,8.35-4.15,16.7-8.31,25.06-12.44.22-.11.61.16,1.81.52-7.96,5.77-16.32,9.46-24.84,12.86Z"/>
      <path class="cls-3" d="m515.93,121.61c5.38,2.02,10.75,4.05,16.14,6.05.93.34,1.3.99,1.35,1.91-6.73-1.72-13.22-4.12-19.53-7.01.75-.17,1.58-.17,2.04-.95Z"/>
      <path class="cls-1" d="m501.66,116.21c-.91.17-1.66-.09-2.24-.82.9-.16,1.68.03,2.24.82Z"/>
      <path class="cls-9" d="m290.72,125.52c-.37.58.53.22-.11.45-.11.04-.34.05-.34.03-.09-.36.1-.49.53-.4,0,0-.08-.08-.08-.08Z"/>
      <path class="cls-10" d="m403.2,337.46c-4.08,7.31-7.99,14.31-11.9,21.32-.83,1.49-1.45,3.13-2.82,4.25-1.6,1.31-3.4,1.68-5.25.68-2.02-1.08-3.03-2.88-2.5-5.13.38-1.64,1.13-3.24,1.94-4.73,2.21-4.06,4.59-8.02,6.79-12.09.79-1.46,1.98-2.82,1.91-4.69-3.25-1.05-6.54-1.92-9.68-3.17-3.63-1.45-6.36-3.92-7.63-7.82-2.68-8.25.2-14.18,8.41-16.96,3.75-1.27,7.69-2.23,11.58-2.06,8.38.36,16.78-.69,25.13.54,1.85.27,3.75.58,5.49,1.23,7.05,2.62,9.22,9.7,4.89,15.84-2.64,3.74-6.34,6.11-10.53,7.92-6.39,2.76-5.48,1.81-2.37,7.28,2.28,4.01,4.59,8,7.72,11.48,2.49,2.76,2.4,5.34.28,7.26-2.06,1.86-4.66,1.68-7.38-.69-2.74-2.39-4.65-5.44-6.55-8.52-2.39-3.88-4.28-8.09-7.53-11.94Z"/>
    </g>
  </g>
</svg>