<?xml version="1.0" encoding="UTF-8"?>
<svg id="Layer_2" data-name="Layer 2" xmlns="http://www.w3.org/2000/svg" viewBox="0 0 1572 2938.57">
  <defs>
    <style>
      .cls-1 {
        fill: #d18859;
      }

      .cls-2 {
        fill: #af917f;
      }

      .cls-3 {
        fill: #f9b587;
      }

      .cls-4 {
        fill: #f9b689;
      }

      .cls-5 {
        fill: #f9896a;
      }

      .cls-6 {
        fill: #604e41;
      }

      .cls-7 {
        fill: #6c5846;
      }

      .cls-8 {
        fill: #82807f;
      }

      .cls-9 {
        fill: #fbfaf9;
      }

      .cls-10 {
        fill: #765d52;
      }

      .cls-11 {
        fill: #715344;
      }

      .cls-12 {
        fill: #695243;
      }

      .cls-13 {
        fill: #ede8e3;
      }

      .cls-14 {
        fill: #383737;
      }

      .cls-15 {
        fill: #f9b688;
      }

      .cls-16 {
        fill: #f9a36a;
      }

      .cls-17 {
        fill: #3a3938;
      }

      .cls-18 {
        fill: #d9b9a7;
      }

      .cls-19 {
        fill: #dbc9b3;
      }

      .cls-20 {
        fill: #443f3c;
      }

      .cls-21 {
        fill: #383837;
      }

      .cls-22 {
        fill: #373737;
      }

      .cls-23 {
        fill: #84695b;
      }

      .cls-24 {
        fill: #383838;
      }

      .cls-25 {
        fill: #fdddc8;
      }

      .cls-26 {
        fill: #393837;
      }

      .cls-27 {
        fill: #5e5453;
      }

      .cls-28 {
        fill: #4b413c;
      }

      .cls-29 {
        fill: #6d5346;
      }

      .cls-30 {
        fill: #fafaf9;
      }
    </style>
  </defs>
  <g id="Layer_1-2" data-name="Layer 1">
    <g>
      <path class="cls-16" d="m1116.35,2122.92c-7.61,1.49-15.35,2.87-22.77-.1-3.74-1.5-6.77.81-10.15.42-.68-8.26,6.05-11.38,11.19-14.99,23.08-16.24,44.7-34.23,65.53-53.19,40.03-36.42,67.5-81.97,92.35-129.16,21.59-41,38.74-83.79,45.28-130.14,2.85-20.16,5.63-40.29,1.1-60.62-1.38-6.2-2.76-12.21-7.41-16.89-8.53-13.45-13.25-28.9-22.86-41.86-20.92-28.21-48.37-46.76-81.75-56.92-4.44-1.35-9.17-2.03-12.69-5.5-5.72-9.78-14.59-11.63-25.15-10.91-24.82,1.69-41.11,14.74-51.94,36.41-4.53,9.07-7.46,18.95-13.5,27.26-5.82,7.17-8.71,15.4-8.92,24.61-7.3,28.97-19.73,55.98-32,83.01-21.58,47.54-50.65,90.77-77.9,135.06-15.28,24.84-25.26,51.99-30.64,80.72-1.08,5.79-2.72,11.35-5.12,17.84,15.01-49.67,46.4-89.56,70.22-133.41,22.28-41.01,41.08-83.47,58.8-126.52,1.95-4.74,1.64-12.12,9.74-12.38,3.9,4.39,4,10.01,5.04,15.36,5.86,30.09,18.16,56.77,43.1,75.76,28.84,21.96,62.29,26.05,97.01,21.53,17.82-2.32,35.33-6.92,51.29-15.94,2.74-1.55,5.69-2.7,8.95-1.48,4.27,3.65,2.28,7.86.8,11.82-29.11,78.12-68.73,149.82-128.13,209.4-19.86,19.93-38.98,40.74-60.98,58.32-31.61,25.25-72.58,37.29-109.21,18.48-18.96-9.74-28.65-26.97-37.17-45.21-1.3-2.59.03-6.42-3.69-7.9-2.57-4.58-1.05-9.71-1.93-14.51-.86-4.68.17-10.01-4.36-13.51-2.98-2.34-3.29-6.17-5.17-9.13-49.16-50.07-66.68-111.98-68.67-180.2-1.71-58.72,10.2-114.34,35.21-167.18,16.32-34.47,38.2-65.49,61.99-95.19,5.53-6.9,10.94-13.89,16.54-21.85-5.5-.05-7.59,3.1-9.77,5.62-40.77,47.07-75.66,97.7-95.28,157.6-17.31,52.85-22.45,106.9-16.72,162.1.32,3.12.46,6.24.45,9.37,1.79,14.49-5.52,28.27-3.11,42.88,6.6,40.12,24.29,74.51,52.68,103.51,2.97,3.03,6.84,5.27,8.53,9.46-8.68,7.25-17.85,13.98-25.94,21.83-36.84,35.79-66.91,76.36-86.09,124.42-.85,2.14-1.09,4.62-3.17,6.14-34.84,53.29-54.21,112.1-62.74,174.88-7.63,56.14-11.43,112.69-18.77,168.85-9.32,71.33-27.7,139.47-67.73,200.41-17.86,27.19-40.37,49.59-67.42,67.56-14.65,9.74-29.28,19.5-43.49,29.9-17.7,12.96-30.4,29.07-35.3,50.78-.52,2.29-1.18,4.56-3.4,5.91-26.64-23.03-32.16-65.62-11.94-99.78,10.61-17.92,26.21-30.91,42.05-43.71,13.99-11.3,28.1-22.42,41.36-34.63,22.98-21.16,38.62-46.83,49.14-76.07,18.4-51.14,25.4-103.89,22.45-157.94-1.83-33.54-6.25-66.86-10.42-100.19-5.21-41.58-8.11-83.41-4.93-125.23,3.25-42.76,15.33-83.59,30.95-123.46,28.34-72.29,71.67-134.24,128.26-187.07,12-11.2,24.76-21.58,37.23-32.27,2.95-2.53,6.71-4.51,4.73-9.47-1.9-4.75-3.62-8.62-10.04-9.82-29.23-5.5-58.45-10.42-88.36-9.07-46.19-1.63-89.77,6.37-129.68,31.61-50.83,32.15-91.27,73.19-115.86,128.69-5.43,12.26-13.78,21.1-25.74,27.65-37.17,20.35-76.55,35.46-116,50.47-53.05,20.18-108.26,33.31-162.57,49.39-2.29.15-5.2,1.13-6.5-1.15-1.35-2.36.99-4.31,2.6-5.92,7.73-7.73,16.28-14.51,23.4-22.99,22.5-26.8,33.3-57.92,36.54-92.33,2.47-26.25-.51-51.42-11.97-75.39-6.75-14.11-16.11-25.79-29.47-34.22-2.99-1.89-7.65-3-6.82-8.28,39.71-9.17,77.7-23.63,116.09-37.01,28.25-9.84,40.35-29.29,43.33-57.74,3.87-36.91,9.43-73.62,18.65-109.67,15.83-61.88,39.63-120.24,75.43-173.43,35.83-53.23,82.9-94.38,137.11-127.85,11.29-6.97,22.96-13.33,34.46-19.98,36.69-10.9,75.08-9.42,112.46-15.36,45.43-7.22,85.85-23.73,115.79-60.5,2.19-2.69,4.41-5.65,8.59-5.21,3.82,4.27,1.46,8.87.66,13.35-6.58,36.56-11.94,73.16-6.74,110.45,3.74,26.84,12.6,51.59,29.91,72.73,18.41,22.49,46.61,30,74.02,20.3,2.58-.91,5.08-2.43,7.78-2.5,25.54-.73,43.57-15,59.98-32.59,12.78-13.69,26.93-26.05,38.74-40.73,5.08-6.32,10.68-12.49,18-16.56,3.59-.98,7.48-1.22,10.43-3.95,27.64-21.69,55.25-43.41,85.36-61.68,15.07-9.14,30.7-17.3,47.43-22.72,8.44-2.73,10.07-6.88,7.22-14.33,17.4-23.86,18.76-51.48,18.68-79.44-.33-108.37-12.64-215.19-42.43-319.61-15.09-52.88-35.72-103.45-67.38-148.91-25.88-37.16-56.85-67.63-103.05-77.96-2.66-.6-5.27-1.55-7.11-3.79-1.15-6.12,4.12-6.7,7.63-8.4,44.25-21.41,79.21-52.96,104.46-95.19,1.76-2.94,2.91-6.5,6.88-7.41,2.24.78,2.2,2.74,2.35,4.6.77-1.75,1.09-3.64,1.67-5.46,11.34-33.19,19.07-66.92,17.24-102.36-.61-11.78,3.49-23.16,4.53-34.86,4.7-52.95-4.65-103.47-25.39-152.18-10.36-24.33-25.8-45.54-40.58-67.16-1.76-2.57-3.46-5.19-5.26-7.71-1.68-2.05-3.84-3.71-5.43-6.31,1.34,2.7,3.56,4.22,5.2,6.25,33.28,45.24,53.83,95.97,64.18,150.84,14.78,78.32-1.87,149.66-48.83,214.09-13.43,18.42-29.04,34.73-45.57,50.25-2.42,2.35-4.59,4.9-5.78,8.14-3.99,7.29-10.2,12.71-16.26,18.01-11.69,10.22-23.71,20.01-31.07,34.15-23.82-1.96-47.19-.16-68.48,11.56-32.24,17.75-48.56,46.38-54.22,82.03-5.42,34.15-.52,67.86,3.45,101.67,6.16,52.42,13.97,104.61,13.25,157.72-.56,41.39-6.1,81.86-15.44,121.97-4.88,20.94-10.53,41.7-15.72,62.56-.67,6.28-4.45,10.8-8.94,14.67-13.61,11.77-27.33,23.43-42.86,32.7-37.77,22.53-80.55,17.33-111.99-13.33-30.47-29.72-47.17-65.62-49.25-108.2-.4-8.12-3.8-16.14-.96-24.38,2.36-4.55,7.78-6.77,9.17-12.06,9.97-12.45,20.47-24.54,26.23-39.81,2.7-7.16,4.74-14.11-.15-21.13.49-16.39,1.59-32.78.89-49.17-1.02-23.92-8.58-45.2-25.95-62.38-7.39-7.31-16.09-12.25-25.93-15.56-3.99-1.34-9.6-1.39-10.05-7.7,17.73-2.03,33.82,3.54,50.38,12.31,1.09-12.26,1.88-22.98,3.01-33.66,3.74-35.44,11.9-69.91,23.2-103.66,31.48.95,62.37-1.76,94.02-12.73-6.26-5.83-11.17-4.65-15.69-4.69-18.78-.17-37.57.03-56.35-.13-4.99-.04-10.3.76-14.41-3.34-1.91-2.88-5.15-3.4-8.05-4.37-85.44-28.7-142.44-86.24-172.65-170.7-2.54-7.11-6.45-9.85-13.49-10.26-39.96-2.32-76.13-16.42-110.13-36.56-17.49-10.36-34.11-22.11-49.11-35.96-3.16-2.91-6.21-5.97-9.05-9.19-13.84-15.64-14.64-27.47-2.22-44.06,34.66-46.27,76.59-84.41,127.6-112.01,22.84-12.36,47.15-21.07,73.12-23.62,10.64-1.05,17.27-5.5,21.13-15.11.84-2.08,2.63-3.78,3.99-5.66,19.02,9.36,35.39,22.63,52.06,35.42,5.64,4.33,11.62,7.93,18.58,9.54,12.12,2.79,19.99-4.94,17.46-17.19-1.56-7.55-6.38-13.33-11.56-18.64-15.98-16.4-31.79-33.08-53.51-42.23,3.45-7.27,9.4-12.52,14.71-18.29,13.31,11.95,25.85,24.72,39.37,36.47,8.3,7.21,16.53,14.38,26.66,18.89,6.41,2.85,13.1,4.01,18.59-1.45,5.56-5.54,6.1-12.53,3.02-19.58-7.04-16.13-20.14-27.73-31.27-40.73-7.82-9.15-16.62-17.53-26.47-24.65,6.91-8.21,15.18-14.88,24-20.89,11.46,6.79,16.76,19.11,25.37,28.48,9.78,10.64,19.5,21.33,30.52,30.64,10.56,8.92,23.4,11.13,28.69,5.03,8.25-9.52,1.56-18.27-2.89-26.77-12.11-23.13-24.2-46.27-34.59-70.24,3.03-14.48,5.67-29.05,9.16-43.42,12.57-51.86,30.89-101.58,56.27-148.62.56-1.03,1.08-2.08,1.66-3.1,12.68-22.63,26.5-27.4,50.65-17.42,16.61,6.87,29.95,17.94,41.79,31.35,33.2,37.59,58.67,79.91,77.96,126.02,2.73,6.52,6.44,9.45,13.43,10.89,29.34,6.03,56.5,17.87,82.37,32.78,2.73.9,3.72.09,2.69-2.72-12.92-16.11-26.61-31.47-42.8-44.43-.53-.92-1.17-1.77-1.91-2.54l.07.07c-.93-2.45.77-3.59,2.45-4.53,40.84-22.87,71.44-56.28,97.67-94.33,4.63-6.71,9.14-14.75,19.48-14.14,15.2,12.88,30.56,25.58,45.57,38.67,17.13,14.94,31.69,32.41,46.9,49.18,45.24,49.85,80.31,106.56,110.66,166.35,24.24,47.74,40.98,97.86,47.72,151.13,7.03,55.53,9.33,111.28,7.22,167.2-.28,7.39-1.47,14.75-2.24,22.12-1.58,3.38-.77,7.37-2.72,10.65-1.21,3.11-1.72,6.36-1.99,9.67-6.76,21.01-14.25,41.73-23.14,61.93-6.63,23.26-23.25,40.51-36.18,59.97-3.25,4.88-7.2,9.29-10.48,14.15-9.27,13.74-6.33,21.69,9.63,25.46,12.19,2.88,24.47,5.26,36.29,9.6,35.4,13,61.92,37.61,85.57,65.76,13.89,16.53,25.51,34.66,34.41,54.45.93,2.07.32,7.1,5.5,5.2,3.86,8.45,2.49,17.71,3.59,26.52,4.07,32.55,6.7,65.28,10.4,97.88,5.29,46.54,8.32,93.41,20.9,138.88,7.2,26.02,16.36,51.39,24.59,77.07,16.73,52.23,29.02,105.39,34.66,160.05,2.93,28.43,4.9,56.85,3.9,85.44-.11,3.1.27,6.3-1.59,9.11-7.27-14.38-2.12-28.87-1.69-37.96-15.6,66.39-45.19,133.48-74.55,200.66-21.63,49.5-44.65,98.32-74.84,143.28-39.71,59.13-87.31,111.09-142.73,156.02-46.89,38.02-96.6,71.81-148.4,102.65-3.73,2.22-7.83,3.48-11.59,5.55Z"/>
      <path class="cls-1" d="m491.13,2915.42c1.12-23.22,13.53-40.24,30.56-54.39,19.53-16.23,41.63-28.89,62.18-43.73,25.16-18.18,44.34-41.39,60.49-67.44,15.51-25.01,27.74-51.68,36.91-79.54,8.64-26.23,15.73-52.97,19.39-80.5,2.72-20.4,6.38-40.69,8.86-61.11,2.25-18.52,3.01-37.23,5.28-55.75,2.32-18.89,3.99-37.86,6.24-56.76,2.58-21.66,5.65-43.19,10.16-64.49,9.87-46.62,26.41-90.59,53.43-130.18,1.13-1.65,1.18-5.93,5.33-4.39-7.18,21.49-14.22,43-17.61,65.52-5.38,35.69-7.33,71.51-4.54,107.52,1.15,14.81,1.55,29.67,2.31,44.49,2.34,45.66,4.02,91.29-.69,137.03-4.38,42.46-10.83,84.42-21.73,125.69-4,15.14-8.72,30.07-14.96,44.39-14.21,32.61-28.54,65.23-46.63,95.91-16.76,28.43-36.18,55.2-62.67,75.29-34.88,26.45-73.26,33.79-114.56,15.48-6.77-3-13.29-6.71-17.75-13.02Z"/>
      <path class="cls-13" d="m179.52,1954.24c13.94,8.79,27.05,18.32,35.27,33.31,9.76,17.8,15,36.59,16.46,56.9,2.44,34.08-4.38,66.04-19.92,96.16-10.73,20.8-26.36,37.66-45.11,51.61,1.81,2.16,3.78,1.75,5.7,1.5,11.03-1.75,22.08-7.63,33.05.18-2.5,2.57-5.76,1.9-8.83,2.07-28.13,1.56-56.1-2.32-84.18-2.99-20.39-.49-41.01-4.82-59.9-13.85-25.73-12.3-45.74-29.92-50.68-59.7-2.78-16.76-1.5-33.68,4.88-49.49,13.55-33.57,38.03-57.76,68.86-75.53,18.93-10.92,38.86-20.18,59.55-27.33,14.68-5.07,29.88-8.61,44.85-12.84Z"/>
      <path class="cls-13" d="m625.98,970.01c2.53,2.8,6.26,3.06,9.5,4.06,30.58,9.47,46.27,32.09,53.08,61.55,5.33,23.07,3.8,46.53,0,69.8-.29,10.31-6.17,18.56-11.21,26.64-11.4,18.26-25.02,34.86-42.71,47.62-2.97,2.34-7.19,2.99-9.19,6.69-33.89,5.75-51.8,1.25-73.24-23.73-16.61-19.36-24.36-42.85-22.88-68.27,2.17-37.34,14.49-71,42.08-97.45,15.19-14.57,33.27-24.28,54.59-26.92Z"/>
      <path class="cls-1" d="m1116.35,2122.92c8.35-9.08,19.5-14.2,29.81-20.29,37.68-22.27,73.42-47.36,108-74.06,34.33-26.5,66.96-55.07,96.34-87.03,18.71-20.36,35.85-42.14,52.14-64.52,30.01-41.23,53.59-86.05,74.71-132.36,19.93-43.7,38.96-87.74,56.61-132.4,13.21-33.42,23.73-67.72,33.45-102.27.19-.66.69-1.23,2.74-1.87,0,14.87,0,29.73,0,44.6-.6,39.8-9.04,78.3-19.1,116.56-17.63,67.07-46.94,129.23-80.11,189.71-14.25,25.98-33.5,48.2-55.98,67.38-30.37,25.91-59.26,53.44-89.06,79.96-32.52,28.93-67.2,55.07-104.97,76.77-29.94,17.2-61.7,30.34-95.32,38.69-3.07.76-6.09,1.41-9.25,1.13Z"/>
      <path class="cls-13" d="m1120.99,46.26c-7.72,3.4-12.86,9.37-17.53,16.26-22.42,33.07-48.84,62.39-82.12,84.98-6.38,4.33-13.29,7.87-19.95,11.77-17.09-12.17-34.98-23.24-51.4-36.36-10.86-8.68-19.66-19.49-24.83-32.09-7.55-18.36-5.93-36.75,6.36-53.14,15.25-20.33,36.36-30.63,60.78-35.87,23.24-4.99,44.67,1.12,66,8.77,22.95,8.23,43.33,21.08,62.69,35.68Z"/>
      <path class="cls-1" d="m204.98,2193.9c-11.02-.06-22.03-.12-33.05-.18,12-6.73,25.24-10.41,38.32-13.7,59.51-14.97,117.6-34.16,174.19-57.71,24.11-10.03,48.34-20.04,70.73-33.82,6.93-4.27,11.84-9.9,15.3-17.19,10.4-21.9,22.1-42.94,36.74-62.48,13.26-17.69,28.84-32.77,45.82-46.54,21.3-17.26,44.5-31.54,69.31-43.36,17.59-8.38,36.4-11.48,55.25-13.9,12.32-1.58,25-.32,37.52-.33,2.37,0,4.71.09,6.49,2.02-44.22,4.28-82.29,22.53-116.72,50-41.31,32.96-68.21,75.72-87.24,124.17-2.71,6.91-5.48,13.79-8.27,20.67-4.19,10.35-11.52,17.34-21.95,21.46-43.96,17.35-87.89,34.75-133.65,47.01-26.02,6.98-52.05,13.89-78.79,17.64-23.23,3.25-46.66,4.27-70,6.24Z"/>
      <path class="cls-1" d="m1473.69,957.77c-.54,1.83.12,3.97-1.62,5.72-4.06-1.7-4.76-5.89-6.26-9.22-15.51-34.51-38.9-63.14-66.84-88.05-23.8-21.23-51.92-34.34-83.46-39.6-3.91-.65-7.67-1.63-11.3-2.91-10.45-3.68-13.79-12.43-8.12-22.38,3.65-6.4,8.51-12.12,12.79-18.16,9.69-13.68,19.27-27.45,29.09-41.05,4.2-5.81,5.31-12.77,7.96-19.16,7.92-4.88,8.34-14.29,12.81-21.27,5.16-8.05,7.43-17.73,13.85-25.12,33.78,39.16,53.95,85.54,70.39,133.76,15.41,45.22,23.62,92.09,30.23,139.26.38,2.7.32,5.45.46,8.18Z"/>
      <path class="cls-22" d="m939.64,2081.31c5.34,9.53,10.75,18.95,17.14,27.91,9.51,13.35,22.75,19.8,37.85,23.58,15.15,3.8,30.33,3.29,45.06-1.72,18.24-6.2,35.25-14.64,49.42-28.26,27.61-26.53,56.6-51.77,80.94-81.43,45.3-55.18,79.28-116.86,102.81-184.27.63-1.79.6-3.82.87-5.73-1.79-4.34-.13-8.48.92-12.58,7.42-28.82,12.52-57.94,12.21-87.84-.05-5.32-.53-11.21,5.54-14.35,7.13.46,7.05,6.63,8.14,11.15,3.96,16.47,4.17,33.21,2.65,50.05-5.26,58.37-26.93,111.24-54.68,161.95-16.32,29.82-33.8,59.04-55.8,85.14-25.32,30.03-54.94,55.42-86.58,78.57-8.11,5.93-16.97,11.08-22.72,19.75,0,0,.12-.13.12-.13-.98.88-1.92,1.82-3.17,2.34-20.57,13.52-42.62,22.76-67.58,24.22-26.4,1.55-46.07-9.66-60.5-31.08-6.8-10.1-12.41-20.81-14.77-32.93-.69-2.13-2.04-4.58,2.12-4.33Z"/>
      <path class="cls-1" d="m841.23,1347.9c-10.96,12.05-21.42,24.49-34.66,34.35-16.48,12.27-34.72,20.7-54.25,26.29-26.57,7.6-53.73,11.3-81.42,12.58-19.27.89-38.49,4.1-57.46,8.06-3.09.65-6.04,1.77-8.84-.62,30.23-17.08,61.32-32.52,92.42-47.95,18.94-9.39,37.05-20,52.45-34.72,10.75-2.58,21.77-.19,32.65-2.06,20.89-3.57,37.59-14.47,53.23-27.92,5.31-4.57,9.86-11.36,18.55-9.96-1.23,14.89-2.26,29.84-12.67,41.95Z"/>
      <path class="cls-5" d="m710.05,220.4c3.19,1.72,5.36,4.18,6.89,7.59,9.86,22.07,20.33,43.83,32.58,64.7,2.95,5.03,4.95,10.61,5.05,16.61.14,8.23-5.18,13.93-13.46,14.43-10.9.65-19.65-4.21-27.19-11.37-18.95-17.99-36.6-37.14-50.96-59.1,14.2-13.1,30.36-23.39,47.09-32.86Z"/>
      <path class="cls-24" d="m852.54,1305.43c-11.59,9.66-22.63,20.06-35.47,28.09-20.83,13.01-43.31,17.84-67.59,12.37-.96-3.58-4.39-2.67-6.72-3.44-29.35-9.69-52-27.76-67.62-54.38-19.73-33.64-30.61-69.66-27.55-109.04-5.13-1.97-8.36,2.31-12.47,2.61-2.39.73-2.98-.3-2.41-2.46,22.07-20.01,41.78-41.83,53.4-69.84.58-1.4,1.63-2.61,2.45-3.9,8.24,2.2,5.42,8.58,4.14,13.21-3.84,13.91-10.14,26.7-20.12,37.39-3.16,3.38-6.32,6.76-9.48,10.14-1.49,4.44-5.76,6.74-8.12,10.52-2.44,53.22,13.43,99.16,53.37,135.82,31.14,28.58,73.26,25.64,99.47,11.18,19.61-10.82,36.76-25.11,52.55-40.99,1.04-1.04,1.55-2.61,2.31-3.93.19-1.38.98-2.14,2.36-2.28,2.02.25,3.23,1.46,3.88,3.32-1.06,11.35-6.24,20.08-16.38,25.63Z"/>
      <path class="cls-5" d="m638.96,274.15c4.08-.02,7.43,1.29,10.5,4.25,16.35,15.72,31.68,32.41,45.08,50.65,5.11,6.96,9.8,15.09,5.89,24.99-4.09,10.35-12.79,14.59-23.45,10.67-8.93-3.28-17.07-8.37-23.69-14.81-12.33-11.98-26.3-22.15-37.9-34.91-2.69-2.97-4.6-6.28-6.34-9.78,8.68-11.6,18.98-21.63,29.91-31.06Z"/>
      <path class="cls-5" d="m594.33,323.5c8.24-.28,15.03,3.18,21.29,8.13,12.22,9.66,23.15,20.72,34.17,31.69,4.48,4.46,8.1,9.52,10.94,15,3.85,7.41,4.19,15.71-1.37,21.97-5.12,5.76-12.3,6.39-20.3,3.76-12.66-4.16-22.18-12.92-32.02-20.81-9.48-7.61-19.78-13.63-29.89-20.11-2.6-1.67-5.77-2.67-5.85-6.53,6.62-11.77,13.67-23.23,23.03-33.1Z"/>
      <path class="cls-1" d="m905.16,2064.74c-9.98-3.05-15.73-11.5-21.65-18.81-19.55-24.13-33.7-51.2-40.54-81.76-2.28-10.17-4.69-20.42-1.38-30.76,2.54-7.96,2.12-16.1,2.42-24.23,5.73.65,4.66,5.47,5.18,8.96,4.71,31.57,18.51,59.27,35.73,85.63,10.14,15.53,24.9,25.44,40.4,34.6,4.23,2.06,2.79,6.03,3.17,9.39-7.19,6.45-15.01,12.06-23.32,16.98Z"/>
      <path class="cls-1" d="m710.15,824.11c26.15,0,52.3-.07,78.46.06,4.76.02,11.52-1.88,12.33,5.28.75,6.57-5.9,7.3-10.53,8.85-15.55,5.2-31.77,7.19-47.93,9.1-7.68.91-15.43.86-23.17,2.1-5.66.9-12.77,2.81-16.73-4.51,1.31-7.4,4.65-14.07,7.57-20.89Z"/>
      <path class="cls-20" d="m1372.61,676.56c-4.4,16.5-13.22,30.91-21.64,45.49-1.03,1.78-2.71,4.27-5.02.9,8.13-21.04,16.25-42.08,24.38-63.11,4.41-.22,3.14,2.39,2.38,4.75.28,3.99-2.24,7.97-.09,11.97Z"/>
      <path class="cls-10" d="m1372.7,664.59c-.62-1.67-.55-3.69-2.38-4.75.83-3.15,1.65-6.3,2.48-9.45,2.11-.42,3.14.21,2.47,2.52-.4,4,.04,8.18-2.57,11.69Z"/>
      <path class="cls-8" d="m632.7,1179.17c.8.82,1.61,1.64,2.41,2.46-2.51,3.05-6.44,3.17-9.68,4.74-.97-.68-1.94-1.73-.7-2.58,2.52-1.74,5.3-3.1,7.97-4.62Z"/>
      <path class="cls-2" d="m1375.27,652.9c-.83-.84-1.65-1.68-2.47-2.51,1.52-3.09,1.23-6.94,4.03-9.47.35,4.11,1.09,8.27-1.56,11.99Z"/>
      <path class="cls-23" d="m939.64,2081.31c-.71,1.45-1.41,2.89-2.12,4.34-2.77-2.77-2.17-6.48-2.75-9.86,4.7-.87,3.85,3.15,4.87,5.53Z"/>
      <path class="cls-25" d="m1046.03,206.16c.91.71,2,1.28,2.67,2.16.65.86,1.5,2.41,1.15,3.02-1.17,2.05-2.69.3-3.91-.25-1-.45-1.74-1.46-2.6-2.22.9-.91,1.79-1.81,2.69-2.72Z"/>
      <path class="cls-16" d="m1080.38,2125.44c.54-1.49,1.51-2.37,3.17-2.34-.3,1.81-1.52,2.36-3.17,2.34Z"/>
      <path class="cls-13" d="m1001.32,159.19c.64.85,1.27,1.69,1.91,2.54-.64-.85-1.27-1.69-1.91-2.54Z"/>
      <path class="cls-13" d="m852.54,1305.43c4.91-8.45,13.1-14.91,15.25-25.05.53-1.31.25-2.65.16-3.9-.01.08-.69-.58-.69-.58,0,0-.87.4-.86.4-.46.45-.99.81-1.57,1.08-.72.46-1.43.92-2.15,1.38-.23-3.94.48-7.68,1.54-11.52,9.38-33.83,18.25-67.8,23.59-102.53,6.67-43.39,7.21-86.97,3.64-130.75-2.57-31.5-6.77-62.78-10.41-94.13-3.29-28.29-7.68-56.46-6.47-85.05,1.15-27.3,6.61-53.27,22.92-76.19,16-22.48,37.38-35.95,64.2-41.5,14.74-3.05,29.42-2.78,44.18-.56,2.54-1.55,4.88-1.38,7,.8,10.71,4.66,22.33,6.44,33.14,11.02,14.97,6.34,28.16,15.05,40.31,25.63,23.6,20.56,41.05,45.84,56.62,72.68,28.49,49.1,46.23,102.29,60.18,156.93,9.95,38.95,16.28,78.58,21.56,118.4,4.51,34.03,7.44,68.16,9.85,102.41,1.95,27.75,1.53,55.42,1.35,83.13-.06,8.92-1.45,17.88-2.82,26.73-2.2,14.26-8.26,26.76-18.42,37.15-1.33,2.69-3.84,3.79-6.48,4.6-40.19,12.35-72.13,37.98-103.78,64.17-10.25,8.48-19.79,17.58-28.5,27.58-3,1.23-4.43,5.1-8.27,4.93-8.82,5.35-15.4,13.22-22.02,20.79-15.97,18.29-33.11,35.43-50.82,51.93-11.87,11.07-25.9,18.79-43.05,18.52-2.25-.04-4.68.61-6.77,1.53-34.05,15.07-70.72,2.33-90.17-29.9-12.66-20.99-20.52-43.51-23.03-68.16-3.99-39.34.79-77.79,9.42-116.02.25-1.11.04-2.33.05-3.5,4.77-13.89,8.02-28.19,11.31-42.48Z"/>
      <path class="cls-13" d="m1018.09,492.13c-1,27.27-11,51.75-24.26,74.98-8.92,15.64-19.87,30.18-32.14,43.18-28.57,30.27-61.66,54.12-102.91,64.29-29.39,7.24-58.25,4.39-86.04-7.21-37.1-15.5-58.78-49.82-52.06-94.56,3.84-25.58,12.9-48.93,23.01-72.21,3.93-9.04,9.58-17.08,15.86-24.56,30.58-36.38,66.1-65.7,114.1-75.43,25.77-5.22,51.34-2.28,76.05,6.85,12.87,4.75,24.99,10.82,36.13,19.08,22.14,16.42,32.72,38.13,32.26,65.58Z"/>
      <path class="cls-13" d="m1292.42,1716.62c-2.41,6.36-2.12,13.06-2.22,19.66-.41,27.84-4.68,55.12-11.79,81.98-1.19,4.49-1.91,9.19-4.67,13.13-19.37,10.42-39.85,18.13-61.71,20.31-41.4,4.14-80.35-1.42-110.71-33.83-17.59-18.78-26.99-41.64-31.85-66.58-1.04-5.34-1.83-10.74-2.73-16.11-2.67-3.19-1.79-6.73-.61-10.02,9.38-26.1,17.24-52.75,30.68-77.33,15.27-27.94,40.46-36.13,69.67-37.42,3.2-.14,6.2.72,8.74,2.82,23.46,5.4,44.75,15.12,64.31,29.47,24.16,17.73,39.96,41.11,50.76,68.47.72,1.81,1.41,3.63,2.12,5.45Z"/>
      <path class="cls-1" d="m523.72,610.33c-8.96-1.04-20.17-4.74-31.24-8.13-33.73-10.34-65.47-25.15-95.16-44.44-16.38-10.65-18.11-28.5-4.51-42.66,7.93-8.25,17.26-14.63,26.31-21.37,20.47-15.24,42.4-27.95,66.7-36.12,14.15-4.76,19.32-1.76,21.86,13.16,4.38,25.8,10.22,51.21,19.29,75.79,4.32,11.71,9.02,23.29,13.57,34.92.71,1.82,1.64,3.56,2.31,5.39,5.46,15.07-.54,23.66-19.14,23.46Z"/>
      <path class="cls-1" d="m896.95,188.08c-13.17-4.97-27.18-1.19-40.54-4.52-2.98-.74-6.23-.88-9.31-.65-14.89,1.08-29.42-3.09-44.33-2.7-9.37.25-14.53-9.48-12.48-21.03,2.17-12.23,4.25-24.48,6.62-36.68,2.98-15.26,6.22-30.46,9.35-45.69.24-1.14.5-2.28.78-3.42,5.46-21.9,19.11-21.23,32.36-8.7,26.95,25.48,53.06,51.84,74.91,81.99,3.4,4.69,6.15,10.05,8.21,15.48,4.4,11.61.02,19.61-11.67,23.72-4.62,1.63-9.2,1.46-13.92,2.19Z"/>
      <path class="cls-22" d="m925.31,2038.37c-11.16-1.06-19.45-7.68-27.31-14.69-8.81-7.85-15.53-17.46-21.62-27.54-15.48-25.63-27.9-52.35-30.62-82.71-.13-1.46-1.15-2.84-1.75-4.25-2.2-20.23-3.11-40.49-2.74-60.86,1.28-70.54,21.26-135.43,58.29-195.25,16.51-26.67,35.96-51.15,56.3-74.94,3.04-3.55,6.17-7.16,10.59-9.1,2.59-1.14,5.72-1.74,7.46.94,1.45,2.24-.7,4.32-2.14,6.18-12.68,16.38-25.57,32.6-37.97,49.2-40.84,54.66-66.82,115.33-74.04,183.6-4.99,47.19-2.53,93.7,12.34,139.05,7.46,22.76,19.33,43.56,30.84,64.42,4.15,7.52,11.38,12.8,17.82,18.49,2.3,2.04,5.35,3.56,4.57,7.46Z"/>
      <path class="cls-4" d="m368.9,1863.76c1.8-15.03,2.98-30.17,5.52-45.07,5.25-30.7,12.42-60.95,22.79-90.42,15-42.62,35.19-82.39,63.23-117.98,4.81-6.11,9.36-12.43,14.18-18.53,3.92-4.96,8.91-8.73,14.34-11.9,4.01-2.34,8.45-2.95,11.97.3,3.89,3.59,2.35,7.64-.46,11.5-9.86,13.52-19.7,27.06-29.36,40.73-15.55,22.01-28.9,45.19-39.7,70.01-11.87,27.29-21.15,55.29-27.76,84.23-5.45,23.85-9.11,48.04-13.21,72.15-.98,5.74-1.69,11.6-3.45,17.1-1.52,4.76-4.03,10.26-10.28,9.37-5.52-.78-6.45-6.31-7.17-10.9-.54-3.43-.11-7.02-.11-10.54-.18-.02-.36-.03-.54-.05Z"/>
      <path class="cls-4" d="m1306.55,419.2c0,3.52.06,7.04-.02,10.55-.06,2.49-1.02,4.73-3.41,5.66-2.65,1.04-4.7-.77-5.9-2.7-2.47-3.96-4.73-8.09-6.62-12.35-8.77-19.74-12.02-41.01-16.71-61.85-4.55-20.23-10.87-39.81-19.16-58.79-14.27-32.65-32.71-62.93-53.14-91.97-10.74-15.26-21.09-30.86-33.4-44.98-2.55-2.92-4.65-6.27-6.64-9.61-1.78-2.98-3.67-6.01-.25-9.47,3.05-3.08,5.71-1.45,8.43,0,6.92,3.67,13.62,7.75,18.72,13.83,24.07,28.7,45.69,59.08,64.58,91.51,18.01,30.91,31.81,63.44,40.48,98.06,4.91,19.58,8.71,39.44,12.65,59.25.82,4.13.12,8.57.12,12.86.09,0,.18,0,.27,0Z"/>
      <path class="cls-14" d="m1175.23,1613.23c-11-.66-21.68,1.83-32.44,3.45-14.6,2.2-25.98,9.85-35.16,21.16-6.18,7.61-11.33,15.86-15.13,24.87-9.97,23.66-18.69,47.77-25.75,72.47-8.75,20.86-17.46,41.75-26.26,62.59-18.92,44.79-43.13,86.79-67.9,128.49-15.78,26.56-31.94,52.91-42.04,82.36-.19.54-.92.9-1.73,1.64,1.2-26.5,9.15-50.9,19.19-74.77,8.08-19.2,19.07-36.76,30.5-54.06,37.87-57.33,69.52-117.78,91.63-183.01.74-2.19,1.14-4.49,1.7-6.75,2.15-9.33,4.9-18.44,10.05-26.64,5.2-10.45,9.57-21.28,15.19-31.56,11.71-21.41,29.45-32.61,53.77-33.69,5.97-.26,11.7.67,17.2,2.81,4.72,1.83,7.99,4.93,7.19,10.64Z"/>
      <path class="cls-4" d="m1435.78,1145.75c.11-8.57-.65-17.21,2.35-25.5.65-1.8,1.02-3.82,2.09-5.35,1.84-2.62,4.28-4.79,7.89-3.56,2.98,1.02,4.16,3.6,4.05,6.48-.37,9.79,1.83,19.38,2.25,29.04,1.29,30.33,9.11,59.06,19.6,87.25,10.2,27.38,20.29,54.8,30.71,82.09,3.92,10.27,5.35,21.09,8.17,31.6.71,2.65.89,5.48-.3,8.06-1.16,2.52-2.85,4.83-5.81,5.27-2.82.42-4.15-1.81-5.21-3.91-5.24-10.43-11.27-20.58-15.42-31.43-12.25-32.02-24.52-64.07-35.3-96.6-8.93-26.96-15.21-54.71-15.07-83.44Z"/>
      <path class="cls-1" d="m1012.86,737.32c-2.33-.27-4.66-.53-6.99-.8-2.48-3.59-2.93-7.04.56-10.33,5.03-4.76,9.71-9.94,15.1-14.25,9.95-7.96,18.94-16.79,26.9-26.72,1.68-3.07,4.94-4.52,7.19-7,33.91-28.17,57.99-63.71,77.29-102.85,2.24-4.54,4.24-9.23,6.91-13.53,1.57-2.53,3.07-6.52,6.74-5.09,3.28,1.28,2.74,5.23,2.31,8.34-3,21.6-6.69,43.06-13.05,63.99-1.04.95-2.09.97-3.15.04-7.18,9.68-11.54,21.07-19.34,30.44-27.78,33.35-59.11,62-100.46,77.77Z"/>
      <path class="cls-26" d="m1134.69,628.71c1.42-15.59,5.92-30.61,8.43-45.99,1.31-8.04,2.48-16.11,3.93-25.56-4.82,3.57-5.66,7.88-7.38,11.53-17.22,36.72-38.92,70.33-68.01,98.89-5.03,4.94-10.23,9.61-16.16,13.46-2.54.73-3.21-.4-2.7-2.71,20.74-20.23,40.41-41.33,55.82-66.09,19.57-31.45,35.24-64.46,40.76-101.49,6.2-41.58,2.75-82.57-8.11-123.08-11.02-41.12-28.11-79.47-51.84-114.84-2.17-3.24-4.15-6.61-6.22-9.92-.56-2.38.4-3.23,2.72-2.68,27.07,31.47,47.76,66.55,60.65,106.17,10.12,31.11,15.23,63.06,15.9,95.65.35,17.19-1.31,34.38-4.93,51.26-1.25,5.82-1.67,11.55-1.43,17.44,1.44,34.96-5.26,68.39-19.04,100.47-2.19.5-3.21-.11-2.4-2.49Z"/>
      <path class="cls-4" d="m758.17,1305.84c-25.22-2.3-45.11-13.3-57.76-35.89-3.43-6.12-6.34-12.53-9.48-18.81-.52-1.05-1.21-2.1-1.38-3.22-.76-4.93-2.54-10.26,2.58-13.94,3.82-2.74,9.12-.67,13.67,5.62,5.25,7.25,10.01,14.84,15.03,22.26,11.28,16.66,26.59,24.11,46.81,20.59,3.02-.53,6.27-.42,9.32.02,3.49.5,7.05,1.66,7.92,5.79.87,4.09,0,7.9-3.56,10.46-6.86,4.92-14.56,7.29-23.15,7.13Z"/>
      <path class="cls-21" d="m706.92,509.56c1.2,10.88-2.51,19.45-12.71,23.97-10.16,4.51-19.17,1.27-26.77-6.15-9.41-9.2-14.29-20.43-13.79-33.69.33-8.82,3.83-16.04,12.32-19.71,8.3-3.58,16.14-1.77,23.18,3.45,3.76,2.79,7.13,6.12,9.35,10.39-2.46,5.36-10.7,8.13-7.92,15.7,2.9,7.88,11.07,3.45,16.34,6.03Z"/>
      <path class="cls-21" d="m971.22,344.41c1.68,8.08-2.61,14.79-10.89,16.53-4.63.97-9.26.56-13.75-1.3-15.27-6.31-23.12-18.33-24.62-34.13-1.5-15.84,12.56-25.59,27.18-19.39,7.28,3.09,13.54,7.7,17.26,15.05-.16.35-.25.76-.49,1.05-11.44,13.71-11.09,15.17,5.33,22.19Z"/>
      <path class="cls-17" d="m1073.8,1467.08c3.94-6.36,9.42-11.42,14.86-16.33,31.82-28.72,64.32-56.5,104.96-72.5,6.89-2.71,13.77-5.31,21.03-6.83,1.68.97,3.58,1.7,5.01,2.96,3.17,2.81,2.31,5.6-.94,7.57-1.96,1.19-4.31,1.75-6.51,2.55-26.19,9.53-50.75,22.25-73.31,38.56-21.81,15.77-43.17,32.16-64.72,48.28-1.09-1.34-1.21-2.75-.37-4.26Z"/>
      <path class="cls-15" d="m859.54,232.12c-5.01-.24-10.14.76-14.87-1.95-2.44-1.4-4.88-2.71-5.1-5.84-.26-3.61,2.07-6.24,4.9-7.3,4.68-1.74,9.67-3.14,14.62-3.5,7.75-.57,15.58-.12,23.38-.18,2.83-.02,5.34.87,7.82,2.09,2.55,1.25,4.89,2.8,4.91,5.94.02,3.78-2.64,5.26-5.89,6.17-9.74,2.74-19.53,5.09-29.76,4.57Z"/>
      <path class="cls-9" d="m706.92,509.56c-10.46,4.18-16.73,2.92-19.69-3.95-3.05-7.08,1.08-13.6,11.27-17.78,11.53,5.91,12.83,9.27,8.42,21.73Z"/>
      <path class="cls-30" d="m971.22,344.41c-2.95,1.12-5.97,1.5-9.02.6-6.78-2-9.68-9.16-6.41-15.72,2.21-4.43,5.9-6.93,10.6-8.12,13.69,5.83,15.05,12.41,4.83,23.24Z"/>
      <path class="cls-28" d="m735.83,1037.86c-12.89-14.68-28.19-26.62-45.33-37.93,5.43-3.9,8.61-1.01,11.48.9,14.09,9.35,26.83,20.19,36.42,34.34.74,2.42-.37,3.08-2.57,2.69Z"/>
      <path class="cls-3" d="m1312.44,477.55c0,4.15-4.14,8.24-8.14,8.1-4.24-.15-4.74-3.05-4.66-6.37.11-4.49,2.16-7.22,6.88-7.38,3.9-.13,5.17,2.55,5.92,5.65Z"/>
      <path class="cls-12" d="m735.83,1037.86c.86-.9,1.72-1.8,2.57-2.69,6.4,6.24,10.35,13.94,13.27,22.4-4.38-1.77-5.85-6.14-8.49-9.38-2.66-3.27-4.92-6.87-7.36-10.32Z"/>
      <path class="cls-18" d="m1081.88,1665.03c-2.77,9.1-5.54,18.19-10.05,26.64.13-10.09,2.17-19.47,10.05-26.64Z"/>
      <path class="cls-11" d="m1085.95,260.21c-.91.89-1.82,1.79-2.72,2.68-4.05-3.05-6.38-7.35-8.45-12.06,5.09,1.5,8.52,4.95,11.17,9.38Z"/>
      <path class="cls-19" d="m654.98,1176.68c-.64-6.08,4.94-7.37,8.11-10.52-.17,5.46-3.43,8.54-8.11,10.52Z"/>
      <path class="cls-29" d="m1073.8,1467.08c.12,1.42.25,2.83.37,4.25-1.81,2.23-3.48,5.2-6.55,1.37,2.02-1.93,3.43-4.52,6.18-5.63Z"/>
      <path class="cls-6" d="m1052.81,678.32c.9.9,1.8,1.81,2.69,2.71-1.67,2.56-4.51,3.17-7.09,4.2-.68-3.67,1.36-5.61,4.4-6.91Z"/>
      <path class="cls-7" d="m1134.69,628.71c.8.83,1.6,1.66,2.4,2.49-.38,1.85-1.11,4.36-3.11,3.71-2.53-.82-.9-3.8-1.32-5.79.68-.11,1.36-.24,2.03-.41Z"/>
      <path class="cls-27" d="m866.45,1273.39c1.2-1.1,2.66-3.55,3.5.03.58,2.5.1,5.12-2.16,6.96-.99-1-1.97-2-2.96-3,.24-.97.47-1.94.71-2.91.3-.36.61-.72.91-1.08Z"/>
      <path class="cls-16" d="m866.45,1273.39c.09.7-.21,1.07-.92,1.08-.05-.67.26-1.03.92-1.08Z"/>
      <path class="cls-22" d="m870.41,548.94c0,8.18.09,14.81-.03,21.44-.06,3.51-.25,7.05-.8,10.51-.73,4.61-3.11,8.14-8.18,8.56-5.18.44-7.92-2.84-9.24-7.31-.76-2.58-.99-5.35-1.24-8.06-.42-4.67-.86-9.36-.92-14.04-.08-6.23-1.88-9.53-9.14-10.5-11.49-1.53-17.3-10.36-16.3-21.83,1.49-17.03,21.19-34.19,38.28-33.36,11.81.57,19.28,9.81,17.05,21.59-.85,4.51-2.7,8.83-4.28,13.83,9.48,2.89,17.98,7.64,26.33,12.67,1.99,1.2,4,2.49,5.68,4.08,2.84,2.69,3.23,6.15,2.02,9.74-1.32,3.89-4.56,5.17-8.26,5.42-4.44.3-8.44-1.37-12.31-3.3-5.87-2.92-11.71-5.93-18.66-9.45Z"/>
    </g>
  </g>
</svg>