<?xml version="1.0" encoding="UTF-8"?>
<svg id="Calque_2" data-name="Calque 2" xmlns="http://www.w3.org/2000/svg" viewBox="0 0 69.63 58.16">
  <defs>
    <style>
      .cls-1 {
        fill: #c71625;
      }

      .cls-2 {
        fill: #e42235;
      }

      .cls-3 {
        fill: #e73a4c;
      }
    </style>
  </defs>
  <g id="Layer_1" data-name="Layer 1">
    <g>
      <path class="cls-2" d="m34.82,9.32C20.37-7.74,0,.8,0,17.43s14.84,29.88,34.82,40.74c20.76-11.59,34.82-24.79,34.82-40.74S49.26-7.74,34.82,9.32Z"/>
      <path class="cls-1" d="m61.07,2.21c2.13,2.87,3.39,6.51,3.39,10.66,0,15.95-14.05,29.15-34.82,40.74-6.32-3.44-12.13-7.18-17.11-11.2,5.94,5.77,13.63,11.06,22.28,15.76,20.76-11.59,34.82-24.79,34.82-40.74,0-6.86-3.47-12.34-8.56-15.22Z"/>
      <path class="cls-3" d="m16.23,2.82S-4.46,8.53,6.35,25.87c7.91,12.67,1.67-15.73,9.88-23.05Z"/>
    </g>
  </g>
</svg>